<svg width="138" height="154" viewBox="0 0 138 154" fill="none" xmlns="http://www.w3.org/2000/svg">
<path d="M120.978 32.5846C119.786 31.9866 119.291 31.8259 117.931 31.9137C113.859 33.8135 110.957 36.7683 107.945 40.0228C107.58 40.4148 107.58 40.4148 107.207 40.8146C99.4387 49.2668 93.3222 59.1905 87.0111 68.7438C87.0555 68.4405 87.0999 68.1373 87.1456 67.8249C88.646 57.5083 89.7572 47.7353 88.2631 37.3649C88.128 36.0802 87.9969 34.7953 87.873 33.5095C87.8159 33.238 87.7587 32.9666 87.6998 32.6869C87.4305 32.5314 87.1613 32.3759 86.8838 32.2157C86.9255 31.5216 86.9672 30.8275 87.0102 30.1123C86.7409 29.9568 86.4716 29.8014 86.1942 29.6412C86.3421 28.9186 86.3421 28.9186 86.4929 28.1814C86.049 26.9793 85.5799 25.8485 85.0404 24.6903C84.8882 24.3605 84.736 24.0306 84.5792 23.6908C81.9554 18.1658 77.9172 12.5047 71.9921 10.2515C67.2561 8.98957 63.9978 9.84395 59.7996 12.2259C59.3272 12.4806 58.8548 12.7353 58.368 12.9977C56.6544 14.3759 55.5787 15.9709 54.3979 17.8128C54.1423 18.1948 53.8868 18.5767 53.6234 18.9703C49.7537 25.1457 47.2336 32.5141 46.1176 39.6929C45.964 40.4979 45.806 41.3022 45.6428 42.1053C45.5794 42.4327 45.5159 42.76 45.4505 43.0973C44.9579 45.192 44.1574 46.9907 43.1261 48.8753C42.8641 49.3583 42.6021 49.8413 42.3322 50.3389C42.0554 50.8487 41.7785 51.3585 41.4933 51.8837C40.4078 53.9213 39.3314 55.9635 38.2624 58.0098C38.0738 58.3708 37.8852 58.7317 37.6909 59.1036C34.9992 64.3846 33.9024 70.3176 35.2987 76.1583C35.5703 76.9712 35.8659 77.7765 36.1826 78.573C36.3604 79.0291 36.5381 79.4852 36.7213 79.9552C38.3443 83.8328 40.4387 87.4054 42.6134 90.9913C41.8232 90.7729 41.8232 90.7729 41.0172 90.5501C31.7802 88.0834 31.7802 88.0834 27.7928 90.2263C21.3824 94.1953 18.2343 100.314 16.3011 107.491C15.2067 112.329 16.0613 116.622 18.6262 120.955C21.6631 124.904 26.0403 127.252 30.9134 128.096C34.2844 128.259 37.5665 127.578 40.873 126.985C41.3303 126.941 41.7876 126.897 42.2588 126.852C42.7305 126.778 42.7305 126.778 43.2118 126.703C43.3673 126.434 43.5228 126.165 43.683 125.887C43.9696 125.928 44.2561 125.968 44.5513 126.01C49.3022 126.022 54.7389 122.634 58.0795 119.44C60.9954 116.489 63.6592 113.367 65.9622 109.913C66.3774 110.068 66.3774 110.068 66.8009 110.227C67.8299 110.447 67.8299 110.447 69.3527 109.694C70.1542 108.546 70.1542 108.546 71.0343 107.039C71.3766 106.462 71.7191 105.886 72.0619 105.31C72.2442 105.001 72.4265 104.692 72.6143 104.374C76.5638 97.7014 80.8219 91.2643 85.2361 84.8921C85.5079 84.4979 85.7796 84.1038 86.0596 83.6977C88.9719 79.4799 91.9497 75.3249 95.0842 71.2688C95.3415 70.9357 95.5989 70.6027 95.864 70.2596C101.668 62.8347 108.498 56.442 116.542 51.5156C116.499 52.018 116.456 52.5205 116.411 53.0382C116.353 54.6707 116.353 54.6707 116.933 55.5499C119.309 57.2037 121.096 57.9215 123.996 57.4511C127.912 56.063 131.313 53.0162 133.244 49.3539C133.854 47.6797 133.787 46.2841 133.638 44.5189C131.051 42.7294 129.318 42.1479 126.168 42.3821C126.012 42.6515 125.857 42.9208 125.697 43.1983C125.427 43.0428 125.158 42.8873 124.881 42.7271C124.725 42.9965 124.57 43.2658 124.409 43.5433C124.14 43.3878 123.871 43.2323 123.593 43.0721C122.091 43.5378 120.682 44.2547 119.26 44.9233C118.843 45.1166 118.426 45.3098 117.996 45.5088C108.793 50.0201 101.443 57.4802 94.6252 64.9783C98.7213 58.7471 102.837 52.6327 107.607 46.8927C108.514 45.7909 109.39 44.6661 110.267 43.5396C110.614 43.7738 110.962 44.008 111.319 44.2492C112.982 45.0879 113.634 45.2894 115.462 44.9067C119.012 43.0035 121.258 39.7357 122.748 36.0552C122.81 34.0335 122.661 33.8636 120.978 32.5846Z" fill="#F3BBB9"/>
<path d="M58.4489 13.622C56.3227 14.1919 55.5638 16.0306 54.3976 17.8122C54.1403 18.196 53.8829 18.5797 53.6178 18.9751C49.7549 25.154 47.2333 32.5135 46.1173 39.6923C45.9636 40.4973 45.8057 41.3015 45.6425 42.1047C45.579 42.432 45.5155 42.7594 45.4501 43.0967C44.9576 45.1914 44.1571 46.99 43.1257 48.8747C42.8638 49.3577 42.6018 49.8407 42.3319 50.3383C42.055 50.8481 41.7782 51.3579 41.493 51.8831C40.4075 53.9207 39.3311 55.9629 38.2621 58.0092C38.0735 58.3702 37.8849 58.7311 37.6906 59.103C34.9989 64.384 33.9021 70.317 35.2983 76.1576C35.5699 76.9706 35.8655 77.7759 36.1823 78.5723C36.36 79.0285 36.5378 79.4846 36.7209 79.9545C38.344 83.8322 40.4384 87.4047 42.613 90.9907C41.8229 90.7723 41.8229 90.7723 41.0168 90.5495C31.7799 88.0828 31.7799 88.0828 27.7924 90.2257C21.3821 94.1947 18.234 100.313 16.3007 107.491C15.2064 112.329 16.0609 116.622 18.6259 120.954C21.6628 124.903 26.04 127.252 30.913 128.095C34.2841 128.259 37.5662 127.578 40.8726 126.985C41.3299 126.941 41.7873 126.897 42.2584 126.852C42.5729 126.802 42.8874 126.753 43.2115 126.703C43.367 126.433 43.5225 126.164 43.6827 125.886C43.9692 125.927 44.2558 125.968 44.551 126.009C49.2955 126.021 54.7896 122.633 58.0982 119.406C59.6546 117.8 61.1447 116.139 62.6051 114.445C63.0967 113.875 63.5977 113.313 64.1009 112.753C65.07 111.617 65.7622 110.426 66.4331 109.096C66.2624 108.459 66.2624 108.459 66.0883 107.809C66.4802 106.979 66.4802 106.979 67.0091 106.096C67.9978 103.892 67.7757 102.473 67.0361 100.212C65.0489 95.4917 62.2575 91.2279 59.4198 86.9863C55.3794 80.9391 51.6309 73.9799 52.9506 66.4896C53.2856 65.3396 53.6412 64.1953 54.0143 63.0571C55.9927 56.5369 55.733 50.2761 54.7487 43.5875C53.2946 32.9285 55.471 25.2625 60.4257 15.8516C59.7734 15.1158 59.121 14.38 58.4489 13.622Z" fill="#ED9B98"/>
<path d="M120.978 32.5846C119.786 31.9866 119.291 31.8259 117.931 31.9137C113.859 33.8135 110.957 36.7683 107.945 40.0228C107.58 40.4148 107.58 40.4148 107.207 40.8146C103.076 45.3099 99.5423 50.1925 96.0828 55.21C95.8806 55.5031 95.6783 55.7962 95.4698 56.0983C94.238 57.8891 93.0227 59.6903 91.82 61.5009C91.3984 62.1349 90.9748 62.7676 90.5495 63.3991C86.1178 69.9962 82.4007 76.9586 78.6857 83.9726C77.4154 86.3697 76.1398 88.7639 74.8627 91.1574C74.5532 91.738 74.2441 92.3189 73.9355 92.8999C71.7788 96.9595 69.5535 100.97 67.125 104.875C65.6788 107.274 65.6788 107.274 65.6892 108.979C65.7793 109.287 65.8694 109.595 65.9622 109.913C66.8009 110.227 66.8009 110.227 67.8299 110.447C69.675 109.534 70.0055 108.801 71.0343 107.039C71.3766 106.462 71.7191 105.886 72.0619 105.31C72.2442 105.001 72.4265 104.692 72.6143 104.374C76.5638 97.7014 80.8219 91.2643 85.2361 84.8921C85.5079 84.4979 85.7796 84.1038 86.0596 83.6977C88.9719 79.4799 91.9497 75.3249 95.0842 71.2688C95.3415 70.9357 95.5989 70.6027 95.864 70.2596C101.668 62.8347 108.498 56.442 116.542 51.5156C116.499 52.018 116.456 52.5205 116.411 53.0382C116.353 54.6707 116.353 54.6707 116.933 55.5499C119.309 57.2037 121.096 57.9215 123.996 57.4511C127.912 56.063 131.313 53.0162 133.244 49.3539C133.854 47.6797 133.787 46.2841 133.638 44.5189C131.051 42.7294 129.318 42.1479 126.168 42.3821C126.012 42.6515 125.857 42.9208 125.697 43.1983C125.427 43.0428 125.158 42.8873 124.881 42.7271C124.725 42.9965 124.57 43.2658 124.409 43.5433C124.14 43.3878 123.871 43.2323 123.593 43.0721C122.091 43.5378 120.682 44.2547 119.26 44.9233C118.843 45.1166 118.426 45.3098 117.996 45.5088C108.793 50.0201 101.443 57.4802 94.6252 64.9783C98.7213 58.7471 102.837 52.6327 107.607 46.8927C108.514 45.7909 109.39 44.6661 110.267 43.5396C110.614 43.7738 110.962 44.008 111.319 44.2492C112.982 45.0879 113.634 45.2894 115.462 44.9067C119.012 43.0035 121.258 39.7357 122.748 36.0552C122.81 34.0335 122.661 33.8636 120.978 32.5846Z" fill="#BFBEBE"/>
<path d="M38.223 79.7508C37.7413 79.6522 37.2596 79.5537 36.7633 79.4522C37.959 83.6999 40.3188 87.2636 42.6136 90.9913C42.0869 90.8457 41.5602 90.7001 41.0174 90.5501C31.7805 88.0834 31.7805 88.0834 27.7931 90.2263C24.0125 92.5671 21.7654 94.784 19.7725 98.7517C19.5199 99.2531 19.5199 99.2531 19.2622 99.7646C17.4498 103.459 16.1556 107.234 15.6396 111.328C15.9089 111.484 16.1782 111.639 16.4556 111.799C16.6093 111.5 16.7631 111.201 16.9215 110.893C18.2805 108.378 19.338 106.485 21.9205 105.161C25.4176 105.126 27.9498 106.776 30.9308 108.459C38.3047 112.469 45.2757 115.255 53.8446 113.267C57.2826 112.035 61.1517 109.765 62.9972 106.568C62.6964 106.321 62.3956 106.073 62.0856 105.818C60.9477 104.88 59.8111 103.941 58.6753 103.001C57.9506 102.401 57.2245 101.804 56.4983 101.206C45.8766 92.5115 45.8766 92.5115 38.7708 81.0214C38.59 80.6021 38.4092 80.1828 38.223 79.7508Z" fill="#F3BBB9"/>
<path d="M46.2722 44.1351C46.1376 44.0574 46.003 43.9797 45.8642 43.8996C44.8196 45.8215 43.777 47.7446 42.7361 49.6685C42.3828 50.3209 42.029 50.973 41.6746 51.6247C36.345 61.4306 36.345 61.4306 35.7794 64.1938C36.0487 64.3492 36.318 64.5047 36.5954 64.6649C36.9054 63.9936 37.2137 63.3214 37.5213 62.649C37.6932 62.2748 37.865 61.9006 38.0421 61.5151C38.5434 60.3486 38.5434 60.3486 38.8731 59.2894C39.3532 57.9627 39.9727 56.8553 40.6993 55.6465C40.9694 55.1901 41.2396 54.7338 41.5179 54.2636C42.0856 53.3133 42.655 52.364 43.226 51.4156C44.6508 49.0021 45.8022 46.9107 46.2722 44.1351Z" fill="#F1B1AF"/>
<path d="M17.5353 118.408C19.4932 122.846 22.4219 124.855 26.73 126.981C27.8594 127.376 28.8744 127.614 30.0573 127.814C30.1351 127.679 30.2128 127.544 30.2929 127.406C29.8428 127.171 29.3927 126.936 28.929 126.695C25.2747 124.725 22.5059 122.859 19.8477 119.622C18.9949 118.706 18.9949 118.706 17.5353 118.408Z" fill="#F4BDBB"/>
<path d="M36.2956 66.1243C35.2254 66.9764 34.9621 67.4168 34.7395 68.7901C34.6843 71.9611 34.7549 74.9663 36.0086 77.9287C36.2778 78.0842 36.5471 78.2397 36.8246 78.3999C36.9503 76.8673 36.9069 75.4162 36.7792 73.8849C36.655 72.1788 36.6332 70.5494 36.7655 68.844C36.876 67.0035 36.876 67.0035 36.2956 66.1243Z" fill="#F2B9B7"/>
<path d="M36.8426 74.6009C36.2262 74.4247 35.6099 74.2484 34.9749 74.0668C35.1263 74.7015 35.2827 75.3352 35.4411 75.9682C35.5277 76.3212 35.6142 76.6741 35.7034 77.0378C36.0094 77.9286 36.0094 77.9286 36.8254 78.3997C36.9217 77.0986 36.927 75.9112 36.8426 74.6009Z" fill="#F0B4B3"/>
<path d="M17.5362 118.409C18.167 120.2 18.352 120.512 20.0935 121.517C20.249 121.248 20.4045 120.979 20.5647 120.701C19.1783 118.744 19.1783 118.744 17.5362 118.409Z" fill="#F4B0AF"/>
<path d="M35.8076 70.7393C35.4397 71.0655 35.0718 71.3918 34.6928 71.7279C34.7468 72.5671 34.7468 72.5671 34.802 73.4233C35.4183 73.5996 36.0346 73.7759 36.6697 73.9575C36.3852 72.8955 36.1007 71.8335 35.8076 70.7393Z" fill="#F4C3BF"/>
</svg>
