<svg width="419" height="393" viewBox="0 0 419 393" fill="none" xmlns="http://www.w3.org/2000/svg">
<path d="M248.787 1.2241C248.993 1.27442 249.199 1.32474 249.412 1.37659C253.465 2.36901 257.154 4.00058 260.595 6.36866C260.833 6.52899 261.072 6.68932 261.317 6.85451C267.104 10.8313 267.104 10.8313 269.072 13.6316C269.072 13.8313 269.072 14.031 269.072 14.2368C269.272 14.2368 269.472 14.2368 269.678 14.2368C272.113 18.3902 272.113 18.3902 273.052 20.6072C273.639 21.9443 274.397 23.1608 275.26 24.3368C276.143 25.553 276.849 26.8299 277.55 28.1574C277.69 28.4108 277.69 28.4108 277.833 28.6694C279.433 31.5653 280.426 34.3079 281.062 37.5517C281.269 38.5647 281.53 39.5641 281.789 40.5649C281.848 40.8002 281.907 41.0354 281.968 41.2778C283.636 47.8251 286.31 52.8238 291.205 57.5365C291.93 58.2678 292.457 59.0553 292.991 59.9326C293.223 60.2287 293.455 60.5248 293.694 60.8299C294.726 62.2663 295.291 63.8653 295.905 65.5122C296.079 65.9654 296.079 65.9654 296.256 66.4278C296.481 67.0195 296.704 67.6122 296.924 68.206C297.109 68.6925 297.302 69.1761 297.511 69.6528C298.237 71.3461 298.277 72.9143 298.252 74.7422C298.25 75.0636 298.248 75.3851 298.246 75.7163C298.206 78.1451 297.924 80.4884 297.575 82.8884C297.02 87.1828 297.09 91.5312 297.069 95.8547C297.036 100.003 296.895 103.749 294.884 107.482C294.779 107.684 294.674 107.886 294.566 108.093C293.637 109.857 292.595 111.543 291.477 113.194C291.278 113.494 291.078 113.793 290.872 114.102C290.672 114.102 290.472 114.102 290.266 114.102C290.165 114.427 290.165 114.427 290.062 114.758C289.567 115.815 288.934 116.418 288.09 117.223C286.858 118.411 285.702 119.628 284.617 120.952C284.416 121.156 284.416 121.156 284.211 121.365C284.011 121.365 283.811 121.365 283.605 121.365C283.605 121.565 283.605 121.764 283.605 121.97C283.406 121.97 283.206 121.97 283 121.97C283 122.17 283 122.369 283 122.575C282.6 122.675 282.2 122.775 281.789 122.878C281.789 123.078 281.789 123.277 281.789 123.483C279.839 125.619 276.81 127.938 274.219 129.233C274.807 133.381 275.828 137.11 277.55 140.922C277.679 141.209 277.809 141.496 277.942 141.792C278.873 143.839 278.873 143.839 280.275 145.574C281.382 145.965 282.6 145.943 283.768 146.026C288.533 146.393 293.171 147.316 296.927 150.416C297.436 150.76 297.947 151.1 298.46 151.438C302.395 154.221 305.371 158.315 307.738 162.473C308.138 163.141 308.58 163.742 309.057 164.356C310.007 165.595 310.744 166.886 311.46 168.271C311.549 168.441 311.637 168.611 311.728 168.787C313.278 171.79 314.688 174.842 316.002 177.955C316.121 178.232 316.241 178.508 316.364 178.793C316.607 179.468 316.607 179.468 316.607 180.376C316.807 180.376 317.007 180.376 317.213 180.376C317.417 180.861 317.618 181.346 317.819 181.832C317.931 182.103 318.043 182.373 318.159 182.652C318.424 183.402 318.424 183.402 318.424 184.31C318.624 184.31 318.824 184.31 319.03 184.31C320.83 188.45 322.036 191.756 321.264 196.314C321.153 197.288 321.144 197.663 321.565 198.514C321.677 198.741 321.789 198.968 321.905 199.202C323.778 202.703 323.778 202.703 325.861 206.08C326.893 207.68 327.632 209.452 328.426 211.177C328.911 212.228 329.421 213.263 329.942 214.297C330.38 215.17 330.801 216.052 331.216 216.936C331.374 217.269 331.532 217.602 331.694 217.945C332.049 218.809 332.049 218.809 332.049 219.717C332.249 219.717 332.449 219.717 332.654 219.717C332.801 220.032 332.948 220.347 333.099 220.672C335.005 224.751 336.972 228.79 339.13 232.742C340.527 235.318 340.527 235.318 340.527 236.664C340.726 236.664 340.926 236.664 341.132 236.664C341.282 237.026 341.432 237.388 341.586 237.761C342.174 239.081 342.845 240.342 343.554 241.6C343.655 241.781 343.755 241.962 343.859 242.149C344.459 243.198 345.115 243.994 345.976 244.834C345.976 245.034 345.976 245.234 345.976 245.44C346.143 245.459 346.31 245.478 346.481 245.497C348.837 245.844 351.013 246.586 353.255 247.357C354.786 247.88 356.305 248.348 357.879 248.731C360.873 249.493 363.729 250.657 366.608 251.766C367.398 252.068 368.19 252.364 368.985 252.656C369.208 252.739 369.432 252.821 369.662 252.906C370.25 253.122 370.837 253.337 371.425 253.552C372.318 253.913 372.318 253.913 373.226 254.518C374.902 254.434 376.487 254.108 378.127 253.762C380.114 253.352 382.063 253.097 384.092 253.028C384.553 253.012 385.013 252.99 385.474 252.965C393.119 252.579 401.096 254.134 406.935 259.342C413.109 264.953 416.572 269.96 417.942 278.293C418.006 278.663 418.07 279.034 418.136 279.415C419.596 288.062 419.219 296.63 416.825 305.056C416.758 305.292 416.691 305.529 416.622 305.772C416.307 306.876 415.984 307.977 415.651 309.076C415.447 309.751 415.247 310.428 415.057 311.107C414.674 312.466 414.225 313.698 413.563 314.945C413.174 315.681 412.809 316.426 412.443 317.173C411.472 319.147 410.423 321.046 409.256 322.911C409.022 323.292 408.788 323.674 408.554 324.056C407.254 326.171 405.926 328.24 404.437 330.229C403.948 330.889 403.473 331.553 403.004 332.227C402.867 332.423 402.73 332.618 402.589 332.82C402.319 333.206 402.051 333.593 401.785 333.981C401.464 334.438 401.123 334.879 400.778 335.318C400.578 335.318 400.379 335.318 400.173 335.318C400.099 335.538 400.025 335.757 399.949 335.984C399.52 336.935 399.013 337.528 398.299 338.288C397.457 339.193 396.632 340.1 395.839 341.049C391.743 345.706 385.956 350.093 379.584 350.752C374.549 350.974 370.101 350.942 365.657 348.331C365.442 348.208 365.228 348.084 365.007 347.957C363.016 346.644 361.659 344.633 360.252 342.744C359.958 342.351 359.656 341.965 359.352 341.581C358.996 341.068 358.996 341.068 358.996 340.463C357.334 341.59 355.941 342.884 354.541 344.321C353.326 345.556 352.017 346.635 350.661 347.714C350.03 348.234 349.47 348.759 348.91 349.352C347.598 350.714 346.079 351.826 344.584 352.977C343.201 354.045 341.867 355.166 340.564 356.331C339.387 357.365 338.157 358.302 336.893 359.225C335.512 360.238 334.176 361.284 332.863 362.384C331.507 363.501 330.112 364.458 328.617 365.378C327.853 365.856 327.123 366.361 326.391 366.885C324.507 368.218 322.543 369.417 320.581 370.629C319.727 371.158 318.876 371.692 318.025 372.226C316.3 373.307 314.569 374.378 312.818 375.418C311.912 375.962 311.015 376.521 310.117 377.08C301.204 382.563 291.39 385.716 281.252 388.036C280.398 388.247 279.554 388.478 278.707 388.716C277.024 389.177 275.335 389.529 273.621 389.848C273.315 389.906 273.01 389.963 272.695 390.023C272.052 390.144 271.409 390.264 270.767 390.384C269.8 390.564 268.833 390.747 267.867 390.931C262.64 391.916 257.557 392.635 252.231 392.608C252.01 392.608 251.79 392.607 251.563 392.607C246.936 392.593 242.179 392.558 237.887 390.698C236.868 390.536 236.868 390.536 235.767 390.471C228.873 389.798 222.198 387.784 215.784 385.251C215.219 385.031 214.653 384.812 214.087 384.592C211.489 383.575 208.923 382.506 206.398 381.317C205.856 381.066 205.313 380.816 204.77 380.566C204 380.212 203.231 379.856 202.462 379.501C202.462 379.301 202.462 379.101 202.462 378.896C202.126 378.845 202.126 378.845 201.782 378.794C200.914 378.585 200.44 378.322 199.726 377.799C199.501 377.636 199.277 377.473 199.046 377.306C198.695 377.044 198.695 377.044 198.337 376.777C198.095 376.6 197.854 376.423 197.605 376.24C195.741 374.863 193.941 373.426 192.168 371.935C191.889 371.723 191.61 371.512 191.323 371.293C191.102 371.106 190.881 370.918 190.654 370.725C190.654 370.525 190.654 370.325 190.654 370.12C190.478 370.039 190.301 369.959 190.12 369.876C188.215 368.857 186.701 367.092 185.201 365.566C184.635 365.011 184.052 364.501 183.445 363.991C178.379 359.588 174.844 353.818 171.404 348.132C170.819 347.167 170.225 346.207 169.631 345.248C169.444 344.943 169.257 344.638 169.065 344.323C168.741 343.796 168.411 343.27 168.076 342.749C165.89 339.283 164.508 335.398 163.076 331.578C162.51 330.075 161.917 328.597 161.266 327.128C158.722 321.307 156.994 315.159 155.533 308.99C155.445 308.624 155.357 308.257 155.267 307.88C153.654 300.548 153.355 292.925 153.375 285.442C153.376 285.008 153.376 285.008 153.376 284.564C153.38 280.675 153.435 276.79 153.565 272.902C153.572 272.691 153.579 272.48 153.586 272.262C153.593 272.054 153.6 271.845 153.607 271.63C153.715 268.38 153.773 265.137 153.729 261.886C153.719 261.138 153.713 260.391 153.709 259.643C153.703 258.513 153.689 257.383 153.669 256.254C153.663 255.813 153.659 255.372 153.657 254.93C153.638 250.804 152.768 247.257 150.811 243.594C149.861 241.635 149.16 239.562 148.414 237.519C148.119 236.712 147.818 235.908 147.518 235.103C145.907 230.744 144.657 226.347 143.895 221.759C143.297 218.416 142.059 215.36 140.48 212.36C139.876 211.096 139.411 209.783 138.931 208.467C138.528 207.367 138.107 206.292 137.612 205.229C135.826 201.299 134.784 196.486 134.641 192.178C134.629 191.859 134.617 191.541 134.605 191.212C134.457 183.304 135.115 173.94 138.853 166.822C139.245 166.027 139.572 165.215 139.902 164.393C140.646 162.584 141.537 160.903 142.513 159.211C142.683 158.915 142.853 158.618 143.028 158.312C145.372 154.239 147.842 150.241 150.477 146.349C151.3 145.109 152.053 143.831 152.808 142.548C153.955 140.623 155.12 138.71 156.29 136.798C156.58 136.323 156.871 135.847 157.161 135.372C157.615 134.629 158.072 133.887 158.531 133.147C159.344 131.825 160.041 130.514 160.644 129.084C161.053 128.166 161.52 127.286 161.986 126.396C164.465 121.496 165.765 116.461 166.735 111.076C166.81 110.672 166.81 110.672 166.887 110.261C167.025 109.512 167.156 108.762 167.284 108.012C167.34 107.696 167.34 107.696 167.398 107.373C167.989 103.649 167.593 99.8515 167.272 96.1187C167.208 95.372 167.146 94.6252 167.085 93.8783C167.044 93.3951 167.004 92.9121 166.964 92.429C166.945 92.2098 166.927 91.9907 166.908 91.7649C166.821 90.7535 166.716 89.7533 166.58 88.7467C166.373 87.1348 166.324 85.517 166.266 83.8941C166.253 83.5507 166.24 83.2073 166.227 82.8535C166.109 79.3989 166.073 75.9458 166.074 72.4894C166.073 71.4639 166.067 70.4386 166.062 69.4132C166.048 64.0685 166.339 58.8546 167.454 53.6154C167.521 53.2957 167.587 52.9759 167.655 52.6465C169.287 44.9354 172.463 37.7204 177.332 31.4862C177.528 31.2323 177.724 30.9783 177.926 30.7167C179.166 29.1364 180.475 27.6321 181.83 26.149C182.399 25.5223 182.952 24.8858 183.501 24.2422C184.526 23.0624 185.632 21.9691 186.746 20.8741C187.443 20.1844 188.108 19.4983 188.705 18.7194C189.606 17.681 190.619 16.8947 191.703 16.0549C192.382 15.5179 193.011 14.9581 193.644 14.3692C195.164 13.021 197.347 11.2106 199.435 11.2106C199.435 11.0109 199.435 10.8111 199.435 10.6054C200.184 10.4556 200.184 10.4556 200.949 10.3027C200.949 10.103 200.949 9.90328 200.949 9.6975C203.289 8.40805 205.603 7.5124 208.157 6.75521C209.43 6.37568 210.675 5.93251 211.924 5.47971C216.953 3.68146 222.056 2.28846 227.29 1.2241C227.526 1.17368 227.763 1.12326 228.007 1.07131C234.517 -0.279729 242.332 -0.48518 248.787 1.2241ZM280.275 214.875C279.373 217.247 279.01 219.614 278.666 222.119C278.603 222.57 278.539 223.022 278.475 223.473C278.373 224.192 278.272 224.91 278.171 225.628C277.923 227.409 277.661 229.187 277.394 230.965C274.939 247.391 273.103 263.498 277.419 279.771C277.755 281.046 278.043 282.323 278.303 283.616C278.772 285.932 279.458 288.044 280.359 290.228C281.477 292.978 282.232 295.837 283 298.701C283.89 298.287 284.779 297.87 285.668 297.453C285.914 297.338 286.161 297.223 286.415 297.105C288.049 296.336 289.634 295.504 291.214 294.632C293.054 293.636 294.939 292.729 296.814 291.803C299.035 290.701 301.232 289.56 303.423 288.402C305.232 287.448 307.047 286.509 308.868 285.579C309.131 285.445 309.394 285.311 309.665 285.172C310.737 284.625 311.81 284.079 312.882 283.532C317.196 281.336 317.196 281.336 321.452 279.031C320.533 278.333 319.595 277.709 318.613 277.101C312.881 273.448 309.454 267.14 306.105 261.384C305.922 261.07 305.739 260.756 305.551 260.432C302.415 255.019 299.474 249.496 296.625 243.926C296.535 243.751 296.444 243.576 296.352 243.395C294.595 239.967 293.019 236.474 291.477 232.944C289.469 228.352 287.268 223.894 284.873 219.49C284.704 219.175 284.535 218.861 284.361 218.537C284.197 218.235 284.033 217.933 283.864 217.622C283.72 217.355 283.575 217.088 283.426 216.813C283.017 216.114 282.632 215.478 282.091 214.875C281.145 214.774 281.145 214.774 280.275 214.875Z" fill="#E2927B"/>
<path d="M242.03 6.65249C242.407 6.65659 242.407 6.65659 242.791 6.66077C242.971 6.66428 243.151 6.66779 243.336 6.67141C242.887 6.971 242.887 6.971 242.428 7.27665C242.604 7.28706 242.781 7.29747 242.962 7.3082C251.435 7.84497 258.616 10.6119 264.578 16.8861C266.651 19.4107 267.886 21.9317 268.466 25.1313C268.516 25.3385 268.566 25.5456 268.618 25.759C269.144 28.0338 269.172 30.256 269.166 32.5834C269.171 32.9621 269.176 33.3409 269.181 33.7312C269.184 38.4993 268.068 42.6766 266.498 47.1281C265.073 51.2009 263.896 55.1264 263.584 59.4599C263.54 60.027 263.495 60.594 263.449 61.161C263.431 61.4054 263.413 61.6497 263.395 61.9015C263.319 62.6564 263.319 62.6564 263.165 63.4517C262.955 64.8899 262.951 66.3161 262.931 67.7678C262.923 68.2484 262.923 68.2484 262.914 68.7386C262.897 69.7626 262.881 70.7866 262.865 71.8107C262.667 84.5473 262.667 84.5473 261.9 88.0387C261.848 88.2866 261.796 88.5344 261.742 88.7897C261.178 91.3773 260.407 93.8998 259.612 96.4243C259.242 97.6045 258.885 98.7883 258.532 99.9734C258.469 100.178 258.406 100.382 258.342 100.592C255.699 109.434 257.937 119.513 261.502 127.72C263.81 133.062 265.159 138.01 265.208 143.876C265.211 144.169 265.214 144.462 265.217 144.764C265.224 145.708 265.228 146.653 265.23 147.598C265.231 147.921 265.232 148.244 265.233 148.577C265.237 154.413 264.871 160.062 263.687 165.791C262.943 169.455 262.869 173.052 262.846 176.782C262.756 188.002 259.975 194.591 252.305 202.815C251.614 203.566 250.956 204.335 250.3 205.115C248.97 206.615 247.42 207.714 245.758 208.822C245.493 209 245.228 209.177 244.954 209.359C241.602 211.537 238.177 213.487 234.462 214.973C230.171 216.732 227.119 218.715 225.208 223.012C224.639 224.582 224.498 226.156 224.356 227.812C224.286 228.507 224.215 229.202 224.144 229.897C224.113 230.229 224.081 230.56 224.048 230.901C223.321 238.382 220.809 245.552 215.534 251.094C214.849 251.801 214.849 251.801 214.207 252.661C213.197 253.884 211.922 254.74 210.637 255.653C210.122 256.026 209.607 256.4 209.092 256.774C208.714 257.047 208.714 257.047 208.329 257.325C207.337 258.044 206.353 258.772 205.376 259.512C205.08 259.733 204.784 259.955 204.48 260.183C200.902 263.245 198.861 268.083 198.471 272.723C198.434 273.235 198.397 273.747 198.361 274.26C198.129 277.449 197.717 280.587 197.182 283.74C197.12 284.116 197.058 284.492 196.994 284.879C196.932 285.234 196.869 285.589 196.805 285.954C196.75 286.268 196.695 286.582 196.639 286.905C196.383 287.898 195.986 288.723 195.498 289.622C193.6 289.768 193.6 289.768 192.648 289.141C189.633 285.942 187.068 282.407 184.56 278.804C182.525 275.887 180.336 273.211 177.786 270.727C175.431 268.421 173.492 265.8 171.579 263.124C169.738 260.567 167.668 258.206 165.505 255.918C161.967 252.031 159.701 247.373 157.349 242.716C157.107 242.244 156.865 241.772 156.623 241.3C154.952 238.021 153.638 234.871 152.807 231.273C152.73 230.944 152.652 230.616 152.572 230.277C152.022 227.911 151.551 225.537 151.111 223.149C150.269 218.623 149.145 214.522 146.846 210.487C140.083 198.327 139.535 186.531 142.816 173.416C142.873 173.184 142.93 172.953 142.988 172.715C144.799 165.502 148.656 159.242 153.263 153.478C155.417 150.756 157.296 147.854 159.191 144.948C159.737 144.113 160.29 143.283 160.846 142.455C167.497 132.494 172.792 120.807 172.852 108.642C172.854 108.353 172.856 108.065 172.858 107.768C172.863 106.834 172.865 105.9 172.866 104.967C172.866 104.646 172.867 104.325 172.867 103.994C172.866 99.6016 172.676 95.3321 172.144 90.9704C171.249 83.5446 170.891 76.0332 170.86 68.5575C170.858 68.3021 170.855 68.0468 170.853 67.7837C170.816 62.6891 171.495 57.7497 172.715 52.8022C172.793 52.4844 172.871 52.1666 172.951 51.8391C175.856 40.401 182.228 30.2386 191.654 23.1013C192.121 22.7462 192.583 22.3846 193.044 22.0223C202.131 14.9848 215.843 7.93702 227.547 7.42796C227.806 7.41567 228.065 7.40338 228.331 7.39072C229.157 7.35162 229.983 7.31401 230.809 7.27665C231.892 7.2271 232.974 7.17676 234.057 7.12534C234.316 7.11306 234.575 7.10078 234.842 7.08814C236.458 7.00844 238.065 6.89083 239.674 6.72948C240.462 6.65738 241.24 6.64105 242.03 6.65249Z" fill="#373737"/>
<path d="M248.787 1.2241C248.993 1.27442 249.199 1.32474 249.412 1.37659C253.465 2.36901 257.154 4.00058 260.595 6.36866C260.833 6.52899 261.072 6.68932 261.317 6.85451C267.104 10.8313 267.104 10.8313 269.072 13.6316C269.072 13.8313 269.072 14.031 269.072 14.2368C269.272 14.2368 269.472 14.2368 269.678 14.2368C272.113 18.3902 272.113 18.3902 273.052 20.6072C273.639 21.9443 274.397 23.1608 275.26 24.3368C276.143 25.553 276.849 26.8299 277.55 28.1574C277.69 28.4108 277.69 28.4108 277.833 28.6694C279.433 31.5653 280.426 34.3079 281.062 37.5517C281.269 38.5647 281.53 39.5641 281.789 40.5649C281.848 40.8002 281.907 41.0354 281.968 41.2778C283.636 47.8251 286.31 52.8238 291.205 57.5365C291.93 58.2678 292.457 59.0553 292.991 59.9326C293.223 60.2287 293.455 60.5248 293.694 60.8299C294.726 62.2663 295.291 63.8653 295.905 65.5122C296.079 65.9654 296.079 65.9654 296.256 66.4278C296.481 67.0195 296.704 67.6122 296.924 68.206C297.109 68.6925 297.302 69.1761 297.511 69.6528C298.237 71.3461 298.277 72.9143 298.252 74.7422C298.25 75.0636 298.248 75.3851 298.246 75.7163C298.206 78.1451 297.924 80.4884 297.575 82.8884C297.02 87.1828 297.09 91.5312 297.069 95.8547C297.036 100.003 296.895 103.749 294.884 107.482C294.779 107.684 294.674 107.886 294.566 108.093C293.637 109.857 292.595 111.543 291.477 113.194C291.278 113.494 291.078 113.793 290.872 114.102C290.672 114.102 290.472 114.102 290.266 114.102C290.165 114.427 290.165 114.427 290.062 114.758C289.567 115.815 288.934 116.418 288.09 117.223C286.858 118.411 285.702 119.628 284.617 120.952C284.416 121.156 284.416 121.156 284.211 121.365C284.011 121.365 283.811 121.365 283.605 121.365C283.605 121.565 283.605 121.764 283.605 121.97C283.406 121.97 283.206 121.97 283 121.97C283 122.17 283 122.369 283 122.575C282.6 122.675 282.2 122.775 281.789 122.878C281.789 123.078 281.789 123.277 281.789 123.483C279.839 125.619 276.81 127.938 274.219 129.233C274.807 133.381 275.828 137.11 277.55 140.922C277.679 141.209 277.809 141.496 277.942 141.792C278.873 143.839 278.873 143.839 280.275 145.574C281.382 145.965 282.6 145.943 283.768 146.026C288.533 146.393 293.171 147.316 296.927 150.416C297.436 150.76 297.947 151.1 298.46 151.438C302.395 154.221 305.371 158.315 307.738 162.473C308.138 163.141 308.58 163.742 309.057 164.356C310.007 165.595 310.744 166.886 311.46 168.271C311.549 168.441 311.637 168.611 311.728 168.787C313.278 171.79 314.688 174.842 316.002 177.955C316.121 178.232 316.241 178.508 316.364 178.793C316.607 179.468 316.607 179.468 316.607 180.376C316.807 180.376 317.007 180.376 317.213 180.376C317.417 180.861 317.618 181.346 317.819 181.832C317.931 182.103 318.043 182.373 318.159 182.652C318.424 183.402 318.424 183.402 318.424 184.31C318.624 184.31 318.824 184.31 319.03 184.31C320.83 188.45 322.036 191.756 321.264 196.314C321.153 197.288 321.144 197.663 321.565 198.514C321.677 198.741 321.789 198.968 321.905 199.202C323.778 202.703 323.778 202.703 325.861 206.08C326.893 207.68 327.632 209.452 328.426 211.177C328.911 212.228 329.421 213.263 329.942 214.297C330.38 215.17 330.801 216.052 331.216 216.936C331.374 217.269 331.532 217.602 331.694 217.945C332.049 218.809 332.049 218.809 332.049 219.717C332.249 219.717 332.449 219.717 332.654 219.717C332.801 220.032 332.948 220.347 333.099 220.672C335.005 224.751 336.972 228.79 339.13 232.742C340.527 235.318 340.527 235.318 340.527 236.664C340.726 236.664 340.926 236.664 341.132 236.664C341.282 237.026 341.432 237.388 341.586 237.761C342.174 239.081 342.845 240.342 343.554 241.6C343.655 241.781 343.755 241.962 343.859 242.149C344.459 243.198 345.115 243.994 345.976 244.834C345.976 245.034 345.976 245.234 345.976 245.44C346.143 245.459 346.31 245.478 346.481 245.497C348.837 245.844 351.013 246.586 353.255 247.357C354.786 247.88 356.305 248.348 357.879 248.731C360.873 249.493 363.729 250.657 366.608 251.766C367.398 252.068 368.19 252.364 368.985 252.656C369.208 252.739 369.432 252.821 369.662 252.906C370.25 253.122 370.837 253.337 371.425 253.552C372.318 253.913 372.318 253.913 373.226 254.518C374.902 254.434 376.487 254.108 378.127 253.762C380.114 253.352 382.063 253.097 384.092 253.028C384.553 253.012 385.013 252.99 385.474 252.965C393.119 252.579 401.096 254.134 406.935 259.342C413.109 264.953 416.572 269.96 417.942 278.293C418.006 278.663 418.07 279.034 418.136 279.415C419.596 288.062 419.219 296.63 416.825 305.056C416.758 305.292 416.691 305.529 416.622 305.772C416.307 306.876 415.984 307.977 415.651 309.076C415.447 309.751 415.247 310.428 415.057 311.107C414.674 312.466 414.225 313.698 413.563 314.945C413.174 315.681 412.809 316.426 412.443 317.173C411.472 319.147 410.423 321.046 409.256 322.911C409.022 323.292 408.788 323.674 408.554 324.056C407.254 326.171 405.926 328.24 404.437 330.229C403.948 330.889 403.473 331.553 403.004 332.227C402.867 332.423 402.73 332.618 402.589 332.82C402.319 333.206 402.051 333.593 401.785 333.981C401.464 334.438 401.123 334.879 400.778 335.318C400.578 335.318 400.379 335.318 400.173 335.318C400.099 335.538 400.025 335.757 399.949 335.984C399.52 336.935 399.013 337.528 398.299 338.288C397.457 339.193 396.632 340.1 395.839 341.049C391.743 345.706 385.956 350.093 379.584 350.752C374.549 350.974 370.101 350.942 365.657 348.331C365.442 348.208 365.228 348.084 365.007 347.957C363.016 346.644 361.659 344.633 360.252 342.744C359.958 342.351 359.656 341.965 359.352 341.581C358.996 341.068 358.996 341.068 358.996 340.463C357.334 341.59 355.941 342.884 354.541 344.321C353.326 345.556 352.017 346.635 350.661 347.714C350.03 348.234 349.47 348.759 348.91 349.352C347.598 350.714 346.079 351.826 344.584 352.977C343.201 354.045 341.867 355.166 340.564 356.331C339.387 357.365 338.157 358.302 336.893 359.225C335.512 360.238 334.176 361.284 332.863 362.384C331.507 363.501 330.112 364.458 328.617 365.378C327.853 365.856 327.123 366.361 326.391 366.885C324.507 368.218 322.543 369.417 320.581 370.629C319.727 371.158 318.876 371.692 318.025 372.226C316.3 373.307 314.569 374.378 312.818 375.418C311.912 375.962 311.015 376.521 310.117 377.08C301.204 382.563 291.39 385.716 281.252 388.036C280.398 388.247 279.554 388.478 278.707 388.716C277.024 389.177 275.335 389.529 273.621 389.848C273.315 389.906 273.01 389.963 272.695 390.023C272.052 390.144 271.409 390.264 270.767 390.384C269.8 390.564 268.833 390.747 267.867 390.931C262.64 391.916 257.557 392.635 252.231 392.608C252.01 392.608 251.79 392.607 251.563 392.607C246.936 392.593 242.179 392.558 237.887 390.698C236.868 390.536 236.868 390.536 235.767 390.471C228.873 389.798 222.198 387.784 215.784 385.251C215.219 385.031 214.653 384.812 214.087 384.592C211.489 383.575 208.923 382.506 206.398 381.317C205.856 381.066 205.313 380.816 204.77 380.566C204 380.212 203.231 379.856 202.462 379.501C202.462 379.301 202.462 379.101 202.462 378.896C202.126 378.845 202.126 378.845 201.782 378.794C200.914 378.585 200.44 378.322 199.726 377.799C199.501 377.636 199.277 377.473 199.046 377.306C198.695 377.044 198.695 377.044 198.337 376.777C198.095 376.6 197.854 376.423 197.605 376.24C195.741 374.863 193.941 373.426 192.168 371.935C191.889 371.723 191.61 371.512 191.323 371.293C191.102 371.106 190.881 370.918 190.654 370.725C190.654 370.525 190.654 370.325 190.654 370.12C190.478 370.039 190.301 369.959 190.12 369.876C188.215 368.857 186.701 367.092 185.201 365.566C184.635 365.011 184.052 364.501 183.445 363.991C178.379 359.588 174.844 353.818 171.404 348.132C170.819 347.167 170.225 346.207 169.631 345.248C169.444 344.943 169.257 344.638 169.065 344.323C168.741 343.796 168.411 343.27 168.076 342.749C165.89 339.283 164.508 335.398 163.076 331.578C162.51 330.075 161.917 328.597 161.266 327.128C158.722 321.307 156.994 315.159 155.533 308.99C155.445 308.624 155.357 308.257 155.267 307.88C153.654 300.548 153.355 292.925 153.375 285.442C153.376 285.008 153.376 285.008 153.376 284.564C153.38 280.675 153.435 276.79 153.565 272.902C153.572 272.691 153.579 272.48 153.586 272.262C153.593 272.054 153.6 271.845 153.607 271.63C153.715 268.38 153.773 265.137 153.729 261.886C153.719 261.138 153.713 260.391 153.709 259.643C153.703 258.513 153.689 257.383 153.669 256.254C153.663 255.813 153.659 255.372 153.657 254.93C153.638 250.804 152.768 247.257 150.811 243.594C149.861 241.635 149.16 239.562 148.414 237.519C148.119 236.712 147.818 235.908 147.518 235.103C145.907 230.744 144.657 226.347 143.895 221.759C143.297 218.416 142.059 215.36 140.48 212.36C139.876 211.096 139.411 209.783 138.931 208.467C138.528 207.367 138.107 206.292 137.612 205.229C135.826 201.299 134.784 196.486 134.641 192.178C134.629 191.859 134.617 191.541 134.605 191.212C134.457 183.304 135.115 173.94 138.853 166.822C139.245 166.027 139.572 165.215 139.902 164.393C140.646 162.584 141.537 160.903 142.513 159.211C142.683 158.915 142.853 158.618 143.028 158.312C145.372 154.239 147.842 150.241 150.477 146.349C151.3 145.109 152.053 143.831 152.808 142.548C153.955 140.623 155.12 138.71 156.29 136.798C156.58 136.323 156.871 135.847 157.161 135.372C157.615 134.629 158.072 133.887 158.531 133.147C159.344 131.825 160.041 130.514 160.644 129.084C161.053 128.166 161.52 127.286 161.986 126.396C164.465 121.496 165.765 116.461 166.735 111.076C166.81 110.672 166.81 110.672 166.887 110.261C167.025 109.512 167.156 108.762 167.284 108.012C167.34 107.696 167.34 107.696 167.398 107.373C167.989 103.649 167.593 99.8515 167.272 96.1187C167.208 95.372 167.146 94.6252 167.085 93.8783C167.044 93.3951 167.004 92.9121 166.964 92.429C166.945 92.2098 166.927 91.9907 166.908 91.7649C166.821 90.7535 166.716 89.7533 166.58 88.7467C166.373 87.1348 166.324 85.517 166.266 83.8941C166.253 83.5507 166.24 83.2073 166.227 82.8535C166.109 79.3989 166.073 75.9458 166.074 72.4894C166.073 71.4639 166.067 70.4386 166.062 69.4132C166.048 64.0685 166.339 58.8546 167.454 53.6154C167.521 53.2957 167.587 52.9759 167.655 52.6465C169.287 44.9354 172.463 37.7204 177.332 31.4862C177.528 31.2323 177.724 30.9783 177.926 30.7167C179.166 29.1364 180.475 27.6321 181.83 26.149C182.399 25.5223 182.952 24.8858 183.501 24.2422C184.526 23.0624 185.632 21.9691 186.746 20.8741C187.443 20.1844 188.108 19.4983 188.705 18.7194C189.606 17.681 190.619 16.8947 191.703 16.0549C192.382 15.5179 193.011 14.9581 193.644 14.3692C195.164 13.021 197.347 11.2106 199.435 11.2106C199.435 11.0109 199.435 10.8111 199.435 10.6054C200.184 10.4556 200.184 10.4556 200.949 10.3027C200.949 10.103 200.949 9.90328 200.949 9.6975C203.289 8.40805 205.603 7.5124 208.157 6.75521C209.43 6.37568 210.675 5.93251 211.924 5.47971C216.953 3.68146 222.056 2.28846 227.29 1.2241C227.526 1.17368 227.763 1.12326 228.007 1.07131C234.517 -0.279729 242.332 -0.48518 248.787 1.2241ZM238.91 6.80841C237.328 6.95959 235.75 7.03311 234.164 7.0933C233.643 7.11433 233.123 7.13541 232.602 7.15654C231.802 7.18883 231.002 7.21967 230.202 7.24586C226.731 7.36204 223.646 7.70202 220.326 8.78963C219.987 8.89966 219.647 9.0097 219.297 9.12306C218.279 9.465 217.268 9.82314 216.257 10.1893C215.713 10.3855 215.713 10.3855 215.158 10.5858C198.066 16.8217 183.884 26.3809 175.894 43.1561C174.277 46.6829 173.284 50.2602 172.431 54.0315C172.355 54.3654 172.28 54.6992 172.202 55.0431C171.238 59.4606 170.852 63.731 170.861 68.2358C170.86 68.4998 170.86 68.7638 170.86 69.0358C170.865 74.1419 171.17 79.2214 171.542 84.3126C171.568 84.6738 171.594 85.0351 171.622 85.4073C171.858 88.596 172.099 91.777 172.522 94.9469C172.893 97.809 172.893 100.675 172.886 103.557C172.885 104.468 172.892 105.38 172.9 106.291C172.919 112.076 172.426 117.738 170.369 123.181C170.264 123.458 170.16 123.735 170.052 124.021C167.445 130.875 164.482 137.124 160.356 143.197C159.778 144.052 159.21 144.912 158.644 145.775C156.92 148.403 155.159 150.967 153.218 153.439C145.164 163.732 139.174 177.617 140.394 190.968C141.398 197.862 144.031 205.151 147.358 211.243C149.318 215.17 150.391 218.947 151.1 223.257C151.485 225.548 151.964 227.804 152.505 230.063C152.613 230.517 152.613 230.517 152.722 230.981C153.447 233.947 154.31 236.824 155.722 239.538C155.822 239.735 155.923 239.932 156.026 240.135C156.496 241.055 156.973 241.97 157.453 242.884C157.876 243.69 158.294 244.498 158.712 245.307C158.847 245.559 158.982 245.811 159.121 246.071C160.121 248.015 160.317 249.514 159.79 251.662C158.823 256.197 159.022 261.062 158.863 265.677C158.814 267.114 158.763 268.551 158.712 269.987C158.7 270.332 158.687 270.676 158.675 271.031C158.606 272.873 158.519 274.711 158.392 276.55C158.247 278.716 158.211 280.87 158.22 283.04C158.221 283.421 158.223 283.801 158.224 284.193C158.231 285.296 158.243 286.4 158.258 287.504C158.261 287.79 158.265 288.076 158.269 288.37C158.546 303.234 163.352 318.56 170.065 331.696C170.383 332.32 170.698 332.945 171.012 333.571C174.339 340.214 174.339 340.214 178.183 346.564C178.744 347.43 179.268 348.318 179.798 349.203C181.268 351.654 182.819 353.958 184.599 356.199C184.794 356.448 184.988 356.697 185.189 356.954C191.838 365.38 199.167 371.497 208.831 376.18C209.424 376.473 210.009 376.778 210.593 377.088C215.516 379.678 220.615 381.168 226.038 382.319C227.45 382.629 228.854 382.971 230.26 383.31C232.193 383.772 234.131 384.212 236.07 384.645C236.424 384.725 236.778 384.805 237.142 384.888C253.137 388.412 273.777 386.158 288.66 379.507C288.985 379.362 289.311 379.218 289.646 379.069C293.216 377.47 296.724 375.751 300.22 373.997C300.549 373.832 300.877 373.668 301.216 373.499C306.283 370.958 311.208 368.305 316.002 365.278C316.594 364.912 317.185 364.546 317.777 364.181C321.333 361.969 324.756 359.608 328.113 357.107C328.287 356.978 328.461 356.849 328.64 356.716C329.679 355.943 330.713 355.164 331.746 354.383C332.326 353.948 332.907 353.513 333.487 353.078C333.786 352.853 334.086 352.629 334.394 352.397C335.103 351.866 335.814 351.337 336.525 350.809C338.756 349.149 340.956 347.461 343.121 345.716C344.306 344.76 345.503 343.825 346.714 342.903C348.411 341.609 350.067 340.269 351.72 338.92C353.076 337.814 354.44 336.72 355.816 335.64C355.98 335.511 356.143 335.383 356.311 335.251C357.595 334.245 358.899 333.267 360.207 332.292C360.308 332.465 360.41 332.639 360.515 332.818C363.796 338.368 367.226 343.547 373.529 345.91C378.287 346.768 383.058 343.551 386.808 340.986C390.92 338.07 394.588 334.429 396.842 329.871C397.036 329.69 397.229 329.509 397.429 329.322C398.223 328.48 398.53 327.611 398.962 326.542C399.517 325.502 399.783 325.087 400.778 324.424C400.99 323.923 401.191 323.418 401.384 322.911C401.686 322.448 402.002 321.994 402.33 321.549C405.071 317.693 405.071 317.693 406.584 313.266C406.87 312.179 407.319 311.22 407.818 310.219C410.007 305.74 411.316 300.994 412.155 296.093C412.242 295.602 412.34 295.114 412.446 294.627C412.925 292.349 412.992 290.109 412.985 287.791C412.984 287.151 412.991 286.51 412.998 285.87C413.018 281.782 412.454 277.883 410.845 274.094C410.739 273.838 410.633 273.582 410.524 273.319C409.115 270.012 407.339 267.56 404.714 265.11C404.439 264.829 404.165 264.548 403.882 264.259C401.308 261.758 398.284 260.298 394.855 259.379C394.633 259.315 394.41 259.251 394.181 259.185C389.554 258.05 384.38 258.762 379.698 259.247C379.307 259.286 379.307 259.286 378.908 259.326C372.557 259.979 366.459 261.237 360.509 263.597C360.131 263.746 360.131 263.746 359.745 263.898C358.439 264.413 357.135 264.935 355.834 265.463C353.78 266.294 351.702 267.047 349.61 267.777C347.277 268.595 344.961 269.452 342.649 270.327C342.022 270.564 341.394 270.798 340.767 271.032C338.556 271.856 336.351 272.689 334.168 273.583C333.798 273.729 333.428 273.875 333.046 274.025C328.132 275.998 323.442 278.447 318.727 280.846C319.605 280.176 320.497 279.587 321.452 279.031C320.54 278.324 319.594 277.708 318.613 277.101C312.881 273.448 309.454 267.14 306.105 261.384C305.922 261.07 305.739 260.756 305.551 260.432C302.415 255.019 299.474 249.496 296.625 243.926C296.535 243.751 296.444 243.576 296.352 243.395C294.595 239.967 293.019 236.474 291.477 232.944C289.469 228.352 287.268 223.894 284.873 219.49C284.704 219.175 284.535 218.861 284.361 218.537C284.197 218.235 284.033 217.933 283.864 217.622C283.72 217.355 283.575 217.088 283.426 216.813C283.017 216.114 282.632 215.478 282.091 214.875C281.145 214.774 281.145 214.774 280.275 214.875C280.175 214.575 280.075 214.276 279.972 213.967C279.679 213.736 279.385 213.505 279.083 213.267C277.308 211.793 276.102 209.812 274.825 207.914C274.691 207.716 274.556 207.518 274.418 207.314C271.234 202.602 268.477 197.796 266.423 192.481C266.289 192.145 266.155 191.81 266.017 191.464C265.283 189.478 265.046 187.968 265.322 185.872C265.546 184.036 265.495 182.185 265.496 180.338C265.499 179.947 265.503 179.556 265.507 179.152C265.51 177.221 265.405 175.474 264.97 173.596C264.676 171.909 264.76 170.186 264.777 168.479C264.777 168.107 264.777 167.735 264.777 167.352C264.808 160.974 264.808 160.974 265.742 158.285C265.818 157.465 265.818 157.465 265.742 156.771C265.642 156.672 265.542 156.572 265.439 156.469C265.405 155.999 265.392 155.528 265.386 155.057C265.382 154.756 265.378 154.454 265.374 154.144C265.369 153.65 265.369 153.65 265.365 153.146C265.355 152.449 265.344 151.752 265.334 151.055C265.32 149.957 265.307 148.858 265.295 147.759C265.262 142.098 265.262 142.098 264.531 136.496C264.455 136.105 264.38 135.715 264.302 135.313C263.57 132.46 262.466 129.841 261.266 127.157C258.715 121.36 257.386 115.454 257.416 109.128C257.416 108.917 257.417 108.706 257.417 108.488C257.444 104.296 258.232 100.7 259.516 96.7201C261 92.0921 262.305 87.5569 262.571 82.6824C262.584 82.4495 262.597 82.2165 262.61 81.9765C262.795 78.3148 262.815 74.6456 262.858 70.9799C262.905 67.2408 263.043 63.6309 263.622 59.9326C263.67 59.4627 263.714 58.9922 263.75 58.5212C264.105 54.2368 265.305 50.2991 266.681 46.2402C266.789 45.9217 266.897 45.6033 267.008 45.2752C267.217 44.6643 267.429 44.0546 267.644 43.4461C268.889 39.8521 269.171 36.4488 269.148 32.6589C269.15 32.2676 269.153 31.8764 269.155 31.4732C269.151 29.2759 268.984 27.2646 268.467 25.1312C268.413 24.8207 268.36 24.5102 268.305 24.1902C267.267 18.9942 263.422 15.3017 259.192 12.4309C253.78 8.88027 248.824 7.74771 242.428 7.27653C242.878 6.97693 242.878 6.97693 243.337 6.67128C242.901 6.66279 242.466 6.6571 242.031 6.65237C241.789 6.64886 241.546 6.64535 241.296 6.64173C240.49 6.66588 239.712 6.72694 238.91 6.80841Z" fill="#F2B4A1"/>
<path d="M248.787 1.2241C248.993 1.27442 249.199 1.32474 249.412 1.37659C253.465 2.36901 257.154 4.00058 260.595 6.36866C260.833 6.52899 261.072 6.68932 261.317 6.85451C267.104 10.8313 267.104 10.8313 269.072 13.6316C269.072 13.8313 269.072 14.031 269.072 14.2368C269.272 14.2368 269.472 14.2368 269.678 14.2368C272.113 18.3902 272.113 18.3902 273.052 20.6072C273.639 21.9443 274.397 23.1608 275.26 24.3368C276.143 25.553 276.849 26.8299 277.55 28.1574C277.69 28.4108 277.69 28.4108 277.833 28.6694C279.433 31.5653 280.426 34.3079 281.062 37.5517C281.269 38.5647 281.53 39.5641 281.789 40.5649C281.848 40.8002 281.907 41.0354 281.968 41.2778C283.636 47.8251 286.31 52.8238 291.205 57.5365C291.93 58.2678 292.457 59.0553 292.991 59.9326C293.223 60.2287 293.455 60.5248 293.694 60.8299C294.726 62.2663 295.291 63.8653 295.905 65.5122C296.079 65.9654 296.079 65.9654 296.256 66.4278C296.481 67.0195 296.704 67.6122 296.924 68.206C297.109 68.6925 297.302 69.1761 297.511 69.6528C298.237 71.3461 298.277 72.9143 298.252 74.7422C298.25 75.0636 298.248 75.3851 298.246 75.7163C298.206 78.1451 297.924 80.4884 297.575 82.8884C297.02 87.1828 297.09 91.5312 297.069 95.8547C297.036 100.003 296.895 103.749 294.884 107.482C294.779 107.684 294.674 107.886 294.566 108.093C293.637 109.857 292.595 111.543 291.477 113.194C291.278 113.494 291.078 113.793 290.872 114.102C290.672 114.102 290.472 114.102 290.266 114.102C290.165 114.427 290.165 114.427 290.062 114.758C289.567 115.815 288.934 116.418 288.09 117.223C286.858 118.411 285.702 119.628 284.617 120.952C284.416 121.156 284.416 121.156 284.211 121.365C284.011 121.365 283.811 121.365 283.605 121.365C283.605 121.565 283.605 121.764 283.605 121.97C283.406 121.97 283.206 121.97 283 121.97C283 122.17 283 122.369 283 122.575C282.6 122.675 282.2 122.775 281.789 122.878C281.789 123.078 281.789 123.277 281.789 123.483C279.839 125.619 276.81 127.938 274.219 129.233C274.807 133.381 275.828 137.11 277.55 140.922C277.679 141.209 277.809 141.496 277.942 141.792C278.873 143.839 278.873 143.839 280.275 145.574C281.382 145.965 282.6 145.943 283.768 146.026C288.533 146.393 293.171 147.316 296.927 150.416C297.436 150.76 297.947 151.1 298.46 151.438C302.395 154.221 305.371 158.315 307.738 162.473C308.138 163.141 308.58 163.742 309.057 164.356C310.007 165.595 310.744 166.886 311.46 168.271C311.549 168.441 311.637 168.611 311.728 168.787C313.278 171.79 314.688 174.842 316.002 177.955C316.121 178.232 316.241 178.508 316.364 178.793C316.607 179.468 316.607 179.468 316.607 180.376C316.807 180.376 317.007 180.376 317.213 180.376C317.417 180.861 317.618 181.346 317.819 181.832C317.931 182.103 318.043 182.373 318.159 182.652C318.424 183.402 318.424 183.402 318.424 184.31C318.624 184.31 318.824 184.31 319.03 184.31C320.83 188.45 322.036 191.756 321.264 196.314C321.153 197.288 321.144 197.663 321.565 198.514C321.677 198.741 321.789 198.968 321.905 199.202C323.778 202.703 323.778 202.703 325.861 206.08C326.893 207.68 327.632 209.452 328.426 211.177C328.911 212.228 329.421 213.263 329.942 214.297C330.38 215.17 330.801 216.052 331.216 216.936C331.374 217.269 331.532 217.602 331.694 217.945C332.049 218.809 332.049 218.809 332.049 219.717C332.249 219.717 332.449 219.717 332.654 219.717C332.801 220.032 332.948 220.347 333.099 220.672C335.005 224.751 336.972 228.79 339.13 232.742C340.527 235.318 340.527 235.318 340.527 236.664C340.726 236.664 340.926 236.664 341.132 236.664C341.282 237.026 341.432 237.388 341.586 237.761C342.174 239.081 342.845 240.342 343.554 241.6C343.655 241.781 343.755 241.962 343.859 242.149C344.459 243.198 345.115 243.994 345.976 244.834C345.976 245.034 345.976 245.234 345.976 245.44C346.143 245.459 346.31 245.478 346.481 245.497C348.837 245.844 351.013 246.586 353.255 247.357C354.786 247.88 356.305 248.348 357.879 248.731C360.873 249.493 363.729 250.657 366.608 251.766C367.398 252.068 368.19 252.364 368.985 252.656C369.208 252.739 369.432 252.821 369.662 252.906C370.25 253.122 370.837 253.337 371.425 253.552C372.318 253.913 372.318 253.913 373.226 254.518C374.902 254.434 376.487 254.108 378.127 253.762C380.114 253.352 382.063 253.097 384.092 253.028C384.553 253.012 385.013 252.99 385.474 252.965C393.119 252.579 401.096 254.134 406.935 259.342C413.109 264.953 416.572 269.96 417.942 278.293C418.006 278.663 418.07 279.034 418.136 279.415C419.596 288.062 419.219 296.63 416.825 305.056C416.758 305.292 416.691 305.529 416.622 305.772C416.307 306.876 415.984 307.977 415.651 309.076C415.447 309.751 415.247 310.428 415.057 311.107C414.674 312.466 414.225 313.698 413.563 314.945C413.174 315.681 412.809 316.426 412.443 317.173C411.472 319.147 410.423 321.046 409.256 322.911C409.022 323.292 408.788 323.674 408.554 324.056C407.254 326.171 405.926 328.24 404.437 330.229C403.948 330.889 403.473 331.553 403.004 332.227C402.867 332.423 402.73 332.618 402.589 332.82C402.319 333.206 402.051 333.593 401.785 333.981C401.464 334.438 401.123 334.879 400.778 335.318C400.578 335.318 400.379 335.318 400.173 335.318C400.099 335.538 400.025 335.757 399.949 335.984C399.52 336.935 399.013 337.528 398.299 338.288C397.457 339.193 396.632 340.1 395.839 341.049C391.743 345.706 385.956 350.093 379.584 350.752C374.549 350.974 370.101 350.942 365.657 348.331C365.442 348.208 365.228 348.084 365.007 347.957C363.016 346.644 361.659 344.633 360.252 342.744C359.958 342.351 359.656 341.965 359.352 341.581C358.996 341.068 358.996 341.068 358.996 340.463C357.334 341.59 355.941 342.884 354.541 344.321C353.326 345.556 352.017 346.635 350.661 347.714C350.03 348.234 349.47 348.759 348.91 349.352C347.598 350.714 346.079 351.826 344.584 352.977C343.201 354.045 341.867 355.166 340.564 356.331C339.387 357.365 338.157 358.302 336.893 359.225C335.512 360.238 334.176 361.284 332.863 362.384C331.507 363.501 330.112 364.458 328.617 365.378C327.853 365.856 327.123 366.361 326.391 366.885C324.507 368.218 322.543 369.417 320.581 370.629C319.727 371.158 318.876 371.692 318.025 372.226C316.3 373.307 314.569 374.378 312.818 375.418C311.912 375.962 311.015 376.521 310.117 377.08C301.204 382.563 291.39 385.716 281.252 388.036C280.398 388.247 279.554 388.478 278.707 388.716C277.024 389.177 275.335 389.529 273.621 389.848C273.315 389.906 273.01 389.963 272.695 390.023C272.052 390.144 271.409 390.264 270.767 390.384C269.8 390.564 268.833 390.747 267.867 390.931C262.64 391.916 257.557 392.635 252.231 392.608C252.01 392.608 251.79 392.607 251.563 392.607C246.936 392.593 242.179 392.558 237.887 390.698C236.868 390.536 236.868 390.536 235.767 390.471C228.873 389.798 222.198 387.784 215.784 385.251C215.219 385.031 214.653 384.812 214.087 384.592C211.489 383.575 208.923 382.506 206.398 381.317C205.856 381.066 205.313 380.816 204.77 380.566C204 380.212 203.231 379.856 202.462 379.501C202.462 379.301 202.462 379.101 202.462 378.896C202.126 378.845 202.126 378.845 201.782 378.794C200.914 378.585 200.44 378.322 199.726 377.799C199.501 377.636 199.277 377.473 199.046 377.306C198.695 377.044 198.695 377.044 198.337 376.777C198.095 376.6 197.854 376.423 197.605 376.24C195.741 374.863 193.941 373.426 192.168 371.935C191.889 371.723 191.61 371.512 191.323 371.293C191.102 371.106 190.881 370.918 190.654 370.725C190.654 370.525 190.654 370.325 190.654 370.12C190.478 370.039 190.301 369.959 190.12 369.876C188.215 368.857 186.701 367.092 185.201 365.566C184.635 365.011 184.052 364.501 183.445 363.991C178.379 359.588 174.844 353.818 171.404 348.132C170.819 347.167 170.225 346.207 169.631 345.248C169.444 344.943 169.257 344.638 169.065 344.323C168.741 343.796 168.411 343.27 168.076 342.749C165.89 339.283 164.508 335.398 163.076 331.578C162.51 330.075 161.917 328.597 161.266 327.128C158.722 321.307 156.994 315.159 155.533 308.99C155.445 308.624 155.357 308.257 155.267 307.88C153.654 300.548 153.355 292.925 153.375 285.442C153.376 285.008 153.376 285.008 153.376 284.564C153.38 280.675 153.435 276.79 153.565 272.902C153.572 272.691 153.579 272.48 153.586 272.262C153.593 272.054 153.6 271.845 153.607 271.63C153.715 268.38 153.773 265.137 153.729 261.886C153.719 261.138 153.713 260.391 153.709 259.643C153.703 258.513 153.689 257.383 153.669 256.254C153.663 255.813 153.659 255.372 153.657 254.93C153.638 250.804 152.768 247.257 150.811 243.594C149.861 241.635 149.16 239.562 148.414 237.519C148.119 236.712 147.818 235.908 147.518 235.103C145.907 230.744 144.657 226.347 143.895 221.759C143.297 218.416 142.059 215.36 140.48 212.36C139.876 211.096 139.411 209.783 138.931 208.467C138.528 207.367 138.107 206.292 137.612 205.229C135.826 201.299 134.784 196.486 134.641 192.178C134.629 191.859 134.617 191.541 134.605 191.212C134.457 183.304 135.115 173.94 138.853 166.822C139.245 166.027 139.572 165.215 139.902 164.393C140.646 162.584 141.537 160.903 142.513 159.211C142.683 158.915 142.853 158.618 143.028 158.312C145.372 154.239 147.842 150.241 150.477 146.349C151.3 145.109 152.053 143.831 152.808 142.548C153.955 140.623 155.12 138.71 156.29 136.798C156.58 136.323 156.871 135.847 157.161 135.372C157.615 134.629 158.072 133.887 158.531 133.147C159.344 131.825 160.041 130.514 160.644 129.084C161.053 128.166 161.52 127.286 161.986 126.396C164.465 121.496 165.765 116.461 166.735 111.076C166.81 110.672 166.81 110.672 166.887 110.261C167.025 109.512 167.156 108.762 167.284 108.012C167.34 107.696 167.34 107.696 167.398 107.373C167.989 103.649 167.593 99.8515 167.272 96.1187C167.208 95.372 167.146 94.6252 167.085 93.8783C167.044 93.3951 167.004 92.9121 166.964 92.429C166.945 92.2098 166.927 91.9907 166.908 91.7649C166.821 90.7535 166.716 89.7533 166.58 88.7467C166.373 87.1348 166.324 85.517 166.266 83.8941C166.253 83.5507 166.24 83.2073 166.227 82.8535C166.109 79.3989 166.073 75.9458 166.074 72.4894C166.073 71.4639 166.067 70.4386 166.062 69.4132C166.048 64.0685 166.339 58.8546 167.454 53.6154C167.521 53.2957 167.587 52.9759 167.655 52.6465C169.287 44.9354 172.463 37.7204 177.332 31.4862C177.528 31.2323 177.724 30.9783 177.926 30.7167C179.166 29.1364 180.475 27.6321 181.83 26.149C182.399 25.5223 182.952 24.8858 183.501 24.2422C184.526 23.0624 185.632 21.9691 186.746 20.8741C187.443 20.1844 188.108 19.4983 188.705 18.7194C189.606 17.681 190.619 16.8947 191.703 16.0549C192.382 15.5179 193.011 14.9581 193.644 14.3692C195.164 13.021 197.347 11.2106 199.435 11.2106C199.435 11.0109 199.435 10.8111 199.435 10.6054C200.184 10.4556 200.184 10.4556 200.949 10.3027C200.949 10.103 200.949 9.90328 200.949 9.6975C203.289 8.40805 205.603 7.5124 208.157 6.75521C209.43 6.37568 210.675 5.93251 211.924 5.47971C216.953 3.68146 222.056 2.28846 227.29 1.2241C227.526 1.17368 227.763 1.12326 228.007 1.07131C234.517 -0.279729 242.332 -0.48518 248.787 1.2241ZM238.91 6.80841C237.328 6.95959 235.75 7.03311 234.164 7.0933C233.643 7.11433 233.123 7.13541 232.602 7.15654C231.802 7.18883 231.002 7.21967 230.202 7.24586C226.731 7.36204 223.646 7.70202 220.326 8.78963C219.987 8.89966 219.647 9.0097 219.297 9.12306C218.279 9.465 217.268 9.82314 216.257 10.1893C215.713 10.3855 215.713 10.3855 215.158 10.5858C198.066 16.8217 183.884 26.3809 175.894 43.1561C174.277 46.6829 173.284 50.2602 172.431 54.0315C172.355 54.3654 172.28 54.6992 172.202 55.0431C171.238 59.4606 170.852 63.731 170.861 68.2358C170.86 68.4998 170.86 68.7638 170.86 69.0358C170.865 74.1419 171.17 79.2214 171.542 84.3126C171.568 84.6738 171.594 85.0351 171.622 85.4073C171.858 88.596 172.099 91.777 172.522 94.9469C172.893 97.809 172.893 100.675 172.886 103.557C172.885 104.468 172.892 105.38 172.9 106.291C172.919 112.076 172.426 117.738 170.369 123.181C170.264 123.458 170.16 123.735 170.052 124.021C167.445 130.875 164.482 137.124 160.356 143.197C159.778 144.052 159.21 144.912 158.644 145.775C156.92 148.403 155.159 150.967 153.218 153.439C145.164 163.732 139.174 177.617 140.394 190.968C141.398 197.862 144.031 205.151 147.358 211.243C149.318 215.17 150.391 218.947 151.1 223.257C151.485 225.548 151.964 227.804 152.505 230.063C152.613 230.517 152.613 230.517 152.722 230.981C153.447 233.947 154.31 236.824 155.722 239.538C155.822 239.735 155.923 239.932 156.026 240.135C156.496 241.055 156.973 241.97 157.453 242.884C157.876 243.69 158.294 244.498 158.712 245.307C158.847 245.559 158.982 245.811 159.121 246.071C160.121 248.015 160.317 249.514 159.79 251.662C158.823 256.197 159.022 261.062 158.863 265.677C158.814 267.114 158.763 268.551 158.712 269.987C158.7 270.332 158.687 270.676 158.675 271.031C158.606 272.873 158.519 274.711 158.392 276.55C158.247 278.716 158.211 280.87 158.22 283.04C158.221 283.421 158.223 283.801 158.224 284.193C158.231 285.296 158.243 286.4 158.258 287.504C158.261 287.79 158.265 288.076 158.269 288.37C158.546 303.234 163.352 318.56 170.065 331.696C170.383 332.32 170.698 332.945 171.012 333.571C174.339 340.214 174.339 340.214 178.183 346.564C178.744 347.43 179.268 348.318 179.798 349.203C181.268 351.654 182.819 353.958 184.599 356.199C184.794 356.448 184.988 356.697 185.189 356.954C191.838 365.38 199.167 371.497 208.831 376.18C209.424 376.473 210.009 376.778 210.593 377.088C215.516 379.678 220.615 381.168 226.038 382.319C227.45 382.629 228.854 382.971 230.26 383.31C232.193 383.772 234.131 384.212 236.07 384.645C236.424 384.725 236.778 384.805 237.142 384.888C253.137 388.412 273.777 386.158 288.66 379.507C288.985 379.362 289.311 379.218 289.646 379.069C293.216 377.47 296.724 375.751 300.22 373.997C300.549 373.832 300.877 373.668 301.216 373.499C306.283 370.958 311.208 368.305 316.002 365.278C316.594 364.912 317.185 364.546 317.777 364.181C321.333 361.969 324.756 359.608 328.113 357.107C328.287 356.978 328.461 356.849 328.64 356.716C329.679 355.943 330.713 355.164 331.746 354.383C332.326 353.948 332.907 353.513 333.487 353.078C333.786 352.853 334.086 352.629 334.394 352.397C335.103 351.866 335.814 351.337 336.525 350.809C338.756 349.149 340.956 347.461 343.121 345.716C344.306 344.76 345.503 343.825 346.714 342.903C348.411 341.609 350.067 340.269 351.72 338.92C353.076 337.814 354.44 336.72 355.816 335.64C355.98 335.511 356.143 335.383 356.311 335.251C357.595 334.245 358.899 333.267 360.207 332.292C360.308 332.465 360.41 332.639 360.515 332.818C363.796 338.368 367.226 343.547 373.529 345.91C378.287 346.768 383.058 343.551 386.808 340.986C390.92 338.07 394.588 334.429 396.842 329.871C397.036 329.69 397.229 329.509 397.429 329.322C398.223 328.48 398.53 327.611 398.962 326.542C399.517 325.502 399.783 325.087 400.778 324.424C400.99 323.923 401.191 323.418 401.384 322.911C401.686 322.448 402.002 321.994 402.33 321.549C405.071 317.693 405.071 317.693 406.584 313.266C406.87 312.179 407.319 311.22 407.818 310.219C410.007 305.74 411.316 300.994 412.155 296.093C412.242 295.602 412.34 295.114 412.446 294.627C412.925 292.349 412.992 290.109 412.985 287.791C412.984 287.151 412.991 286.51 412.998 285.87C413.018 281.782 412.454 277.883 410.845 274.094C410.739 273.838 410.633 273.582 410.524 273.319C409.115 270.012 407.339 267.56 404.714 265.11C404.439 264.829 404.165 264.548 403.882 264.259C401.308 261.758 398.284 260.298 394.855 259.379C394.633 259.315 394.41 259.251 394.181 259.185C389.694 258.084 384.727 258.751 380.191 259.239C379.405 259.323 378.618 259.403 377.831 259.482C375.266 259.745 372.725 260.039 370.198 260.571C370.12 260.384 370.042 260.197 369.962 260.004C369.542 259.272 369.282 259.097 368.531 258.742C368.31 258.637 368.09 258.532 367.863 258.424C367.502 258.26 367.502 258.26 367.133 258.093C366.88 257.976 366.627 257.86 366.367 257.74C359.221 254.51 352.014 252.496 344.334 251.036C343.948 250.962 343.948 250.962 343.554 250.887C343.287 250.852 343.02 250.817 342.745 250.782C341.875 250.538 341.714 250.31 341.268 249.539C341.134 249.312 341 249.086 340.862 248.852C340.649 248.474 340.649 248.474 340.432 248.087C340.2 247.688 340.2 247.688 339.964 247.281C339.438 246.368 338.922 245.45 338.407 244.532C338.218 244.197 338.029 243.862 337.835 243.517C332.159 233.432 326.84 223.176 322.489 212.446C321.565 210.167 320.628 207.894 319.685 205.622C319.399 204.93 319.114 204.237 318.829 203.544C318.649 203.106 318.467 202.669 318.286 202.232C318.155 201.917 318.155 201.917 318.021 201.595C317.262 199.799 316.381 198.083 315.451 196.37C315.094 195.507 315.094 195.507 315.17 194.823C315.334 194.44 315.513 194.064 315.699 193.691C315.985 191.521 315.386 189.87 314.488 187.923C314.302 187.504 314.302 187.504 314.111 187.077C313.2 185.054 312.238 183.058 311.223 181.085C310.707 180.083 310.211 179.073 309.721 178.059C307.136 172.745 304.241 167.762 300.561 163.127C300.241 162.715 300.241 162.715 299.915 162.294C295.061 156.173 288.345 150.182 280.275 149.206C278.961 149.161 277.653 149.169 276.339 149.206C276.223 148.899 276.223 148.899 276.105 148.587C275.666 147.53 275.154 146.517 274.636 145.499C274.304 144.838 273.974 144.176 273.643 143.515C273.43 143.088 273.215 142.661 273 142.235C270.413 137.084 268.198 131.71 267.861 125.904C268.182 125.856 268.182 125.856 268.509 125.806C276.234 123.981 283.957 115.841 287.993 109.334C290.226 105.57 291.528 101.913 291.518 97.5215C291.518 97.2372 291.518 96.9528 291.519 96.6598C291.519 96.059 291.518 95.4583 291.517 94.8575C291.515 93.9491 291.517 93.0407 291.519 92.1323C291.52 89.4907 291.52 86.8663 291.247 84.2357C291.035 82.183 291.174 80.4089 291.629 78.3925C292.681 73.4722 292.463 68.6619 289.783 64.3277C288.436 62.2767 286.697 60.5533 284.924 58.8699C280.362 54.5203 278.196 48.5469 276.944 42.4563C276.521 40.4141 275.839 38.5346 275.033 36.6119C274.926 36.3489 274.818 36.0858 274.707 35.8148C273.907 33.9761 272.878 32.6247 271.494 31.1836C269.7 29.1973 268.8 27.7895 268.467 25.1312C267.645 20.0489 264.531 16.254 260.436 13.289C254.666 9.24157 249.406 7.7906 242.428 7.27653C242.878 6.97693 242.878 6.97693 243.337 6.67128C242.901 6.66279 242.466 6.6571 242.031 6.65237C241.789 6.64886 241.546 6.64535 241.296 6.64173C240.49 6.66588 239.712 6.72694 238.91 6.80841Z" fill="#FEFDFD"/>
<path d="M264.834 155.259C264.974 155.549 264.974 155.549 265.118 155.845C265.389 156.45 265.389 156.45 265.742 156.772C265.628 157.954 265.512 158.975 265.137 160.101C264.807 162.883 264.779 165.681 264.777 168.48C264.773 168.855 264.77 169.23 264.766 169.617C264.763 171.223 264.773 172.744 265.137 174.313C265.595 176.305 265.515 178.305 265.496 180.339C265.496 180.727 265.496 181.116 265.496 181.517C265.487 183.293 265.436 185.012 265.205 186.774C265.015 188.861 265.639 190.524 266.404 192.443C266.541 192.797 266.677 193.15 266.818 193.515C268.86 198.65 271.605 203.43 274.825 207.915C274.975 208.125 275.125 208.335 275.28 208.551C275.755 209.212 276.235 209.869 276.718 210.525C276.864 210.726 277.01 210.927 277.161 211.134C277.865 212.072 278.547 212.868 279.469 213.6C280.275 214.27 280.275 214.27 280.389 215.121C280.351 215.34 280.314 215.558 280.275 215.783C279.67 216.086 279.67 216.086 278.818 215.897C277.692 215.411 277.163 214.872 276.339 213.967C276.191 213.828 276.043 213.69 275.891 213.547C273.996 211.765 272.462 209.673 270.889 207.612C270.669 207.329 270.669 207.329 270.445 207.041C269.283 205.526 268.257 203.953 267.275 202.316C267.118 202.056 266.961 201.795 266.799 201.526C265.426 199.199 264.315 196.806 263.32 194.297C263.1 194.763 263.1 194.763 262.875 195.239C260.806 199.548 258.173 202.996 254.842 206.402C254.61 206.642 254.378 206.882 254.139 207.129C249.691 211.419 243.625 214.163 238.278 217.149C233.207 219.992 229.336 222.281 227.498 228.134C227.324 228.757 227.153 229.381 226.987 230.006C226.882 230.324 226.777 230.641 226.669 230.969C226.291 232.492 226.215 233.985 226.117 235.548C225.578 242.651 223.994 247.962 218.812 253.005C218.606 253.211 218.399 253.417 218.186 253.63C215.391 256.259 212.069 258.528 208.783 260.495C205.59 262.494 203.577 265.572 202.719 269.221C202.443 270.512 202.209 271.809 201.988 273.111C201.863 273.855 201.729 274.596 201.592 275.338C201.51 275.8 201.428 276.262 201.346 276.723C201.292 277.025 201.292 277.025 201.237 277.332C200.576 281.277 200.613 285.251 200.675 289.235C200.684 289.869 200.69 290.503 200.695 291.137C200.702 291.693 200.702 291.693 200.71 292.261C200.647 293.242 200.484 293.896 200.041 294.767C199.872 294.911 199.703 295.054 199.53 295.202C199.038 295.676 199.038 295.676 199.189 296.488C199.362 297.192 199.544 297.893 199.733 298.593C200.069 299.938 200.23 301.276 200.362 302.654C200.386 302.88 200.409 303.105 200.434 303.337C200.812 307.084 200.991 310.792 200.947 314.557C200.943 315.164 200.939 315.771 200.935 316.379C200.926 317.848 200.914 319.317 200.897 320.786C200.773 332.082 202.855 342.752 210.335 351.66C210.549 351.916 210.763 352.172 210.983 352.436C215.926 358.122 222.245 362.077 228.488 366.184C229.378 366.77 230.267 367.359 231.155 367.948C236.834 371.699 242.586 375.453 248.787 378.291C249.012 378.394 249.237 378.497 249.469 378.604C250.859 379.237 252.256 379.852 253.659 380.456C254.137 380.667 254.606 380.898 255.073 381.133C258.954 383.003 265.046 382.061 269.114 381.008C270.147 380.746 271.12 380.586 272.176 380.466C279.814 379.407 286.599 376.437 293.451 373.052C294.665 372.454 295.886 371.869 297.112 371.295C301.113 369.419 304.984 367.391 308.8 365.164C309.629 364.682 310.461 364.206 311.294 363.731C319.368 359.088 326.831 353.539 334.199 347.866C334.725 347.461 335.252 347.057 335.778 346.654C338.583 344.503 341.373 342.333 344.16 340.16C344.351 340.012 344.542 339.863 344.739 339.71C347.418 337.623 350.062 335.495 352.692 333.347C353.188 332.943 353.686 332.541 354.184 332.139C357.04 329.828 359.726 327.346 362.406 324.836C363.313 323.987 364.22 323.14 365.139 322.305C367.215 320.414 369.221 318.467 371.188 316.463C372.35 315.287 373.546 314.175 374.799 313.097C375.699 312.315 376.553 311.483 377.412 310.656C378.211 310.104 378.632 310.06 379.584 310.201C380.19 310.806 380.19 310.806 380.328 311.64C380.145 312.943 379.505 313.543 378.587 314.412C378.341 314.655 378.341 314.655 378.089 314.904C377.564 315.421 377.032 315.932 376.5 316.442C376.148 316.788 375.796 317.134 375.444 317.48C374.045 318.852 372.649 320.183 371.107 321.398C370.812 321.723 370.527 322.056 370.255 322.4C369.62 323.162 368.969 323.821 368.212 324.462C366.342 326.047 364.652 327.826 362.932 329.569C363.669 331.676 365.004 333.508 366.209 335.372C366.487 335.802 366.76 336.237 367.03 336.672C368.456 338.795 371.14 341.048 373.529 341.976C377.453 342.738 380.764 340.396 383.918 338.364C388.338 335.287 391.319 331.886 394.061 327.261C395.601 324.7 397.198 322.204 398.952 319.783C400.073 318.23 401.092 316.636 402.075 314.992C403.206 313.129 403.206 313.129 403.806 312.319C404.752 312.168 404.752 312.168 405.623 312.319C406.228 312.925 406.228 312.925 406.38 313.813C406.279 316.703 403.124 321.172 401.081 323.214C400.994 323.451 400.906 323.688 400.816 323.932C400.431 324.83 399.961 325.262 399.265 325.937C398.69 326.787 398.296 327.597 397.902 328.547C397.448 329.569 397.448 329.569 397.032 329.984C396.388 330.629 395.964 331.35 395.48 332.122C391.945 337.488 386.95 341.376 381.25 344.246C381.054 344.344 380.859 344.443 380.657 344.545C378.082 345.798 375.412 346.557 372.624 345.599C367.908 343.392 364.647 339.691 362.024 335.3C361.847 335.009 361.67 334.718 361.488 334.418C361.058 333.711 360.632 333.002 360.207 332.292C358.858 333.293 357.525 334.302 356.233 335.375C354.979 336.408 353.711 337.421 352.43 338.42C350.862 339.644 349.314 340.889 347.774 342.146C345.691 343.846 343.574 345.492 341.435 347.121C340.959 347.488 340.483 347.855 340.008 348.223C335.691 351.555 331.308 354.802 326.902 358.015C326.691 358.17 326.48 358.324 326.263 358.483C322.464 361.254 318.505 363.745 314.488 366.186C314.211 366.357 313.934 366.528 313.648 366.704C308.82 369.664 303.781 372.209 298.725 374.754C298.394 374.921 298.063 375.089 297.722 375.262C291.773 378.268 285.662 381.261 279.14 382.792C278.629 382.917 278.629 382.917 278.109 383.045C277.117 383.284 276.123 383.513 275.128 383.738C274.855 383.801 274.582 383.864 274.301 383.929C260.843 386.983 246.752 387.09 233.346 384.041C232.969 383.955 232.592 383.87 232.204 383.782C230.6 383.412 229.002 383.028 227.406 382.627C226.151 382.312 224.894 382.035 223.627 381.777C218.813 380.784 214.342 379.074 210.007 376.777C209.431 376.477 208.849 376.192 208.263 375.911C203.531 373.637 198.928 371.093 195.053 367.519C194.567 367.072 194.076 366.634 193.583 366.195C187.521 360.759 182.683 354.195 178.544 347.215C178.426 347.017 178.308 346.82 178.186 346.616C176.425 343.662 174.744 340.682 173.191 337.614C172.718 336.688 172.236 335.767 171.753 334.847C170.832 333.091 169.922 331.331 169.018 329.567C168.743 329.032 168.466 328.497 168.186 327.965C163.481 319.034 160.669 308.299 159.322 298.335C159.188 297.344 159.015 296.373 158.826 295.391C157.554 287.678 158.162 279.548 158.627 271.781C158.803 268.805 158.927 265.833 158.999 262.853C159.071 259.916 159.159 256.989 159.45 254.065C159.473 253.837 159.495 253.609 159.519 253.375C159.694 251.812 160.011 250.297 160.377 248.769C161.18 249.542 161.732 250.339 162.327 251.284C164.167 254.082 166.401 256.541 168.685 258.982C169.901 260.316 170.935 261.749 171.977 263.219C174.203 266.351 176.585 269.256 179.339 271.938C181.823 274.379 183.77 277.189 185.754 280.033C187.012 281.837 188.322 283.584 189.708 285.291C189.867 285.487 190.025 285.683 190.188 285.885C191.19 287.102 192.205 288.266 193.38 289.32C194.516 289.472 194.516 289.472 195.499 289.32C196.341 287.097 196.752 284.862 197.106 282.52C197.201 281.895 197.301 281.271 197.401 280.647C197.792 278.149 198.032 275.677 198.148 273.151C198.503 268.109 200.568 263.482 204.242 260.023C205.748 258.728 207.382 257.619 209.009 256.484C212.108 254.317 214.706 252.119 216.996 249.071C217.179 248.839 217.362 248.607 217.551 248.368C219.14 246.256 220.211 243.9 221.273 241.492C221.505 240.972 221.754 240.46 222.006 239.949C223.306 236.865 223.534 233.359 223.827 230.063C224.235 225.565 224.641 221.333 228.166 218.089C230.134 216.575 232.297 215.488 234.611 214.617C240.876 212.068 247.441 208.344 251.845 203.136C252.495 202.381 253.176 201.661 253.858 200.936C260.242 193.932 262.454 187.436 262.483 178.069C262.514 171.912 263.104 166.031 264.231 159.984C264.521 158.411 264.708 156.853 264.834 155.259Z" fill="#BB7660"/>
<path d="M269.073 28.7627C271.692 30.9314 273.43 33.2197 274.826 36.3282C274.95 36.5876 275.074 36.8471 275.202 37.1143C276.043 38.9712 276.576 40.8209 277.04 42.7968C278.703 49.7765 281.06 55.1291 286.255 60.1346C288.803 62.6216 290.99 65.4618 291.781 69.0113C291.836 69.2333 291.89 69.4553 291.947 69.684C292.486 72.9871 292.108 76.2726 291.379 79.505C291.001 81.3757 291.134 83.1388 291.328 85.0231C291.552 87.6775 291.535 90.3365 291.535 92.9985C291.535 93.9042 291.541 94.8097 291.546 95.7153C291.547 96.2977 291.548 96.8801 291.548 97.4625C291.55 97.7298 291.553 97.9972 291.555 98.2727C291.533 104.358 288.046 109.92 284.212 114.405C284.011 114.65 283.81 114.895 283.603 115.147C279.95 119.439 274.087 123.972 268.77 125.904C268.471 125.904 268.171 125.904 267.862 125.904C268.309 133.605 271.919 141.566 276.005 148.009C276.34 148.601 276.34 148.601 276.34 149.206C277.639 149.206 278.938 149.206 280.276 149.206C280.276 149.306 280.276 149.406 280.276 149.509C279.925 149.513 279.573 149.517 279.211 149.522C274.189 149.646 270.002 151.257 266.416 154.897C266.046 155.258 266.046 155.258 265.44 155.258C265.436 154.873 265.431 154.487 265.427 154.09C265.409 152.634 265.385 151.179 265.361 149.723C265.351 149.097 265.342 148.472 265.335 147.847C265.291 143.966 265.064 140.294 264.229 136.496C264.144 136.11 264.06 135.724 263.972 135.327C263.312 132.455 262.163 129.839 260.965 127.157C258.414 121.36 257.084 115.454 257.114 109.128C257.114 108.917 257.115 108.706 257.115 108.488C257.142 104.297 257.93 100.7 259.214 96.7201C260.698 92.0922 262.003 87.557 262.269 82.6825C262.282 82.4495 262.295 82.2166 262.308 81.9766C262.493 78.3148 262.513 74.6456 262.557 70.9799C262.603 67.2408 262.741 63.631 263.321 59.9327C263.368 59.4627 263.412 58.9922 263.448 58.5213C263.803 54.2368 265.004 50.2992 266.379 46.2403C266.487 45.9218 266.595 45.6033 266.706 45.2752C266.915 44.6644 267.127 44.0546 267.343 43.4462C268.565 39.915 268.866 36.4926 268.96 32.7724C268.971 32.3847 268.983 31.9969 268.995 31.5974C269.023 30.6525 269.049 29.7077 269.073 28.7627Z" fill="#F7D6C3"/>
<path d="M265.137 141.641C265.237 141.641 265.337 141.641 265.44 141.641C265.44 146.135 265.44 150.628 265.44 155.259C267.139 153.96 268.837 152.662 270.587 151.325C273.274 149.955 275.088 149.454 278.062 149.452C278.502 149.446 278.502 149.446 278.951 149.441C285.458 149.428 290.796 153.135 295.414 157.377C295.702 157.639 295.989 157.9 296.285 158.17C303.491 165.048 308.06 174.297 312.166 183.223C312.643 184.246 313.143 185.253 313.656 186.258C316.218 191.378 316.218 191.378 315.7 193.691C315.114 194.486 315.114 194.486 314.186 195.205C313.988 195.369 313.79 195.533 313.586 195.702C311.962 197.023 310.243 198.094 308.434 199.139C307.973 199.415 307.512 199.693 307.052 199.971C303.841 201.894 300.61 203.781 297.364 205.645C294.253 207.431 291.165 209.246 288.111 211.128C283.735 213.824 283.735 213.824 282.395 214.27C282.295 214.469 282.195 214.669 282.092 214.875C281.279 214.97 281.279 214.97 280.276 214.875C279.538 214.27 279.538 214.27 278.762 213.362C278.606 213.189 278.45 213.017 278.29 212.839C276.979 211.379 275.829 209.86 274.731 208.236C274.562 207.987 274.393 207.737 274.218 207.48C272.595 205.064 271.085 202.595 269.679 200.047C269.572 199.853 269.464 199.66 269.354 199.46C268.003 196.987 266.89 194.428 265.875 191.8C265.767 191.532 265.658 191.264 265.546 190.987C264.878 189.184 264.797 187.797 265.029 185.896C265.233 184.05 265.193 182.194 265.194 180.338C265.198 179.947 265.201 179.556 265.205 179.153C265.208 177.222 265.103 175.475 264.669 173.596C264.375 171.909 264.458 170.187 264.475 168.479C264.475 168.107 264.475 167.735 264.476 167.352C264.506 160.974 264.506 160.974 265.44 158.285C265.516 157.465 265.516 157.465 265.44 156.772C265.34 156.672 265.24 156.572 265.137 156.469C265.109 156.005 265.102 155.539 265.103 155.074C265.103 154.777 265.103 154.48 265.103 154.174C265.105 153.851 265.106 153.528 265.108 153.196C265.108 152.867 265.109 152.538 265.109 152.2C265.111 151.145 265.114 150.091 265.118 149.036C265.12 148.323 265.121 147.61 265.122 146.897C265.126 145.145 265.131 143.393 265.137 141.641Z" fill="#E2937B"/>
<path d="M265.249 20.2139C266.559 20.3386 266.559 20.3386 267.255 20.8948C268.177 22.7381 268.391 24.6188 268.639 26.6517C268.717 27.5284 268.717 27.5284 269.072 28.1577C269.144 29.3763 269.141 30.5956 269.144 31.8162C269.147 32.4152 269.157 33.0142 269.166 33.6131C269.185 38.404 268.083 42.635 266.498 47.1283C265.072 51.201 263.896 55.1266 263.584 59.4601C263.54 60.0271 263.495 60.5942 263.449 61.1611C263.431 61.4055 263.413 61.6499 263.395 61.9017C263.319 62.6565 263.319 62.6565 263.165 63.4519C262.955 64.8901 262.951 66.3163 262.931 67.768C262.923 68.2485 262.923 68.2485 262.914 68.7388C262.896 69.7628 262.88 70.7868 262.865 71.8108C262.667 84.5475 262.667 84.5475 261.9 88.0389C261.848 88.2867 261.796 88.5345 261.742 88.7899C261.178 91.3775 260.407 93.8999 259.612 96.4245C259.242 97.6046 258.885 98.7885 258.531 99.9735C258.469 100.178 258.406 100.382 258.342 100.593C255.699 109.434 257.937 119.513 261.502 127.72C263.81 133.062 265.158 138.01 265.208 143.876C265.211 144.169 265.214 144.462 265.217 144.764C265.224 145.709 265.228 146.654 265.23 147.599C265.231 147.922 265.232 148.244 265.233 148.577C265.237 154.413 264.871 160.062 263.686 165.791C262.943 169.456 262.869 173.052 262.846 176.783C262.756 188.002 259.974 194.591 252.304 202.815C251.614 203.566 250.956 204.335 250.3 205.116C248.97 206.615 247.419 207.714 245.758 208.823C245.493 209 245.227 209.177 244.954 209.359C241.602 211.537 238.177 213.487 234.462 214.973C230.171 216.732 227.119 218.715 225.208 223.012C224.639 224.583 224.498 226.156 224.356 227.812C224.286 228.507 224.215 229.202 224.144 229.897C224.113 230.229 224.081 230.56 224.048 230.902C223.321 238.382 220.809 245.552 215.534 251.094C214.848 251.801 214.848 251.801 214.207 252.661C213.197 253.884 211.922 254.74 210.637 255.653C210.122 256.027 209.607 256.4 209.092 256.774C208.714 257.047 208.714 257.047 208.329 257.325C207.337 258.044 206.353 258.772 205.376 259.512C205.08 259.733 204.784 259.955 204.479 260.183C200.902 263.245 198.861 268.083 198.471 272.723C198.434 273.235 198.397 273.747 198.361 274.26C198.129 277.449 197.717 280.588 197.182 283.74C197.12 284.116 197.058 284.492 196.994 284.879C196.9 285.412 196.9 285.412 196.805 285.954C196.75 286.268 196.695 286.582 196.639 286.906C196.383 287.898 195.985 288.723 195.498 289.623C194.476 289.66 194.476 289.66 193.379 289.623C192.773 289.017 192.773 289.017 192.695 288.28C192.716 285.46 192.97 282.698 193.303 279.901C193.33 279.668 193.357 279.434 193.385 279.194C193.8 275.669 194.259 272.173 195.195 268.742C195.278 268.438 195.278 268.438 195.362 268.129C197.108 261.92 200.697 257.861 205.879 254.205C212.753 249.349 218.09 242.934 219.606 234.406C219.909 232.364 220.107 230.306 220.287 228.25C220.711 223.623 221.765 218.639 225.472 215.48C228.4 213.29 231.647 211.794 234.985 210.344C236.616 209.632 238.168 208.814 239.703 207.915C239.962 207.766 240.222 207.618 240.489 207.464C242.131 206.507 243.662 205.461 245.153 204.283C245.402 204.094 245.651 203.906 245.908 203.711C246.659 203.08 247.209 202.451 247.802 201.673C248.646 200.59 249.518 199.561 250.451 198.552C254.496 194.092 256.383 189.346 258.247 183.715C258.475 183.1 258.475 183.1 258.777 182.797C258.804 181.953 258.812 181.114 258.809 180.27C258.845 173.174 259.358 166.391 260.597 159.404C262.56 148.316 260.272 137.459 256.775 126.953C255.633 123.513 254.618 120.087 253.933 116.523C253.86 116.157 253.787 115.791 253.712 115.414C252.448 108.036 253.904 101.388 256.13 94.393C257.366 90.4907 258.188 86.7238 258.475 82.6295C258.501 82.3375 258.526 82.0455 258.553 81.7446C258.815 78.609 258.837 75.4761 258.877 72.3314C259.008 63.0787 259.433 53.9935 262.937 45.309C264.254 41.9954 264.997 38.9849 265.136 35.4206C265.147 35.1425 265.158 34.8644 265.17 34.5779C265.3 30.714 265.38 26.7368 263.889 23.0947C263.553 22.2318 263.642 21.7662 263.925 20.8948C264.53 20.2895 264.53 20.2895 265.249 20.2139Z" fill="#232222"/>
<path d="M269.073 28.7627C269.789 29.8354 269.959 30.8276 270.171 32.0726C270.21 32.3039 270.25 32.5351 270.291 32.7734C271.206 38.4577 270.16 44.8039 267.866 50.0869C266.495 53.5213 266.014 56.8784 265.894 60.5379C265.873 61.181 265.851 61.8241 265.828 62.4672C265.819 62.7504 265.81 63.0336 265.8 63.3254C265.743 64.1694 265.743 64.1694 265.587 64.9661C265.371 66.4671 265.416 67.9524 265.432 69.4665C265.436 70.1598 265.439 70.8531 265.443 71.5464C265.451 72.6313 265.459 73.7162 265.469 74.8011C265.478 75.8537 265.484 76.9062 265.489 77.9588C265.493 78.277 265.497 78.5952 265.501 78.923C265.508 80.9117 265.32 82.7944 264.976 84.7536C264.836 85.6499 264.767 86.5277 264.721 87.4334C264.445 90.9477 263.231 94.2414 261.947 97.4962C260.849 100.335 260.484 103.027 260.501 106.064C260.504 106.539 260.504 106.539 260.506 107.024C260.595 112.8 261.972 118.201 264.04 123.578C264.496 124.804 264.774 125.795 264.532 127.115C263.851 127.796 263.851 127.796 263.018 128.325C262.613 128.625 262.209 128.928 261.807 129.233C261.523 128.527 261.239 127.821 260.955 127.115C260.876 126.918 260.797 126.722 260.716 126.52C260.472 125.912 260.231 125.303 259.99 124.694C259.877 124.412 259.877 124.412 259.761 124.124C257.864 119.272 257.087 114.309 257.114 109.128C257.114 108.917 257.115 108.706 257.116 108.488C257.143 104.297 257.93 100.7 259.214 96.7201C260.698 92.0922 262.003 87.557 262.269 82.6825C262.282 82.4496 262.295 82.2166 262.308 81.9766C262.494 78.3148 262.513 74.6456 262.557 70.9799C262.603 67.2408 262.741 63.631 263.321 59.9327C263.369 59.4627 263.412 58.9922 263.449 58.5213C263.804 54.2368 265.004 50.2992 266.379 46.2403C266.487 45.9218 266.595 45.6033 266.706 45.2752C266.915 44.6644 267.127 44.0546 267.343 43.4462C268.565 39.915 268.867 36.4926 268.96 32.7724C268.972 32.3847 268.983 31.9969 268.995 31.5974C269.024 30.6525 269.05 29.7077 269.073 28.7627Z" fill="#ECB09D"/>
<path d="M267.559 126.207C267.622 126.53 267.684 126.853 267.749 127.186C269.23 134.48 272.009 141.717 276.005 148.012C276.339 148.601 276.339 148.601 276.339 149.207C277.638 149.207 278.937 149.207 280.275 149.207C280.275 149.306 280.275 149.406 280.275 149.509C279.748 149.516 279.748 149.516 279.211 149.522C274.188 149.647 270.002 151.257 266.415 154.897C266.045 155.259 266.045 155.259 265.439 155.259C265.435 154.873 265.43 154.488 265.426 154.09C265.408 152.635 265.385 151.179 265.36 149.723C265.35 149.098 265.341 148.473 265.334 147.847C265.269 142.124 264.883 136.132 262.526 130.819C262.109 129.839 262.109 129.839 262.09 129.025C262.558 128.008 263.245 127.573 264.228 127.115C266.798 126.207 266.798 126.207 267.559 126.207Z" fill="#F2C5AB"/>
<path d="M276.943 60.8408C277.692 60.9906 277.692 60.9906 278.456 61.1434C278.416 62.7473 277.802 63.6157 276.749 64.7465C274.204 67.0039 271.322 68.5476 267.859 68.4064C267.67 67.8389 267.67 67.8389 267.557 67.1959C268.28 66.4733 268.651 66.4532 269.638 66.2502C272.817 65.4297 275.149 63.5305 276.943 60.8408Z" fill="#3F3D3C"/>
<path d="M290.266 89.8919C290.512 90.4026 290.512 90.4026 290.569 91.1024C289.435 92.6267 287.795 93.4871 286.028 94.1286C285.171 94.2389 284.472 94.2088 283.606 94.1286C283.506 93.6293 283.406 93.13 283.303 92.6155C284.211 92.0103 284.211 92.0103 285.176 91.7644C286.17 91.455 286.738 91.1749 287.579 90.6107C288.514 89.9907 289.115 89.7122 290.266 89.8919Z" fill="#E3957D"/>
<path d="M269.981 55.9417C270.299 55.9353 270.299 55.9353 270.624 55.9287C271.192 55.9985 271.192 55.9985 271.798 56.6037C271.684 57.2468 271.684 57.2468 271.495 57.8142C271.216 57.8639 271.216 57.8639 270.931 57.9147C270.564 57.9866 270.564 57.9866 270.189 58.0601C269.826 58.1285 269.826 58.1285 269.455 58.1984C268.691 58.4448 268.411 58.7652 267.862 59.3273C267.048 59.2327 267.048 59.2327 266.348 59.0247C266.438 57.9417 266.572 57.5835 267.388 56.8307C268.343 56.1791 268.843 55.9522 269.981 55.9417Z" fill="#2E2C2B"/>
<path d="M279.064 215.782C279.264 215.782 279.464 215.782 279.67 215.782C279.517 219.002 279.132 222.122 278.591 225.296C278.52 225.727 278.448 226.159 278.377 226.59C278.204 227.628 278.03 228.666 277.853 229.703C277.753 229.703 277.653 229.703 277.551 229.703C277.449 227.278 277.726 224.922 278.051 222.524C278.138 221.888 278.221 221.252 278.305 220.616C278.745 217.288 278.745 217.288 279.064 215.782Z" fill="#F0AE96"/>
<path d="M264.834 155.259C264.928 155.452 265.021 155.646 265.118 155.845C265.389 156.45 265.389 156.45 265.742 156.772C265.628 157.954 265.512 158.975 265.137 160.101C265.091 160.737 265.054 161.374 265.023 162.011C264.92 163.531 264.761 164.58 263.926 165.851C263.513 164.684 263.695 163.68 263.858 162.47C263.899 162.16 263.899 162.16 263.941 161.844C264.028 161.187 264.119 160.53 264.21 159.874C264.269 159.427 264.329 158.981 264.389 158.534C264.535 157.442 264.684 156.35 264.834 155.259Z" fill="#9D6554"/>
<path d="M367.169 341.976C368.535 342.784 369.862 343.644 371.191 344.511C371.955 344.967 372.693 345.303 373.528 345.607C373.528 345.707 373.528 345.807 373.528 345.91C371.9 346.118 370.978 345.578 369.628 344.773C368.933 344.366 368.225 344.074 367.472 343.792C367.169 343.489 367.169 343.489 367.15 342.713C367.157 342.47 367.163 342.227 367.169 341.976Z" fill="white"/>
<path d="M263.322 132.864C264.764 135.027 264.965 137.888 264.835 140.43C264.636 140.43 264.436 140.43 264.23 140.43C264.018 139.283 263.812 138.135 263.605 136.987C263.515 136.497 263.515 136.497 263.423 135.997C263.367 135.685 263.311 135.373 263.254 135.051C263.202 134.763 263.149 134.474 263.096 134.177C263.019 133.47 263.019 133.47 263.322 132.864Z" fill="#484441"/>
<path d="M264.528 160.706C264.628 160.706 264.728 160.706 264.831 160.706C264.999 164.192 264.999 164.192 263.923 165.85C263.59 164.839 263.657 164.14 263.885 163.108C263.94 162.848 263.996 162.589 264.053 162.322C264.225 161.613 264.225 161.613 264.528 160.706Z" fill="#A96C58"/>
<path d="M262.107 129.838C262.865 130.727 263.158 131.405 263.319 132.562C263.019 132.562 262.719 132.562 262.41 132.562C262.31 131.663 262.21 130.764 262.107 129.838Z" fill="#4E4845"/>
<path d="M81.6784 188.787C82.148 189.082 82.148 189.082 82.627 189.383C83.4689 189.766 83.4689 189.766 84.483 189.315C84.866 189.113 85.2489 188.912 85.6435 188.705C90.1653 186.346 94.523 185.944 99.5622 185.972C100.119 185.963 100.676 185.954 101.249 185.945C106.252 185.948 110.563 187.074 114.973 189.426C115.824 189.757 115.824 189.757 116.696 189.313C116.979 189.139 117.263 188.966 117.555 188.787C120.699 187.274 123.717 187.086 127.181 187.475C128.388 187.924 128.881 188.3 129.806 189.224C129.806 189.513 129.806 189.801 129.806 190.099C130.095 190.099 130.384 190.099 130.681 190.099C130.681 190.387 130.681 190.676 130.681 190.973C130.938 191.068 131.194 191.163 131.459 191.26C132.762 192.048 133.232 192.939 133.99 194.253C134.37 194.896 134.37 194.896 134.757 195.551C136.431 199.06 137.014 202.245 136.943 206.115C136.945 206.698 136.945 206.698 136.947 207.294C136.928 209.728 136.558 211.804 135.931 214.151C136.256 215.091 136.256 215.091 136.806 215.9C137.556 219.476 137.542 223.193 137.681 226.832C137.705 227.38 137.705 227.38 137.728 227.938C138.025 235.634 136.579 240.651 131.556 246.511C131.28 246.838 131.003 247.165 130.719 247.502C130.127 248.195 129.529 248.884 128.931 249.572C127.16 252.227 127.644 254.872 128.228 257.857C128.833 260.763 129.64 263.613 130.462 266.463C130.592 266.914 130.722 267.365 130.855 267.83C131.509 270.033 132.239 272.019 133.306 274.061C134.633 277.806 135.679 281.648 136.697 285.486C136.789 285.833 136.881 286.18 136.976 286.537C137.062 286.868 137.148 287.198 137.237 287.539C137.35 287.974 137.35 287.974 137.466 288.417C138.006 290.795 138.194 293.092 138.208 295.525C138.21 295.863 138.213 296.201 138.215 296.549C138.219 297.264 138.222 297.979 138.224 298.693C138.228 299.761 138.242 300.827 138.256 301.894C138.31 309.497 136.874 316.04 134.181 323.122C133.945 323.76 133.709 324.4 133.474 325.039C133.245 325.654 133.016 326.27 132.787 326.885C132.683 327.164 132.579 327.442 132.472 327.73C131.339 330.704 129.857 333.328 128.146 335.998C127.486 337.099 127.486 337.099 127.618 338.783C128.241 339.439 128.241 339.439 129.068 339.985C131.228 341.742 131.832 343.424 132.13 346.157C132.281 349.853 131.723 352.46 129.21 355.226C126.723 357.61 124.248 359.363 121.056 360.648C120.768 360.776 120.48 360.905 120.184 361.037C111.321 364.553 100.434 363.046 91.6441 360.263C89.2578 359.556 87.457 359.185 85.0145 359.746C84.6322 359.831 84.2498 359.916 83.8558 360.004C83.5704 360.072 83.285 360.14 82.991 360.21C82.991 360.499 82.991 360.788 82.991 361.085C73.2829 364.655 63.9817 367.681 53.6769 368.957C52.9374 369.062 52.1979 369.168 51.4586 369.274C42.0288 370.524 31.3222 370.921 22.1753 368.082C21.8486 367.984 21.522 367.885 21.1855 367.784C17.2981 366.588 13.7069 365.194 10.3621 362.834C10.0322 362.611 9.70225 362.388 9.36232 362.158C5.22339 359.178 0.94795 354.525 0.090581 349.325C0.00665089 347.99 0.0001749 346.679 0.0256361 345.342C0.0171762 344.898 0.00871628 344.454 0 343.996C0.0208987 340.737 0.8201 338.498 2.4867 335.721C2.70723 335.307 2.92775 334.892 3.15495 334.464C5.45386 331.149 9.88869 328.415 13.8196 327.58C19.2957 326.904 23.4796 327.556 28.3006 330.064C33.6181 332.793 37.1044 332.125 42.7389 330.474C43.6158 330.188 44.4917 329.899 45.364 329.599C45.1846 329.133 45.0053 328.668 44.8205 328.188C44.5821 327.547 44.3439 326.906 44.1061 326.265C43.9882 325.961 43.8704 325.658 43.7489 325.346C41.7771 319.962 41.7212 314.361 41.7497 308.703C41.7544 307.603 41.7498 306.504 41.7442 305.405C41.7379 299.197 42.0221 292.995 43.942 287.044C44.0575 286.677 44.1729 286.309 44.2919 285.931C46.8427 278.069 51.889 271.711 58.3359 266.579C59.2996 265.805 60.0511 265.031 60.8414 264.085C61.8456 262.907 62.8719 261.798 63.9861 260.724C66.8281 257.915 71.5895 252.817 71.6154 248.698C70.793 247.542 70.793 247.542 69.6192 246.456C63.053 239.639 62.7417 231.306 62.518 222.282C62.4454 219.525 62.2612 216.788 62.0172 214.041C61.9614 213.411 61.9614 213.411 61.9044 212.768C61.701 210.596 61.4263 208.458 61.0601 206.306C60.6267 203.475 60.5668 200.665 60.5406 197.806C60.5329 197.359 60.5252 196.911 60.5173 196.45C60.5198 193.425 60.7242 190.777 62.7111 188.339C63.085 188.047 63.085 188.047 63.4665 187.748C63.8371 187.445 63.8371 187.445 64.2151 187.137C69.8496 183.528 76.2875 186.164 81.6784 188.787Z" fill="#373737"/>
<path d="M81.6784 188.787C82.148 189.082 82.148 189.082 82.627 189.383C83.4689 189.766 83.4689 189.766 84.483 189.315C84.866 189.113 85.2489 188.912 85.6435 188.705C90.1653 186.346 94.523 185.944 99.5622 185.972C100.119 185.963 100.676 185.954 101.249 185.945C106.252 185.948 110.563 187.074 114.973 189.426C115.824 189.757 115.824 189.757 116.696 189.313C116.979 189.139 117.263 188.966 117.555 188.787C120.699 187.274 123.717 187.086 127.181 187.475C128.388 187.924 128.881 188.3 129.806 189.224C129.806 189.513 129.806 189.801 129.806 190.099C130.095 190.099 130.384 190.099 130.681 190.099C130.681 190.387 130.681 190.676 130.681 190.973C130.938 191.068 131.194 191.163 131.459 191.26C132.762 192.048 133.232 192.939 133.99 194.253C134.37 194.896 134.37 194.896 134.757 195.551C136.431 199.06 137.014 202.245 136.943 206.115C136.945 206.698 136.945 206.698 136.947 207.294C136.928 209.728 136.558 211.804 135.931 214.151C136.256 215.091 136.256 215.091 136.806 215.9C137.556 219.476 137.542 223.193 137.681 226.832C137.705 227.38 137.705 227.38 137.728 227.938C138.025 235.634 136.579 240.651 131.556 246.511C131.28 246.838 131.003 247.165 130.719 247.502C130.127 248.195 129.529 248.884 128.931 249.572C127.16 252.227 127.644 254.872 128.228 257.857C128.833 260.763 129.64 263.613 130.462 266.463C130.592 266.914 130.722 267.365 130.855 267.83C131.509 270.033 132.239 272.019 133.306 274.061C134.633 277.806 135.679 281.648 136.697 285.486C136.789 285.833 136.881 286.18 136.976 286.537C137.062 286.868 137.148 287.198 137.237 287.539C137.35 287.974 137.35 287.974 137.466 288.417C138.006 290.795 138.194 293.092 138.208 295.525C138.21 295.863 138.213 296.201 138.215 296.549C138.219 297.264 138.222 297.979 138.224 298.693C138.228 299.761 138.242 300.827 138.256 301.894C138.31 309.497 136.874 316.04 134.181 323.122C133.945 323.76 133.709 324.4 133.474 325.039C133.245 325.654 133.016 326.27 132.787 326.885C132.683 327.164 132.579 327.442 132.472 327.73C131.339 330.704 129.857 333.328 128.146 335.998C127.486 337.099 127.486 337.099 127.618 338.783C128.241 339.439 128.241 339.439 129.068 339.985C131.228 341.742 131.832 343.424 132.13 346.157C132.281 349.853 131.723 352.46 129.21 355.226C126.723 357.61 124.248 359.363 121.056 360.648C120.768 360.776 120.48 360.905 120.184 361.037C111.321 364.553 100.434 363.046 91.6441 360.263C89.2578 359.556 87.457 359.185 85.0145 359.746C84.6322 359.831 84.2498 359.916 83.8558 360.004C83.5704 360.072 83.285 360.14 82.991 360.21C82.991 360.499 82.991 360.788 82.991 361.085C73.2829 364.655 63.9817 367.681 53.6769 368.957C52.9374 369.062 52.1979 369.168 51.4586 369.274C42.0288 370.524 31.3222 370.921 22.1753 368.082C21.8486 367.984 21.522 367.885 21.1855 367.784C17.2981 366.588 13.7069 365.194 10.3621 362.834C10.0322 362.611 9.70225 362.388 9.36232 362.158C5.22339 359.178 0.94795 354.525 0.090581 349.325C0.00665089 347.99 0.0001749 346.679 0.0256361 345.342C0.0171762 344.898 0.00871628 344.454 0 343.996C0.0208987 340.737 0.8201 338.498 2.4867 335.721C2.70723 335.307 2.92775 334.892 3.15495 334.464C5.45386 331.149 9.88869 328.415 13.8196 327.58C19.2957 326.904 23.4796 327.556 28.3006 330.064C33.6181 332.793 37.1044 332.125 42.7389 330.474C43.6158 330.188 44.4917 329.899 45.364 329.599C45.1846 329.133 45.0053 328.668 44.8205 328.188C44.5821 327.547 44.3439 326.906 44.1061 326.265C43.9882 325.961 43.8704 325.658 43.7489 325.346C41.7771 319.962 41.7212 314.361 41.7497 308.703C41.7544 307.603 41.7498 306.504 41.7442 305.405C41.7379 299.197 42.0221 292.995 43.942 287.044C44.0575 286.677 44.1729 286.309 44.2919 285.931C46.8427 278.069 51.889 271.711 58.3359 266.579C59.2996 265.805 60.0511 265.031 60.8414 264.085C61.8456 262.907 62.8719 261.798 63.9861 260.724C66.8281 257.915 71.5895 252.817 71.6154 248.698C70.793 247.542 70.793 247.542 69.6192 246.456C63.053 239.639 62.7417 231.306 62.518 222.282C62.4454 219.525 62.2612 216.788 62.0172 214.041C61.9614 213.411 61.9614 213.411 61.9044 212.768C61.701 210.596 61.4263 208.458 61.0601 206.306C60.6267 203.475 60.5668 200.665 60.5406 197.806C60.5329 197.359 60.5252 196.911 60.5173 196.45C60.5198 193.425 60.7242 190.777 62.7111 188.339C63.085 188.047 63.085 188.047 63.4665 187.748C63.8371 187.445 63.8371 187.445 64.2151 187.137C69.8496 183.528 76.2875 186.164 81.6784 188.787ZM86.792 193.351C86.3696 193.684 85.9471 194.017 85.5119 194.361C85.1131 194.686 84.7144 195.011 84.3036 195.346C83.5745 195.93 82.8453 196.513 82.116 197.096C80.3882 196.504 79.266 195.732 77.9048 194.526C75.2889 192.38 72.631 191.259 69.291 190.755C67.7127 191.048 66.7393 191.735 65.4901 192.723C64.54 194.622 64.8034 197.066 65.3542 199.065C65.7838 200.229 66.2374 201.381 66.6933 202.535C69.6877 210.768 70.0068 219.621 70.6418 228.291C71.1156 234.679 71.7789 240.236 76.905 244.68C79.4654 246.711 79.4654 246.711 82.5535 247.386C79.2748 255.957 73.4449 262.425 67.4282 269.207C62.5035 274.81 57.9222 280.717 54.0051 287.071C53.8119 287.383 53.6187 287.695 53.4196 288.017C47.6375 297.671 47.0402 315.31 49.7392 326.101C50.2165 327.27 50.7611 328.101 51.4893 329.162C51.6568 329.453 51.8243 329.745 51.9969 330.045C53.1815 332.097 54.4003 333.432 56.3021 334.847C55.5038 337.24 52.7828 338.133 50.6143 339.22C46.0907 341.283 41.4093 342.748 36.6135 344.03C36.2035 344.144 35.7935 344.258 35.371 344.375C30.3637 345.592 26.2625 344.599 21.8215 342.274C19.8333 341.039 18.0352 339.67 16.5968 337.799C15.454 336.399 15.454 336.399 13.7871 336.055C11.2403 335.981 9.6845 336.097 7.73698 337.908C5.74295 340.384 5.21 342.422 5.30326 345.561C5.29847 345.912 5.29367 346.263 5.28873 346.625C5.32471 349.583 6.02611 351.817 8.03928 354.025C10.1896 356.022 12.598 357.411 15.2022 358.735C15.8138 359.046 15.8138 359.046 16.4378 359.364C27.1155 364.699 39.0529 365.931 50.8057 364.256C51.3339 364.187 51.862 364.118 52.4062 364.047C58.2394 363.236 63.5281 361.56 68.9082 359.199C69.8977 358.773 70.8872 358.347 71.8769 357.921C72.353 357.715 72.829 357.509 73.3196 357.297C75.1873 356.493 77.0634 355.71 78.9439 354.936C79.2326 354.816 79.5212 354.696 79.8186 354.572C84.0379 352.835 88.3256 351.427 92.7515 353.203C94.7006 353.944 96.7204 354.46 98.7302 355.011C100.129 355.409 101.249 355.762 102.485 356.55C105.663 358.331 110.611 357.255 114 356.384C115.044 356.071 116.084 355.743 117.118 355.4C117.549 355.259 117.98 355.117 118.424 354.971C121.38 353.9 123.238 352.346 124.993 349.715C125.541 348.072 125.767 346.604 125.431 344.905C124.393 343.217 123.134 342.062 121.493 340.969C121.632 337.133 123.063 333.881 124.528 330.392C124.786 329.768 125.043 329.145 125.3 328.521C126.986 324.449 128.75 320.415 130.649 316.437C132.404 312.716 133.015 309.578 132.978 305.465C132.981 305.082 132.985 304.699 132.988 304.305C132.982 302.286 132.817 300.848 131.994 298.988C131.699 297.648 131.486 296.294 131.255 294.943C129.881 287.363 127.586 280.032 125.211 272.715C124.352 270.048 123.573 267.369 122.86 264.659C122.771 264.322 122.683 263.985 122.591 263.637C121.119 257.916 120.547 251.961 123.243 246.511C124.059 245.29 124.934 244.13 125.822 242.96C129.722 237.63 130.422 233.274 129.806 226.832C129.622 225.656 129.386 224.508 129.129 223.346C128.516 219.25 128.56 214.712 129.368 210.652C130.252 206.054 130.947 200.537 128.384 196.412C126.961 194.513 125.7 193.367 123.407 192.695C120.905 192.442 119.08 193.97 117.118 195.346C116.685 195.635 116.252 195.924 115.805 196.221C115.489 195.761 115.174 195.301 114.848 194.827C112.194 191.722 107.468 190.721 103.555 190.099C101.957 189.974 100.371 189.956 98.7692 189.962C98.3645 189.955 97.9599 189.948 97.5429 189.941C93.4123 189.938 90.0351 190.75 86.792 193.351Z" fill="#FDFDFD"/>
</svg>
