<svg width="393" height="416" viewBox="0 0 393 416" fill="none" xmlns="http://www.w3.org/2000/svg">
<path d="M259.852 2.61844C260.439 2.80133 261.026 2.98421 261.63 3.17264C271.671 6.49529 281.78 12.1672 289.153 19.7849C289.59 20.2222 290.028 20.6596 290.479 21.1102C290.875 21.5059 291.271 21.9016 291.679 22.3093C292.132 22.7311 292.132 22.7311 292.594 23.1613C293.194 23.824 293.194 23.824 293.194 24.8338C293.496 24.9614 293.799 25.089 294.11 25.2205C295.357 25.9237 295.899 26.5748 296.724 27.735C296.996 28.1132 297.268 28.4914 297.548 28.8811C297.83 29.2845 298.113 29.688 298.404 30.1036C298.697 30.5175 298.99 30.9313 299.292 31.3577C300.129 32.5448 300.957 33.7368 301.782 34.9317C302.136 35.4439 302.491 35.9561 302.856 36.4838C307.139 42.9541 310.08 50.1097 313.001 57.2634C314.01 59.7301 315.056 62.1776 316.123 64.6199C321.323 76.5838 321.323 76.5838 322.338 82.1441C324.169 92.0827 328.527 101.756 332.093 111.171C332.291 111.701 332.49 112.232 332.694 112.779C334.258 116.915 335.991 120.962 337.808 124.992C337.952 125.312 338.095 125.632 338.243 125.961C341.012 132.112 344.014 138.017 347.544 143.772C348.312 145.091 348.982 146.435 349.648 147.807C351.102 150.775 352.756 153.595 354.448 156.43C355.746 158.611 356.987 160.805 358.173 163.049C359.345 165.263 360.598 167.396 361.93 169.518C363.472 171.99 364.828 174.486 366.098 177.107C366.951 178.827 367.849 180.517 368.757 182.208C371.057 186.503 373.139 190.844 375.079 195.313C375.825 197.028 376.614 198.717 377.429 200.401C383.877 213.746 389.502 227.222 391.704 241.938C391.764 242.326 391.824 242.714 391.886 243.113C394.424 260.067 393.075 279.417 383.116 293.943C382.681 294.615 382.681 294.615 382.238 295.301C379.057 300.187 375.697 305.022 371.497 309.089C371.092 309.508 370.687 309.926 370.27 310.358C368.092 312.465 365.644 314.221 363.222 316.034C362.508 316.583 361.817 317.162 361.131 317.746C356.631 321.429 350.314 323.839 344.604 324.963C344.309 325.057 344.015 325.15 343.712 325.246C343.125 326.558 343.125 326.558 342.765 328.181C341.236 333.57 338.874 337.91 335.295 342.185C333.977 343.79 333.343 344.901 333.103 346.956C333.249 348.312 333.249 348.312 333.593 349.724C333.713 350.263 333.833 350.803 333.957 351.359C334.092 351.937 334.227 352.514 334.366 353.11C334.504 353.712 334.642 354.313 334.784 354.933C337.453 366.42 340.201 378.087 345.416 388.725C346.601 391.223 347.328 393.642 347.248 396.436C346.339 398.481 345.563 399.264 343.649 400.412C339.678 401.846 335.443 400.848 331.493 399.844C327.552 398.9 323.613 398.052 319.621 397.351C319.191 397.273 318.761 397.195 318.318 397.115C310.559 395.782 302.69 395.24 294.836 394.858C294.414 394.838 293.993 394.817 293.559 394.796C290.575 394.654 287.591 394.529 284.606 394.417C284.231 394.402 283.856 394.388 283.47 394.373C271.381 393.924 260.076 395.055 248.738 399.465C248.346 399.616 247.953 399.766 247.549 399.922C242.814 401.746 238.147 403.672 233.559 405.842C231.528 406.784 229.464 407.634 227.39 408.477C226.562 408.825 225.74 409.191 224.936 409.593C221.337 411.391 217.452 412.084 213.534 412.865C212.796 413.012 212.059 413.162 211.323 413.317C186.417 418.546 158.185 415.342 134.13 407.514C128.877 405.937 123.388 404.694 117.897 404.514C117.341 404.494 116.786 404.474 116.213 404.453C104.772 404.246 93.5496 406.599 82.474 409.257C66.2946 413.128 42.3841 415.85 27.0348 407.54C24.2231 405.711 22.8861 403.903 22.1175 400.631C21.7496 398.54 21.7484 396.458 21.7428 394.34C21.7385 393.841 21.7343 393.343 21.7299 392.83C21.72 391.181 21.7201 389.533 21.723 387.884C21.7233 387.309 21.7236 386.734 21.7239 386.142C21.7715 364.145 24.0141 342.25 26.3229 320.394C26.3802 319.847 26.4375 319.3 26.4965 318.736C26.5507 318.232 26.6049 317.727 26.6607 317.208C26.7074 316.771 26.754 316.334 26.802 315.884C26.9681 314.614 27.2038 313.372 27.4694 312.119C26.9902 312.087 26.5109 312.056 26.0171 312.024C25.4961 311.889 24.9751 311.753 24.4384 311.614C23.7437 310.32 23.7437 310.32 23.428 309.089C23.0946 309.089 22.7612 309.089 22.4176 309.089C22.375 308.699 22.3323 308.308 22.2883 307.906C22.0413 306.534 22.0413 306.534 21.0542 305.855C20.6869 305.673 20.3195 305.49 19.9411 305.303C19.3323 304.993 19.3323 304.993 18.7112 304.676C18.2776 304.466 17.8441 304.257 17.3974 304.04C16.9593 303.818 16.5212 303.596 16.0698 303.367C14.2871 302.467 12.4956 301.599 10.6781 300.77C7.59866 299.363 5.71943 297.692 3.72599 294.952C3.48113 294.617 3.23628 294.282 2.984 293.937C-0.614881 288.615 -0.391688 282.411 0.72648 276.271C2.24438 269.895 5.79456 262.943 10.7985 258.6C11.1632 258.423 11.5279 258.246 11.9036 258.063C13.1103 257.44 13.2392 256.781 13.8296 255.571C14.3086 254.876 14.8039 254.192 15.3136 253.519C15.5682 253.18 15.8228 252.841 16.0851 252.492C16.8607 251.531 16.8607 251.531 17.6441 250.764C19.2468 249.128 20.365 247.104 20.4305 244.792C20.3069 243.654 20.1262 242.554 19.8917 241.434C19.798 240.923 19.7042 240.413 19.6076 239.887C19.5346 239.564 19.4617 239.242 19.3866 238.909C18.8864 238.742 18.3863 238.576 17.871 238.404C14.3813 234.132 13.3039 230.296 13.8296 224.772C14.4565 221.446 16.0024 218.614 18.3762 216.189C18.7096 216.189 19.043 216.189 19.3866 216.189C19.72 215.522 20.0534 214.856 20.3969 214.169C20.029 213.898 19.6611 213.626 19.282 213.347C17.7708 212.065 16.6838 210.741 15.503 209.152C15.1155 208.637 14.7281 208.122 14.3288 207.592C12.5885 204.991 11.8105 202.66 12.314 199.527C13.4283 195.984 14.6693 193.518 17.3658 190.944C18.5364 189.518 19.6735 188.069 20.8094 186.615C21.8651 185.443 22.5644 185.06 23.9332 184.38C24.0836 184.067 24.234 183.754 24.389 183.432C25.1755 181.913 26.3478 181.327 27.7536 180.373C29.8924 178.705 29.8924 178.705 30.8893 176.275C30.9253 175.163 30.9392 174.05 30.9327 172.937C31.1722 167.413 35.1115 161.29 39.0886 157.621C39.5473 157.069 39.9998 156.511 40.4463 155.949C40.8318 155.501 41.2173 155.053 41.6145 154.592C41.9479 154.592 42.2813 154.592 42.6248 154.592C42.7499 154.279 42.8749 153.967 43.0037 153.645C43.7551 152.368 44.361 152.209 45.6559 151.562C46.0008 150.893 46.3383 150.22 46.6663 149.543C47.1664 149.376 47.6665 149.209 48.1818 149.038C47.9005 148.632 47.6192 148.226 47.3293 147.807C46.439 146.466 45.6064 145.1 44.8034 143.705C44.5931 143.34 44.3828 142.975 44.166 142.598C42.2782 138.565 42.873 133.485 44.1404 129.347C45.6425 125.701 47.4298 122.563 50.2025 119.754C50.6506 119.275 51.0986 118.796 51.5602 118.302C52.7284 117.229 52.7284 117.229 54.244 116.725C54.7692 115.648 54.7692 115.648 55.2543 114.2C55.423 113.899 55.5917 113.599 55.7654 113.289C58.9105 107.444 57.1585 101.155 55.7247 95.0738C54.4598 89.5428 54.0067 84.0105 53.7388 78.3526C53.7085 77.7372 53.7085 77.7372 53.6776 77.1094C53.0499 62.3388 60.0356 46.2591 69.3994 34.9317C70.2306 34.0796 71.073 33.2383 71.9253 32.4072C72.8375 31.3843 73.7349 30.3497 74.6288 29.3108C76.1501 27.5885 76.1501 27.5885 76.9771 26.8534C77.3105 26.8534 77.6439 26.8534 77.9874 26.8534C78.117 26.5494 78.2466 26.2453 78.3801 25.9321C79.0638 24.7165 79.6598 24.2082 80.7975 23.4177C81.3346 23.0406 81.3346 23.0406 81.8825 22.6559C82.2642 22.3958 82.6459 22.1356 83.0392 21.8675C83.4324 21.597 83.8255 21.3264 84.2305 21.0476C85.3455 20.2848 86.4653 19.5296 87.5859 18.7751C88.0267 18.4692 88.4676 18.1633 88.9218 17.8481C100.526 10.2834 115.328 8.44984 128.884 8.48784C129.444 8.48825 129.444 8.48825 130.014 8.48867C146.935 8.54569 161.717 14.9139 174.611 25.7529C175.519 26.4905 175.519 26.4905 177.003 26.3485C178.558 25.0045 179.69 23.6049 180.853 21.9188C182.58 19.6039 184.615 18.066 186.98 16.4399C187.386 16.1555 187.791 15.871 188.209 15.5779C193.75 11.7208 193.75 11.7208 196.705 10.1919C197.422 9.81502 197.422 9.81502 198.153 9.43057C205.707 5.82795 214.215 4.67018 222.486 4.00049C225.704 3.71958 228.651 3.0525 231.738 2.11355C240.908 -0.39594 250.825 -0.408719 259.852 2.61844Z" fill="#F4EAC9"/>
<path d="M242.772 6.49982C243.284 6.49783 243.284 6.49783 243.807 6.49581C257.203 6.49024 269.243 11.8406 279.555 20.2897C280.014 20.6464 280.472 21.0031 280.945 21.3705C291.414 29.6342 302.068 42.4592 306.804 55.0328C307.393 56.5975 308.054 58.0894 308.81 59.5788C311.417 64.7236 313.493 70.078 314.957 75.6546C315.31 76.934 315.696 78.1649 316.128 79.4176C317.119 82.348 317.889 85.3337 318.675 88.3243C320.602 95.6478 322.854 102.783 325.495 109.877C325.707 110.448 325.707 110.448 325.924 111.031C329.711 121.185 333.777 131.255 338.972 140.782C340.263 143.152 341.402 145.541 342.45 148.028C347.131 159.021 353.507 169.407 359.873 179.501C362.233 183.323 364.235 187.301 366.225 191.323C366.42 191.714 366.614 192.104 366.814 192.507C374.153 207.28 381.534 222.214 385.138 238.404C385.221 238.76 385.303 239.116 385.389 239.483C389.328 257.059 387.069 276.552 377.56 291.923C374.587 296.418 370.916 300.389 367.194 304.269C366.476 305.019 365.766 305.778 365.057 306.537C358.02 313.877 348.202 319.99 337.704 320.231C337.353 320.22 337.002 320.208 336.641 320.197C336.494 319.818 336.346 319.439 336.195 319.049C333.484 312.285 330.345 307.176 324.09 303.106C323.564 302.748 323.038 302.39 322.496 302.021C322.146 301.791 321.797 301.561 321.436 301.324C319.202 299.664 318.215 298.43 317.799 295.643C317.706 294.551 317.63 293.458 317.57 292.365C317.472 291.18 317.37 289.996 317.264 288.813C317.215 288.227 317.165 287.641 317.114 287.037C316.866 284.662 316.398 282.359 315.897 280.026C315.159 276.454 314.734 272.968 314.508 269.329C313.404 252.381 311.284 233.969 305.85 217.83C305.398 216.432 305.069 215.108 304.814 213.664C304.226 210.388 303.161 207.244 302.121 204.088C301.901 203.42 301.684 202.751 301.469 202.081C300.333 198.546 299.12 195.527 296.929 192.524C296.181 191.38 295.76 190.307 295.311 189.019C294.063 185.682 291.907 183.069 289.659 180.341C289.273 179.85 289.273 179.85 288.879 179.349C285.465 175.461 279.938 172.718 275.214 170.768C269.795 168.494 269.795 168.494 268.741 166.115C268.481 164.427 268.427 162.861 268.441 161.155C268.359 160.685 268.277 160.215 268.192 159.73C267.94 158.15 267.886 156.706 267.905 155.108C267.909 154.502 267.914 153.895 267.918 153.271C267.921 152.943 267.924 152.616 267.928 152.279C267.958 148.674 267.943 145.069 267.936 141.464C267.935 140.969 267.934 140.473 267.934 139.962C268.655 104.002 268.655 104.002 252.71 73.1518C249.013 69.664 244.866 66.974 240.562 64.3102C240.004 63.9646 240.004 63.9646 239.435 63.6119C237.225 62.2748 234.995 61.1518 232.622 60.1329C226.271 57.3654 220.78 53.362 215.398 49.0687C214.968 48.7339 214.968 48.7339 214.529 48.3923C212.698 46.9306 211.286 45.3424 209.841 43.5149C209.4 44.0684 209.4 44.0684 208.951 44.6332C204.269 50.4554 198.898 54.9013 192.822 59.1982C187.303 63.1558 182.618 67.4105 180.035 73.8086C179.702 74.4523 179.365 75.0938 179.025 75.7335C176.71 80.3876 176.283 84.6158 176.372 89.7758C176.378 90.4398 176.384 91.1038 176.39 91.7879C176.413 94.0417 176.455 96.2949 176.499 98.5484C176.506 98.9739 176.514 99.3993 176.522 99.8377C176.58 102.995 176.647 106.152 176.72 109.309C176.734 109.96 176.734 109.96 176.749 110.625C176.827 118.703 176.827 118.703 178.219 126.625C178.627 128.266 178.909 129.925 179.214 131.587C179.709 134.179 180.36 136.5 181.545 138.863C182.114 140.074 182.481 141.291 182.877 142.569C183.89 145.483 185.553 147.752 187.434 150.163C188.717 151.837 189.128 152.407 189.128 154.592C189.406 154.711 189.684 154.83 189.971 154.953C191.445 155.764 192.571 156.791 193.833 157.905C196.702 160.375 199.77 162.301 203.048 164.181C204.69 165.137 206.251 166.145 207.82 167.214C207.653 167.88 207.486 168.547 207.315 169.234C201.25 169.284 195.21 169.295 189.156 168.908C185.54 168.691 181.932 168.699 178.311 168.747C177.883 168.752 177.456 168.756 177.016 168.76C176.635 168.766 176.254 168.772 175.862 168.778C174.983 168.729 174.983 168.729 174.478 168.224C172.767 168.089 171.046 168.128 169.331 168.129C168.797 168.13 168.263 168.13 167.712 168.13C152.211 167.941 152.211 167.941 137.095 170.748C136.201 170.826 135.306 170.887 134.411 170.938C124.485 171.776 115.7 175.627 107.289 180.846C106.397 181.379 105.503 181.91 104.609 182.44C94.7289 188.348 85.4708 194.879 76.473 202.052C75.9546 202.461 75.4363 202.871 74.9022 203.292C71.2238 206.241 67.7708 209.416 64.3487 212.655C63.9872 212.994 63.6258 213.334 63.2534 213.684C61.1703 215.697 59.4222 217.843 57.7813 220.228C57.4694 220.665 57.1575 221.103 56.8361 221.553C51.2876 229.855 46.8614 241.957 48.1829 252.036C48.7172 253.435 49.3011 254.359 50.2036 255.571C52.2525 255.814 53.0583 255.693 54.7818 254.498C55.7822 253.611 56.5451 252.689 57.3748 251.63C58.9227 249.755 60.7762 248.404 62.7384 246.987C63.0787 246.737 63.4189 246.488 63.7695 246.23C64.4553 245.726 65.142 245.224 65.8294 244.722C66.9119 243.931 67.991 243.135 69.067 242.335C69.3886 242.096 69.7103 241.857 70.0417 241.611C72.5161 239.68 74.9696 237.316 75.9997 234.315C76.9782 232.85 76.9782 232.85 77.8743 232.564C79.0711 232.438 80.2526 232.392 81.4557 232.363C87.2513 232.002 92.326 230.412 97.7853 228.527C98.7434 228.205 99.7017 227.883 100.66 227.561C102.972 226.784 105.279 225.993 107.583 225.195C108.682 224.814 109.782 224.437 110.882 224.061C121.8 220.949 121.8 220.949 131.379 215.379C133.133 214.321 134.854 214.543 136.834 214.637C137.246 214.65 137.658 214.663 138.083 214.677C139.396 214.721 140.708 214.776 142.02 214.832C142.911 214.864 143.803 214.895 144.694 214.926C146.876 215.002 149.058 215.088 151.24 215.179C150.882 217.68 150.531 218.916 148.714 220.733C148.18 221.014 148.18 221.014 147.636 221.301C145.747 222.304 144.436 223.063 143.648 225.109C143.355 226.724 143.169 228.312 143.03 229.947C142.323 237.006 140.183 242.069 134.663 246.64C132.065 248.605 129.242 250.201 126.411 251.802C125.872 252.109 125.872 252.109 125.322 252.423C124.999 252.604 124.676 252.785 124.343 252.972C122.468 254.194 121.687 255.318 121.13 257.51C120.625 260.245 120.534 263.042 120.361 265.813C119.811 273.309 117.049 279.398 111.836 284.854C110.049 286.301 108.175 287.597 106.279 288.894C103.259 291.014 102.071 292.851 101.227 296.467C100.185 296.94 100.185 296.94 98.7009 296.972C95.6352 294.833 94.095 292.094 93.3669 288.517C92.8713 283.423 94.8786 279.714 97.229 275.304C99.1425 271.71 99.1425 271.71 99.2061 267.688C98.7612 266.5 98.7612 266.5 98.1957 265.668C97.9457 266.262 97.6956 266.856 97.438 267.467C94.8485 272.561 89.3915 274.929 84.5792 277.545C79.4182 280.293 79.4182 280.293 75.9678 284.854C75.9196 285.957 75.9012 287.06 75.8968 288.164C75.8875 288.846 75.8776 289.529 75.8672 290.211C75.8527 291.28 75.8415 292.348 75.8413 293.417C75.8305 299.883 74.6785 305.213 70.0556 310.024C67.9145 312.026 65.646 313.848 63.3383 315.653C62.4113 316.388 61.4851 317.125 60.5598 317.862C60.1587 318.178 59.7575 318.495 59.3442 318.82C57.0067 320.747 56.6102 321.643 56.2658 324.741C55.7606 325.246 55.7606 325.246 54.5909 325.378C52.9278 325.216 52.4331 324.784 51.2377 323.643C50.7063 323.14 50.7063 323.14 50.1642 322.628C49.8021 322.273 49.44 321.919 49.067 321.554C48.5121 321.031 48.5121 321.031 47.9461 320.498C44.7493 317.436 44.7493 317.436 44.544 314.88C44.4791 310.773 45.1109 307.248 46.6003 303.419C48.0505 299.63 48.4399 295.539 47.0403 291.68C46.1481 289.875 45.1294 288.224 44.0467 286.527C42.0869 283.291 41.5259 280.582 42.1207 276.776C42.2874 276.276 42.4542 275.776 42.6259 275.261C42.2163 275.518 41.8067 275.774 41.3847 276.039C38.1881 278.025 34.9985 279.916 31.6343 281.612C30.3351 282.435 29.6771 282.968 28.9861 284.35C29.0148 287.772 30.6513 290.092 32.4463 292.864C34.0057 295.43 34.444 297.514 34.0379 300.506C33.2359 302.911 32.1717 304.666 30.5016 306.565C29.5544 306.502 29.5544 306.502 28.4809 306.06C28.3871 305.612 28.2933 305.164 28.1967 304.703C27.0006 301.948 24.6207 301.078 21.9135 300.001C20.108 299.562 18.2981 299.215 16.473 298.867C12.1149 297.851 9.41881 294.874 6.75814 291.418C4.19743 287.208 4.13521 281.87 5.06499 277.123C8.09294 266.363 16.0622 258.999 24.3131 252.005C26.3867 250.189 27.5207 248.72 27.7547 245.914C27.5843 241.643 24.9984 238.314 22.0398 235.438C21.4655 234.924 21.4655 234.924 20.8795 234.4C19.3065 232.734 18.9328 231.384 18.7266 229.119C19.2304 223.229 23.9561 217.682 27.9757 213.664C27.3808 213.315 27.3808 213.315 26.7739 212.958C22.713 210.438 20.0177 207.855 17.8721 203.566C17.4095 199.925 18.1611 197.915 20.252 194.922C25.0545 188.885 31.1786 184.098 37.5741 179.836C37.4074 179.514 37.2407 179.191 37.0689 178.858C35.9602 175.465 36.3488 172.299 37.7991 169.06C40.901 163.763 45.8386 160.231 50.6772 156.643C53.175 154.783 55.6545 152.835 57.7813 150.553C57.7813 150.219 57.7813 149.886 57.7813 149.543C57.1044 149.084 56.4051 148.659 55.6975 148.249C52.8055 146.403 51.2136 143.988 49.6984 140.96C49.1501 133.773 50.6022 129.268 55.2554 123.793C55.7428 123.229 55.7428 123.229 56.2401 122.653C60.1068 118.052 64.0481 112.278 63.9831 106.1C63.7159 103.243 62.7669 100.572 61.8859 97.8542C59.9975 91.9452 58.5902 86.2896 58.6338 80.0566C58.6359 79.6283 58.638 79.2 58.6402 78.7588C58.9554 60.7189 67.6752 45.5839 80.2539 33.1902C85.9057 27.9016 92.3799 23.8757 99.2061 20.2897C99.6828 20.0346 100.159 19.7795 100.651 19.5166C115.789 11.9978 135.395 14.3289 150.926 19.3384C159.709 22.3007 168.381 25.7161 174.983 32.4072C175.488 32.9124 175.993 33.4173 176.499 33.9219C177.159 33.1897 177.159 33.1897 177.833 32.4427C183.384 26.349 189.047 21.2961 196.281 17.2742C197.146 16.7917 198.002 16.293 198.857 15.793C206.351 11.6783 214.721 10.0991 223.173 9.52968C226.898 9.26152 230.071 8.44991 233.584 7.16249C236.534 6.25356 239.714 6.51101 242.772 6.49982Z" fill="#515151"/>
<path d="M209.333 43.0098C211.299 44.6091 213.096 46.2658 214.89 48.0587C217.833 50.8652 221.012 53.0284 224.488 55.1272C224.947 55.4051 225.405 55.683 225.878 55.9694C227.096 56.7031 228.317 57.4308 229.54 58.1566C229.922 58.4039 230.303 58.6512 230.697 58.9061C231.812 59.5294 232.775 59.9449 233.968 60.3616C236.337 61.2169 238.397 62.4445 240.528 63.7735C240.924 64.0192 241.321 64.2648 241.729 64.5178C249.661 69.4894 255.566 74.86 260.356 82.8964C260.622 83.3371 260.622 83.3371 260.894 83.7866C265.684 91.8864 266.202 102.017 267.429 111.171C267.519 111.784 267.61 112.398 267.703 113.03C268.051 115.853 268.052 118.689 268.094 121.531C268.104 122.143 268.115 122.755 268.125 123.385C268.147 124.682 268.168 125.98 268.188 127.277C268.217 129.212 268.25 131.148 268.284 133.083C268.455 143.422 268.455 143.422 268.417 148.326C268.413 148.941 268.409 149.555 268.405 150.188C268.395 151.344 268.381 152.499 268.361 153.655C268.338 156.471 268.498 159.012 269.22 161.741C269.53 162.998 269.549 164.188 269.512 165.478C269.503 165.906 269.494 166.333 269.485 166.774C269.467 167.242 269.467 167.242 269.449 167.719C269.842 167.831 270.235 167.944 270.639 168.06C273.103 168.954 275.37 170.135 277.69 171.348C278.144 171.578 278.599 171.809 279.067 172.047C287.625 176.506 294.031 183.247 297.291 192.388C297.738 193.464 298.235 194.182 298.971 195.078C300.876 197.561 301.6 200.671 302.499 203.625C302.759 204.471 303.034 205.313 303.31 206.154C304.56 210.007 305.508 213.915 306.409 217.862C306.909 220.032 307.452 222.167 308.111 224.294C308.847 226.693 309.377 229.091 309.832 231.556C309.916 232.008 310.001 232.459 310.088 232.924C312.347 245.295 314.656 258.252 315.137 270.843C315.317 275.057 316.218 279.118 317.033 283.249C317.975 288.168 318.385 292.98 318.452 297.981C315.602 297.73 313.611 296.611 311.19 295.205C310.588 294.863 310.588 294.863 309.974 294.515C308.416 293.631 306.864 292.737 305.312 291.842C299.489 288.491 293.522 285.48 287.496 282.509C286.352 281.94 285.214 281.361 284.08 280.772C265.353 271.061 244.626 262.908 224.343 257.116C222.973 256.58 222.973 256.58 222.187 255.06C221.967 254.447 221.747 253.835 221.52 253.204C220.391 250.544 219.263 249.1 216.612 247.882C214.876 247.191 213.125 246.571 211.354 245.977C202.255 242.521 193.685 237.84 185.931 231.971C185.213 231.432 184.479 230.914 183.742 230.401C180.494 228.08 178.128 225.077 175.637 221.996C174.889 221.105 174.889 221.105 173.552 219.9C172.455 218.713 172.455 218.713 172.455 216.693C171.033 215.983 169.801 216.087 168.212 216.047C167.563 216.028 166.915 216.009 166.247 215.989C165.559 215.971 164.87 215.954 164.182 215.936C162.842 215.902 161.501 215.865 160.161 215.826C159.564 215.81 158.967 215.795 158.352 215.779C156.794 215.684 156.794 215.684 155.823 215.432C154.714 215.164 153.724 215.098 152.584 215.073C151.941 215.059 151.941 215.059 151.285 215.044C149.324 215.014 147.363 214.99 145.402 214.974C144.372 214.963 143.342 214.946 142.312 214.922C134.382 214.681 134.382 214.681 127.494 218.208C125.748 219.083 123.943 219.796 122.126 220.512C121.602 220.72 121.079 220.928 120.539 221.143C113.194 223.992 105.661 226.334 98.1503 228.701C96.2731 229.295 94.405 229.902 92.5504 230.562C88.4134 232.029 84.7563 232.734 80.3749 232.764C79.1279 232.828 78.1416 232.905 76.9757 233.355C75.9825 234.601 75.5064 235.914 74.955 237.394C72.5255 240.96 68.8213 243.2 65.3628 245.691C59.7315 249.745 59.7315 249.745 54.9412 254.74C53.9353 255.936 53.3387 256.061 51.7799 256.265C50.2012 256.075 50.2012 256.075 49.033 254.908C46.3494 250.636 47.567 244.73 48.6047 240.061C51.4886 228.946 56.2904 220.257 64.3462 212.149C64.7051 211.772 65.0639 211.394 65.4336 211.006C68.0656 208.273 70.9873 205.936 73.9447 203.566C74.8184 202.841 75.692 202.115 76.5653 201.389C86.182 193.553 96.4815 186.746 107.186 180.49C108.179 179.905 109.164 179.308 110.146 178.704C118.138 173.902 126.251 171.06 135.541 170.383C137.086 170.244 138.593 170.022 140.123 169.77C149.642 168.245 159.289 167.685 168.919 167.656C169.459 167.653 170 167.651 170.557 167.648C171.058 167.649 171.559 167.651 172.076 167.652C172.527 167.652 172.977 167.653 173.441 167.653C174.475 167.719 174.475 167.719 174.981 168.224C175.657 168.262 176.336 168.266 177.013 168.255C177.441 168.251 177.868 168.247 178.308 168.242C178.773 168.236 179.238 168.23 179.717 168.224C183.255 168.197 186.763 168.25 190.294 168.476C195.964 168.832 201.634 168.776 207.312 168.728C207.029 167.077 207.029 167.077 205.773 166.009C205.322 165.792 204.872 165.575 204.407 165.352C198.341 162.226 190.012 157.688 187.61 151.057C186.982 150.215 186.338 149.386 185.684 148.564C183.111 145.137 181.884 141.445 180.538 137.425C180.383 137.015 180.228 136.605 180.068 136.183C179.024 133.374 178.523 130.475 178.012 127.532C177.695 125.605 177.695 125.605 177.001 123.793C176.441 120.172 176.396 116.501 176.336 112.845C176.321 112.016 176.321 112.016 176.305 111.17C176.283 110.004 176.262 108.838 176.242 107.673C176.212 105.921 176.179 104.17 176.146 102.419C176.094 99.6241 176.051 96.8295 176.013 94.0346C175.999 93.0353 175.982 92.036 175.963 91.0368C175.939 89.7302 175.921 88.4237 175.906 87.117C175.897 86.7463 175.889 86.3755 175.88 85.9935C175.843 80.8682 177.721 76.5111 180.538 72.2936C180.779 71.7079 181.021 71.1221 181.27 70.5186C184.07 64.2308 190.93 59.9199 196.303 55.9497C201.464 52.1287 205.878 48.4866 209.333 43.0098Z" fill="#FDE6D8"/>
<path d="M167.405 50.0783C167.497 51.5829 167.378 52.6954 166.948 54.151C163.199 66.8543 164.724 79.0471 169.221 91.2785C170.085 92.7514 170.978 93.1945 172.457 94.0041C172.791 94.504 173.124 95.0038 173.468 95.5188C174.468 95.3522 175.468 95.1856 176.499 95.0139C176.504 95.3 176.509 95.5861 176.514 95.8808C176.569 98.879 176.627 101.877 176.687 104.875C176.709 105.992 176.73 107.108 176.75 108.224C176.779 109.836 176.811 111.448 176.844 113.06C176.857 113.799 176.857 113.799 176.87 114.554C176.956 118.642 177.125 122.667 178.219 126.625C178.627 128.266 178.909 129.924 179.214 131.587C179.709 134.178 180.36 136.499 181.545 138.863C182.114 140.074 182.481 141.291 182.877 142.569C183.89 145.483 185.553 147.752 187.434 150.163C188.717 151.837 189.128 152.407 189.128 154.591C189.406 154.711 189.684 154.83 189.971 154.952C191.445 155.764 192.571 156.791 193.833 157.905C196.702 160.375 199.77 162.301 203.048 164.18C204.69 165.137 206.251 166.145 207.82 167.214C207.653 167.88 207.486 168.547 207.315 169.233C201.25 169.284 195.21 169.295 189.156 168.908C185.54 168.691 181.932 168.699 178.311 168.747C177.883 168.751 177.456 168.756 177.016 168.76C176.635 168.766 176.254 168.772 175.862 168.778C174.983 168.728 174.983 168.728 174.478 168.224C172.767 168.089 171.046 168.128 169.331 168.129C168.797 168.129 168.263 168.13 167.712 168.13C152.211 167.941 152.211 167.941 137.095 170.748C136.201 170.826 135.306 170.887 134.411 170.937C124.485 171.776 115.7 175.626 107.289 180.846C106.397 181.379 105.503 181.91 104.609 182.44C94.7289 188.348 85.4708 194.879 76.473 202.052C75.9546 202.461 75.4363 202.87 74.9022 203.292C71.2238 206.241 67.7708 209.416 64.3487 212.654C63.9872 212.994 63.6258 213.334 63.2534 213.684C61.1703 215.697 59.4222 217.842 57.7813 220.228C57.4694 220.665 57.1575 221.102 56.8361 221.553C51.2876 229.855 46.8614 241.957 48.1829 252.036C48.7172 253.435 49.3011 254.358 50.2036 255.57C52.2525 255.814 53.0583 255.693 54.7818 254.497C55.7822 253.611 56.5451 252.689 57.3748 251.63C58.9227 249.754 60.7762 248.404 62.7384 246.987C63.0787 246.737 63.4189 246.487 63.7695 246.23C64.4553 245.726 65.142 245.223 65.8294 244.722C66.9119 243.93 67.991 243.135 69.067 242.335C69.3886 242.096 69.7103 241.857 70.0417 241.611C72.5161 239.679 74.9696 237.316 75.9997 234.314C76.9782 232.85 76.9782 232.85 77.8743 232.564C79.0711 232.438 80.2526 232.392 81.4557 232.363C87.2513 232.002 92.326 230.412 97.7853 228.527C98.7434 228.204 99.7017 227.882 100.66 227.561C102.972 226.783 105.279 225.992 107.583 225.194C108.682 224.814 109.782 224.437 110.882 224.061C121.8 220.948 121.8 220.948 131.379 215.379C133.133 214.321 134.854 214.543 136.834 214.636C137.246 214.65 137.658 214.663 138.083 214.677C139.396 214.721 140.708 214.776 142.02 214.832C142.911 214.864 143.803 214.895 144.694 214.925C146.876 215.002 149.058 215.088 151.24 215.179C150.882 217.68 150.531 218.916 148.714 220.733C148.18 221.014 148.18 221.014 147.636 221.301C145.747 222.303 144.436 223.063 143.648 225.109C143.355 226.723 143.169 228.312 143.03 229.947C142.323 237.006 140.183 242.069 134.663 246.64C132.065 248.604 129.242 250.2 126.411 251.802C125.872 252.109 125.872 252.109 125.322 252.423C124.999 252.604 124.676 252.785 124.343 252.971C122.468 254.194 121.687 255.318 121.13 257.51C120.625 260.244 120.534 263.042 120.361 265.813C119.811 273.309 117.049 279.397 111.836 284.854C110.049 286.3 108.175 287.597 106.279 288.893C103.259 291.013 102.071 292.851 101.227 296.467C100.185 296.94 100.185 296.94 98.7009 296.972C95.6352 294.833 94.095 292.094 93.3669 288.517C92.8713 283.423 94.8786 279.714 97.229 275.304C99.1425 271.709 99.1425 271.709 99.2061 267.688C98.7612 266.499 98.7612 266.499 98.1957 265.668C97.9457 266.262 97.6956 266.855 97.438 267.467C94.8485 272.561 89.3915 274.929 84.5792 277.545C79.4182 280.293 79.4182 280.293 75.9678 284.854C75.9196 285.957 75.9012 287.06 75.8968 288.164C75.8875 288.846 75.8776 289.528 75.8672 290.211C75.8527 291.28 75.8415 292.348 75.8413 293.417C75.8305 299.882 74.6785 305.213 70.0556 310.024C67.9145 312.026 65.646 313.848 63.3383 315.653C62.4113 316.388 61.4851 317.124 60.5598 317.862C60.1587 318.178 59.7575 318.494 59.3442 318.82C57.0067 320.747 56.6102 321.643 56.2658 324.741C55.7606 325.246 55.7606 325.246 54.5909 325.378C52.9278 325.216 52.4331 324.784 51.2377 323.642C50.7063 323.14 50.7063 323.14 50.1642 322.628C49.8021 322.273 49.44 321.919 49.067 321.554C48.5121 321.031 48.5121 321.031 47.9461 320.498C44.7493 317.436 44.7493 317.436 44.544 314.88C44.4791 310.773 45.1109 307.248 46.6003 303.419C48.0505 299.63 48.4399 295.539 47.0403 291.68C46.1481 289.875 45.1294 288.224 44.0467 286.527C42.0869 283.291 41.5259 280.582 42.1207 276.776C42.2874 276.276 42.4542 275.776 42.6259 275.261C42.2163 275.518 41.8067 275.774 41.3847 276.038C38.1881 278.024 34.9985 279.916 31.6343 281.612C30.3351 282.435 29.6771 282.968 28.9861 284.349C29.0148 287.772 30.6513 290.092 32.4463 292.863C34.0057 295.43 34.444 297.514 34.0379 300.506C33.2359 302.911 32.1717 304.665 30.5016 306.565C29.5544 306.502 29.5544 306.502 28.4809 306.06C28.3871 305.612 28.2933 305.164 28.1967 304.703C27.0006 301.948 24.6207 301.078 21.9135 300.001C20.108 299.561 18.2981 299.215 16.473 298.867C12.1149 297.851 9.41881 294.874 6.75814 291.418C4.19743 287.207 4.13521 281.87 5.06499 277.123C8.09294 266.363 16.0622 258.999 24.3131 252.005C26.3867 250.189 27.5207 248.72 27.7547 245.914C27.5843 241.642 24.9984 238.313 22.0398 235.438C21.4655 234.924 21.4655 234.924 20.8795 234.4C19.3065 232.734 18.9328 231.384 18.7266 229.119C19.2304 223.229 23.9561 217.681 27.9757 213.664C27.3808 213.315 27.3808 213.315 26.7739 212.958C22.713 210.438 20.0177 207.855 17.8721 203.566C17.4095 199.925 18.1611 197.915 20.252 194.922C24.4851 189.601 29.6468 185.56 35.1013 181.557C35.8913 180.97 36.665 180.362 37.434 179.747C46.4202 172.694 57.9022 168.529 68.3901 164.184C68.8316 164.001 69.2731 163.817 69.728 163.627C80.1416 159.338 91.3741 158.555 102.515 157.756C103.821 157.657 103.821 157.657 105.268 157.116C106.092 155.982 106.092 155.982 106.879 154.591C111.223 147.578 118.193 141.601 126.403 139.6C128.52 139.394 130.612 139.391 132.737 139.413C133.157 139.415 133.577 139.418 134.01 139.42C135.038 139.426 136.066 139.435 137.095 139.445C137.153 139.085 137.211 138.725 137.27 138.354C137.62 136.83 138.157 135.583 138.831 134.175C140.527 130.618 141.296 127.804 141.231 123.888C141.227 123.481 141.224 123.075 141.221 122.657C141.195 120.696 141.134 118.766 140.883 116.819C140.798 116.114 140.713 115.41 140.631 114.705C140.573 114.234 140.515 113.764 140.455 113.279C140.094 107.942 142.247 104.134 144.672 99.558C145.176 98.5785 145.676 97.5969 146.172 96.6133C146.601 95.7652 147.039 94.922 147.478 94.0791C149.907 88.7914 149.647 83.0978 148.714 77.4688C147.758 71.329 146.923 64.4757 150.245 58.9396C154.424 53.5286 160.345 49.623 167.405 50.0783Z" fill="#E5BCA5"/>
<path d="M155.279 265.164C156.693 265.24 157.231 265.601 158.243 266.595C158.745 267.23 158.745 267.23 159.257 267.877C159.85 268.625 159.85 268.625 160.455 269.388C162.444 271.982 164.347 274.641 166.271 277.282C168.3 280.043 170.404 282.615 172.769 285.097C173.722 286.106 174.622 287.13 175.522 288.186C177.034 289.924 178.635 291.554 180.283 293.162C180.527 293.4 180.771 293.638 181.022 293.884C182.034 294.872 183.047 295.86 184.067 296.84C184.82 297.566 185.568 298.298 186.314 299.031C186.979 299.675 186.979 299.675 187.657 300.331C188.621 301.516 188.621 301.516 188.621 303.536C188.944 303.577 189.267 303.619 189.6 303.662C190.929 303.987 191.913 304.374 193.136 304.956C198.282 307.3 203.973 309.306 209.523 307.417C211.291 306.725 211.291 306.725 212.155 305.75C212.391 305.519 212.627 305.288 212.869 305.05C215.46 305.194 217.883 306.612 220.235 307.639C227.788 310.935 235.386 314.086 243.054 317.105C243.454 317.262 243.854 317.42 244.266 317.582C246.931 318.631 249.601 319.671 252.273 320.702C252.632 320.84 252.99 320.978 253.359 321.121C257.73 322.801 262.118 324.347 266.608 325.688C267.742 326.032 268.876 326.375 270.01 326.719C270.583 326.892 271.156 327.065 271.746 327.243C274.625 328.113 277.499 329 280.374 329.885C280.925 330.054 281.476 330.223 282.043 330.397C284.353 331.106 286.661 331.817 288.962 332.553C292.476 333.676 295.998 334.687 299.584 335.551C302.444 336.248 305.269 337.049 308.096 337.868C311.338 338.804 314.581 339.721 317.852 340.551C318.46 340.705 319.067 340.859 319.693 341.018C321.639 341.436 323.547 341.688 325.525 341.908C326.813 345.303 327.432 348.607 327.924 352.195C329.9 365.368 333.647 378.649 339.167 390.795C340.203 393.141 340.203 393.141 340.047 394.614C339.67 395.426 339.67 395.426 339.164 395.931C333.309 396.068 327.918 394.219 322.446 392.375C318.753 391.16 315.031 390.329 311.222 389.557C310.713 389.453 310.204 389.349 309.679 389.241C301.511 387.637 293.636 387.158 285.331 387.19C284.558 387.192 284.558 387.192 283.77 387.194C263.574 387.27 246.263 392.871 228.01 401.224C224.678 402.748 221.34 404.205 217.921 405.524C217.347 405.751 217.347 405.751 216.761 405.982C213.525 407.235 210.249 407.39 206.807 407.544C206.557 406.794 206.557 406.794 206.302 406.029C205.805 406.08 205.307 406.131 204.794 406.183C202.28 406.177 200.617 404.95 198.598 403.568C198.222 403.317 197.847 403.066 197.46 402.808C193.101 399.836 189.287 396.401 185.896 392.352C185.356 391.71 184.799 391.082 184.226 390.47C175.598 381.188 171.777 368.98 171.126 356.585C170.623 347.198 168.275 340.072 163.867 331.81C157.833 320.483 152.919 310.315 153.116 297.265C153.132 296.201 153.137 295.137 153.14 294.073C153.174 288.964 153.174 288.964 153.509 286.671C153.801 284.588 153.859 282.558 153.888 280.458C153.904 279.623 153.921 278.788 153.938 277.953C153.962 276.647 153.985 275.342 154.004 274.037C154.024 272.769 154.05 271.502 154.077 270.234C154.081 269.842 154.086 269.45 154.09 269.045C154.154 266.288 154.154 266.288 155.279 265.164Z" fill="#F1B4A1"/>
<path d="M171.484 29.074C173.216 30.6001 174.71 31.9979 175.994 33.9218C175.994 36.5587 174.769 38.1337 173.306 40.1974C172.073 42.0822 171.163 44.0963 170.229 46.1418C168.903 48.4733 167.684 49.8065 165.12 50.6957C164.478 50.8356 163.836 50.9756 163.175 51.1197C160.381 51.787 158.138 52.4389 155.786 54.1175C155.457 54.3486 155.127 54.5796 154.788 54.8177C151.72 57.1893 149.787 59.9764 148.714 63.7105C148.075 68.8719 148.668 74.0467 149.489 79.1493C150.886 89.4217 146.984 96.793 142.169 105.593C140.455 108.951 140.88 113.165 141.389 116.819C142.167 123.209 142.087 128.574 139.115 134.396C138.716 135.359 138.326 136.327 137.947 137.299C137.782 137.713 137.618 138.127 137.448 138.553C137.331 138.847 137.215 139.142 137.095 139.445C136.485 139.469 135.876 139.494 135.248 139.52C134.432 139.558 133.616 139.596 132.801 139.634C132.401 139.65 132.001 139.665 131.589 139.681C123.806 140.064 116.834 143.554 111.33 149.038C109.321 151.354 107.491 153.831 105.994 156.509C105.268 157.621 105.268 157.621 103.753 158.126C102.633 158.253 101.511 158.359 100.388 158.453C99.703 158.512 99.0179 158.572 98.3328 158.631C97.7962 158.677 97.7962 158.677 97.2488 158.724C77.1514 160.466 58.5436 167.07 41.2505 177.627C40.2137 178.253 39.1704 178.808 38.0793 179.331C36.7548 178.063 36.4214 177.006 36.3428 175.229C36.5899 169.823 39.4458 166.105 43.2441 162.464C45.5904 160.362 48.1489 158.518 50.6773 156.643C53.1751 154.783 55.6546 152.835 57.7814 150.552C57.7814 150.219 57.7814 149.886 57.7814 149.543C57.1044 149.084 56.4051 148.658 55.6975 148.249C52.8055 146.402 51.2136 143.988 49.6985 140.959C49.1502 133.772 50.6022 129.268 55.2555 123.793C55.5804 123.417 55.9054 123.041 56.2402 122.653C60.1068 118.052 64.0482 112.278 63.9831 106.099C63.7159 103.243 62.7669 100.572 61.8859 97.854C59.9975 91.9451 58.5902 86.2894 58.6338 80.0565C58.637 79.4141 58.637 79.4141 58.6403 78.7586C58.9554 60.7188 67.6752 45.5838 80.254 33.1901C85.9057 27.9015 92.3799 23.8756 99.2061 20.2896C99.6828 20.0345 100.159 19.7794 100.651 19.5165C120.915 9.45136 153.887 15.3529 171.484 29.074Z" fill="#353535"/>
<path d="M266.925 111.171C267.091 111.171 267.258 111.171 267.43 111.171C267.946 114.628 268.044 118.038 268.095 121.531C268.105 122.143 268.116 122.755 268.127 123.385C268.149 124.682 268.169 125.98 268.189 127.277C268.219 129.213 268.252 131.148 268.285 133.083C268.457 143.422 268.457 143.422 268.418 148.326C268.414 148.941 268.41 149.555 268.406 150.188C268.396 151.344 268.382 152.499 268.363 153.655C268.339 156.472 268.499 159.012 269.222 161.741C269.532 162.998 269.55 164.188 269.514 165.478C269.505 165.906 269.496 166.334 269.486 166.774C269.474 167.086 269.463 167.398 269.451 167.719C269.843 167.831 270.236 167.944 270.641 168.06C273.104 168.955 275.371 170.135 277.691 171.348C278.146 171.578 278.6 171.809 279.068 172.047C287.626 176.506 294.033 183.247 297.293 192.388C297.739 193.465 298.236 194.182 298.972 195.078C300.878 197.561 301.602 200.672 302.501 203.625C302.76 204.472 303.035 205.313 303.312 206.154C304.562 210.008 305.509 213.916 306.411 217.862C306.91 220.033 307.453 222.167 308.113 224.295C308.848 226.693 309.378 229.091 309.833 231.556C309.918 232.008 310.002 232.459 310.089 232.924C312.348 245.296 314.657 258.252 315.138 270.844C315.318 275.058 316.219 279.118 317.034 283.249C317.976 288.168 318.386 292.981 318.453 297.982C315.603 297.73 313.612 296.611 311.191 295.205C310.589 294.863 310.589 294.863 309.975 294.515C308.417 293.631 306.865 292.737 305.313 291.842C299.49 288.491 293.523 285.48 287.497 282.509C286.353 281.94 285.215 281.362 284.081 280.772C265.354 271.061 244.628 262.908 224.345 257.116C222.974 256.58 222.974 256.58 222.189 255.06C221.969 254.447 221.748 253.835 221.522 253.204C220.392 250.545 219.264 249.1 216.614 247.882C214.877 247.192 213.126 246.571 211.355 245.977C202.256 242.521 193.686 237.841 185.932 231.971C185.214 231.432 184.48 230.914 183.744 230.401C180.498 228.082 178.118 225.081 175.64 221.993C174.895 221.104 174.895 221.104 173.522 219.964C172.994 219.345 172.994 219.345 172.456 218.713C172.642 217.12 172.642 217.12 172.961 215.684C173.441 215.72 173.921 215.755 174.416 215.792C182.413 216.325 190.419 216.266 198.429 216.255C200.486 216.252 202.542 216.253 204.599 216.256C212.537 216.266 220.456 216.248 228.384 215.795C231.295 215.63 234.203 215.634 237.119 215.684C236.815 214.684 236.509 213.685 236.203 212.686C236.033 212.13 235.864 211.573 235.688 211C231.915 198.98 227.007 185.637 216.673 177.791C214.992 176.496 213.433 175.084 211.864 173.657C210.863 172.747 210.863 172.747 209.733 171.985C208.829 171.253 208.829 171.253 208.45 169.802C208.889 167.975 209.138 167.831 210.66 166.867C211.388 166.461 212.126 166.074 212.87 165.699C213.313 165.448 213.756 165.197 214.212 164.938C216.4 163.962 218.541 163.509 220.89 163.08C221.606 162.948 221.606 162.948 222.336 162.813C227.919 161.879 233.498 161.972 239.14 162.165C239.14 161.832 239.14 161.499 239.14 161.155C239.394 161.044 239.647 160.933 239.909 160.818C245.681 158.26 250.873 155.507 255.811 151.562C256.272 151.194 256.733 150.825 257.208 150.446C260.109 147.982 262.259 145.294 264.395 142.174C265.489 140.864 265.834 140.752 267.43 140.455C267.394 140.039 267.358 139.624 267.321 139.196C266.864 133.312 266.867 127.451 266.893 121.553C266.896 120.541 266.898 119.53 266.9 118.518C266.906 116.069 266.914 113.62 266.925 111.171Z" fill="#D89884"/>
<path d="M259.852 2.61844C260.439 2.80133 261.026 2.98421 261.63 3.17264C271.671 6.49529 281.78 12.1672 289.153 19.7849C289.59 20.2222 290.028 20.6596 290.479 21.1102C290.875 21.5059 291.271 21.9016 291.679 22.3093C292.132 22.7311 292.132 22.7311 292.594 23.1613C293.194 23.824 293.194 23.824 293.194 24.8338C293.496 24.9614 293.799 25.089 294.11 25.2205C295.357 25.9237 295.899 26.5748 296.724 27.735C296.996 28.1132 297.268 28.4914 297.548 28.8811C297.83 29.2845 298.113 29.688 298.404 30.1036C298.697 30.5175 298.99 30.9313 299.292 31.3577C300.129 32.5448 300.957 33.7368 301.782 34.9317C302.136 35.4439 302.491 35.9561 302.856 36.4838C307.139 42.9541 310.08 50.1097 313.001 57.2634C314.01 59.7301 315.056 62.1776 316.123 64.6199C321.323 76.5838 321.323 76.5838 322.338 82.1441C324.169 92.0827 328.527 101.756 332.093 111.171C332.291 111.701 332.49 112.232 332.694 112.779C334.258 116.915 335.991 120.962 337.808 124.992C337.952 125.312 338.095 125.632 338.243 125.961C341.012 132.112 344.014 138.017 347.544 143.772C348.312 145.091 348.982 146.435 349.648 147.807C351.102 150.775 352.756 153.595 354.448 156.43C355.746 158.611 356.987 160.805 358.173 163.049C359.345 165.263 360.598 167.396 361.93 169.518C363.472 171.99 364.828 174.486 366.098 177.107C366.951 178.827 367.849 180.517 368.757 182.208C371.057 186.503 373.139 190.844 375.079 195.313C375.825 197.028 376.614 198.717 377.429 200.401C383.877 213.746 389.502 227.222 391.704 241.938C391.764 242.326 391.824 242.714 391.886 243.113C394.424 260.067 393.075 279.417 383.116 293.943C382.681 294.615 382.681 294.615 382.238 295.301C379.057 300.187 375.697 305.022 371.497 309.089C371.092 309.508 370.687 309.926 370.27 310.358C368.092 312.465 365.644 314.221 363.222 316.034C362.508 316.583 361.817 317.162 361.131 317.746C356.631 321.429 350.314 323.839 344.604 324.963C344.309 325.057 344.015 325.15 343.712 325.246C343.125 326.558 343.125 326.558 342.765 328.181C341.236 333.57 338.874 337.91 335.295 342.185C333.977 343.79 333.343 344.901 333.103 346.956C333.249 348.312 333.249 348.312 333.593 349.724C333.713 350.263 333.833 350.803 333.957 351.359C334.092 351.937 334.227 352.514 334.366 353.11C334.504 353.712 334.642 354.313 334.784 354.933C337.453 366.42 340.201 378.087 345.416 388.725C346.601 391.223 347.328 393.642 347.248 396.436C346.339 398.481 345.563 399.264 343.649 400.412C339.678 401.846 335.443 400.848 331.493 399.844C327.552 398.9 323.613 398.052 319.621 397.351C319.191 397.273 318.761 397.195 318.318 397.115C310.559 395.782 302.69 395.24 294.836 394.858C294.414 394.838 293.993 394.817 293.559 394.796C290.575 394.654 287.591 394.529 284.606 394.417C284.231 394.402 283.856 394.388 283.47 394.373C271.381 393.924 260.076 395.055 248.738 399.465C248.346 399.616 247.953 399.766 247.549 399.922C242.814 401.746 238.147 403.672 233.559 405.842C231.528 406.784 229.464 407.634 227.39 408.477C226.562 408.825 225.74 409.191 224.936 409.593C221.337 411.391 217.452 412.084 213.534 412.865C212.796 413.012 212.059 413.162 211.323 413.317C186.417 418.546 158.185 415.342 134.13 407.514C128.877 405.937 123.388 404.694 117.897 404.514C117.341 404.494 116.786 404.474 116.213 404.453C104.772 404.246 93.5496 406.599 82.474 409.257C66.2946 413.128 42.3841 415.85 27.0348 407.54C24.2231 405.711 22.8861 403.903 22.1175 400.631C21.7496 398.54 21.7484 396.458 21.7428 394.34C21.7385 393.841 21.7343 393.343 21.7299 392.83C21.72 391.181 21.7201 389.533 21.723 387.884C21.7233 387.309 21.7236 386.734 21.7239 386.142C21.7715 364.145 24.0141 342.25 26.3229 320.394C26.3802 319.847 26.4375 319.3 26.4965 318.736C26.5507 318.232 26.6049 317.727 26.6607 317.208C26.7074 316.771 26.754 316.334 26.802 315.884C26.9681 314.614 27.2038 313.372 27.4694 312.119C26.9902 312.087 26.5109 312.056 26.0171 312.024C25.4961 311.889 24.9751 311.753 24.4384 311.614C23.7437 310.32 23.7437 310.32 23.428 309.089C23.0946 309.089 22.7612 309.089 22.4176 309.089C22.375 308.699 22.3323 308.308 22.2883 307.906C22.0413 306.534 22.0413 306.534 21.0542 305.855C20.6869 305.673 20.3195 305.49 19.9411 305.303C19.3323 304.993 19.3323 304.993 18.7112 304.676C18.2776 304.466 17.8441 304.257 17.3974 304.04C16.9593 303.818 16.5212 303.596 16.0698 303.367C14.2871 302.467 12.4956 301.599 10.6781 300.77C7.59866 299.363 5.71943 297.692 3.72599 294.952C3.48113 294.617 3.23628 294.282 2.984 293.937C-0.614881 288.615 -0.391688 282.411 0.72648 276.271C2.24438 269.895 5.79456 262.943 10.7985 258.6C11.1632 258.423 11.5279 258.246 11.9036 258.063C13.1103 257.44 13.2392 256.781 13.8296 255.571C14.3086 254.876 14.8039 254.192 15.3136 253.519C15.5682 253.18 15.8228 252.841 16.0851 252.492C16.8607 251.531 16.8607 251.531 17.6441 250.764C19.2468 249.128 20.365 247.104 20.4305 244.792C20.3069 243.654 20.1262 242.554 19.8917 241.434C19.798 240.923 19.7042 240.413 19.6076 239.887C19.5346 239.564 19.4617 239.242 19.3866 238.909C18.8864 238.742 18.3863 238.576 17.871 238.404C14.3813 234.132 13.3039 230.296 13.8296 224.772C14.4565 221.446 16.0024 218.614 18.3762 216.189C18.7096 216.189 19.043 216.189 19.3866 216.189C19.72 215.522 20.0534 214.856 20.3969 214.169C20.029 213.898 19.6611 213.626 19.282 213.347C17.7708 212.065 16.6838 210.741 15.503 209.152C15.1155 208.637 14.7281 208.122 14.3288 207.592C12.5885 204.991 11.8105 202.66 12.314 199.527C13.4283 195.984 14.6693 193.518 17.3658 190.944C18.5364 189.518 19.6735 188.069 20.8094 186.615C21.8651 185.443 22.5644 185.06 23.9332 184.38C24.0836 184.067 24.234 183.754 24.389 183.432C25.1755 181.913 26.3478 181.327 27.7536 180.373C29.8924 178.705 29.8924 178.705 30.8893 176.275C30.9253 175.163 30.9392 174.05 30.9327 172.937C31.1722 167.413 35.1115 161.29 39.0886 157.621C39.5473 157.069 39.9998 156.511 40.4463 155.949C40.8318 155.501 41.2173 155.053 41.6145 154.592C41.9479 154.592 42.2813 154.592 42.6248 154.592C42.7499 154.279 42.8749 153.967 43.0037 153.645C43.7551 152.368 44.361 152.209 45.6559 151.562C46.0008 150.893 46.3383 150.22 46.6663 149.543C47.1664 149.376 47.6665 149.209 48.1818 149.038C47.9005 148.632 47.6192 148.226 47.3293 147.807C46.439 146.466 45.6064 145.1 44.8034 143.705C44.5931 143.34 44.3828 142.975 44.166 142.598C42.2782 138.565 42.873 133.485 44.1404 129.347C45.6425 125.701 47.4298 122.563 50.2025 119.754C50.6506 119.275 51.0986 118.796 51.5602 118.302C52.7284 117.229 52.7284 117.229 54.244 116.725C54.7692 115.648 54.7692 115.648 55.2543 114.2C55.423 113.899 55.5917 113.599 55.7654 113.289C58.9105 107.444 57.1585 101.155 55.7247 95.0738C54.4598 89.5428 54.0067 84.0105 53.7388 78.3526C53.7085 77.7372 53.7085 77.7372 53.6776 77.1094C53.0499 62.3388 60.0356 46.2591 69.3994 34.9317C70.2306 34.0796 71.073 33.2383 71.9253 32.4072C72.8375 31.3843 73.7349 30.3497 74.6288 29.3108C76.1501 27.5885 76.1501 27.5885 76.9771 26.8534C77.3105 26.8534 77.6439 26.8534 77.9874 26.8534C78.117 26.5494 78.2466 26.2453 78.3801 25.9321C79.0638 24.7165 79.6598 24.2082 80.7975 23.4177C81.3346 23.0406 81.3346 23.0406 81.8825 22.6559C82.2642 22.3958 82.6459 22.1356 83.0392 21.8675C83.4324 21.597 83.8255 21.3264 84.2305 21.0476C85.3455 20.2848 86.4653 19.5296 87.5859 18.7751C88.0267 18.4692 88.4676 18.1633 88.9218 17.8481C100.526 10.2834 115.328 8.44984 128.884 8.48784C129.444 8.48825 129.444 8.48825 130.014 8.48867C146.935 8.54569 161.717 14.9139 174.611 25.7529C175.519 26.4905 175.519 26.4905 177.003 26.3485C178.558 25.0045 179.69 23.6049 180.853 21.9188C182.58 19.6039 184.615 18.066 186.98 16.4399C187.386 16.1555 187.791 15.871 188.209 15.5779C193.75 11.7208 193.75 11.7208 196.705 10.1919C197.422 9.81502 197.422 9.81502 198.153 9.43057C205.707 5.82795 214.215 4.67018 222.486 4.00049C225.704 3.71958 228.651 3.0525 231.738 2.11355C240.908 -0.39594 250.825 -0.408719 259.852 2.61844ZM227.016 9.18207C226.328 9.25177 225.638 9.29656 224.947 9.32801C214.996 9.91717 204.668 11.7371 196.2 17.2604C195.512 17.6766 194.823 18.0913 194.133 18.5049C187.254 22.7044 181.728 27.8166 176.498 33.9219C176.164 33.5783 175.831 33.2346 175.487 32.8805C174.982 32.3858 174.477 31.8914 173.972 31.3974C173.719 31.1351 173.466 30.8728 173.206 30.6026C160.25 18.091 137.605 14.8244 120.527 15.0811C103.197 15.6255 87.764 25.1415 75.945 37.3516C64.2461 50.5376 58.0245 66.0168 58.7181 83.7336C58.9671 87.794 60.0307 91.6006 61.1942 95.4737C61.3537 96.0062 61.5132 96.5388 61.6775 97.0874C61.9973 98.1408 62.3249 99.1919 62.6615 100.24C64.028 104.659 64.7232 108.515 62.56 112.767C62.2883 113.258 62.2883 113.258 62.0111 113.758C61.8255 114.109 61.6398 114.46 61.4485 114.822C60.0958 117.328 58.5946 119.586 56.7699 121.774C52.2178 127.359 49.2133 131.615 49.4408 139.127C49.977 142.957 51.8637 145.478 54.8755 147.807C55.8295 148.459 56.7467 149.026 57.7802 149.543C56.9959 151.603 55.5254 152.762 53.8651 154.118C53.5761 154.359 53.2872 154.601 52.9894 154.849C51.173 156.354 49.3182 157.802 47.4431 159.232C42.6768 162.886 38.0116 166.665 36.5627 172.768C36.2346 175.442 36.4919 177.36 37.573 179.836C37.0599 180.209 36.5467 180.582 36.018 180.966C24.568 188.772 24.568 188.772 17.6441 200.093C17.3808 203.468 18.8221 205.569 20.9021 208.11C22.9225 210.457 25.3788 212.02 27.9746 213.664C27.6933 213.947 27.412 214.229 27.1221 214.52C23.5072 218.316 19.1645 223.548 18.7551 228.969C18.9648 232.061 20.124 233.654 22.3229 235.722C25.1363 238.445 27.5436 241.806 27.8483 245.82C27.3978 251.021 21.5374 254.891 17.871 258.095C17.156 258.685 16.4405 259.274 15.724 259.862C10.5304 264.397 5.72583 271.873 4.73635 278.796C4.39674 284.762 4.92269 289.205 8.77779 293.943C12.0082 297.328 15.0623 298.732 19.576 299.686C26.2733 301.182 26.2733 301.182 28.0832 303.979C28.5114 304.956 28.5114 304.956 28.985 306.565C30.2122 306.369 30.8585 306.211 31.7378 305.309C31.9443 305.005 32.1507 304.701 32.3634 304.388C32.5737 304.087 32.7841 303.787 33.0008 303.478C34.2818 301.179 34.4544 298.525 34.0368 295.962C33.0351 293.637 31.7294 291.505 30.3367 289.395C29.3792 287.897 28.9837 286.859 28.8271 285.075C29.8263 282.46 31.6078 281.56 34.0368 280.31C35.6985 279.567 37.3733 278.899 39.0886 278.291C39.1888 280.645 38.9339 282.611 38.4026 284.919C35.1504 299.461 33.3182 314.207 31.6582 329C31.5296 330.13 31.3963 331.26 31.2585 332.389C30.1252 341.687 29.6364 351.018 29.1429 360.368C29.109 360.993 29.0752 361.618 29.0403 362.263C28.414 374.015 27.9125 385.864 28.985 397.604C29.0332 398.188 29.0814 398.772 29.131 399.374C29.2454 400.751 29.3649 402.128 29.4902 403.505C31.7205 403.92 33.952 404.328 36.1838 404.735C36.8077 404.851 37.4315 404.968 38.0743 405.087C56.1446 408.367 73.1345 405.59 90.6961 401.084C97.3075 399.394 103.485 398.283 110.327 398.324C111.381 398.329 112.434 398.324 113.488 398.318C122.071 398.306 130.275 399.592 138.641 401.422C139.451 401.595 140.262 401.768 141.073 401.941C144.544 402.684 148.006 403.45 151.456 404.288C155.93 405.371 160.42 406.209 164.964 406.943C166.155 407.136 167.346 407.333 168.537 407.531C169.312 407.658 170.087 407.786 170.862 407.913C171.209 407.97 171.556 408.027 171.914 408.086C176.199 408.776 180.395 409.141 184.736 409.161C185.224 409.164 185.712 409.167 186.215 409.17C187.243 409.174 188.272 409.178 189.301 409.18C190.844 409.185 192.386 409.2 193.929 409.216C204.313 409.273 214.212 407.984 223.55 403.211C226.413 401.792 229.355 400.542 232.288 399.276C232.623 399.132 232.958 398.987 233.303 398.838C238.72 396.504 244.142 394.242 249.749 392.397C250.208 392.245 250.667 392.093 251.139 391.936C269.892 385.826 291.078 385.338 310.37 389.368C310.82 389.456 311.27 389.545 311.733 389.637C315.474 390.379 319.174 391.191 322.773 392.47C330.776 395.29 330.776 395.29 339.166 395.931C339.499 395.598 339.832 395.265 340.176 394.921C339.972 393.1 339.371 391.47 338.716 389.766C338.523 389.262 338.331 388.757 338.133 388.237C337.932 387.715 337.731 387.192 337.524 386.654C334.81 379.594 332.437 372.52 330.546 365.196C330.46 364.864 330.374 364.533 330.285 364.192C328.6 357.671 327.426 351.108 326.536 344.432C326.854 344.373 327.172 344.314 327.499 344.252C329.05 343.775 329.299 342.788 330.072 341.403C330.385 341.097 330.697 340.792 331.019 340.478C332.184 339.29 332.989 338.083 333.861 336.669C334.827 335.115 335.791 333.569 336.829 332.062C338.054 330.178 338.224 328.77 338.218 326.571C338.22 325.863 338.22 325.863 338.222 325.139C338.157 323.778 337.954 322.533 337.65 321.207C338.15 321.04 338.65 320.874 339.166 320.702C339.166 320.369 339.166 320.035 339.166 319.692C339.436 319.691 339.707 319.69 339.986 319.688C349.436 319.222 357.613 313.749 364.144 307.335C364.883 306.611 365.633 305.899 366.384 305.188C379.24 292.797 386.426 277.557 386.841 259.68C387.306 231.649 374.468 207.044 361.76 182.777C361.559 182.39 361.357 182.003 361.149 181.604C359.459 178.401 357.562 175.352 355.615 172.3C349.789 163.116 344.642 153.478 340.274 143.521C339.21 141.112 338.062 138.806 336.766 136.51C328.392 121.361 322.016 103.47 318.238 86.6417C317.571 83.8317 316.651 81.0991 315.749 78.357C315.392 77.2482 315.052 76.1348 314.716 75.0195C312.699 68.3845 310.537 61.6158 306.905 55.66C306.329 54.6226 306.329 54.6226 305.64 52.9659C304.801 50.9744 303.729 49.1861 302.572 47.3647C302.354 47.0197 302.136 46.6747 301.912 46.3192C292.66 31.8178 282.31 20.1911 266.874 12.207C266.07 11.7879 265.277 11.3491 264.486 10.9058C258.013 7.37158 250.744 6.52933 243.497 6.49982C243.156 6.49799 242.816 6.49617 242.465 6.49429C237.056 6.48259 231.941 6.72089 227.016 9.18207Z" fill="#FDFDFC"/>
<path d="M168.919 167.655C169.459 167.653 170 167.651 170.557 167.648C171.058 167.649 171.559 167.65 172.076 167.651C172.527 167.652 172.977 167.653 173.441 167.653C174.475 167.718 174.475 167.718 174.981 168.223C175.657 168.261 176.336 168.265 177.013 168.255C177.441 168.251 177.868 168.246 178.308 168.242C179.006 168.233 179.006 168.233 179.717 168.223C183.255 168.197 186.763 168.251 190.294 168.476C194.126 168.712 197.948 168.785 201.787 168.791C202.586 168.795 202.586 168.795 203.401 168.798C203.895 168.797 204.389 168.796 204.899 168.795C205.34 168.795 205.782 168.794 206.237 168.794C207.34 168.797 207.34 168.797 208.323 168.223C208.442 168.683 208.562 169.144 208.686 169.618C209.415 171.46 210.024 172.029 211.606 173.178C213.923 174.924 216.076 176.777 218.213 178.737C219.103 179.536 220.026 180.299 220.966 181.037C229.836 188.853 234.201 203.608 237.118 214.674C237.118 215.007 237.118 215.34 237.118 215.683C225.325 216.496 213.595 216.843 201.775 216.792C200.176 216.786 198.578 216.787 196.979 216.787C188.838 216.787 180.72 216.697 172.589 216.247C170.802 216.155 169.014 216.099 167.225 216.046C166.609 216.027 165.993 216.009 165.359 215.989C164.118 215.953 162.877 215.917 161.637 215.883C161.032 215.864 160.428 215.845 159.806 215.825C159.273 215.81 158.741 215.795 158.192 215.779C156.794 215.683 156.794 215.683 155.833 215.432C154.72 215.166 153.727 215.098 152.584 215.073C152.155 215.063 151.727 215.054 151.285 215.044C149.324 215.014 147.363 214.99 145.402 214.974C144.372 214.963 143.342 214.946 142.312 214.922C134.382 214.681 134.382 214.681 127.494 218.208C125.748 219.083 123.943 219.795 122.126 220.511C121.602 220.72 121.079 220.928 120.539 221.143C113.194 223.992 105.661 226.334 98.1503 228.701C96.2731 229.294 94.405 229.901 92.5504 230.562C88.4134 232.029 84.7563 232.734 80.3749 232.764C79.1279 232.828 78.1416 232.905 76.9757 233.355C75.9825 234.601 75.5064 235.914 74.955 237.394C72.5255 240.96 68.8213 243.199 65.3628 245.691C59.7315 249.745 59.7315 249.745 54.9412 254.74C53.9353 255.935 53.3387 256.061 51.7799 256.264C50.2012 256.075 50.2012 256.075 49.033 254.907C46.3494 250.636 47.567 244.73 48.6047 240.06C51.4886 228.945 56.2904 220.256 64.3462 212.149C64.7051 211.772 65.0639 211.394 65.4336 211.005C68.0656 208.272 70.9873 205.935 73.9447 203.566C74.8184 202.84 75.692 202.115 76.5653 201.389C86.182 193.553 96.4815 186.745 107.186 180.49C108.179 179.905 109.164 179.308 110.146 178.704C118.138 173.902 126.251 171.06 135.541 170.383C137.086 170.244 138.593 170.022 140.123 169.77C149.642 168.245 159.289 167.685 168.919 167.655Z" fill="#FDE6D8"/>
<path d="M29.3334 214.043C32.1079 214.066 34.7134 214.678 37.4064 215.304C40.3788 215.976 43.2403 216.28 46.2845 216.349C46.6727 216.36 47.0609 216.37 47.4608 216.381C48.6908 216.414 49.9208 216.443 51.1508 216.473C51.9889 216.495 52.8269 216.517 53.6649 216.539C55.7106 216.593 57.7563 216.644 59.802 216.694C59.0302 218.297 58.1109 219.726 57.1115 221.199C51.4562 229.696 46.8253 241.682 48.1829 252.037C48.7172 253.435 49.3011 254.359 50.2036 255.571C52.2525 255.815 53.0583 255.693 54.7818 254.498C55.7822 253.611 56.5451 252.69 57.3748 251.63C58.9227 249.755 60.7762 248.405 62.7384 246.988C63.0786 246.738 63.4189 246.488 63.7695 246.23C64.4553 245.727 65.1419 245.224 65.8294 244.723C66.9119 243.931 67.991 243.136 69.067 242.335C69.3886 242.096 69.7103 241.858 70.0417 241.612C72.5161 239.68 74.9695 237.317 75.9997 234.315C76.9782 232.851 76.9782 232.851 77.8743 232.565C79.0711 232.439 80.2526 232.392 81.4557 232.364C87.2513 232.002 92.326 230.413 97.7853 228.528C98.7434 228.205 99.7017 227.883 100.66 227.562C102.972 226.784 105.279 225.993 107.583 225.195C108.682 224.815 109.782 224.437 110.882 224.061C121.8 220.949 121.8 220.949 131.379 215.38C133.133 214.322 134.854 214.543 136.834 214.637C137.246 214.65 137.658 214.664 138.083 214.678C139.396 214.722 140.708 214.777 142.02 214.832C142.911 214.864 143.803 214.896 144.694 214.926C146.876 215.002 149.058 215.088 151.24 215.179C150.882 217.68 150.531 218.917 148.714 220.733C148.358 220.921 148.002 221.109 147.636 221.302C145.747 222.304 144.436 223.064 143.648 225.11C143.355 226.724 143.169 228.313 143.03 229.948C142.323 237.007 140.183 242.07 134.663 246.641C132.065 248.605 129.242 250.201 126.411 251.803C126.052 252.007 125.692 252.212 125.322 252.423C124.999 252.604 124.676 252.786 124.343 252.972C122.468 254.195 121.687 255.319 121.13 257.51C120.625 260.245 120.534 263.043 120.361 265.814C119.811 273.309 117.049 279.398 111.836 284.855C110.049 286.301 108.175 287.597 106.279 288.894C103.258 291.014 102.071 292.852 101.227 296.467C100.185 296.941 100.185 296.941 98.7009 296.972C95.6351 294.834 94.095 292.095 93.3669 288.517C92.8713 283.424 94.8786 279.715 97.229 275.304C99.1425 271.71 99.1425 271.71 99.2061 267.688C98.7612 266.5 98.7612 266.5 98.1957 265.669C97.8206 266.559 97.8206 266.559 97.4379 267.468C94.8485 272.561 89.3915 274.93 84.5792 277.546C79.4182 280.294 79.4182 280.294 75.9678 284.855C75.9196 285.957 75.9012 287.061 75.8968 288.164C75.8875 288.847 75.8776 289.529 75.8672 290.212C75.8527 291.28 75.8415 292.349 75.8413 293.418C75.8305 299.883 74.6785 305.213 70.0556 310.025C67.9145 312.026 65.646 313.849 63.3383 315.653C62.4113 316.389 61.4851 317.125 60.5598 317.862C60.1587 318.179 59.7575 318.495 59.3442 318.821C57.0067 320.747 56.6102 321.643 56.2658 324.742C55.7606 325.246 55.7606 325.246 54.5909 325.378C52.9278 325.217 52.4331 324.785 51.2377 323.643C50.8834 323.308 50.5291 322.973 50.1641 322.628C49.8021 322.274 49.44 321.92 49.067 321.554C48.6971 321.206 48.3272 320.857 47.9461 320.498C44.7492 317.436 44.7492 317.436 44.544 314.88C44.4791 310.774 45.1109 307.248 46.6003 303.42C48.0505 299.63 48.4399 295.54 47.0403 291.681C46.1481 289.875 45.1294 288.224 44.0467 286.527C42.0869 283.291 41.5259 280.583 42.1207 276.777C42.3708 276.027 42.3708 276.027 42.6259 275.262C42.2163 275.518 41.8067 275.775 41.3847 276.039C38.1881 278.025 34.9985 279.916 31.6343 281.613C30.3351 282.436 29.6771 282.969 28.9861 284.35C29.0148 287.773 30.6513 290.093 32.4463 292.864C34.0057 295.431 34.444 297.515 34.0379 300.507C33.2359 302.911 32.1716 304.666 30.5016 306.565C29.5544 306.502 29.5544 306.502 28.4809 306.06C28.3871 305.613 28.2933 305.165 28.1967 304.704C27.0005 301.949 24.6207 301.079 21.9135 300.002C20.108 299.562 18.2981 299.216 16.473 298.868C12.1149 297.851 9.41881 294.874 6.75814 291.419C4.19743 287.208 4.13521 281.871 5.06499 277.124C8.09294 266.364 16.0622 258.999 24.3131 252.005C26.3867 250.19 27.5207 248.721 27.7547 245.915C27.5843 241.643 24.9984 238.314 22.0398 235.438C21.6569 235.096 21.274 234.754 20.8795 234.401C19.3065 232.735 18.9328 231.384 18.7266 229.119C19.1222 224.495 24.2477 214.388 29.3334 214.043Z" fill="#363535"/>
<path d="M221.964 254.056C222.09 254.509 222.09 254.509 222.217 254.971C223.371 256.652 225.154 256.958 227.016 257.59C227.349 257.703 227.683 257.817 228.026 257.933C229.069 258.282 230.115 258.624 231.16 258.965C240.738 262.128 250.176 265.523 259.506 269.361C259.958 269.546 260.41 269.732 260.876 269.923C269.302 273.391 277.692 276.987 285.803 281.147C287.659 282.092 289.527 283.01 291.399 283.924C297.658 286.993 303.77 290.17 309.727 293.804C312.517 295.492 315.196 296.755 318.249 297.895C320.078 298.785 321.283 300.107 322.637 301.599C323.789 302.828 325.133 303.619 326.537 304.545C331.365 308.366 334.61 312.846 336.64 318.682C336.64 319.182 336.64 319.682 336.64 320.197C337.474 320.197 338.307 320.197 339.166 320.197C338.666 320.53 338.166 320.864 337.651 321.207C337.731 321.568 337.811 321.929 337.893 322.301C338.804 327.26 338.04 330.512 335.267 334.606C334.669 335.465 334.064 336.318 333.449 337.164C332.572 338.371 332.572 338.371 331.827 339.724C331.083 340.898 331.083 340.898 329.568 341.908C329.328 342.345 329.089 342.782 328.842 343.233C328.451 343.826 328.451 343.826 328.052 344.432C327.385 344.432 326.719 344.432 326.032 344.432C325.865 343.599 325.698 342.766 325.526 341.908C324.633 341.931 324.633 341.931 323.721 341.955C321.728 341.951 319.979 341.654 318.043 341.15C317.709 341.064 317.376 340.978 317.031 340.889C312.979 339.817 308.974 338.574 304.962 337.364C301.356 336.288 297.748 335.326 294.079 334.492C290.222 333.61 286.519 332.515 282.781 331.211C280.055 330.281 277.309 329.409 274.566 328.528C273.948 328.329 273.33 328.129 272.693 327.924C269.767 326.986 266.842 326.061 263.884 325.23C260.943 324.389 258.122 323.487 255.289 322.327C254.623 322.057 253.958 321.787 253.292 321.518C252.955 321.382 252.619 321.246 252.273 321.106C250.679 320.467 249.076 319.854 247.472 319.241C246.838 318.998 246.203 318.755 245.568 318.512C245.251 318.39 244.933 318.269 244.606 318.143C238.361 315.75 232.183 313.244 226.056 310.56C224.093 309.707 222.113 308.892 220.135 308.074C219.068 307.631 218.005 307.18 216.944 306.723C215.594 306.144 214.236 305.593 212.871 305.05C211.208 293.324 211.484 284.452 216.845 273.686C219.859 267.512 221.794 260.966 221.964 254.056Z" fill="#F7D6C3"/>
<path d="M266.924 111.171C267.091 111.171 267.257 111.171 267.429 111.171C267.945 114.628 268.043 118.038 268.094 121.531C268.105 122.143 268.115 122.755 268.126 123.385C268.148 124.682 268.168 125.98 268.188 127.277C268.218 129.213 268.251 131.148 268.284 133.083C268.456 143.422 268.456 143.422 268.417 148.326C268.413 148.941 268.409 149.555 268.405 150.188C268.395 151.344 268.381 152.499 268.362 153.655C268.338 156.472 268.498 159.012 269.221 161.741C269.531 162.998 269.549 164.188 269.513 165.478C269.504 165.906 269.495 166.334 269.485 166.774C269.474 167.086 269.462 167.398 269.45 167.719C269.842 167.831 270.235 167.944 270.64 168.06C273.103 168.955 275.37 170.135 277.69 171.348C278.145 171.578 278.599 171.809 279.067 172.047C287.622 176.504 294.008 183.287 297.408 192.366C298.12 194.734 298.412 196.057 297.361 198.36C296.615 200.074 296.008 201.728 295.53 203.535C293.248 211.245 288.082 216.353 281.134 220.151C280.779 220.343 280.424 220.535 280.058 220.733C279.646 220.961 279.233 221.188 278.808 221.423C269.73 226.383 253.428 235.26 242.675 232.85C239.249 229.863 238.511 226.008 237.86 221.683C237.52 219.594 237.06 217.587 236.108 215.684C236.441 215.684 236.775 215.684 237.118 215.684C236.814 214.684 236.508 213.685 236.203 212.686C236.033 212.13 235.863 211.573 235.687 211C231.914 198.98 227.006 185.637 216.672 177.791C214.992 176.496 213.432 175.084 211.863 173.657C210.862 172.747 210.862 172.747 209.732 171.985C208.828 171.253 208.828 171.253 208.449 169.802C208.888 167.975 209.137 167.831 210.659 166.867C211.387 166.461 212.125 166.074 212.87 165.699C213.312 165.448 213.755 165.197 214.211 164.938C216.399 163.962 218.541 163.509 220.889 163.08C221.605 162.948 221.605 162.948 222.335 162.813C227.919 161.879 233.497 161.972 239.139 162.165C239.139 161.832 239.139 161.499 239.139 161.155C239.393 161.044 239.646 160.933 239.908 160.818C245.68 158.26 250.872 155.507 255.81 151.562C256.271 151.194 256.732 150.825 257.207 150.446C260.108 147.982 262.258 145.294 264.394 142.174C265.488 140.864 265.833 140.752 267.429 140.455C267.393 140.039 267.357 139.624 267.32 139.196C266.863 133.312 266.866 127.451 266.892 121.553C266.895 120.541 266.897 119.53 266.899 118.518C266.905 116.069 266.913 113.62 266.924 111.171Z" fill="#F1B3A0"/>
<path d="M142.146 142.474C147.265 145.532 151.927 150.926 153.765 156.611C154.432 158.142 155.109 159.667 155.812 161.182C156.851 163.514 156.851 163.514 156.291 165.194C156.124 165.028 155.957 164.861 155.786 164.689C153.453 164.554 151.113 164.591 148.776 164.595C148.242 164.595 148.242 164.595 147.698 164.595C123.132 164.325 123.132 164.325 100.942 173.493C100.42 173.847 99.8978 174.201 99.3599 174.566C87.3068 182.787 76.2238 191.576 66.6579 202.665C65.5975 203.868 64.4613 204.979 63.3062 206.091C60.2028 209.103 60.2028 209.103 57.7808 212.654C57.8137 214.169 58.127 214.861 58.7912 216.189C56.1148 216.226 53.4386 216.254 50.762 216.272C49.8548 216.279 48.9475 216.29 48.0403 216.303C42.9979 216.375 38.3447 216.28 33.4331 215.027C32.1545 214.708 30.9583 214.534 29.6486 214.421C27.7797 214.139 27.6836 213.933 26.4596 212.654C25.75 212.213 25.0337 211.783 24.3126 211.36C21.3513 209.441 19.4387 206.699 17.8716 203.566C17.409 199.925 18.1606 197.915 20.2514 194.922C24.4845 189.601 29.6463 185.56 35.1007 181.557C35.8907 180.97 36.6645 180.362 37.4335 179.747C46.4196 172.694 57.9016 168.529 68.3896 164.184C68.8311 164.001 69.2726 163.817 69.7275 163.627C80.1411 159.338 91.3735 158.555 102.515 157.756C103.82 157.657 103.82 157.657 105.268 157.116C106.092 155.982 106.092 155.982 106.878 154.591C109.818 149.845 113.122 146.392 117.897 143.484C118.411 143.152 118.925 142.821 119.454 142.48C126.682 138.284 134.717 139.029 142.146 142.474Z" fill="#F7CFC3"/>
<path d="M155.279 265.164C156.693 265.24 157.231 265.601 158.243 266.595C158.745 267.23 158.745 267.23 159.257 267.877C159.85 268.625 159.85 268.625 160.455 269.388C162.444 271.982 164.347 274.641 166.271 277.282C168.3 280.043 170.404 282.615 172.769 285.097C173.725 286.109 174.621 287.136 175.52 288.197C177.022 289.927 178.626 291.493 180.301 293.055C181.051 293.763 181.8 294.472 182.55 295.181C183.064 295.663 183.582 296.139 184.105 296.611C188.458 300.56 188.458 300.56 188.832 302.755C188.69 303.971 188.69 303.971 188.405 305.221C187.836 307.862 188.164 310.602 188.273 313.286C188.291 313.849 188.309 314.412 188.328 314.991C188.659 323.821 189.706 332.598 190.957 341.34C191.021 341.788 191.085 342.236 191.15 342.697C192.525 352.272 194.38 361.723 196.474 371.164C196.688 372.129 196.897 373.094 197.106 374.06C199.012 382.821 201.131 392.173 205.167 400.223C206.109 402.11 205.938 403.443 205.797 405.524C205.292 406.029 205.292 406.029 204.254 406.215C202.025 405.937 200.503 404.8 198.661 403.568C198.281 403.317 197.901 403.066 197.509 402.808C193.116 399.849 189.301 396.418 185.896 392.352C185.356 391.71 184.799 391.082 184.226 390.47C175.598 381.188 171.777 368.98 171.126 356.585C170.623 347.198 168.275 340.072 163.867 331.81C157.833 320.483 152.919 310.315 153.116 297.265C153.132 296.201 153.137 295.137 153.14 294.073C153.174 288.964 153.174 288.964 153.509 286.671C153.801 284.588 153.859 282.558 153.888 280.458C153.904 279.623 153.921 278.788 153.938 277.953C153.962 276.647 153.985 275.342 154.004 274.037C154.024 272.769 154.05 271.502 154.077 270.234C154.081 269.842 154.086 269.45 154.09 269.045C154.154 266.288 154.154 266.288 155.279 265.164Z" fill="#E2D5AB"/>
<path d="M188.117 303.536C189.991 303.676 191.491 304.161 193.169 304.956C198.294 307.318 203.989 309.301 209.524 307.417C211.292 306.725 211.292 306.725 212.156 305.75C212.392 305.519 212.628 305.288 212.871 305.05C215.462 305.194 217.885 306.612 220.236 307.639C227.789 310.935 235.387 314.086 243.055 317.105C243.455 317.262 243.855 317.42 244.267 317.582C246.933 318.632 249.602 319.672 252.275 320.702C252.633 320.84 252.991 320.978 253.36 321.121C257.732 322.801 262.12 324.348 266.609 325.688C267.743 326.032 268.877 326.375 270.011 326.719C270.584 326.892 271.157 327.065 271.747 327.243C274.626 328.113 277.501 329 280.375 329.885C280.926 330.054 281.477 330.223 282.044 330.397C284.354 331.106 286.662 331.817 288.964 332.553C292.478 333.677 295.999 334.687 299.585 335.552C302.446 336.248 305.27 337.049 308.097 337.868C311.339 338.804 314.583 339.721 317.854 340.551C318.461 340.705 319.069 340.859 319.695 341.018C321.641 341.436 323.549 341.688 325.526 341.908C327.176 346.389 328.226 351.245 327.547 356.045C322.245 359.577 312.109 357.637 306.215 356.502C286.629 352.339 268.578 344.479 251.264 334.555C248.026 332.702 244.71 331.034 241.35 329.411C240.655 329.072 240.655 329.072 239.945 328.726C233.608 325.708 227.761 323.948 220.764 323.29C211.303 322.254 204.88 319.106 197.21 313.634C196.558 313.175 195.905 312.717 195.253 312.259C189.317 308.072 189.317 308.072 187.612 306.565C187.422 305.208 187.422 305.208 187.612 304.041C187.779 303.874 187.945 303.707 188.117 303.536Z" fill="#D99884"/>
<path d="M209.321 38.5526C210.544 39.0521 211.177 39.6518 212.081 40.6116C212.388 40.9312 212.695 41.2508 213.011 41.58C213.298 41.8852 213.585 42.1905 213.881 42.505C219.108 47.8601 224.954 51.7043 231.562 55.1905C232.124 55.4905 232.685 55.7905 233.263 56.0997C235.77 57.4347 238.283 58.745 240.833 59.9948C253.561 66.3139 262.506 76.6801 267.43 89.9651C270.9 100.352 271.52 110.719 271.742 121.582C271.764 122.588 271.786 123.594 271.808 124.599C271.853 126.699 271.898 128.798 271.941 130.897C271.997 133.571 272.054 136.245 272.113 138.919C272.158 140.994 272.203 143.068 272.247 145.143C272.268 146.128 272.289 147.113 272.31 148.098C272.422 153.293 272.517 158.484 272.482 163.68C272.959 163.746 273.435 163.812 273.927 163.88C275.766 164.233 276.377 164.747 277.692 166.046C279.147 167.414 280.559 168.625 282.238 169.707C289.016 174.084 293.608 178.494 297.741 185.39C298.076 185.938 298.41 186.486 298.755 187.051C301.25 191.206 303.188 195.467 304.813 200.032C305.002 200.558 305.191 201.084 305.386 201.627C308.39 210.071 310.8 218.454 312.571 227.253C312.917 228.91 313.299 230.556 313.688 232.203C314.282 234.756 314.791 237.294 315.17 239.887C315.261 240.501 315.261 240.501 315.355 241.127C316.027 245.834 316.464 250.568 316.892 255.302C317.179 258.38 317.554 261.361 318.206 264.382C318.714 267.027 318.939 269.712 319.211 272.39C319.309 273.322 319.309 273.322 319.409 274.272C319.704 277.09 319.984 279.907 320.219 282.73C320.637 287.683 321.281 292.468 322.377 297.323C323.049 300.358 323.049 300.358 322.495 302.021C320.489 300.709 318.777 299.473 318.01 297.135C317.784 295.542 317.658 293.971 317.569 292.365C317.471 291.18 317.369 289.996 317.263 288.813C317.214 288.227 317.164 287.641 317.113 287.037C316.865 284.662 316.398 282.359 315.896 280.026C315.159 276.454 314.733 272.967 314.507 269.329C313.403 252.381 311.283 233.969 305.849 217.83C305.397 216.432 305.068 215.108 304.813 213.664C304.225 210.388 303.16 207.244 302.12 204.088C301.9 203.419 301.683 202.75 301.468 202.08C300.332 198.546 299.119 195.527 296.928 192.524C296.18 191.38 295.759 190.307 295.31 189.019C294.062 185.682 291.906 183.069 289.658 180.341C289.401 180.014 289.144 179.686 288.879 179.349C285.464 175.46 279.937 172.718 275.213 170.768C269.794 168.494 269.794 168.494 268.74 166.115C268.48 164.427 268.426 162.861 268.44 161.155C268.358 160.685 268.276 160.214 268.191 159.73C267.939 158.15 267.886 156.706 267.904 155.108C267.908 154.502 267.913 153.895 267.917 153.27C267.92 152.943 267.923 152.616 267.927 152.279C267.957 148.674 267.942 145.069 267.935 141.464C267.934 140.72 267.934 140.72 267.933 139.962C268.654 104.002 268.654 104.002 252.709 73.1517C249.012 69.6638 244.866 66.9739 240.561 64.3101C240.189 64.0797 239.817 63.8492 239.434 63.6118C237.224 62.2747 234.994 61.1517 232.621 60.1328C226.27 57.3653 220.779 53.3619 215.397 49.0686C215.11 48.8454 214.823 48.6221 214.528 48.3921C212.697 46.9305 211.285 45.3423 209.84 43.5148C209.546 43.8838 209.252 44.2528 208.95 44.633C204.268 50.4553 198.897 54.9011 192.821 59.1981C187.302 63.1557 182.617 67.4104 180.034 73.8084C179.701 74.4521 179.364 75.0937 179.024 75.7333C176.791 80.2161 176.305 84.2352 176.466 89.2077C176.496 90.2858 176.522 91.3639 176.543 92.4422C176.558 92.9124 176.573 93.3827 176.588 93.8671C176.498 95.014 176.498 95.014 175.487 96.0238C174.161 95.8344 174.161 95.8344 172.961 95.5189C171.34 87.1381 172.172 77.344 176.689 69.9586C181.864 62.3816 188.426 57.239 195.791 51.9501C197.114 50.9995 198.428 50.039 199.736 49.0686C200.296 48.6635 200.296 48.6635 200.867 48.2501C203.531 46.1589 204.787 43.8633 206.139 40.7753C206.899 39.2996 207.543 38.3978 209.321 38.5526Z" fill="#3E3D3C"/>
<path d="M155.694 214.905C157.186 215.276 158.608 215.272 160.144 215.303C161.116 215.328 161.116 215.328 162.107 215.353C163.132 215.377 164.158 215.4 165.183 215.42C166.177 215.44 167.17 215.466 168.164 215.492C169.053 215.511 169.053 215.511 169.961 215.531C171.446 215.684 171.446 215.684 172.961 216.694C173.087 217.987 173.087 217.987 172.961 219.218C172.456 219.723 172.456 219.723 170.924 219.77C170.244 219.768 169.564 219.764 168.884 219.758C168.142 219.763 167.4 219.768 166.658 219.774C165.487 219.783 164.318 219.786 163.147 219.773C158.659 219.593 158.659 219.593 154.531 220.996C153.6 221.899 153.6 221.899 152.911 222.872C152.156 223.887 151.379 224.432 150.323 225.119C148.726 226.277 148.347 226.552 147.702 228.306C147.523 229.584 147.379 230.842 147.26 232.124C146.417 239.551 143.427 246.518 137.509 251.299C136.046 252.42 134.556 253.497 133.052 254.561C128.643 257.794 126.154 260.383 125.261 266C125.186 266.494 125.11 266.989 125.032 267.499C123.456 277.192 119.598 283.051 111.834 288.893C110.636 289.686 109.432 290.459 108.203 291.205C106.769 292.33 106.348 293.384 106.122 295.173C106.078 296.036 106.036 296.898 105.995 297.761C105.73 299.226 105.281 299.939 104.257 301.011C100.706 301.766 97.588 299.862 94.6583 297.982C92.2501 295.808 90.2398 293.54 89.9775 290.229C89.9922 286.612 90.1693 283.317 91.122 279.805C91.122 279.472 91.122 279.139 91.122 278.796C89.7395 279.578 88.3623 280.369 86.9859 281.162C86.5974 281.382 86.209 281.602 85.8088 281.828C83.197 283.34 80.9261 284.807 79.3588 287.473C78.8136 289.618 78.825 291.738 78.7767 293.942C78.4796 301.684 77.3338 307.653 71.6904 313.383C70.4482 314.513 69.1815 315.597 67.8837 316.663C62.8488 320.774 62.8488 320.774 60.6691 326.701C60.5953 327.795 60.5216 328.889 60.4481 329.983C60.306 331.305 60.306 331.305 59.8009 331.809C54.7116 332.459 50.507 329.042 46.6617 326.084C43.119 323.136 40.5537 318.578 39.9429 313.972C39.7412 309.402 40.796 305.406 42.0516 301.035C43.382 296.816 43.382 296.816 42.5024 292.631C42.2302 292.22 41.958 291.809 41.6775 291.386C39.6091 288.226 38.9371 285.969 39.0253 282.172C39.0299 281.798 39.0345 281.424 39.0392 281.039C39.051 280.123 39.0691 279.207 39.0885 278.291C38.7551 278.124 38.4216 277.957 38.0781 277.786C38.6443 277.362 39.2131 276.942 39.7831 276.524C40.0996 276.289 40.4161 276.055 40.7422 275.814C41.6144 275.261 41.6144 275.261 42.6247 275.261C42.5779 275.726 42.531 276.191 42.4827 276.669C42.2076 281.489 42.9949 284.242 45.6341 288.278C48.1376 292.22 48.6011 295.419 48.1817 300.001C47.8124 301.578 47.2524 303.038 46.6662 304.545C45.3316 308.504 43.8876 313.401 45.719 317.398C46.9561 319.075 48.3609 320.456 49.8867 321.869C50.1719 322.147 50.4572 322.425 50.751 322.711C52.4658 324.334 52.4658 324.334 54.7057 324.92C55.2273 324.832 55.2273 324.832 55.7594 324.741C55.7698 324.231 55.7803 323.72 55.791 323.195C56.4163 319.136 60.8453 316.835 63.8844 314.523C69.0387 310.601 73.1131 306.939 74.9563 300.506C75.0458 299.304 75.0886 298.098 75.0944 296.893C75.1047 296.203 75.1152 295.514 75.126 294.824C75.1374 293.75 75.1457 292.677 75.1487 291.604C75.1535 290.558 75.1706 289.513 75.1891 288.467C75.1933 287.847 75.1974 287.226 75.2017 286.587C75.594 283.97 76.7607 282.476 78.6991 280.727C80.021 279.796 81.3549 278.977 82.7649 278.186C83.2855 277.89 83.8061 277.593 84.3426 277.288C85.4242 276.677 86.5069 276.068 87.5907 275.461C93.6069 272.162 93.6069 272.162 97.4368 266.71C97.5879 266.32 97.7389 265.93 97.8946 265.528C97.9936 265.241 98.0926 264.954 98.1946 264.659C99.6331 266.096 99.6483 267.191 99.8956 269.179C99.8801 272.016 98.2308 274.369 96.9316 276.808C94.4347 281.754 92.8214 285.608 94.5359 291.138C95.484 293.296 96.8528 294.99 98.6997 296.467C99.3666 296.467 100.033 296.467 100.72 296.467C100.814 296.036 100.814 296.036 100.91 295.597C101.839 292.122 103.432 290.496 106.277 288.389C106.809 287.991 106.809 287.991 107.351 287.586C108.036 287.076 108.721 286.567 109.407 286.059C114.699 281.995 118.434 276.154 119.538 269.581C119.857 267.133 120.009 264.693 120.138 262.229C120.532 255.866 120.532 255.866 123.244 253.348C125.437 251.591 127.894 250.288 130.342 248.925C133.825 246.939 136.748 244.756 139.019 241.402C139.446 240.784 139.446 240.784 139.882 240.153C141.194 237.971 141.775 235.967 142.092 233.448C142.168 232.896 142.245 232.343 142.324 231.774C142.479 230.618 142.627 229.461 142.77 228.303C143.371 224.079 143.371 224.079 144.878 222.431C145.526 222.09 145.526 222.09 146.187 221.742C146.506 221.542 146.825 221.342 147.154 221.135C147.581 220.873 147.581 220.873 148.018 220.606C150.094 219.164 150.552 217.561 151.238 215.179C154.523 214.611 154.523 214.611 155.694 214.905Z" fill="#DED1A8"/>
<path d="M209.333 43.0098C211.299 44.6091 213.096 46.2658 214.89 48.0587C217.833 50.8652 221.013 53.0284 224.489 55.1272C224.947 55.4051 225.405 55.683 225.878 55.9694C227.096 56.7031 228.317 57.4308 229.54 58.1566C229.922 58.4039 230.304 58.6512 230.697 58.906C231.812 59.5294 232.775 59.9449 233.969 60.3616C236.337 61.2168 238.397 62.4445 240.528 63.7735C240.925 64.0192 241.321 64.2648 241.73 64.5178C249.661 69.4894 255.567 74.86 260.356 82.8964C260.533 83.1873 260.71 83.4781 260.893 83.7778C267.521 94.9158 267.286 109.657 267.431 122.238C267.453 124.142 267.496 126.046 267.543 127.95C267.578 129.433 267.601 130.915 267.62 132.399C267.631 133.102 267.645 133.805 267.664 134.509C267.689 135.48 267.695 136.452 267.701 137.424C267.71 137.974 267.718 138.525 267.727 139.092C267.429 140.454 267.429 140.454 266.213 141.322C265.781 141.535 265.348 141.749 264.903 141.969C263.849 143.242 263.849 143.242 262.914 144.683C261.39 146.865 259.98 148.49 257.83 150.047C257.261 148.341 257.363 148.094 257.996 146.499C258.15 146.102 258.303 145.705 258.462 145.296C258.628 144.875 258.795 144.454 258.967 144.02C264.129 130.522 265.372 114.511 259.505 101.042C259.286 100.552 259.066 100.062 258.841 99.5579C258.605 99.0168 258.37 98.4758 258.128 97.9183C255.45 91.8255 252.735 85.8514 248.232 80.8768C247.669 80.2335 247.669 80.2335 247.095 79.5771C242.816 74.9834 237.499 71.911 232.161 68.7051C225.255 64.5496 219.457 59.9306 213.88 54.1174C213.376 53.6109 212.872 53.1051 212.364 52.6028C211.991 52.9874 211.618 53.3721 211.234 53.7684C208.346 56.7164 205.418 59.4834 202.184 62.0557C200.298 63.5632 198.464 65.128 196.626 66.6943C194.858 68.197 193.059 69.652 191.241 71.0945C186.213 75.2304 181.431 80.7104 180.538 87.4405C180.413 89.0939 180.316 90.7449 180.232 92.4007C180.085 94.9618 180.085 94.9618 179.528 95.5188C178.517 95.5394 177.507 95.5403 176.496 95.5188C174.866 87.1723 175.779 79.4192 180.538 72.2936C180.779 71.7079 181.021 71.1221 181.27 70.5186C184.07 64.2308 190.93 59.9199 196.303 55.9497C201.465 52.1287 205.878 48.4866 209.333 43.0098Z" fill="#F4CDC1"/>
<path d="M148.712 164.09C149.062 164.09 149.411 164.089 149.772 164.089C155.499 164.09 155.499 164.09 157.3 164.69C157.613 165.314 157.613 165.314 157.932 165.952C158.747 167.419 158.747 167.419 160.679 167.624C161.231 167.656 161.783 167.687 162.352 167.719C162.352 167.886 162.352 168.052 162.352 168.224C161.938 168.249 161.524 168.275 161.097 168.301C148.915 168.54 148.915 168.54 137.093 170.748C136.2 170.826 135.305 170.887 134.409 170.938C124.483 171.776 115.698 175.627 107.287 180.846C106.395 181.379 105.502 181.91 104.608 182.44C94.7273 188.348 85.4692 194.879 76.4714 202.052C75.6938 202.666 75.6938 202.666 74.9006 203.292C69.9321 207.275 65.2518 211.627 60.8108 216.189C59.8004 217.199 59.8004 217.199 58.0627 217.267C57.3196 217.246 56.5767 217.218 55.834 217.187C55.443 217.174 55.0519 217.162 54.6491 217.149C53.398 217.107 52.1474 217.058 50.8966 217.009C50.0494 216.98 49.2022 216.951 48.355 216.923C46.2761 216.852 44.1976 216.774 42.1191 216.694C42.1191 216.527 42.1191 216.361 42.1191 216.189C47.4538 216.022 52.7885 215.856 58.2849 215.684C57.9515 215.351 57.6181 215.018 57.2745 214.674C57.2352 211.997 58.4146 210.694 60.1655 208.859C60.4827 208.539 60.7998 208.219 61.1265 207.89C61.432 207.572 61.7374 207.254 62.052 206.926C63.2693 205.664 64.5004 204.418 65.7496 203.188C67.5949 201.37 69.3211 199.489 71.0155 197.53C76.1234 191.731 81.7479 186.657 88.0079 182.141C89.1206 181.337 90.2232 180.52 91.3249 179.7C95.2131 176.827 99.1749 174.083 103.246 171.474C103.816 171.104 103.816 171.104 104.398 170.727C116.887 162.863 134.41 164.096 148.712 164.09Z" fill="#E6B8AA"/>
<path d="M266.924 111.171C267.091 111.171 267.257 111.171 267.429 111.171C267.945 114.628 268.043 118.038 268.094 121.531C268.105 122.143 268.115 122.755 268.126 123.385C268.148 124.682 268.168 125.98 268.188 127.277C268.218 129.213 268.251 131.148 268.285 133.083C268.456 143.422 268.456 143.422 268.417 148.326C268.413 148.941 268.409 149.555 268.405 150.188C268.395 151.344 268.381 152.499 268.362 153.655C268.338 156.478 268.501 159.018 269.232 161.752C269.676 163.621 269.241 165.345 268.945 167.214C268.484 167.086 268.024 166.957 267.549 166.825C259.046 164.537 248.917 162.2 240.149 163.68C239.899 163.43 239.899 163.43 239.644 163.175C238.709 163.095 237.77 163.048 236.832 163.015C236.264 162.994 235.696 162.973 235.11 162.951C234.512 162.931 233.914 162.911 233.298 162.891C232.698 162.869 232.098 162.847 231.479 162.825C229.991 162.771 228.503 162.719 227.015 162.67C227.015 162.503 227.015 162.337 227.015 162.165C231.016 162.165 235.017 162.165 239.139 162.165C239.139 161.832 239.139 161.499 239.139 161.155C239.393 161.044 239.646 160.933 239.908 160.818C245.68 158.26 250.873 155.507 255.81 151.562C256.271 151.194 256.732 150.825 257.207 150.446C260.108 147.982 262.258 145.294 264.394 142.174C265.488 140.864 265.833 140.752 267.429 140.455C267.393 140.039 267.357 139.624 267.32 139.196C266.863 133.312 266.866 127.451 266.892 121.553C266.895 120.541 266.897 119.53 266.899 118.518C266.905 116.069 266.913 113.62 266.924 111.171Z" fill="#E7BCB0"/>
<path d="M221.964 254.056C222.09 254.372 222.216 254.689 222.345 255.014C223.107 256.298 223.563 256.463 224.964 256.896C226.397 257.351 227.242 257.741 228.532 258.6C228.198 258.6 227.865 258.6 227.521 258.6C227.568 259.053 227.615 259.506 227.663 259.973C227.974 265.341 226.613 268.647 224.014 273.27C220.293 280.113 217.622 287.534 219.439 295.331C219.971 297.657 220.057 299.898 220.07 302.273C220.075 302.63 220.079 302.988 220.084 303.356C220.069 305.935 220.069 305.935 218.933 307.07C216.627 306.913 214.793 306.331 212.871 305.05C212.449 303.658 212.265 302.653 212.177 301.232C212.144 300.854 212.111 300.477 212.078 300.088C211.983 298.881 211.917 297.676 211.861 296.467C211.841 296.076 211.822 295.684 211.802 295.281C211.453 287.049 213.177 281.052 216.845 273.686C219.859 267.512 221.794 260.966 221.964 254.056Z" fill="#E7BDA6"/>
<path d="M189.323 154.929C190.968 155.138 191.392 155.59 192.536 156.769C195.9 159.945 199.866 162.252 203.776 164.689C204.161 164.93 204.546 165.17 204.942 165.418C205.9 166.017 206.859 166.616 207.818 167.214C207.651 167.88 207.484 168.547 207.313 169.233C201.248 169.284 195.208 169.295 189.154 168.908C185.538 168.691 181.93 168.699 178.309 168.747C177.881 168.751 177.454 168.756 177.014 168.76C176.633 168.766 176.252 168.772 175.86 168.778C174.981 168.729 174.981 168.729 174.476 168.224C174.413 167.226 174.387 166.226 174.381 165.226C174.374 164.68 174.367 164.134 174.359 163.571C174.476 162.165 174.476 162.165 175.486 161.155C176.683 160.738 177.874 160.355 179.086 159.988C182.498 158.907 186.255 155.355 189.323 154.929Z" fill="#383837"/>
<path d="M153.766 153.582C156.569 153.789 158.753 154.607 161.28 155.791C164.854 157.408 168.324 158.8 172.173 159.609C173.973 160.146 173.973 160.146 174.603 161.008C175.083 162.469 174.975 163.545 174.794 165.068C174.738 165.566 174.682 166.063 174.624 166.575C174.576 166.953 174.528 167.33 174.478 167.719C172.276 167.757 170.073 167.784 167.871 167.802C167.121 167.81 166.372 167.82 165.623 167.833C164.546 167.852 163.469 167.86 162.391 167.867C161.743 167.875 161.095 167.883 160.427 167.891C158.818 167.719 158.818 167.719 157.901 167.087C156.718 165.344 155.992 163.409 155.187 161.471C154.908 160.827 154.908 160.827 154.623 160.169C154.448 159.751 154.272 159.334 154.091 158.903C153.932 158.524 153.772 158.145 153.608 157.755C153.218 156.47 153.164 155.422 153.261 154.087C153.427 153.92 153.594 153.754 153.766 153.582Z" fill="#D2A993"/>
<path d="M204.787 112.685C204.787 114.14 204.513 114.973 203.491 116.016C199.166 119.459 194.511 119.745 189.126 119.249C186.701 118.636 184.355 118.014 182.559 116.219C182.496 114.894 182.496 114.894 182.559 113.695C185.368 113.567 185.368 113.567 186.458 114.194C188.118 114.93 189.742 114.876 191.526 114.862C191.888 114.861 192.25 114.86 192.623 114.858C195.364 114.804 197.295 114.387 199.735 113.19C201.693 112.28 202.689 112.086 204.787 112.685Z" fill="#575655"/>
<path d="M240.655 110.161C240.905 111.41 240.905 111.41 241.161 112.685C237.15 116.208 232.338 117.474 227.089 117.395C223.929 117.065 221.061 115.954 218.427 114.2C218.333 112.875 218.333 112.875 218.427 111.675C222.151 112.06 222.151 112.06 223.89 112.717C230.489 114.657 234.581 110.001 240.655 110.161Z" fill="#585756"/>
<path d="M218.428 139.445C219.818 139.603 219.818 139.603 220.954 139.95C220.853 141.764 220.556 142.372 219.218 143.642C216.907 144.736 214.889 144.867 212.366 144.494C211.866 144.161 211.366 143.827 210.851 143.484C211.017 142.651 211.184 141.818 211.356 140.96C211.868 140.986 211.868 140.986 212.39 141.013C213.066 141.033 213.066 141.033 213.755 141.054C214.201 141.072 214.646 141.089 215.105 141.107C216.645 140.933 217.238 140.393 218.428 139.445Z" fill="#F2B7A4"/>
<path d="M226.51 92.9947C229.895 92.7486 232.1 93.4606 235.098 95.0142C234.931 95.8473 234.765 96.6804 234.593 97.5387C231.538 97.2611 228.881 96.5772 226.005 95.5191C226.172 94.6861 226.338 93.853 226.51 92.9947Z" fill="#5D5B5A"/>
<path d="M193.675 94.0038C193.841 94.8369 194.008 95.67 194.18 96.5283C193.227 97.0524 192.268 97.5658 191.307 98.0745C190.773 98.3615 190.24 98.6486 189.69 98.9443C188.005 99.6018 187.284 99.6019 185.592 99.0528C185.75 97.5136 185.832 96.7543 187.034 95.7295C189.325 94.5217 191.007 93.662 193.675 94.0038Z" fill="#585757"/>
<path d="M42.6258 275.261C42.4591 277.261 42.2924 279.26 42.1206 281.32C41.9539 281.32 41.7872 281.32 41.6154 281.32C41.4487 279.987 41.282 278.654 41.1103 277.281C40.6101 277.281 40.11 277.281 39.5947 277.281C41.4892 275.261 41.4892 275.261 42.6258 275.261Z" fill="#BDB393"/>
</svg>
