<svg width="151" height="469" viewBox="0 0 151 469" fill="none" xmlns="http://www.w3.org/2000/svg">
<path d="M149.375 0.156205C149.375 0.309451 149.375 0.462697 149.375 0.620587C149.583 0.685237 149.583 0.685237 149.796 0.751194C150.57 1.26011 150.725 1.84246 151 2.7103C150.953 4.09596 150.241 5.06004 149.52 6.19317C148.113 8.47628 146.867 10.8058 145.727 13.2329C145.449 13.8123 145.153 14.3786 144.853 14.9466C142.907 18.8611 142.672 23.2201 142.181 27.5015C141.959 29.3937 141.636 31.2538 141.293 33.1273C140.771 36.1027 140.668 39.0195 140.624 42.0302C140.499 50.1135 139.065 57.2329 135.445 64.4731C135.292 64.4731 135.139 64.4731 134.981 64.4731C134.955 64.6425 134.929 64.8119 134.902 64.9864C134.418 67.0315 132.732 68.8572 131.499 70.5101C131.31 70.7702 131.121 71.0305 130.932 71.291C130.744 71.5483 130.555 71.8056 130.367 72.0628C130.195 72.2984 130.023 72.5339 129.846 72.7766C129.63 73.0339 129.63 73.0339 129.409 73.2963C129.256 73.2963 129.103 73.2963 128.945 73.2963C128.792 73.6795 128.639 74.0626 128.481 74.4573C128.328 74.4573 128.174 74.4573 128.016 74.4573C128.016 74.6105 128.016 74.7638 128.016 74.9217C127.863 74.9217 127.71 74.9217 127.552 74.9217C127.459 75.1267 127.459 75.1267 127.363 75.3359C126.908 76.1866 126.235 76.8336 125.579 77.5338C125.441 77.6847 125.303 77.8355 125.161 77.991C124.962 78.2047 124.962 78.2047 124.759 78.4227C124.638 78.553 124.517 78.6832 124.392 78.8175C124.07 79.1011 124.07 79.1011 123.605 79.1011C123.554 79.2301 123.503 79.3591 123.449 79.492C122.416 81.2948 120.203 82.7371 118.585 84.0207C118.445 84.1325 118.305 84.2443 118.16 84.3595C117.162 85.1381 117.162 85.1381 116.641 85.1381C116.641 85.2913 116.641 85.4446 116.641 85.6025C116.407 85.733 116.173 85.8635 115.932 85.9979C115.046 86.504 114.204 87.0609 113.362 87.6341C111.994 88.5562 110.607 89.4328 109.197 90.2898C108.429 90.7641 107.679 91.2616 106.935 91.7737C106.521 92.0419 106.095 92.2905 105.665 92.5328C104.586 93.1425 103.576 93.8489 102.558 94.5541C102.412 94.6539 102.265 94.7537 102.114 94.8565C101.983 94.9467 101.852 95.0368 101.718 95.1297C101.28 95.3758 100.879 95.4863 100.39 95.5867C100.39 95.7399 100.39 95.8932 100.39 96.0511C99.6477 96.6077 98.9965 97.0692 98.0681 97.212C98.0681 97.3653 98.0681 97.5185 98.0681 97.6764C97.5422 98.0528 97.5422 98.0528 96.8493 98.4745C95.904 99.0511 95.904 99.0511 95.0102 99.7017C94.5858 99.9983 94.5858 99.9983 93.8893 99.9983C93.8893 100.152 93.8893 100.305 93.8893 100.463C93.373 100.803 92.8584 101.115 92.3223 101.42C92 101.609 91.6781 101.798 91.3564 101.988C91.1954 102.083 91.0344 102.178 90.8684 102.276C88.6172 103.624 86.5288 105.2 84.4495 106.796C84.1906 106.994 83.9313 107.192 83.6717 107.39C83.3158 107.661 82.9609 107.933 82.6061 108.206C82.0493 108.589 82.0493 108.589 81.585 108.589C81.585 108.743 81.585 108.896 81.585 109.054C81.1288 109.375 80.6632 109.683 80.192 109.983C80.0388 110.102 79.8856 110.222 79.7277 110.345C79.2634 110.679 79.2634 110.679 78.6297 110.962C77.7341 111.45 77.1142 112.032 76.4023 112.752C76.266 112.887 76.1297 113.023 75.9894 113.163C75.7015 113.45 75.4145 113.738 75.1284 114.027C74.7005 114.459 74.2691 114.887 73.8372 115.314C72.2173 116.932 70.7354 118.6 69.3545 120.426C68.8679 121.06 68.3574 121.659 67.8297 122.26C65.6355 125.336 65.1471 129.878 64.4352 133.502C64.1991 134.68 63.9496 135.788 63.4967 136.902C62.6974 139 62.4185 141.258 62.0402 143.462C61.9958 143.717 61.9514 143.972 61.9057 144.235C59.008 160.945 57.2337 177.834 55.487 194.695C55.117 198.265 54.7254 201.832 54.3172 205.398C54.0909 207.385 53.8826 209.373 53.6953 211.365C53.675 211.574 53.6548 211.783 53.6339 211.998C53.4801 213.678 53.4057 215.337 53.6073 217.015C54.4445 225.551 53.2173 234.1 51.8049 242.496C51.7759 242.67 51.747 242.843 51.7172 243.022C51.6502 243.414 51.5761 243.804 51.5003 244.194C51.3723 245.118 51.3652 246.025 51.3683 246.957C51.3689 247.263 51.3689 247.263 51.3695 247.574C51.3813 249.059 51.4534 250.534 51.5569 252.014C52.7146 268.762 52.5826 285.774 51.4619 302.521C51.3637 304.022 51.2743 305.523 51.1839 307.024C50.9581 310.769 50.7208 314.514 50.4759 318.258C50.9993 316.768 51.5216 315.278 52.043 313.788C52.1614 313.45 52.1614 313.45 52.2823 313.104C53.2841 310.239 54.2662 307.369 55.2134 304.485C59.2189 292.305 63.7339 279.518 70.9057 268.801C71.0395 268.598 71.1733 268.394 71.3111 268.184C71.6962 267.601 72.0844 267.021 72.4752 266.442C72.6836 266.133 72.8914 265.823 73.0989 265.513C74.7537 263.046 76.4652 260.661 78.3348 258.353C78.6443 257.961 78.9539 257.569 79.2634 257.177C79.8649 256.424 80.4835 255.69 81.1126 254.96C82.4344 253.423 83.6213 251.823 84.7837 250.164C85.2574 249.492 85.7403 248.827 86.2281 248.165C86.3957 247.936 86.5633 247.707 86.736 247.47C86.9443 247.225 86.9443 247.225 87.1568 246.975C87.31 246.975 87.4632 246.975 87.6211 246.975C87.6702 246.817 87.7192 246.658 87.7698 246.494C88.185 245.6 88.7685 244.951 89.4203 244.218C89.5394 244.082 89.6585 243.946 89.7812 243.805C90.0214 243.531 90.2625 243.257 90.5044 242.984C90.7591 242.692 91.0095 242.396 91.2562 242.098C91.441 241.875 91.441 241.875 91.6294 241.647C91.7402 241.512 91.851 241.376 91.9652 241.236C92.2642 240.938 92.2642 240.938 92.7285 240.938C92.7285 240.785 92.7285 240.632 92.7285 240.474C92.8818 240.474 93.035 240.474 93.1928 240.474C93.2714 240.285 93.2714 240.285 93.3515 240.092C93.7502 239.379 94.277 238.816 94.8325 238.224C94.9451 238.103 95.0577 237.981 95.1738 237.856C96.0613 236.903 96.9766 235.981 97.9104 235.074C98.3185 234.691 98.3185 234.691 98.5325 234.205C98.6857 234.205 98.8389 234.205 98.9968 234.205C98.9968 234.051 98.9968 233.898 98.9968 233.74C99.15 233.74 99.3032 233.74 99.4611 233.74C99.4611 233.587 99.4611 233.434 99.4611 233.276C99.6143 233.276 99.7675 233.276 99.9254 233.276C100.019 233.068 100.019 233.068 100.114 232.855C100.39 232.347 100.644 232.019 101.086 231.651C101.239 231.651 101.393 231.651 101.551 231.651C101.551 231.497 101.551 231.344 101.551 231.186C101.704 231.186 101.857 231.186 102.015 231.186C102.015 231.033 102.015 230.88 102.015 230.722C102.168 230.722 102.321 230.722 102.479 230.722C102.479 230.569 102.479 230.415 102.479 230.257C102.861 229.881 102.861 229.881 103.364 229.459C104.064 228.87 104.064 228.87 104.716 228.232C105.033 227.935 105.033 227.935 105.497 227.935C105.497 227.782 105.497 227.629 105.497 227.471C107.902 225.275 110.839 223.561 113.623 221.899C113.775 221.803 113.927 221.708 114.083 221.61C114.697 221.379 115.091 221.494 115.712 221.666C115.705 221.816 115.698 221.965 115.691 222.119C115.658 222.819 115.627 223.52 115.596 224.22C115.585 224.455 115.574 224.69 115.562 224.932C115.408 228.458 115.49 231.959 115.669 235.482C115.684 235.787 115.684 235.787 115.699 236.098C115.925 240.517 116.416 244.843 117.234 249.193C117.845 252.497 118.122 255.828 118.295 259.18C118.304 259.364 118.314 259.548 118.324 259.737C118.928 271.537 118.095 283.14 113.391 294.11C113.22 294.53 113.051 294.951 112.883 295.372C111.608 298.43 110.169 301.455 108.515 304.326C108.362 304.326 108.209 304.326 108.051 304.326C108.025 304.457 107.999 304.587 107.972 304.722C107.798 305.328 107.537 305.811 107.224 306.358C107.118 306.544 107.013 306.729 106.904 306.92C106.823 307.06 106.742 307.2 106.658 307.345C106.505 307.345 106.352 307.345 106.194 307.345C106.166 307.48 106.139 307.615 106.111 307.755C104.97 311.711 100.281 315.978 97.5521 318.949C97.1053 319.437 97.1053 319.437 96.6752 320.115C96.522 320.115 96.3688 320.115 96.2109 320.115C96.1343 320.345 96.0577 320.575 95.9787 320.812C95.6024 321.209 95.2138 321.595 94.8179 321.973C94.6264 322.164 94.4349 322.356 94.2376 322.553C92.4964 324.295 92.4964 324.295 91.9151 324.869C91.3211 325.47 90.7555 326.091 90.1893 326.718C88.9307 328.093 87.63 329.427 86.3161 330.749C85.9906 331.077 85.6661 331.406 85.3417 331.735C84.1082 332.971 82.8387 334.115 81.4712 335.201C80.8704 335.687 80.298 336.195 79.7277 336.717C78.9344 337.44 78.1246 338.131 77.2901 338.807C76.2405 339.657 75.2316 340.541 74.233 341.45C73.7478 341.89 73.2575 342.324 72.763 342.754C72.4533 343.025 72.1438 343.296 71.8344 343.567C71.6584 343.721 71.4824 343.875 71.3011 344.034C69.7127 345.443 68.2179 346.932 66.7269 348.443C66.3403 348.83 65.9534 349.217 65.5661 349.604C65.4081 349.762 65.2501 349.92 65.0873 350.082C64.6278 350.542 64.1684 351.002 63.7089 351.461C63.5248 351.645 63.3408 351.83 63.1512 352.02C62.7382 352.432 62.324 352.843 61.9087 353.253C61.6936 353.466 61.4784 353.68 61.2567 353.899C61.0409 354.112 60.8252 354.325 60.6029 354.545C59.9873 355.161 59.9873 355.161 59.4802 355.836C59.3434 356.002 59.2066 356.167 59.0657 356.337C58.9125 356.337 58.7593 356.337 58.6014 356.337C58.5009 356.545 58.5009 356.545 58.3983 356.758C58.1371 357.266 58.1371 357.266 57.6728 357.962C57.5196 357.962 57.3663 357.962 57.2085 357.962C57.2085 358.116 57.2085 358.269 57.2085 358.427C57.0553 358.427 56.902 358.427 56.7442 358.427C56.7247 358.557 56.7053 358.687 56.6852 358.821C56.4581 359.522 56.0823 359.919 55.5979 360.473C53.2561 363.27 51.4144 366.448 49.5473 369.572C49.4617 369.714 49.3761 369.856 49.2879 370.003C47.5719 372.862 45.9685 375.917 44.915 379.09C44.672 379.556 44.672 379.556 44.0952 380.042C43.2523 381.016 43.2039 381.931 43.0469 383.184C43.0108 383.446 42.9748 383.707 42.9376 383.977C42.8357 384.734 42.7393 385.491 42.6456 386.249C42.5803 386.772 42.5128 387.294 42.4447 387.817C41.817 392.658 41.3262 397.508 40.9602 402.376C40.9405 402.636 40.9208 402.897 40.9005 403.165C40.4352 409.373 40.1586 415.587 39.9048 421.807C39.857 422.969 39.8072 424.13 39.7573 425.292C39.3929 433.792 39.0491 442.286 39.0422 450.795C39.0419 450.949 39.0416 451.103 39.0413 451.261C39.0313 457.102 39.2961 462.898 39.7967 468.717C37.1919 468.717 34.5871 468.717 31.9033 468.717C31.5294 465.101 31.3641 461.551 31.361 457.917C31.3592 457.372 31.3572 456.827 31.3552 456.282C31.3509 454.828 31.3504 453.373 31.3514 451.918C31.352 451.007 31.3518 450.096 31.3516 449.185C31.3542 437.445 31.7276 425.735 32.3389 414.012C32.3832 413.155 32.426 412.298 32.4688 411.441C32.7706 405.446 33.1373 399.458 33.7606 393.488C33.779 393.31 33.7974 393.132 33.8164 392.948C34.3762 387.561 35.0856 382.2 35.879 376.842C35.9185 376.575 35.9579 376.308 35.9986 376.033C36.7027 371.288 36.7027 371.288 37.1713 368.963C37.4804 367.363 37.5912 365.798 37.6459 364.171C38.0135 354.038 39.4828 343.921 40.7445 333.868C41.729 326.021 42.5741 318.172 43.0614 310.276C43.0995 309.676 43.1377 309.075 43.1759 308.475C44.2487 291.436 44.8337 274.485 43.9755 257.424C43.9658 257.227 43.9561 257.03 43.9461 256.828C43.9185 256.276 43.8893 255.725 43.8594 255.174C43.8512 255.012 43.843 254.849 43.8345 254.681C43.7954 253.996 43.7295 253.435 43.5112 252.78C43.3762 252.749 43.2413 252.718 43.1022 252.687C42.35 252.486 42.0032 252.043 41.4653 251.488C41.2612 251.279 41.0571 251.069 40.8468 250.853C40.2182 250.18 39.6177 249.488 39.0204 248.788C38.5227 248.245 37.9774 247.784 37.3998 247.328C37.0108 246.975 37.0108 246.975 36.571 246.414C36.0662 245.795 35.5494 245.348 34.9214 244.856C33.9579 244.085 33.0372 243.289 32.1355 242.447C31.0602 241.447 29.9483 240.508 28.8037 239.587C27.9945 238.921 27.2248 238.216 26.4513 237.509C25.8657 236.99 25.2621 236.504 24.6484 236.019C23.4227 235.029 22.3263 233.941 21.2244 232.819C20.3749 231.955 19.5026 231.144 18.5779 230.361C17.997 229.837 17.5354 229.242 17.0453 228.632C16.8681 228.455 16.6909 228.278 16.5084 228.095C14.9818 226.568 13.487 224.938 12.4021 223.059C12.4021 222.83 12.4021 222.6 12.4021 222.363C12.2489 222.363 12.0957 222.363 11.9378 222.363C10.5507 220.004 9.44833 217.496 8.35388 214.991C8.23926 214.729 8.12464 214.466 8.00655 214.196C7.75898 213.54 7.75898 213.54 7.75898 212.843C7.60575 212.843 7.45253 212.843 7.29466 212.843C7.22703 212.677 7.1594 212.511 7.08971 212.34C6.56862 211.073 6.03067 209.818 5.45192 208.577C5.21465 208.064 4.97766 207.551 4.74093 207.038C4.57619 206.683 4.57619 206.683 4.40811 206.321C-3.58113 188.456 1.15591 167.478 4.1215 148.91C6.31361 135.175 6.99716 122.246 5.08741 108.418C4.81134 106.402 4.57119 104.385 4.36804 102.361C4.32148 101.898 4.27301 101.436 4.22447 100.973C3.94998 98.1381 3.94998 98.1381 4.27662 96.7476C5.0808 96.2114 5.47585 96.2464 6.41138 96.3721C7.75546 96.6679 9.0274 97.1926 10.3127 97.6764C10.5446 97.738 10.7766 97.7997 11.0155 97.8632C11.9267 98.2297 12.4917 98.7805 13.1857 99.4614C13.4527 99.7161 13.7199 99.9707 13.9873 100.225C14.1783 100.408 14.1783 100.408 14.3732 100.595C14.7971 100.997 15.2361 101.377 15.6813 101.754C16.8965 102.804 18.0075 103.964 19.1347 105.106C19.3295 105.3 19.5243 105.494 19.7251 105.694C21.6401 107.619 23.2818 109.65 24.8517 111.857C25.1704 112.304 25.4925 112.748 25.8156 113.192C26.0215 113.477 26.2274 113.761 26.4331 114.046C26.5262 114.174 26.6193 114.302 26.7152 114.433C27.168 115.065 27.5851 115.703 27.9639 116.38C28.39 117.126 28.8503 117.799 29.3641 118.487C30.9747 120.645 30.9747 120.645 30.9747 121.592C31.1279 121.592 31.2812 121.592 31.439 121.592C31.5068 121.716 31.5746 121.841 31.6445 121.969C32.3902 123.324 33.1757 124.652 33.9782 125.975C34.8459 127.412 35.6939 128.852 36.4812 130.335C36.7836 130.889 37.1113 131.419 37.4461 131.954C38.4527 133.61 39.224 135.388 40.0288 137.149C40.1396 137.388 40.2503 137.627 40.3644 137.873C41.7913 140.969 42.9452 144.133 44.0552 147.353C44.7418 149.341 45.4462 151.302 46.2731 153.237C46.7005 154.287 47.0275 155.361 47.3418 156.45C47.4104 156.686 47.479 156.922 47.5497 157.166C48.3187 159.901 48.8214 162.681 49.3151 165.476C49.4193 166.053 49.5245 166.629 49.6309 167.206C49.7146 167.66 49.7961 168.114 49.8774 168.568C49.948 169.17 49.948 169.17 50.2438 169.423C50.2676 169.229 50.2676 169.229 50.292 169.03C50.4606 167.655 50.6303 166.279 50.8006 164.904C50.8637 164.394 50.9265 163.883 50.989 163.373C51.3003 160.833 51.6172 158.295 52.0022 155.765C52.0286 155.585 52.0551 155.405 52.0824 155.219C52.2787 153.973 52.2787 153.973 52.5673 153.411C52.8163 152.899 52.8847 152.513 52.9383 151.949C52.9578 151.754 52.9774 151.559 52.9975 151.358C53.0168 151.148 53.0361 150.938 53.0559 150.721C53.1012 150.265 53.1465 149.809 53.1919 149.353C53.215 149.114 53.2382 148.875 53.262 148.629C54.1209 139.831 55.6682 131.33 57.97 122.794C58.6412 120.301 59.2186 117.812 59.6518 115.265C59.8795 113.947 60.1279 112.633 60.3716 111.318C60.4196 111.055 60.4675 110.792 60.5169 110.521C60.7202 109.413 60.9287 108.311 61.186 107.213C61.3649 106.429 61.4323 105.696 61.4453 104.889C61.5211 103.528 61.7823 102.296 62.1213 100.977C62.7943 98.3457 63.1314 95.8992 63.1685 93.1866C63.2142 90.419 63.4057 87.6681 63.6182 84.9085C63.6586 84.3835 63.6983 83.8584 63.7373 83.3332C64.4888 73.2174 66.6976 64.0029 70.2093 54.4889C70.3625 54.4889 70.5157 54.4889 70.6736 54.4889C70.7023 54.283 70.7311 54.077 70.7607 53.8649C70.8928 53.1645 71.0836 52.5842 71.3701 51.9348C71.5233 51.9348 71.6765 51.9348 71.8344 51.9348C71.8679 51.7145 71.9014 51.4942 71.9359 51.2672C72.0665 50.5416 72.0665 50.5416 72.2987 50.0773C72.4519 50.0773 72.6051 50.0773 72.763 50.0773C72.7869 49.8749 72.8109 49.6726 72.8356 49.4641C73.0041 48.6404 73.2744 48.0752 73.6916 47.349C73.8161 47.1299 73.9406 46.9108 74.0689 46.6851C74.2269 46.4103 74.2269 46.4103 74.3881 46.13C74.4647 45.9768 74.5413 45.8235 74.6203 45.6656C74.7735 45.6656 74.9267 45.6656 75.0846 45.6656C75.0942 45.5124 75.1037 45.3591 75.1136 45.2012C75.3649 44.3395 75.8032 43.8153 76.3551 43.1179C76.751 42.6182 76.751 42.6182 77.116 41.878C78.0726 40.1218 79.7149 38.7045 81.1207 37.3068C81.4077 37.0173 81.6945 36.7276 81.9813 36.4379C82.299 36.118 82.6167 35.7981 82.9344 35.4782C83.1689 35.2407 83.1689 35.2407 83.4082 34.9984C84.6681 33.7324 85.9706 32.5347 87.3744 31.4294C87.8741 31.075 87.8741 31.075 88.0854 30.5732C88.2386 30.5732 88.3918 30.5732 88.5497 30.5732C88.6108 30.4343 88.6718 30.2955 88.7347 30.1524C89.0302 29.615 89.3003 29.3388 89.7685 28.9479C89.934 28.8081 90.0995 28.6683 90.27 28.5243C90.4684 28.3576 90.6668 28.1909 90.8713 28.0191C91.118 27.8052 91.3643 27.5908 91.6104 27.3761C93.4025 25.8162 95.2375 24.3344 97.1395 22.9109C97.3128 22.7783 97.4861 22.6457 97.6646 22.5091C98.6788 21.75 98.6788 21.75 99.4611 21.75C99.4611 21.5967 99.4611 21.4435 99.4611 21.2856C100.049 20.8916 100.637 20.5267 101.246 20.1682C101.627 19.9395 102.009 19.7106 102.39 19.4816C102.593 19.3605 102.795 19.2393 103.004 19.1146C104.098 18.4556 105.182 17.7803 106.266 17.1061C106.855 16.7409 107.443 16.3758 108.032 16.0123C108.421 15.7711 108.808 15.5251 109.193 15.2776C109.676 15.0164 109.676 15.0164 110.372 15.0164C110.372 14.8632 110.372 14.7099 110.372 14.552C112.609 13.2821 114.89 12.1649 117.247 11.1374C118.262 10.6925 119.265 10.2279 120.264 9.74725C122.803 8.53083 125.399 7.47626 128.016 6.43987C128.248 6.34815 128.479 6.25643 128.717 6.16193C130.072 5.62494 131.429 5.09124 132.786 4.55963C133.276 4.36722 133.765 4.1733 134.254 3.97817C137.472 2.70018 140.755 1.7885 144.108 0.939849C144.317 0.886647 144.525 0.833445 144.741 0.778631C145.336 0.628181 145.932 0.481266 146.528 0.33579C146.708 0.290452 146.888 0.245113 147.073 0.198401C147.932 -0.00604938 148.532 -0.102087 149.375 0.156205Z" fill="#89A899"/>
</svg>
