<svg width="205" height="637" viewBox="0 0 205 637" fill="none" xmlns="http://www.w3.org/2000/svg">
<path d="M202.794 0.212067C202.794 0.420117 202.794 0.628167 202.794 0.842521C203.077 0.930292 203.077 0.930292 203.366 1.01984C204.417 1.71075 204.628 2.50137 205.001 3.67957C204.937 5.56075 203.971 6.86961 202.991 8.40797C201.081 11.5076 199.39 14.6702 197.842 17.9653C197.464 18.7519 197.063 19.5207 196.656 20.2918C194.014 25.6062 193.695 31.5241 193.027 37.3366C192.727 39.9055 192.287 42.4307 191.822 44.9743C191.114 49.0138 190.974 52.9736 190.914 57.0611C190.745 68.0351 188.798 77.7005 183.884 87.53C183.676 87.53 183.468 87.53 183.253 87.53C183.218 87.76 183.182 87.99 183.146 88.2269C182.489 91.0033 180.2 93.482 178.525 95.7259C178.269 96.079 178.012 96.4325 177.756 96.7861C177.5 97.1355 177.245 97.4848 176.989 97.834C176.756 98.1538 176.523 98.4736 176.282 98.803C175.989 99.1523 175.989 99.1523 175.689 99.5086C175.481 99.5086 175.273 99.5086 175.058 99.5086C174.85 100.029 174.642 100.549 174.428 101.085C174.22 101.085 174.012 101.085 173.798 101.085C173.798 101.293 173.798 101.501 173.798 101.715C173.59 101.715 173.382 101.715 173.167 101.715C173.04 101.994 173.04 101.994 172.911 102.278C172.293 103.432 171.379 104.311 170.488 105.262C170.301 105.466 170.114 105.671 169.921 105.882C169.651 106.172 169.651 106.172 169.375 106.468C169.211 106.645 169.047 106.822 168.877 107.004C168.44 107.389 168.44 107.389 167.809 107.389C167.739 107.564 167.67 107.74 167.598 107.92C166.194 110.367 163.189 112.326 160.993 114.068C160.803 114.22 160.613 114.372 160.417 114.528C159.062 115.585 159.062 115.585 158.354 115.585C158.354 115.793 158.354 116.001 158.354 116.216C158.036 116.393 157.718 116.57 157.391 116.753C156.189 117.44 155.046 118.196 153.902 118.974C152.045 120.226 150.162 121.416 148.248 122.579C147.205 123.223 146.188 123.899 145.178 124.594C144.616 124.958 144.036 125.295 143.453 125.624C141.989 126.452 140.617 127.411 139.236 128.369C139.036 128.504 138.837 128.64 138.632 128.779C138.454 128.902 138.277 129.024 138.094 129.15C137.5 129.484 136.956 129.634 136.291 129.77C136.291 129.978 136.291 130.187 136.291 130.401C135.284 131.157 134.4 131.783 133.139 131.977C133.139 132.185 133.139 132.393 133.139 132.607C132.425 133.118 132.425 133.118 131.485 133.691C130.201 134.474 130.201 134.474 128.988 135.357C128.412 135.76 128.412 135.76 127.466 135.76C127.466 135.968 127.466 136.176 127.466 136.39C126.765 136.852 126.067 137.275 125.339 137.691C124.901 137.947 124.464 138.204 124.027 138.461C123.809 138.59 123.59 138.719 123.365 138.852C120.309 140.683 117.473 142.822 114.65 144.988C114.299 145.257 113.947 145.526 113.594 145.795C113.111 146.163 112.629 146.532 112.148 146.902C111.392 147.423 111.392 147.423 110.761 147.423C110.761 147.631 110.761 147.839 110.761 148.054C110.142 148.49 109.51 148.909 108.87 149.315C108.662 149.477 108.454 149.64 108.24 149.807C107.61 150.26 107.61 150.26 106.749 150.645C105.533 151.307 104.692 152.096 103.725 153.074C103.54 153.258 103.355 153.442 103.165 153.632C102.774 154.022 102.384 154.413 101.996 154.806C101.415 155.392 100.829 155.973 100.243 156.553C98.0437 158.749 96.0318 161.013 94.1571 163.493C93.4964 164.354 92.8035 165.167 92.0869 165.982C89.1081 170.159 88.4451 176.324 87.4785 181.245C87.1581 182.844 86.8193 184.349 86.2044 185.861C85.1193 188.709 84.7407 191.775 84.2271 194.766C84.1668 195.113 84.1066 195.459 84.0444 195.816C80.1105 218.502 77.7017 241.431 75.3303 264.322C74.8279 269.168 74.2963 274.011 73.7422 278.852C73.4349 281.55 73.1522 284.25 72.8978 286.953C72.8703 287.237 72.8428 287.521 72.8145 287.813C72.6057 290.093 72.5047 292.346 72.7784 294.624C73.915 306.213 72.2488 317.82 70.3314 329.217C70.2921 329.453 70.2528 329.689 70.2123 329.932C70.1213 330.463 70.0208 330.993 69.9178 331.522C69.7442 332.777 69.7344 334.009 69.7386 335.274C69.7394 335.689 69.7394 335.689 69.7403 336.112C69.7564 338.128 69.8542 340.13 69.9947 342.14C71.5664 364.876 71.3872 387.973 69.8658 410.709C69.7324 412.746 69.611 414.784 69.4883 416.822C69.1817 421.907 68.8596 426.99 68.5271 432.073C69.2378 430.051 69.9467 428.028 70.6546 426.005C70.8154 425.546 70.8154 425.546 70.9795 425.077C72.3396 421.187 73.6728 417.29 74.9589 413.375C80.3968 396.839 86.5265 379.479 96.2631 364.93C96.4447 364.654 96.6263 364.377 96.8134 364.093C97.3362 363.301 97.8633 362.513 98.3938 361.727C98.6767 361.307 98.9589 360.887 99.2406 360.467C101.487 357.117 103.811 353.879 106.349 350.745C106.769 350.213 107.189 349.681 107.61 349.149C108.426 348.127 109.266 347.129 110.12 346.139C111.915 344.052 113.526 341.88 115.104 339.628C115.747 338.715 116.403 337.813 117.065 336.914C117.293 336.603 117.52 336.292 117.755 335.971C118.037 335.638 118.037 335.638 118.326 335.299C118.534 335.299 118.742 335.299 118.956 335.299C119.023 335.083 119.089 334.868 119.158 334.646C119.722 333.431 120.514 332.55 121.399 331.555C121.561 331.37 121.722 331.185 121.889 330.995C122.215 330.622 122.542 330.25 122.871 329.88C123.216 329.484 123.556 329.082 123.891 328.677C124.142 328.374 124.142 328.374 124.398 328.066C124.548 327.881 124.699 327.696 124.854 327.506C125.26 327.103 125.26 327.103 125.89 327.103C125.89 326.895 125.89 326.687 125.89 326.472C126.098 326.472 126.306 326.472 126.521 326.472C126.627 326.216 126.627 326.216 126.736 325.954C127.277 324.985 127.992 324.222 128.746 323.418C128.899 323.253 129.052 323.088 129.21 322.918C130.415 321.625 131.657 320.372 132.925 319.141C133.479 318.621 133.479 318.621 133.77 317.961C133.978 317.961 134.186 317.961 134.4 317.961C134.4 317.753 134.4 317.545 134.4 317.331C134.608 317.331 134.816 317.331 135.03 317.331C135.03 317.123 135.03 316.914 135.03 316.7C135.238 316.7 135.446 316.7 135.661 316.7C135.788 316.417 135.788 316.417 135.917 316.129C136.291 315.44 136.637 314.994 137.237 314.494C137.445 314.494 137.653 314.494 137.867 314.494C137.867 314.285 137.867 314.077 137.867 313.863C138.075 313.863 138.283 313.863 138.497 313.863C138.497 313.655 138.497 313.447 138.497 313.233C138.705 313.233 138.913 313.233 139.128 313.233C139.128 313.025 139.128 312.817 139.128 312.602C139.646 312.091 139.646 312.091 140.329 311.519C141.279 310.719 141.279 310.719 142.165 309.853C142.595 309.45 142.595 309.45 143.225 309.45C143.225 309.242 143.225 309.034 143.225 308.819C146.49 305.838 150.477 303.511 154.256 301.254C154.463 301.125 154.669 300.995 154.882 300.862C155.715 300.549 156.25 300.704 157.093 300.939C157.084 301.142 157.074 301.344 157.064 301.553C157.02 302.504 156.978 303.455 156.936 304.406C156.921 304.725 156.905 305.043 156.89 305.372C156.681 310.159 156.792 314.913 157.034 319.695C157.055 320.109 157.055 320.109 157.076 320.532C157.383 326.53 158.049 332.404 159.159 338.31C159.989 342.795 160.365 347.318 160.6 351.868C160.613 352.117 160.626 352.367 160.639 352.624C161.458 368.644 160.329 384.396 153.941 399.29C153.71 399.861 153.48 400.432 153.252 401.004C151.522 405.155 149.568 409.262 147.322 413.16C147.114 413.16 146.906 413.16 146.692 413.16C146.657 413.337 146.621 413.514 146.585 413.697C146.348 414.52 145.995 415.175 145.569 415.918C145.426 416.17 145.282 416.422 145.135 416.681C145.025 416.871 144.914 417.062 144.801 417.258C144.593 417.258 144.385 417.258 144.171 417.258C144.134 417.441 144.097 417.625 144.059 417.814C142.51 423.185 136.144 428.978 132.439 433.012C131.832 433.674 131.832 433.674 131.248 434.595C131.04 434.595 130.832 434.595 130.618 434.595C130.514 434.907 130.41 435.219 130.303 435.541C129.792 436.08 129.264 436.604 128.727 437.117C128.467 437.377 128.207 437.637 127.939 437.905C125.575 440.269 125.575 440.269 124.786 441.049C123.979 441.865 123.212 442.707 122.443 443.559C120.734 445.426 118.968 447.237 117.185 449.032C116.743 449.477 116.302 449.924 115.862 450.371C114.187 452.048 112.464 453.601 110.607 455.075C109.791 455.735 109.014 456.426 108.24 457.134C107.163 458.116 106.064 459.054 104.931 459.971C103.506 461.125 102.136 462.325 100.78 463.559C100.121 464.157 99.4559 464.746 98.7846 465.33C98.3641 465.697 97.9439 466.065 97.5238 466.433C97.2849 466.642 97.046 466.852 96.7999 467.067C94.6433 468.98 92.6141 471.002 90.5898 473.053C90.0649 473.579 89.5397 474.104 89.0139 474.629C88.7994 474.843 88.5849 475.058 88.3639 475.279C87.7401 475.903 87.1163 476.527 86.4925 477.151C86.2426 477.401 85.9927 477.651 85.7353 477.909C85.1747 478.469 84.6124 479.027 84.0486 479.584C83.7565 479.873 83.4643 480.163 83.1634 480.461C82.8704 480.75 82.5775 481.039 82.2757 481.337C81.4401 482.174 81.4401 482.174 80.7515 483.091C80.5658 483.315 80.3802 483.539 80.1889 483.771C79.9808 483.771 79.7728 483.771 79.5585 483.771C79.422 484.053 79.422 484.053 79.2827 484.342C78.9281 485.031 78.9281 485.031 78.2978 485.977C78.0897 485.977 77.8817 485.977 77.6674 485.977C77.6674 486.185 77.6674 486.393 77.6674 486.608C77.4594 486.608 77.2514 486.608 77.037 486.608C77.0106 486.784 76.9842 486.961 76.957 487.143C76.6487 488.094 76.1384 488.633 75.4808 489.385C72.3016 493.183 69.8013 497.497 67.2664 501.738C67.1502 501.931 67.034 502.124 66.9143 502.323C64.5846 506.206 62.4078 510.353 60.9776 514.66C60.6476 515.293 60.6476 515.293 59.8646 515.953C58.7202 517.276 58.6545 518.517 58.4413 520.219C58.3924 520.574 58.3434 520.929 58.293 521.294C58.1547 522.322 58.0238 523.351 57.8965 524.38C57.8079 525.089 57.7162 525.799 57.6238 526.508C56.7716 533.081 56.1054 539.665 55.6084 546.274C55.5816 546.628 55.5549 546.981 55.5273 547.345C54.8956 555.773 54.5202 564.21 54.1756 572.654C54.1106 574.231 54.043 575.808 53.9754 577.385C53.4806 588.925 53.0139 600.456 53.0045 612.009C53.0041 612.218 53.0037 612.427 53.0033 612.642C52.9897 620.571 53.3493 628.44 54.0288 636.34C50.4925 636.34 46.9561 636.34 43.3126 636.34C42.805 631.431 42.5806 626.61 42.5764 621.677C42.5739 620.938 42.5712 620.198 42.5685 619.458C42.5626 617.483 42.5619 615.508 42.5633 613.533C42.5641 612.296 42.5639 611.059 42.5636 609.822C42.5672 593.885 43.0741 577.987 43.9039 562.071C43.9641 560.908 44.0221 559.744 44.0803 558.581C44.49 550.442 44.9879 542.313 45.8341 534.207C45.8591 533.965 45.8841 533.724 45.9098 533.475C46.6698 526.161 47.6329 518.883 48.7101 511.609C48.7637 511.246 48.8172 510.884 48.8724 510.51C49.8284 504.068 49.8284 504.068 50.4645 500.912C50.8842 498.74 51.0345 496.615 51.1089 494.406C51.6079 480.649 53.6027 466.914 55.3156 453.266C56.6522 442.613 57.7994 431.956 58.461 421.237C58.5128 420.422 58.5647 419.607 58.6165 418.792C60.073 395.659 60.8672 372.647 59.7021 349.484C59.6889 349.217 59.6757 348.95 59.6621 348.674C59.6246 347.926 59.585 347.178 59.5445 346.43C59.5333 346.209 59.5221 345.988 59.5106 345.76C59.4575 344.83 59.3681 344.069 59.0717 343.179C58.8885 343.137 58.7052 343.095 58.5164 343.052C57.4953 342.78 57.0244 342.179 56.2942 341.426C56.0171 341.141 55.74 340.856 55.4545 340.563C54.601 339.649 53.7858 338.711 52.9749 337.76C52.2992 337.022 51.5589 336.397 50.7748 335.778C50.2466 335.299 50.2466 335.299 49.6495 334.536C48.9642 333.696 48.2626 333.09 47.41 332.422C46.102 331.375 44.852 330.294 43.6278 329.152C42.1679 327.793 40.6584 326.519 39.1045 325.268C38.0059 324.364 36.961 323.406 35.9108 322.447C35.1158 321.742 34.2964 321.083 33.4632 320.424C31.7991 319.08 30.3107 317.603 28.8147 316.079C27.6614 314.907 26.4772 313.806 25.2217 312.743C24.4332 312.031 23.8064 311.223 23.141 310.396C22.9005 310.155 22.66 309.914 22.4122 309.667C20.3395 307.594 18.3102 305.38 16.8374 302.83C16.8374 302.518 16.8374 302.206 16.8374 301.884C16.6294 301.884 16.4213 301.884 16.207 301.884C14.3238 298.682 12.8273 295.277 11.3414 291.876C11.1858 291.52 11.0302 291.164 10.8699 290.797C10.5337 289.906 10.5337 289.906 10.5337 288.96C10.3257 288.96 10.1177 288.96 9.90339 288.96C9.81156 288.735 9.71974 288.509 9.62514 288.277C8.91769 286.557 8.18736 284.854 7.40163 283.168C7.07952 282.472 6.75777 281.776 6.43639 281.079C6.21273 280.597 6.21273 280.597 5.98455 280.105C-4.86182 255.852 1.56928 227.372 5.59544 202.164C8.57148 183.516 9.49949 165.964 6.90678 147.191C6.53197 144.454 6.20595 141.715 5.93014 138.967C5.86693 138.339 5.80112 137.711 5.73523 137.083C5.36258 133.234 5.36258 133.234 5.80603 131.347C6.8978 130.619 7.43413 130.666 8.70422 130.837C10.529 131.238 12.2558 131.951 14.0007 132.607C14.3156 132.691 14.6305 132.775 14.9549 132.861C16.192 133.359 16.959 134.106 17.9011 135.031C18.2637 135.377 18.6264 135.722 18.9895 136.068C19.2488 136.316 19.2488 136.316 19.5133 136.57C20.0888 137.115 20.6848 137.631 21.2893 138.144C22.939 139.569 24.4473 141.144 25.9776 142.695C26.2421 142.958 26.5066 143.221 26.7791 143.493C29.379 146.105 31.6078 148.863 33.7391 151.859C34.1719 152.466 34.6092 153.07 35.0477 153.672C35.3273 154.058 35.6068 154.445 35.8862 154.831C36.0125 155.005 36.1389 155.178 36.2691 155.357C36.8839 156.215 37.4501 157.081 37.9644 158C38.5429 159.013 39.1677 159.927 39.8653 160.86C42.0519 163.79 42.0519 163.79 42.0519 165.076C42.2599 165.076 42.4679 165.076 42.6823 165.076C42.7743 165.245 42.8664 165.413 42.9612 165.587C43.9736 167.428 45.04 169.23 46.1296 171.026C47.3076 172.977 48.4587 174.932 49.5276 176.946C49.9382 177.697 50.3831 178.418 50.8376 179.143C52.2042 181.392 53.2512 183.806 54.344 186.196C54.4943 186.52 54.6446 186.845 54.7995 187.179C56.7368 191.383 58.3033 195.677 59.8102 200.049C60.7424 202.748 61.6987 205.411 62.8212 208.038C63.4016 209.464 63.8455 210.922 64.2722 212.399C64.3653 212.72 64.4585 213.041 64.5544 213.371C65.5985 217.084 66.2809 220.859 66.9512 224.654C67.0927 225.437 67.2355 226.22 67.38 227.002C67.4936 227.618 67.6042 228.235 67.7146 228.851C67.8105 229.668 67.8105 229.668 68.212 230.013C68.2443 229.748 68.2443 229.748 68.2774 229.479C68.5063 227.611 68.7368 225.744 68.968 223.877C69.0536 223.184 69.1389 222.491 69.2238 221.798C69.6463 218.35 70.0766 214.904 70.5992 211.47C70.6351 211.225 70.6711 210.981 70.7081 210.729C70.9746 209.036 70.9746 209.036 71.3664 208.274C71.7045 207.579 71.7974 207.055 71.8702 206.288C71.8967 206.024 71.9231 205.76 71.9504 205.487C71.9766 205.202 72.0028 204.916 72.0298 204.622C72.0913 204.003 72.1528 203.384 72.2144 202.765C72.2458 202.441 72.2772 202.116 72.3096 201.781C73.4756 189.837 75.5763 178.297 78.7012 166.708C79.6124 163.323 80.3964 159.944 80.9845 156.487C81.2937 154.697 81.6309 152.913 81.9617 151.127C82.0269 150.77 82.092 150.414 82.159 150.046C82.435 148.541 82.718 147.045 83.0673 145.555C83.3102 144.49 83.4018 143.495 83.4195 142.399C83.5223 140.552 83.877 138.879 84.3371 137.088C85.2508 133.516 85.7085 130.195 85.7588 126.512C85.8209 122.755 86.0809 119.02 86.3694 115.274C86.4243 114.561 86.4782 113.848 86.531 113.135C87.5513 99.4014 90.5501 86.8916 95.3176 73.9752C95.5256 73.9752 95.7336 73.9752 95.9479 73.9752C95.9869 73.6957 96.0259 73.4161 96.0661 73.128C96.2455 72.1772 96.5046 71.3893 96.8935 70.5077C97.1015 70.5077 97.3095 70.5077 97.5238 70.5077C97.5693 70.2087 97.6148 69.9096 97.6617 69.6014C97.839 68.6164 97.839 68.6164 98.1542 67.9859C98.3622 67.9859 98.5702 67.9859 98.7846 67.9859C98.8171 67.7112 98.8496 67.4365 98.883 67.1535C99.1119 66.0352 99.4789 65.2679 100.045 64.282C100.214 63.9845 100.383 63.6871 100.557 63.3806C100.772 63.0076 100.772 63.0076 100.991 62.627C101.095 62.419 101.199 62.2109 101.306 61.9966C101.514 61.9966 101.722 61.9966 101.936 61.9966C101.949 61.7885 101.962 61.5805 101.976 61.3661C102.317 60.1962 102.912 59.4845 103.661 58.5377C104.199 57.8593 104.199 57.8593 104.694 56.8544C105.993 54.4702 108.223 52.5461 110.131 50.6484C110.521 50.2554 110.91 49.8622 111.299 49.4688C111.731 49.0345 112.162 48.6002 112.593 48.166C112.912 47.8436 112.912 47.8436 113.237 47.5146C114.947 45.7958 116.715 44.1698 118.621 42.6692C119.3 42.1881 119.3 42.1881 119.587 41.5068C119.795 41.5068 120.003 41.5068 120.217 41.5068C120.3 41.3183 120.383 41.1297 120.468 40.9355C120.869 40.2059 121.236 39.831 121.872 39.3002C122.096 39.1105 122.321 38.9207 122.552 38.7252C122.822 38.4989 123.091 38.2725 123.369 38.0393C123.704 37.7489 124.038 37.4578 124.372 37.1663C126.805 35.0486 129.296 33.0369 131.879 31.1043C132.114 30.9243 132.349 30.7443 132.591 30.5588C133.968 29.5282 133.968 29.5282 135.03 29.5282C135.03 29.3201 135.03 29.1121 135.03 28.8977C135.828 28.3629 136.627 27.8675 137.453 27.3807C137.971 27.0703 138.489 26.7595 139.007 26.4486C139.282 26.2842 139.557 26.1197 139.84 25.9503C141.325 25.0557 142.797 24.1389 144.269 23.2236C145.068 22.7278 145.867 22.2321 146.667 21.7386C147.195 21.4112 147.719 21.0772 148.242 20.7412C148.898 20.3866 148.898 20.3866 149.844 20.3866C149.844 20.1786 149.844 19.9705 149.844 19.7561C152.881 18.032 155.977 16.5154 159.177 15.1203C160.555 14.5163 161.917 13.8855 163.273 13.2331C166.72 11.5816 170.245 10.1499 173.798 8.7429C174.112 8.61838 174.426 8.49386 174.749 8.36557C176.589 7.63653 178.43 6.91197 180.273 6.19024C180.938 5.92903 181.602 5.66575 182.265 5.40085C186.635 3.66583 191.092 2.42811 195.644 1.27596C195.927 1.20373 196.211 1.1315 196.503 1.05708C197.311 0.852832 198.12 0.653376 198.93 0.455875C199.174 0.394323 199.418 0.332771 199.67 0.269354C200.835 -0.00821277 201.65 -0.138595 202.794 0.212067Z" fill="#B1C4B2"/>
</svg>
