<svg width="138" height="154" viewBox="0 0 138 154" fill="none" xmlns="http://www.w3.org/2000/svg">
<path d="M16.4712 32.5846C17.6627 31.9866 18.1584 31.8259 19.518 31.9137C23.5898 33.8135 26.492 36.7683 29.5039 40.0228C29.8692 40.4148 29.8692 40.4148 30.2419 40.8146C38.0105 49.2668 44.127 59.1905 50.4381 68.7438C50.3937 68.4405 50.3493 68.1373 50.3036 67.8249C48.8032 57.5083 47.6921 47.7353 49.1861 37.3649C49.3212 36.0802 49.4524 34.7953 49.5762 33.5095C49.6333 33.238 49.6905 32.9666 49.7494 32.6869C50.0187 32.5314 50.288 32.3759 50.5654 32.2157C50.5237 31.5216 50.482 30.8275 50.439 30.1123C50.7083 29.9568 50.9776 29.8014 51.2551 29.6412C51.1072 28.9186 51.1072 28.9186 50.9563 28.1814C51.4002 26.9793 51.8693 25.8485 52.4088 24.6903C52.561 24.3605 52.7132 24.0306 52.87 23.6908C55.4938 18.1658 59.532 12.5047 65.4572 10.2515C70.1931 8.98957 73.4514 9.84395 77.6496 12.2259C78.122 12.4806 78.5945 12.7353 79.0812 12.9977C80.7948 14.3759 81.8705 15.9709 83.0513 17.8128C83.3069 18.1948 83.5625 18.5767 83.8258 18.9703C87.6955 25.1457 90.2156 32.5141 91.3316 39.6929C91.4852 40.4979 91.6432 41.3022 91.8064 42.1053C91.8699 42.4327 91.9333 42.76 91.9987 43.0973C92.4913 45.192 93.2918 46.9907 94.3231 48.8753C94.5851 49.3583 94.8471 49.8413 95.117 50.3389C95.3938 50.8487 95.6707 51.3585 95.9559 51.8837C97.0414 53.9213 98.1178 55.9635 99.1868 58.0098C99.3754 58.3708 99.564 58.7317 99.7583 59.1036C102.45 64.3846 103.547 70.3176 102.151 76.1583C101.879 76.9712 101.583 77.7765 101.267 78.573C101.089 79.0291 100.911 79.4852 100.728 79.9552C99.1049 83.8328 97.0105 87.4054 94.8359 90.9913C95.626 90.7729 95.626 90.7729 96.4321 90.5501C105.669 88.0834 105.669 88.0834 109.656 90.2263C116.067 94.1953 119.215 100.314 121.148 107.491C122.242 112.329 121.388 116.622 118.823 120.955C115.786 124.904 111.409 127.252 106.536 128.096C103.165 128.259 99.8827 127.578 96.5762 126.985C96.1189 126.941 95.6616 126.897 95.1904 126.852C94.7187 126.778 94.7187 126.778 94.2374 126.703C94.0819 126.434 93.9264 126.165 93.7662 125.887C93.4797 125.928 93.1931 125.968 92.8979 126.01C88.147 126.022 82.7103 122.634 79.3697 119.44C76.4538 116.489 73.7901 113.367 71.487 109.913C71.0719 110.068 71.0719 110.068 70.6483 110.227C69.6193 110.447 69.6193 110.447 68.0965 109.694C67.295 108.546 67.295 108.546 66.4149 107.039C66.0727 106.462 65.7301 105.886 65.3874 105.31C65.2051 105.001 65.0227 104.692 64.8349 104.374C60.8854 97.7014 56.6274 91.2643 52.2131 84.8921C51.9413 84.4979 51.6696 84.1038 51.3896 83.6977C48.4773 79.4799 45.4995 75.3249 42.365 71.2688C42.1077 70.9357 41.8503 70.6027 41.5852 70.2596C35.7814 62.8347 28.9512 56.442 20.9068 51.5156C20.95 52.018 20.9933 52.5205 21.0378 53.0382C21.0963 54.6707 21.0963 54.6707 20.5159 55.5499C18.1403 57.2037 16.3534 57.9215 13.4533 57.4511C9.53726 56.063 6.13651 53.0162 4.20518 49.3539C3.59568 47.6797 3.66192 46.2841 3.81079 44.5189C6.39831 42.7294 8.13142 42.1479 11.2814 42.3821C11.4369 42.6515 11.5924 42.9208 11.7526 43.1983C12.0219 43.0428 12.2912 42.8873 12.5687 42.7271C12.7241 42.9965 12.8796 43.2658 13.0399 43.5433C13.3091 43.3878 13.5784 43.2323 13.8559 43.0721C15.3583 43.5378 16.7672 44.2547 18.1888 44.9233C18.6061 45.1166 19.0234 45.3098 19.4534 45.5088C28.6563 50.0201 36.0064 57.4802 42.824 64.9783C38.7279 58.7471 34.6124 52.6327 29.8425 46.8927C28.935 45.7909 28.0587 44.6661 27.1822 43.5396C26.835 43.7738 26.4877 44.008 26.1299 44.2492C24.4667 45.0879 23.8154 45.2894 21.9873 44.9067C18.4375 43.0035 16.191 39.7357 14.7008 36.0552C14.6395 34.0335 14.7885 33.8636 16.4712 32.5846Z" fill="#F3BBB9"/>
<path d="M79.0004 13.622C81.1265 14.1919 81.8854 16.0306 83.0516 17.8122C83.309 18.196 83.5663 18.5797 83.8314 18.9751C87.6943 25.154 90.2159 32.5135 91.332 39.6923C91.4856 40.4973 91.6436 41.3015 91.8067 42.1047C91.8702 42.432 91.9337 42.7594 91.9991 43.0967C92.4916 45.1914 93.2921 46.99 94.3235 48.8747C94.5855 49.3577 94.8474 49.8407 95.1173 50.3383C95.3942 50.8481 95.671 51.3579 95.9563 51.8831C97.0417 53.9207 98.1181 55.9629 99.1871 58.0092C99.3757 58.3702 99.5643 58.7311 99.7586 59.103C102.45 64.384 103.547 70.317 102.151 76.1576C101.879 76.9706 101.584 77.7759 101.267 78.5723C101.089 79.0285 100.911 79.4846 100.728 79.9545C99.1052 83.8322 97.0108 87.4047 94.8362 90.9907C95.6263 90.7723 95.6263 90.7723 96.4324 90.5495C105.669 88.0828 105.669 88.0828 109.657 90.2257C116.067 94.1947 119.215 100.313 121.149 107.491C122.243 112.329 121.388 116.622 118.823 120.954C115.786 124.903 111.409 127.252 106.536 128.095C103.165 128.259 99.883 127.578 96.5766 126.985C96.1193 126.941 95.662 126.897 95.1908 126.852C94.8763 126.802 94.5618 126.753 94.2377 126.703C94.0822 126.433 93.9267 126.164 93.7665 125.886C93.48 125.927 93.1935 125.968 92.8982 126.009C88.1537 126.021 82.6596 122.633 79.3511 119.406C77.7946 117.8 76.3045 116.139 74.8441 114.445C74.3525 113.875 73.8516 113.313 73.3483 112.753C72.3792 111.617 71.687 110.426 71.0161 109.096C71.1868 108.459 71.1868 108.459 71.361 107.809C70.969 106.979 70.969 106.979 70.4401 106.096C69.4514 103.892 69.6735 102.473 70.4131 100.212C72.4003 95.4917 75.1917 91.2279 78.0294 86.9863C82.0698 80.9391 85.8183 73.9799 84.4986 66.4896C84.1636 65.3396 83.808 64.1953 83.4349 63.0571C81.4565 56.5369 81.7162 50.2761 82.7005 43.5875C84.1546 32.9285 81.9782 25.2625 77.0235 15.8516C77.6758 15.1158 78.3282 14.38 79.0004 13.622Z" fill="#ED9B98"/>
<path d="M16.4712 32.5846C17.6627 31.9866 18.1584 31.8259 19.518 31.9137C23.5898 33.8135 26.492 36.7683 29.5039 40.0228C29.8692 40.4148 29.8692 40.4148 30.2419 40.8146C34.3736 45.3099 37.9069 50.1925 41.3664 55.21C41.5687 55.5031 41.771 55.7962 41.9794 56.0983C43.2113 57.8891 44.4265 59.6903 45.6292 61.5009C46.0508 62.1349 46.4744 62.7676 46.8998 63.3991C51.3314 69.9962 55.0485 76.9586 58.7635 83.9726C60.0338 86.3697 61.3094 88.7639 62.5865 91.1574C62.896 91.738 63.2051 92.3189 63.5137 92.8999C65.6704 96.9595 67.8958 100.97 70.3242 104.875C71.7705 107.274 71.7705 107.274 71.76 108.979C71.6699 109.287 71.5798 109.595 71.487 109.913C70.6483 110.227 70.6483 110.227 69.6193 110.447C67.7742 109.534 67.4437 108.801 66.4149 107.039C66.0727 106.462 65.7301 105.886 65.3874 105.31C65.2051 105.001 65.0227 104.692 64.8349 104.374C60.8854 97.7014 56.6274 91.2643 52.2131 84.8921C51.9413 84.4979 51.6696 84.1038 51.3896 83.6977C48.4773 79.4799 45.4995 75.3249 42.365 71.2688C42.1077 70.9357 41.8503 70.6027 41.5852 70.2596C35.7814 62.8347 28.9512 56.442 20.9068 51.5156C20.95 52.018 20.9933 52.5205 21.0378 53.0382C21.0963 54.6707 21.0963 54.6707 20.5159 55.5499C18.1403 57.2037 16.3534 57.9215 13.4533 57.4511C9.53726 56.063 6.13651 53.0162 4.20518 49.3539C3.59568 47.6797 3.66192 46.2841 3.81079 44.5189C6.39831 42.7294 8.13142 42.1479 11.2814 42.3821C11.4369 42.6515 11.5924 42.9208 11.7526 43.1983C12.0219 43.0428 12.2912 42.8873 12.5687 42.7271C12.7241 42.9965 12.8796 43.2658 13.0399 43.5433C13.3091 43.3878 13.5784 43.2323 13.8559 43.0721C15.3583 43.5378 16.7672 44.2547 18.1888 44.9233C18.6061 45.1166 19.0234 45.3098 19.4534 45.5088C28.6563 50.0201 36.0064 57.4802 42.824 64.9783C38.7279 58.7471 34.6124 52.6327 29.8425 46.8927C28.935 45.7909 28.0587 44.6661 27.1822 43.5396C26.835 43.7738 26.4877 44.008 26.1299 44.2492C24.4667 45.0879 23.8154 45.2894 21.9873 44.9067C18.4375 43.0035 16.191 39.7357 14.7008 36.0552C14.6395 34.0335 14.7885 33.8636 16.4712 32.5846Z" fill="#BFBEBE"/>
<path d="M99.2262 79.7507C99.7079 79.6521 100.19 79.5536 100.686 79.452C99.4902 83.6998 97.1305 87.2635 94.8356 90.9912C95.3623 90.8456 95.8891 90.7 96.4318 90.5499C105.669 88.0833 105.669 88.0833 109.656 90.2261C113.437 92.567 115.684 94.7839 117.677 98.7516C117.929 99.253 117.929 99.253 118.187 99.7645C119.999 103.459 121.294 107.234 121.81 111.328C121.54 111.484 121.271 111.639 120.994 111.799C120.84 111.5 120.686 111.201 120.528 110.893C119.169 108.378 118.111 106.485 115.529 105.161C112.032 105.126 109.499 106.776 106.518 108.458C99.1445 112.469 92.1735 115.255 83.6046 113.267C80.1666 112.034 76.2976 109.765 74.452 106.568C74.7528 106.321 75.0537 106.073 75.3636 105.818C76.5015 104.88 77.6382 103.941 78.774 103C79.4986 102.401 80.2247 101.804 80.9509 101.206C91.5726 92.5114 91.5726 92.5114 98.6784 81.0213C98.8592 80.602 99.04 80.1827 99.2262 79.7507Z" fill="#F3BBB9"/>
<path d="M91.177 44.1351C91.3116 44.0574 91.4463 43.9797 91.585 43.8996C92.6296 45.8215 93.6722 47.7446 94.7131 49.6685C95.0664 50.3209 95.4202 50.973 95.7746 51.6247C101.104 61.4306 101.104 61.4306 101.67 64.1938C101.401 64.3492 101.131 64.5047 100.854 64.6649C100.544 63.9936 100.235 63.3214 99.9279 62.649C99.756 62.2748 99.5842 61.9006 99.4071 61.5151C98.9058 60.3486 98.9058 60.3486 98.5761 59.2894C98.096 57.9627 97.4765 56.8553 96.7499 55.6465C96.4798 55.1901 96.2096 54.7338 95.9313 54.2636C95.3636 53.3133 94.7942 52.364 94.2233 51.4156C92.7984 49.0021 91.647 46.9107 91.177 44.1351Z" fill="#F1B1AF"/>
<path d="M119.914 118.408C117.956 122.846 115.027 124.855 110.719 126.981C109.59 127.376 108.575 127.614 107.392 127.814C107.314 127.679 107.236 127.544 107.156 127.406C107.606 127.171 108.057 126.936 108.52 126.695C112.174 124.725 114.943 122.859 117.601 119.622C118.454 118.706 118.454 118.706 119.914 118.408Z" fill="#F4BDBB"/>
<path d="M101.154 66.1244C102.224 66.9765 102.487 67.4169 102.71 68.7903C102.765 71.9612 102.694 74.9664 101.441 77.9288C101.171 78.0843 100.902 78.2398 100.625 78.4C100.499 76.8674 100.542 75.4163 100.67 73.885C100.794 72.1789 100.816 70.5495 100.684 68.8441C100.573 67.0036 100.573 67.0036 101.154 66.1244Z" fill="#F2B9B7"/>
<path d="M100.607 74.6009C101.223 74.4247 101.839 74.2484 102.474 74.0668C102.323 74.7015 102.167 75.3352 102.008 75.9682C101.922 76.3212 101.835 76.6741 101.746 77.0378C101.44 77.9286 101.44 77.9286 100.624 78.3997C100.527 77.0986 100.522 75.9112 100.607 74.6009Z" fill="#F0B4B3"/>
<path d="M119.913 118.409C119.282 120.2 119.097 120.512 117.356 121.517C117.2 121.248 117.045 120.979 116.885 120.701C118.271 118.744 118.271 118.744 119.913 118.409Z" fill="#F4B0AF"/>
<path d="M101.642 70.7392C102.01 71.0654 102.377 71.3917 102.756 71.7278C102.702 72.567 102.702 72.567 102.647 73.4232C102.031 73.5994 101.415 73.7757 100.78 73.9574C101.064 72.8954 101.349 71.8333 101.642 70.7392Z" fill="#F4C3BF"/>
</svg>
