<svg width="128" height="38" viewBox="0 0 128 38" fill="none" xmlns="http://www.w3.org/2000/svg">
<path d="M80.6039 11.2803L78.4987 7.6014L74.756 9.45148L72.6507 5.77258L68.908 7.62266L66.8028 3.94377L63.0601 5.79385L60.9548 2.11495L57.2121 3.96503L55.1068 0.286133L51.3641 2.13622L43.3896 28.7604L53.0441 31.8013C53.6821 29.6535 55.6385 28.0799 57.9351 28.0799C60.7634 28.0799 63.0601 30.4403 63.0601 33.3537V33.46C63.0813 33.9279 63.0388 34.417 62.8899 34.8848L72.7145 37.9895" fill="#D70B17"/>
<path d="M51.6621 26.5487C51.1518 26.4637 50.8115 26.0171 50.8115 25.4854V12.4073C50.8115 11.7906 51.2794 11.3228 51.8748 11.3228H61.0189C61.2528 11.3228 61.4867 11.344 61.7206 11.3866C63.677 11.7481 65.1231 13.4918 65.1231 15.5546V25.4854C65.1231 25.7832 65.0168 26.0596 64.8041 26.2723C64.6127 26.4637 64.3363 26.5912 64.0598 26.5912L63.8684 26.57C63.3581 26.4849 63.0178 26.0383 63.0178 25.5067V15.5971C63.0178 14.5976 62.3161 13.747 61.3591 13.5769L61.0189 13.5343H59.0199V25.5067C59.0199 25.8044 58.9136 26.0809 58.701 26.2935C58.5096 26.4849 58.2331 26.6125 57.9567 26.6125L57.7653 26.5912C57.2549 26.5062 56.9147 26.0596 56.9147 25.528V13.5343H52.9168V25.5067C52.9168 25.8044 52.8105 26.0809 52.5978 26.2723C52.4064 26.4637 52.13 26.5912 51.8535 26.5912L51.6621 26.5487Z" fill="white"/>
<path d="M66.8662 32.2481C66.3559 32.1631 66.0156 31.7165 66.0156 31.1849C66.0156 30.8872 66.122 30.6107 66.3133 30.4193C66.5047 30.2279 66.7812 30.1003 67.0576 30.1003C67.9508 30.1003 68.7163 29.5049 68.9715 28.633L70.056 24.8903L66.5047 12.6203C66.3346 12.0461 66.6536 11.4294 67.2065 11.238L67.6743 11.2167C68.0571 11.2805 68.3761 11.5783 68.5037 11.961L71.1406 21.1051L73.82 11.961C73.9476 11.4507 74.4792 11.1104 75.0321 11.2167L75.0959 11.238C75.6701 11.4294 75.9891 12.0461 75.7977 12.6203L72.14 25.2093L70.9917 29.2497C70.694 30.1854 70.1836 30.9297 69.5031 31.4401C68.7801 31.993 67.9295 32.2907 67.0364 32.2907L66.8662 32.2481Z" fill="white"/>
<path d="M1.09334 26.4212C0.561705 26.3148 0.200195 25.8683 0.200195 25.3154V5.79381C0.200195 5.47483 0.306522 5.19838 0.519175 4.98573C0.710563 4.77307 1.00828 4.66675 1.30599 4.66675L1.49738 4.68801C2.02901 4.79434 2.41179 5.24091 2.41179 5.79381V11.3441H4.49579C4.75097 11.3441 4.98489 11.3653 5.24007 11.4079C7.28154 11.7694 8.77011 13.5982 8.77011 15.746V22.0405C8.77011 24.4648 6.85624 26.4424 4.49579 26.4424H1.32726L1.09334 26.4212ZM2.39052 24.167H4.47452C5.62285 24.167 6.55852 23.2101 6.55852 22.0192V15.7247C6.55852 14.6827 5.8355 13.7896 4.83603 13.6194L4.47452 13.5769H2.39052V24.167Z" fill="#5B5B5B"/>
<path d="M15.0644 26.5063C13.023 26.1448 11.5557 24.316 11.5557 22.1682V15.6185C11.5557 14.4276 12.0022 13.3431 12.8103 12.4925C13.6184 11.6632 14.6817 11.1953 15.83 11.1953C16.0852 11.1953 16.3191 11.2166 16.5743 11.2591C18.6157 11.6206 20.1043 13.4494 20.1043 15.5972V22.147C20.1043 23.3165 19.6577 24.4223 18.8497 25.2729C18.0416 26.1023 16.9783 26.5489 15.8513 26.5489C15.5748 26.5701 15.3196 26.5489 15.0644 26.5063ZM16.1702 13.492L15.8087 13.4494C14.6391 13.4494 13.7247 14.3851 13.7247 15.5972V22.147C13.7247 23.189 14.4477 24.0821 15.426 24.2522L15.7875 24.2947C16.9358 24.2947 17.8715 23.3378 17.8715 22.147V15.5972C17.8927 14.5552 17.1697 13.6834 16.1702 13.492Z" fill="#5B5B5B"/>
<path d="M26.4204 26.5063C24.3789 26.1235 22.9116 24.316 22.9116 22.1682V15.6185C22.9116 13.1942 24.8255 11.2166 27.1859 11.2166C27.4411 11.2166 27.6751 11.2378 27.9302 11.2803C29.9504 11.6419 31.439 13.4707 31.439 15.5972V22.1469C31.439 23.3165 30.9924 24.4223 30.1844 25.2729C29.3763 26.1023 28.313 26.5488 27.1647 26.5488C26.9095 26.5701 26.6543 26.5488 26.4204 26.5063ZM27.5262 13.4919L27.1647 13.4494C25.9951 13.4494 25.0807 14.3851 25.0807 15.5972V22.1469C25.0807 23.1889 25.8037 24.0821 26.7819 24.2522L27.1434 24.2947C27.6963 24.2947 28.2067 24.0821 28.6107 23.678C29.0148 23.274 29.2274 22.7424 29.2274 22.1469V15.5972C29.2487 14.5552 28.5257 13.6833 27.5262 13.4919Z" fill="#5B5B5B"/>
<path d="M35.1387 26.5488C34.6071 26.4637 34.2456 25.9959 34.2456 25.443V5.79381C34.2456 5.47483 34.3519 5.19838 34.5646 4.98573C34.7772 4.77307 35.0537 4.66675 35.3514 4.66675L35.5428 4.68801C36.0744 4.79434 36.4572 5.24091 36.4572 5.79381V17.4259L41.4971 11.5992C41.7523 11.3228 42.135 11.1739 42.5178 11.259L43.0707 11.5142C43.5173 11.9395 43.5598 12.6412 43.1558 13.1091L39.3067 17.4685L43.2621 24.9113C43.411 25.1665 43.4322 25.4642 43.3684 25.7407C43.2834 26.0171 43.092 26.2723 42.8368 26.4212C42.6241 26.5488 42.369 26.5913 42.1138 26.5488C41.7735 26.485 41.5183 26.2936 41.3482 26.0171L37.7969 19.2973L36.4359 20.8284V25.443C36.4359 25.7407 36.3296 26.0384 36.117 26.251C35.9043 26.4637 35.6279 26.57 35.3514 26.57L35.1387 26.5488Z" fill="#5B5B5B"/>
<path d="M83.4747 26.5276C82.2625 26.315 81.2418 25.5707 80.6251 24.4649C80.4762 24.2097 80.455 23.8907 80.5188 23.593C80.6038 23.2953 80.774 23.0614 81.0291 22.9125C81.2418 22.7849 81.497 22.7424 81.7522 22.7849C82.0711 22.8487 82.3476 23.0401 82.5177 23.3378C82.8154 23.8482 83.262 24.1672 83.8149 24.2735C84.4316 24.3798 84.9845 24.2097 85.4311 23.7844C85.8564 23.3804 86.069 22.8062 86.0265 22.232C86.0052 21.6366 85.7075 21.105 85.2397 20.7647L82.2838 18.5957C81.3056 17.8939 80.7102 16.7881 80.6038 15.5335C80.54 14.2575 81.0079 13.0667 81.8798 12.2586C82.7516 11.408 83.9425 11.0252 85.1333 11.1953C86.3667 11.4293 87.3875 12.1523 87.9616 13.1943C88.0892 13.4495 88.1318 13.7472 88.068 14.0449C87.9829 14.3426 87.8128 14.5978 87.5576 14.7254C87.3449 14.853 87.0898 14.8955 86.8346 14.853C86.5156 14.7892 86.2391 14.5978 86.069 14.3213C85.8138 13.8748 85.3673 13.5558 84.8144 13.4495C84.2615 13.3644 83.7298 13.5133 83.3258 13.896C82.943 14.2575 82.7304 14.7892 82.7729 15.3633C82.7942 15.895 83.0919 16.4266 83.5384 16.7243L86.4943 18.8509C87.5151 19.5951 88.1318 20.7647 88.1955 22.0406C88.3019 23.3166 87.8128 24.55 86.8771 25.4006C85.984 26.2512 84.7506 26.6552 83.5172 26.4851" fill="#5B5B5B"/>
<path d="M91.9598 26.57C91.4282 26.4637 91.0454 25.9958 91.0454 25.4642V5.81505C91.0454 5.51733 91.173 5.21962 91.3857 5.00697C91.5983 4.79431 91.8748 4.68799 92.1512 4.68799L92.3426 4.70925C92.8742 4.81558 93.2357 5.26215 93.2357 5.81505V11.3653H95.3197C95.5749 11.3653 95.8301 11.3866 96.064 11.4291C98.1055 11.7906 99.5728 13.6194 99.5728 15.7672V25.4642C99.5728 26.1022 99.0837 26.5913 98.4883 26.5913L98.2969 26.57C97.7652 26.4849 97.3825 26.0171 97.3825 25.4642V15.7672C97.3825 14.7252 96.6595 13.8321 95.6813 13.6619L95.2985 13.6194H93.2145V25.4642C93.2145 26.1022 92.7254 26.5913 92.1087 26.5913L91.9598 26.57Z" fill="#5B5B5B"/>
<path d="M105.889 26.5063C103.847 26.1448 102.38 24.316 102.38 22.1682V15.6185C102.38 13.1942 104.294 11.2166 106.654 11.2166C106.909 11.2166 107.143 11.2378 107.398 11.2803C109.44 11.6419 110.929 13.4707 110.929 15.6185V22.1682C110.929 23.3378 110.482 24.4436 109.674 25.2942C108.866 26.1235 107.803 26.5701 106.675 26.5701C106.399 26.5701 106.144 26.5488 105.889 26.5063ZM107.016 13.5132L106.654 13.4707C106.101 13.4707 105.57 13.6833 105.187 14.0874C104.804 14.4914 104.591 15.023 104.591 15.5972V22.1469C104.591 23.1889 105.314 24.0821 106.293 24.2522L106.654 24.2947C107.207 24.2947 107.717 24.0821 108.122 23.678C108.526 23.274 108.738 22.7424 108.738 22.1469V15.5972C108.717 14.5765 107.994 13.6833 107.016 13.5132Z" fill="#5B5B5B"/>
<path d="M127.771 12.5988C127.835 12.3011 127.792 12.0246 127.665 11.7694C127.516 11.5142 127.261 11.3229 126.963 11.2591L126.771 11.2378C126.282 11.2378 125.836 11.578 125.708 12.0884C125.708 12.1309 124.517 17.0432 123.603 20.7859L123.582 20.871L123.56 20.7859C122.667 17.0645 121.455 12.1522 121.434 12.0884C121.349 11.6418 121.03 11.3229 120.583 11.2591L120.392 11.2378C119.903 11.2378 119.499 11.578 119.35 12.0884C119.329 12.1309 118.159 17.0432 117.245 20.7859L117.223 20.871L117.202 20.7859C116.309 17.0432 115.097 12.1522 115.097 12.0884C114.99 11.6631 114.65 11.3229 114.246 11.2591L113.821 11.2803C113.247 11.4292 112.885 12.0246 113.034 12.62L116.203 25.7195C116.33 26.1448 116.649 26.485 117.053 26.5488L117.223 26.5701C117.734 26.5701 118.159 26.2298 118.265 25.7195C118.287 25.6769 119.477 20.7647 120.392 17.022L120.413 16.9369L120.434 17.022C121.37 20.7859 122.54 25.7195 122.54 25.7195C122.667 26.1448 122.986 26.4638 123.39 26.5488L123.56 26.5701C124.071 26.5701 124.496 26.2298 124.602 25.7195" fill="#5B5B5B"/>
</svg>
