<svg width="124" height="113" viewBox="0 0 124 113" fill="none" xmlns="http://www.w3.org/2000/svg">
<path d="M12.9724 0.243655C13.3741 0.561606 13.3741 0.561606 13.798 0.955126C14.8509 1.88366 15.9889 2.60465 17.1836 3.33629C17.6283 3.61318 18.0728 3.89044 18.5171 4.16805C18.7363 4.30483 18.9556 4.4416 19.1814 4.58252C21.8522 6.26187 24.4262 8.0513 26.9221 9.98216C27.0655 10.0923 27.2089 10.2025 27.3566 10.3161C29.2849 11.7995 31.1596 13.332 32.9972 14.9263C33.8545 15.6683 34.7226 16.384 35.6243 17.0722C36.4787 17.7252 37.2344 18.4129 37.9767 19.1943C38.2725 19.4851 38.5687 19.7757 38.865 20.0661C39.4974 20.6972 40.094 21.3446 40.6745 22.0237C41.4464 22.9208 42.2672 23.7591 43.1091 24.5899C44.2623 25.7311 45.3588 26.8981 46.3991 28.1432C46.5763 28.3525 46.7534 28.5618 46.9358 28.7775C52.7545 35.7578 57.4657 43.6802 61.9281 51.5682C62.0484 51.7806 62.1688 51.9929 62.2927 52.2117C65.1276 57.267 67.3652 62.6912 69.2978 68.15C69.4267 67.8806 69.5557 67.6112 69.6885 67.3337C71.1196 64.4429 72.7914 61.7491 74.5783 59.0695C74.6894 58.9019 74.8006 58.7342 74.9151 58.5615C76.358 56.3905 77.8818 54.3525 79.5627 52.3578C79.9419 51.887 80.3204 51.4155 80.6978 50.9431C83.0028 48.1385 85.5397 45.5664 88.1004 42.9977C88.2279 42.8695 88.3553 42.7413 88.4867 42.6092C88.8558 42.2386 89.226 41.8691 89.5963 41.4997C89.8119 41.2844 90.0275 41.0691 90.2496 40.8473C91.9933 39.1977 91.9933 39.1977 92.7229 39.1977C92.7229 39.024 92.7229 38.8503 92.7229 38.6713C93.1276 38.315 93.1276 38.315 93.6965 37.9064C94.0085 37.6798 94.0085 37.6798 94.3269 37.4487C94.5521 37.2876 94.7774 37.1265 95.0094 36.9605C95.4733 36.6242 95.937 36.2877 96.4005 35.9508C96.6282 35.7857 96.8559 35.6205 97.0905 35.4504C97.8952 34.8608 98.6817 34.2521 99.4674 33.6375C100.898 32.5286 102.365 31.4812 103.85 30.4469C104.877 29.7293 105.889 28.9982 106.887 28.2408C109.023 26.6228 111.072 25.1486 113.521 24.045C115.077 23.3368 115.077 23.3368 116.148 22.0895C117.495 21.4652 118.415 21.6199 119.833 21.8263C124.733 34.3367 125.023 49.369 122.202 62.3596C122.11 62.8149 122.018 63.2703 121.927 63.7259C121.047 67.9629 119.506 72.0025 117.466 75.81C117.201 76.3093 116.945 76.8127 116.692 77.3179C115.004 80.6429 112.866 83.5141 110.453 86.347C109.864 87.0609 109.327 87.7911 108.795 88.5482C107.802 89.9405 106.686 91.1733 105.519 92.4181C104.459 93.5508 103.414 94.6965 102.478 95.9344C101.868 96.6556 101.195 97.2251 100.477 97.8364C99.6736 98.5583 98.9238 99.3252 98.1679 100.096C96.8949 101.39 95.572 102.56 94.1479 103.689C93.5904 104.145 93.0904 104.612 92.5913 105.13C91.5505 106.193 90.447 107.141 89.2651 108.044C88.9244 108.305 88.5862 108.57 88.25 108.838C84.5757 111.712 81.6989 112.341 77.1037 112.276C76.4793 112.28 75.8548 112.285 75.2303 112.292C73.551 112.305 71.8724 112.297 70.1931 112.284C69.1423 112.278 68.0916 112.277 67.0408 112.279C66.8654 112.279 66.69 112.28 66.5093 112.28C66.1529 112.281 65.7965 112.282 65.44 112.283C62.1145 112.29 58.7894 112.276 55.4639 112.255C52.6154 112.238 49.7672 112.237 46.9187 112.248C43.5992 112.261 40.28 112.265 36.9605 112.253C36.6064 112.252 36.2523 112.251 35.8982 112.25C35.6369 112.249 35.6369 112.249 35.3704 112.248C34.1473 112.244 32.9243 112.247 31.7013 112.252C30.0554 112.259 28.4103 112.251 26.7645 112.232C26.1616 112.227 25.5586 112.227 24.9556 112.233C20.1644 112.272 20.1644 112.272 18.9444 111.205C18.3394 110.477 17.8884 109.781 17.4468 108.946C17.2085 108.622 16.9649 108.302 16.7138 107.987C15.4307 106.202 14.2787 104.395 13.213 102.473C12.7373 101.627 12.2374 100.804 11.7222 99.9811C6.32632 91.2713 1.99523 82.3924 0.865037 72.0981C0.839336 71.8769 0.813635 71.6558 0.787155 71.428C0.273307 66.9279 0.168058 62.4094 0.075428 57.8851C0.0692784 57.6248 0.0631289 57.3646 0.056793 57.0964C-0.193543 45.6209 2.10885 34.554 4.54988 23.4055C4.59437 23.2016 4.63887 22.9978 4.68471 22.7877C5.46088 19.2326 6.2426 15.6799 7.20363 12.1693C7.55566 10.8699 7.87071 9.56398 8.17097 8.25181C8.2115 8.07517 8.25203 7.89853 8.29379 7.71653C8.49611 6.8329 8.69616 5.94882 8.89324 5.06401C9.83434 0.925622 9.83434 0.925622 10.8174 0.112054C11.66 -0.080532 12.1406 -0.0173019 12.9724 0.243655Z" fill="#6EA06B"/>
<path d="M119.832 21.8263C124.732 34.3367 125.023 49.369 122.201 62.3595C122.109 62.8149 122.018 63.2703 121.927 63.7259C121.046 67.9629 119.506 72.0025 117.466 75.81C117.2 76.3093 116.945 76.8126 116.692 77.3179C115.003 80.6429 112.865 83.5141 110.453 86.347C109.864 87.0608 109.326 87.7911 108.794 88.5482C107.802 89.9405 106.685 91.1733 105.519 92.4181C104.459 93.5507 103.413 94.6965 102.478 95.9344C101.867 96.6556 101.195 97.2251 100.477 97.8364C99.6733 98.5583 98.9235 99.3252 98.1676 100.096C96.8946 101.39 95.5717 102.56 94.1476 103.689C93.5901 104.145 93.0901 104.612 92.591 105.13C91.5496 106.193 90.4455 107.14 89.2626 108.043C88.9242 108.304 88.5895 108.571 88.2578 108.841C84.4479 111.902 81.3865 112.294 76.6014 112.056C75.9914 112.038 75.3814 112.023 74.7713 112.009C73.2966 111.972 71.8237 111.915 70.3503 111.842C70.5335 110.883 70.7807 109.999 71.107 109.078C71.6757 107.382 72.1181 105.702 72.4559 103.946C72.4923 103.765 72.5287 103.585 72.5662 103.399C73.2469 99.8883 73.3231 96.3885 73.3278 92.8253C73.3287 92.6036 73.3296 92.382 73.3306 92.1537C73.3411 87.5972 72.9007 83.2504 71.8637 78.8097C71.824 78.6354 71.7842 78.4611 71.7432 78.2814C71.2115 75.9521 70.6164 73.6599 69.7656 71.4241C69.1999 69.9078 69.0237 68.6533 69.6882 67.1537C69.8816 66.7757 70.0808 66.4006 70.2845 66.0279C70.3963 65.8196 70.5081 65.6113 70.6232 65.3966C71.8304 63.2178 73.2003 61.1428 74.578 59.0695C74.6891 58.9017 74.8003 58.7339 74.9148 58.561C76.3577 56.3903 77.8817 54.3523 79.5624 52.3578C79.9417 51.887 80.3201 51.4155 80.6975 50.9431C83.0025 48.1385 85.5394 45.5664 88.1001 42.9977C88.2276 42.8695 88.3551 42.7413 88.4864 42.6092C88.8555 42.2386 89.2257 41.8691 89.596 41.4997C89.8116 41.2844 90.0272 41.0691 90.2493 40.8473C91.993 39.1977 91.993 39.1977 92.7226 39.1977C92.7226 39.024 92.7226 38.8502 92.7226 38.6713C93.1273 38.315 93.1273 38.315 93.6962 37.9063C93.9042 37.7553 94.1123 37.6043 94.3266 37.4487C94.6645 37.207 94.6645 37.207 95.0091 36.9604C95.4731 36.6242 95.9367 36.2877 96.4002 35.9508C96.6279 35.7857 96.8556 35.6205 97.0902 35.4504C97.8949 34.8608 98.6814 34.2521 99.4671 33.6375C100.898 32.5285 102.364 31.4811 103.85 30.4469C104.876 29.7293 105.889 28.9982 106.887 28.2408C109.023 26.6228 111.072 25.1486 113.521 24.045C115.076 23.3368 115.076 23.3368 116.148 22.0895C117.495 21.4652 118.414 21.6199 119.832 21.8263Z" fill="#3C7057"/>
<path d="M12.9724 0.243549C13.9745 1.10249 14.0258 2.43446 14.2884 3.66519C14.4308 4.31301 14.5738 4.96073 14.7171 5.60836C14.7569 5.7887 14.7968 5.96904 14.8378 6.15484C15.3023 8.2575 15.7715 10.3591 16.2419 12.4605C16.3944 13.1422 16.5464 13.8239 16.6985 14.5057C16.9511 15.637 17.2063 16.7676 17.4631 17.8979C17.5599 18.3256 17.6561 18.7535 17.7514 19.1816C18.4105 22.1372 19.239 25.0032 20.1748 27.8825C20.4991 28.8981 20.778 29.9253 21.0494 30.956C21.3883 32.24 21.7678 33.4817 22.2461 34.7209C22.447 35.2477 22.6339 35.7773 22.8168 36.3106C23.7748 39.1013 24.7929 41.8666 25.8364 44.6261C26.9339 47.5287 27.9833 50.4426 28.9858 53.3797C29.815 55.7994 30.7164 58.1872 31.6416 60.5715C31.9157 61.2876 32.1831 62.0059 32.4497 62.7248C33.447 65.409 34.5134 68.0635 35.5914 70.7161C35.6877 70.9535 35.784 71.1908 35.8833 71.4354C36.5789 73.1486 37.2771 74.8608 37.9767 76.5724C38.1166 76.915 38.1166 76.915 38.2593 77.2644C38.7876 78.5572 39.318 79.849 39.8517 81.1395C40.013 81.5301 40.1738 81.9208 40.334 82.3118C41.3825 84.867 42.5441 87.3385 43.7982 89.7989C44.3264 90.8459 44.8166 91.9111 45.3134 92.9732C47.2057 96.9716 49.3164 100.845 51.4494 104.719C51.5378 104.879 51.6262 105.04 51.7173 105.206C52.7892 107.152 53.8828 109.082 55.0173 110.992C55.348 111.578 55.348 111.578 55.348 111.842C50.7562 111.909 46.1645 111.96 41.5722 111.992C39.4398 112.007 37.3077 112.027 35.1754 112.06C33.3163 112.089 31.4573 112.108 29.5979 112.114C28.6138 112.118 27.6304 112.127 26.6466 112.148C25.5462 112.171 24.4469 112.172 23.3463 112.17C22.8607 112.186 22.8607 112.186 22.3653 112.202C20.9898 112.184 20.1533 112.139 19.097 111.209C18.4939 110.479 17.9629 109.739 17.4468 108.946C17.2046 108.625 16.9607 108.305 16.7138 107.987C15.4307 106.202 14.2787 104.395 13.213 102.473C12.7373 101.627 12.2374 100.804 11.7222 99.981C6.32632 91.2712 1.99523 82.3923 0.865037 72.0979C0.839336 71.8768 0.813635 71.6557 0.787155 71.4279C0.273307 66.9278 0.168058 62.4093 0.075428 57.885C0.0692784 57.6247 0.0631289 57.3644 0.056793 57.0963C-0.193543 45.6208 2.10885 34.5539 4.54988 23.4054C4.59437 23.2015 4.63887 22.9977 4.68471 22.7876C5.46088 19.2325 6.2426 15.6798 7.20363 12.1692C7.55566 10.8698 7.87071 9.56387 8.17097 8.2517C8.2115 8.07506 8.25203 7.89842 8.29379 7.71643C8.49611 6.83279 8.69616 5.94872 8.89324 5.0639C9.83434 0.925516 9.83434 0.925515 10.8174 0.111947C11.6276 -0.0732473 12.1775 0.00678123 12.9724 0.243549Z" fill="#4E835D"/>
<path d="M116.148 22.6157C116.014 24.6363 115.489 26.3873 114.815 28.291C114.707 28.5963 114.6 28.9015 114.489 29.216C113.628 31.605 112.655 33.8292 111.41 36.0391C111.262 36.3029 111.115 36.5667 110.962 36.8385C109.726 39.0392 108.467 41.2264 107.199 43.4088C106.972 43.7991 106.972 43.7991 106.741 44.1973C103.3 50.1032 99.724 55.9169 95.881 61.5698C95.5489 62.0605 95.2168 62.5513 94.8847 63.0421C93.396 65.2375 91.8952 67.4222 90.3537 69.581C88.5958 72.0486 86.956 74.5921 85.3124 77.1367C84.5609 78.2992 83.8051 79.459 83.0499 80.6191C82.2491 81.8493 81.4497 83.0803 80.6594 84.3173C79.1833 86.6239 77.6474 88.8761 76.0565 91.105C75.3551 92.0895 74.6843 93.0915 74.0321 94.1093C73.9462 94.2283 73.8604 94.3474 73.772 94.4701C73.6851 94.4701 73.5982 94.4701 73.5088 94.4701C73.5035 94.2876 73.4983 94.1051 73.4929 93.9171C73.2634 86.2458 72.5205 78.6628 69.7656 71.4239C69.1999 69.9077 69.0237 68.6532 69.6882 67.1536C69.8816 66.7755 70.0808 66.4004 70.2845 66.0278C70.3963 65.8194 70.5081 65.6111 70.6232 65.3965C71.8304 63.2177 73.2003 61.1426 74.578 59.0693C74.6891 58.9015 74.8003 58.7337 74.9148 58.5608C76.3577 56.3901 77.8817 54.3521 79.5624 52.3577C79.9417 51.8868 80.3201 51.4153 80.6975 50.9429C83.0025 48.1383 85.5394 45.5662 88.1001 42.9975C88.2276 42.8693 88.3551 42.7411 88.4864 42.609C88.8555 42.2384 89.2257 41.8689 89.596 41.4995C89.8116 41.2842 90.0272 41.0689 90.2493 40.8471C91.993 39.1975 91.993 39.1975 92.7226 39.1975C92.7226 39.0238 92.7226 38.8501 92.7226 38.6711C93.1273 38.3149 93.1273 38.3149 93.6962 37.9062C93.9042 37.7551 94.1123 37.6041 94.3266 37.4485C94.6645 37.2068 94.6645 37.2068 95.0091 36.9603C95.4731 36.624 95.9367 36.2875 96.4002 35.9507C96.6279 35.7855 96.8556 35.6204 97.0902 35.4502C97.8949 34.8606 98.6814 34.2519 99.4671 33.6373C100.898 32.5284 102.364 31.481 103.85 30.4467C104.876 29.7291 105.889 28.998 106.887 28.2407C109.023 26.6226 111.072 25.1484 113.521 24.0448C114.265 23.6878 115.356 22.6157 116.148 22.6157Z" fill="#4D8269"/>
<path d="M4.28719 24.7217C4.46091 24.7217 4.63462 24.7217 4.8136 24.7217C4.62293 25.8515 4.43067 26.981 4.23784 28.1104C4.20863 28.2821 4.17942 28.4538 4.14932 28.6307C3.78433 30.7716 3.39356 32.9037 2.9609 35.0322C2.37048 37.9476 1.976 40.8146 1.77546 43.7823C1.69685 44.8947 1.55607 45.9882 1.3971 47.0919C1.07224 49.4495 0.949843 51.8084 0.832655 54.184C0.809839 54.6225 0.786878 55.061 0.76377 55.4995C0.708303 56.5578 0.65477 57.6163 0.602353 58.6749C-0.0874274 57.6402 -0.00309975 56.7664 0.010146 55.5658C0.0123089 55.323 0.0144719 55.0803 0.0167003 54.8301C0.173351 44.5687 2.08645 34.7108 4.28719 24.7217Z" fill="#6A9D6A"/>
</svg>
