<svg width="160" height="209" viewBox="0 0 160 209" fill="none" xmlns="http://www.w3.org/2000/svg">
<path d="M71.5829 0.0381553C72.1494 0.036172 72.1494 0.036172 72.7274 0.0341487C73.9864 0.0316089 75.2452 0.0400955 76.5042 0.0485488C77.4248 0.0490224 78.3455 0.0488152 79.2661 0.0479847C81.7252 0.0476368 84.1842 0.0565706 86.6433 0.0674623C88.9532 0.0762767 91.263 0.0766737 93.5729 0.0777733C100.323 0.0858691 107.072 0.107433 113.822 0.127361C128.906 0.159217 143.99 0.191074 159.531 0.223896C159.531 53.8703 159.531 107.517 159.531 162.789C151.297 161.292 143.454 158.412 137.135 152.749C136.669 152.378 136.203 152.008 135.735 151.639C135.432 151.368 135.13 151.098 134.818 150.819C134.818 150.564 134.818 150.309 134.818 150.046C134.587 149.951 134.356 149.855 134.118 149.757C133.16 149.209 132.747 148.62 132.115 147.729C131.886 148.038 131.656 148.347 131.42 148.665C129.591 151.097 127.706 153.396 125.617 155.611C124.301 157.022 123.12 158.502 121.955 160.038C119.057 163.825 115.64 167.173 111.998 170.245C111.103 171.04 110.285 171.895 109.453 172.756C107.451 174.78 105.284 176.47 103.002 178.158C102.42 178.592 101.848 179.039 101.277 179.486C96.2451 183.397 90.6954 186.482 85.0446 189.397C84.2329 189.819 83.4265 190.25 82.6212 190.684C79.7978 192.205 76.9554 193.651 74.0492 195.007C69.4865 197.138 64.9767 199.4 60.6791 202.03C57.6253 203.844 54.3226 205.124 51.0256 206.423C50.7549 206.53 50.4841 206.636 50.2052 206.747C45.668 208.515 45.668 208.515 43.3028 208.353C43.0479 208.226 42.7931 208.099 42.5305 207.967C41.9896 205.623 41.9896 205.623 42.5305 204.368C43.0142 203.072 42.9361 202.152 42.8201 200.775C42.7999 200.526 42.7797 200.276 42.7589 200.019C42.4833 196.742 42.118 193.473 41.7582 190.205C40.9508 182.871 40.5196 175.647 40.5274 168.267C40.5276 167.86 40.5279 167.452 40.5281 167.032C40.5393 159.802 40.7285 152.616 41.3721 145.413C41.3956 145.149 41.419 144.886 41.4432 144.615C43.5547 121.409 49.9911 99.343 61.4514 78.9965C61.0392 79.0901 60.6271 79.1836 60.2024 79.2801C58.3037 79.7087 56.4026 80.1259 54.5008 80.541C54.1831 80.6111 53.8655 80.6812 53.5381 80.7533C52.5889 80.9609 51.6386 81.1619 50.6877 81.3616C50.4116 81.4227 50.1354 81.4838 49.8509 81.5467C43.1565 82.9249 36.3512 82.9741 29.5465 82.9303C28.6865 82.9274 27.8264 82.9246 26.9664 82.9219C21.5459 82.8987 16.135 82.8177 10.7218 82.5194C9.66487 82.4697 8.60959 82.4463 7.55164 82.428C7.20965 82.419 6.86766 82.41 6.5153 82.4008C5.88929 82.3845 5.26305 82.3745 4.63683 82.373C3.08494 82.3203 2.43825 82.1415 1.23312 81.1263C0.971798 80.8057 0.710475 80.4852 0.441233 80.1549C0.313807 80.0275 0.18638 79.9 0.0550928 79.7688C-0.238606 76.5651 0.686696 73.9985 1.76859 71.0082C1.94519 70.5104 2.1216 70.0126 2.29784 69.5146C4.54015 63.2262 6.99439 57.0512 10.106 51.1388C10.4818 50.4203 10.847 49.6971 11.2109 48.9726C14.7473 42.0211 19.5884 35.9429 24.5991 30.005C24.7972 29.768 24.9953 29.531 25.1994 29.2868C25.6819 28.7226 26.1883 28.179 26.6988 27.6398C26.9536 27.6398 27.2085 27.6398 27.471 27.6398C27.5736 27.4114 27.6761 27.1829 27.7818 26.9475C29.2791 24.1828 32.7371 21.2093 35.58 19.917C35.58 19.6622 35.58 19.4073 35.58 19.1448C36.3068 18.5246 37.0341 17.9509 37.8003 17.383C38.0283 17.2115 38.2564 17.0401 38.4913 16.8635C38.9646 16.5078 39.4385 16.1531 39.9131 15.7992C40.5344 15.3325 41.1483 14.856 41.7612 14.3783C44.7107 12.0959 47.8004 10.1895 51.0256 8.33284C51.2746 8.18743 51.5236 8.04202 51.7801 7.89221C55.395 5.78221 59.0752 3.83951 62.9065 2.1489C63.4834 1.8942 64.0578 1.63394 64.6297 1.36832C67.0156 0.321235 68.9929 0.00450251 71.5829 0.0381553Z" fill="#4E835D"/>
<path d="M157.214 1.38232C156.614 3.54021 155.567 5.31005 154.439 7.22269C152.431 10.6793 150.519 14.1794 148.643 17.709C146.913 20.9601 145.152 24.1905 143.36 27.4074C140.303 32.8991 137.405 38.4649 134.549 44.0631C133.521 46.0783 132.487 48.0902 131.45 50.1008C128.855 55.1327 126.263 60.1646 123.746 65.2359C122.61 67.5182 121.431 69.7755 120.235 72.0274C119.162 74.0544 118.106 76.0897 117.06 78.1307C116.923 78.3975 116.786 78.6643 116.645 78.9392C116.506 79.2103 116.367 79.4814 116.224 79.7607C113.362 85.3431 110.447 90.8878 107.402 96.3728C106.941 97.2049 106.481 98.037 106.02 98.8691C104.795 101.08 103.566 103.288 102.336 105.496C101.633 106.757 100.931 108.019 100.23 109.281C97.7885 113.665 95.3069 118.021 92.7681 122.349C91.5313 124.458 90.3089 126.573 89.1057 128.701C84.6821 136.52 79.9262 144.148 75.1842 151.776C74.5604 152.781 73.9386 153.787 73.3174 154.793C70.1167 159.977 66.8845 165.14 63.5975 170.27C61.174 174.056 58.7864 177.857 56.4969 181.725C55.5545 183.315 54.5878 184.882 53.5835 186.434C52.0308 188.861 50.6463 191.371 49.2636 193.897C44.3801 202.795 44.3801 202.795 43.3025 203.334C42.675 198.118 42.0663 192.901 41.4794 187.681C41.3894 186.885 41.2973 186.09 41.2046 185.294C39.7104 172.196 40.1996 158.532 41.3718 145.413C41.3953 145.149 41.4188 144.886 41.443 144.615C43.4002 123.105 48.9547 102.067 59.1826 82.9544C59.4598 82.4302 59.4598 82.4302 59.7426 81.8954C60.8123 79.9412 61.9763 78.3388 63.4803 76.7009C64.7107 75.2519 65.6264 73.6055 66.5916 71.9736C69.2689 67.5587 72.1897 63.6063 75.7241 59.8366C76.8904 58.5907 77.9805 57.3068 79.0446 55.9729C80.4678 54.2034 81.9967 52.606 83.6331 51.033C84.426 50.2316 85.1571 49.4215 85.8896 48.5668C87.3352 46.8995 88.8946 45.3854 90.5082 43.8819C90.7959 43.6123 91.0836 43.3428 91.38 43.0651C93.2296 41.3451 95.1082 39.6966 97.0967 38.138C98.0141 37.3913 98.8877 36.6185 99.765 35.8257C101.523 34.2554 103.359 32.8292 105.254 31.4288C105.588 31.1806 105.922 30.9323 106.267 30.6766C106.954 30.1667 107.643 29.6578 108.332 29.1499C108.973 28.677 109.614 28.2028 110.253 27.7271C114.443 24.6108 118.736 21.7943 123.234 19.1448C123.599 18.927 123.965 18.7092 124.342 18.4849C129.65 15.3253 134.973 12.3704 140.574 9.7688C144.999 7.70445 152.575 1.38232 157.214 1.38232Z" fill="#6EA06B"/>
<path d="M71.5243 0.0381451C72.0827 0.0361656 72.0827 0.0361656 72.6524 0.034146C73.8892 0.0316191 75.1257 0.0400692 76.3624 0.0485387C77.2532 0.0489747 78.144 0.0487291 79.0348 0.0478552C81.4455 0.047413 83.8561 0.0564784 86.2668 0.0672764C88.7889 0.0769482 91.311 0.0778406 93.8332 0.0796722C98.064 0.0836663 102.295 0.0935635 106.525 0.107365C110.882 0.12156 115.238 0.132484 119.594 0.13904C119.997 0.139649 119.997 0.139649 120.409 0.14027C121.758 0.142286 123.107 0.144238 124.456 0.146158C135.633 0.162148 146.81 0.18945 157.986 0.223885C157.986 0.478738 157.986 0.73359 157.986 0.996166C157.704 1.10337 157.422 1.21058 157.131 1.32103C156.131 1.73725 155.232 2.20445 154.297 2.74888C153.967 2.93961 153.637 3.13035 153.298 3.32686C152.775 3.63061 152.775 3.63061 152.243 3.94048C143.824 8.78309 143.824 8.78309 139.473 10.6666C134.841 12.6748 130.555 15.1351 126.232 17.7354C125.276 18.3058 124.315 18.8638 123.348 19.4147C119.401 21.669 115.707 24.1894 112.036 26.8676C111.427 27.3075 110.818 27.7474 110.209 28.1874C105.106 31.8929 100.138 35.745 95.4875 40.0099C94.7313 40.7027 93.9635 41.3775 93.1873 42.0477C89.398 45.3642 85.8229 48.7781 82.4583 52.5246C81.9402 53.0992 81.4158 53.6681 80.8911 54.2367C78.9771 56.3131 77.1542 58.4407 75.3826 60.6397C74.6938 61.4813 73.9847 62.2886 73.2528 63.0923C70.1274 66.6487 67.6089 70.6611 65.2181 74.7329C64.9678 75.1545 64.9678 75.1545 64.7124 75.5845C64.5672 75.8332 64.4219 76.0819 64.2722 76.3382C63.0312 78.1298 61.9923 78.8133 59.8676 79.3117C59.4027 79.4229 58.9378 79.5341 58.4588 79.6486C57.7181 79.8156 57.7181 79.8156 56.9625 79.9859C56.4526 80.1042 55.9428 80.2227 55.433 80.3414C46.7881 82.3314 38.5645 82.927 29.7155 82.9061C29.2846 82.9057 28.8538 82.9052 28.4099 82.9047C22.5069 82.8971 16.6172 82.8443 10.7218 82.5194C9.66487 82.4697 8.6096 82.4463 7.55164 82.428C7.20965 82.419 6.86766 82.41 6.5153 82.4007C5.88929 82.3844 5.26305 82.3745 4.63683 82.373C3.08494 82.3203 2.43825 82.1414 1.23312 81.1263C0.971798 80.8057 0.710475 80.4852 0.441233 80.1549C0.313807 80.0275 0.18638 79.9 0.0550928 79.7687C-0.238606 76.5651 0.686696 73.9985 1.76859 71.0082C1.94519 70.5104 2.1216 70.0126 2.29784 69.5146C4.54016 63.2262 6.9944 57.0512 10.106 51.1388C10.4818 50.4203 10.847 49.6971 11.2109 48.9726C14.7473 42.0211 19.5884 35.9429 24.5991 30.0049C24.7972 29.7679 24.9953 29.5309 25.1994 29.2868C25.6819 28.7226 26.1883 28.1789 26.6988 27.6398C26.9536 27.6398 27.2085 27.6398 27.471 27.6398C27.5736 27.4114 27.6761 27.1829 27.7818 26.9475C29.2791 24.1827 32.7371 21.2093 35.58 19.917C35.58 19.6622 35.58 19.4073 35.58 19.1448C36.3068 18.5246 37.0341 17.9509 37.8003 17.383C38.0283 17.2115 38.2564 17.0401 38.4913 16.8635C38.9646 16.5078 39.4385 16.1531 39.9131 15.7992C40.5344 15.3325 41.1483 14.856 41.7612 14.3783C44.7107 12.0959 47.8004 10.1895 51.0256 8.33283C51.2746 8.18742 51.5236 8.04201 51.7801 7.8922C55.3949 5.78221 59.0752 3.83993 62.9063 2.14889C63.4838 1.89397 64.059 1.6337 64.6318 1.36831C66.9984 0.331494 68.9555 0.00418596 71.5243 0.0381451Z" fill="#3D7058"/>
<path d="M75.3701 0.0483655C76.1544 0.0488017 76.9386 0.0485557 77.7229 0.0476821C79.8432 0.0472403 81.9634 0.0562986 84.0837 0.0671033C86.3028 0.0767823 88.5219 0.077668 90.741 0.079499C94.9393 0.0842928 99.1375 0.0969585 103.336 0.112475C108.117 0.12976 112.898 0.138237 117.679 0.145985C127.511 0.162113 137.343 0.189268 147.175 0.223712C147.175 0.351139 147.175 0.478565 147.175 0.609852C146.902 0.654184 146.63 0.698516 146.349 0.744191C134.867 2.62856 123.545 4.86629 112.422 8.33265C111.941 8.48173 111.46 8.63081 110.964 8.78441C97.9767 12.837 85.351 18.0107 73.0357 23.7783C72.7926 23.8918 72.5494 24.0054 72.2989 24.1224C65.427 27.3346 58.7194 30.7283 52.1842 34.5902C51.6638 34.8957 51.6638 34.8957 51.1328 35.2075C47.2905 37.4673 43.4906 39.7695 39.8277 42.313C39.5764 42.4861 39.3252 42.6593 39.0663 42.8377C35.5962 45.233 32.2306 47.6884 29.0158 50.4219C28.5897 50.7768 28.1633 51.1312 27.7367 51.4853C25.714 53.1708 23.7325 54.8647 21.9023 56.7616C21.2675 57.3979 20.6033 57.9743 19.9173 58.555C16.3512 61.6424 13.0505 65.0307 10.1266 68.7304C9.29814 69.7593 8.42857 70.7336 7.53673 71.7079C6.17405 73.1992 4.92727 74.7416 3.72661 76.3657C3.14439 77.0656 3.14439 77.0656 1.98596 77.8379C1.70276 79.0216 1.70276 79.0216 1.59982 80.1547C1.09012 80.0273 0.580415 79.8999 0.0552644 79.7686C-0.18959 76.551 0.680805 74.0151 1.76876 71.008C1.94536 70.5102 2.12177 70.0124 2.29801 69.5145C4.54033 63.226 6.99457 57.051 10.1062 51.1386C10.482 50.4201 10.8472 49.697 11.2111 48.9724C14.7475 42.0209 19.5886 35.9427 24.5993 30.0048C24.7974 29.7678 24.9954 29.5308 25.1995 29.2866C25.6821 28.7224 26.1885 28.1788 26.6989 27.6397C26.9538 27.6397 27.2086 27.6397 27.4712 27.6397C27.5737 27.4112 27.6763 27.1827 27.7819 26.9473C29.2793 24.1826 32.7373 21.2091 35.5802 19.9169C35.5802 19.662 35.5802 19.4072 35.5802 19.1446C36.307 18.5244 37.0342 17.9508 37.8005 17.3828C38.0285 17.2114 38.2565 17.0399 38.4915 16.8633C38.9648 16.5077 39.4387 16.1529 39.9133 15.799C40.5346 15.3323 41.1485 14.8558 41.7614 14.3782C44.7109 12.0957 47.8005 10.1893 51.0258 8.33265C51.2748 8.18725 51.5238 8.04184 51.7803 7.89202C55.3958 5.78161 59.076 3.81191 62.9215 2.14876C63.7592 1.78605 63.7592 1.78605 64.4968 1.36778C67.9236 -0.327712 71.6452 0.0193228 75.3701 0.0483655Z" fill="#4D8269"/>
<path d="M159.145 75.1348C159.272 75.1348 159.4 75.1348 159.531 75.1348C159.531 104.061 159.531 132.986 159.531 162.789C151.297 161.291 143.454 158.412 137.135 152.749C136.669 152.378 136.203 152.007 135.735 151.639C135.432 151.368 135.13 151.097 134.818 150.818C134.818 150.563 134.818 150.309 134.818 150.046C134.471 149.903 134.471 149.903 134.118 149.756C133.114 149.182 132.677 148.741 132.115 147.729C131.95 145.945 132.154 145.107 133.273 143.723C134.495 142.084 135.429 140.438 136.314 138.607C137.373 136.417 138.5 134.293 139.717 132.187C140.937 130.063 141.964 127.941 142.862 125.657C143.328 124.525 143.861 123.452 144.423 122.365C149.257 112.794 152.882 102.171 155.283 91.7388C155.425 91.1394 155.567 90.5401 155.709 89.9408C155.903 89.1169 156.097 88.2928 156.287 87.4677C156.7 85.6774 157.162 83.9052 157.648 82.1336C158.278 79.8168 158.77 77.5056 159.145 75.1348Z" fill="#5B9D6D"/>
<path d="M55.273 79.3823C55.273 79.6372 55.273 79.892 55.273 80.1546C47.0306 82.3342 39.1417 82.924 30.6397 82.9079C29.3283 82.9059 28.0169 82.9079 26.7054 82.9104C25.861 82.9101 25.0166 82.9096 24.1721 82.9089C23.7855 82.9097 23.3989 82.9104 23.0005 82.9112C20.6071 82.9034 18.2632 82.7565 15.8867 82.4714C15.8867 82.344 15.8867 82.2166 15.8867 82.0853C16.329 82.0797 16.7714 82.074 17.2271 82.0682C26.243 81.9449 35.1178 81.626 44.0749 80.5407C45.0412 80.429 46.0076 80.3178 46.974 80.2074C48.3276 80.0526 49.681 79.8969 51.0339 79.7355C51.4228 79.6891 51.8118 79.6428 52.2125 79.595C52.5534 79.5538 52.8942 79.5127 53.2453 79.4703C54.1146 79.3823 54.1146 79.3823 55.273 79.3823Z" fill="#4C8169"/>
<path d="M64.5403 199.858C61.4124 201.692 58.2746 203.451 54.9592 204.926C54.6986 205.045 54.438 205.163 54.1696 205.285C52.3257 206.084 52.3257 206.084 51.0254 205.65C62.5637 199.085 62.5637 199.085 64.5403 199.858Z" fill="#6AA46B"/>
<path d="M62.9964 77.8377C62.0217 78.8124 61.2883 78.9148 59.9556 79.2374C59.5504 79.338 59.1452 79.4385 58.7278 79.5421C57.5905 79.7684 57.5905 79.7684 56.0459 79.7684C56.0459 79.5135 56.0459 79.2587 56.0459 78.9961C56.9861 78.7266 57.9273 78.4618 58.8695 78.1997C59.2694 78.0843 59.2694 78.0843 59.6773 77.9666C61.7068 77.4078 61.7068 77.4078 62.9964 77.8377Z" fill="#4B8068"/>
<path d="M83.0749 189.819C83.0749 190.074 83.0749 190.329 83.0749 190.591C82.3197 190.979 81.5633 191.365 80.8063 191.75C80.3852 191.965 79.9641 192.18 79.5303 192.401C78.4412 192.908 78.4412 192.908 77.6689 192.908C77.6689 192.653 77.6689 192.398 77.6689 192.136C78.351 191.747 79.0352 191.361 79.7203 190.977C80.2915 190.655 80.2915 190.655 80.8742 190.326C81.9165 189.819 81.9165 189.819 83.0749 189.819Z" fill="#629C63"/>
<path d="M69.5599 197.155C68.8691 197.543 68.177 197.929 67.4844 198.313C67.0991 198.528 66.7138 198.744 66.3169 198.965C65.3123 199.472 65.3123 199.472 64.54 199.472C64.54 199.217 64.54 198.962 64.54 198.7C65.157 198.365 65.777 198.036 66.3983 197.71C66.7433 197.526 67.0882 197.343 67.4436 197.154C68.4014 196.769 68.4014 196.769 69.5599 197.155Z" fill="#769D77"/>
<path d="M54.8868 203.333C55.1416 203.461 55.3965 203.588 55.6591 203.72C54.5962 204.901 53.7255 205.602 52.1838 206.036C51.8015 205.909 51.4193 205.782 51.0254 205.65C51.6505 205.252 52.2785 204.859 52.9078 204.468C53.2573 204.248 53.6067 204.029 53.9667 203.803C54.4221 203.57 54.4221 203.57 54.8868 203.333Z" fill="#73A072"/>
<path d="M57.2032 202.175C57.458 202.303 57.7129 202.43 57.9754 202.561C57.063 203.537 56.5604 204.063 55.2725 204.492C55.369 203.768 55.369 203.768 55.6586 202.948C56.4067 202.441 56.4067 202.441 57.2032 202.175Z" fill="#6A9D69"/>
<path d="M23.9959 197.155C23.9959 197.538 23.9959 197.92 23.9959 198.314C23.6136 198.505 23.6136 198.505 23.2236 198.7C23.4785 198.19 23.7333 197.68 23.9959 197.155Z" fill="#D9D9D9"/>
<path d="M30.9457 194.838C31.0731 195.221 31.2006 195.603 31.3319 195.997C31.077 195.997 30.8221 195.997 30.5596 195.997C30.687 195.615 30.8144 195.232 30.9457 194.838Z" fill="#EDEDED"/>
</svg>
