<svg width="155" height="134" viewBox="0 0 155 134" fill="none" xmlns="http://www.w3.org/2000/svg">
<path d="M131.555 3.04648C132.091 3.40426 132.628 3.76153 133.165 4.11837C133.721 4.49197 134.278 4.86598 134.834 5.24039C135.105 5.42157 135.377 5.60275 135.657 5.78941C136.316 6.23952 136.957 6.71671 137.594 7.19839C137.594 7.4475 137.594 7.69662 137.594 7.95328C137.843 7.95328 138.092 7.95328 138.349 7.95328C138.349 8.2024 138.349 8.45151 138.349 8.70817C138.652 8.83662 138.652 8.83662 138.962 8.96767C140.169 9.63507 141.1 10.4205 142.123 11.3503C142.123 11.5994 142.123 11.8485 142.123 12.1052C142.372 12.1052 142.621 12.1052 142.878 12.1052C142.878 12.3543 142.878 12.6034 142.878 12.8601C143.127 12.8601 143.376 12.8601 143.632 12.8601C143.632 13.1092 143.632 13.3583 143.632 13.615C143.882 13.615 144.131 13.615 144.387 13.615C144.387 13.8641 144.387 14.1132 144.387 14.3699C144.636 14.3699 144.885 14.3699 145.142 14.3699C145.674 14.8844 145.674 14.8844 146.298 15.6202C146.532 15.8956 146.766 16.1709 147.007 16.4547C147.264 16.7631 147.52 17.0716 147.784 17.3894C148.06 17.7213 148.336 18.0531 148.62 18.395C149.48 19.4389 150.335 20.4856 151.181 21.5414C151.397 21.7252 151.613 21.9091 151.836 22.0985C154.146 24.3507 154.122 26.7367 154.163 29.7753C154.164 30.9759 154.153 32.176 154.141 33.3765C154.142 34.2417 154.144 35.1069 154.147 35.9721C154.153 38.3174 154.142 40.6623 154.128 43.0075C154.116 45.4666 154.117 47.9258 154.117 50.3849C154.115 54.5168 154.103 58.6485 154.084 62.7803C154.065 67.0206 154.054 71.2608 154.053 75.5011C154.053 75.7619 154.053 76.0228 154.053 76.2915C154.053 76.552 154.053 76.8124 154.053 77.0807C154.053 77.6052 154.053 78.1297 154.053 78.6542C154.053 79.0423 154.053 79.0423 154.053 79.4382C154.051 83.738 154.04 88.0377 154.029 92.3374C154.026 93.7971 154.025 95.2569 154.023 96.7166C154.021 99.0186 154.012 101.32 153.999 103.622C153.995 104.463 153.993 105.305 153.993 106.146C153.991 114.435 153.198 121.974 147.423 128.429C143.899 131.882 139.341 133.315 134.499 133.331C134.189 133.334 133.878 133.336 133.559 133.339C132.52 133.346 131.481 133.351 130.442 133.356C129.697 133.361 128.952 133.366 128.206 133.371C121.399 133.415 114.591 133.436 107.783 133.453C102.755 133.465 97.7283 133.488 92.701 133.524C89.161 133.548 85.621 133.561 82.0809 133.565C79.9695 133.568 77.8584 133.576 75.747 133.596C73.7571 133.615 71.7677 133.62 69.7778 133.614C69.0518 133.614 68.3258 133.619 67.5998 133.631C62.9382 133.698 59.637 133.049 55.6207 130.639C54.4453 129.962 53.2176 129.405 51.9898 128.831C48.7136 127.223 45.6797 125.251 42.6212 123.268C41.7313 122.699 40.8337 122.144 39.9315 121.594C39.5089 121.336 39.5089 121.336 39.0779 121.072C38.5439 120.746 38.0087 120.423 37.4723 120.101C36.8654 119.728 36.2755 119.328 35.6899 118.923C35.6899 118.673 35.6899 118.424 35.6899 118.168C35.4471 118.09 35.2044 118.012 34.9542 117.932C33.3224 117.196 31.9321 116.183 30.4768 115.148C30.0305 114.839 30.0305 114.839 29.5752 114.523C29.2943 114.324 29.0133 114.126 28.7238 113.921C28.467 113.74 28.2103 113.559 27.9457 113.373C27.7612 113.211 27.5767 113.05 27.3866 112.883C27.3866 112.634 27.3866 112.385 27.3866 112.129C27.0779 111.994 27.0779 111.994 26.763 111.857C25.6493 111.249 24.7496 110.49 23.7775 109.675C22.7334 108.802 21.7258 107.977 20.5931 107.222C20.5931 106.973 20.5931 106.723 20.5931 106.467C20.344 106.467 20.0949 106.467 19.8382 106.467C19.8382 106.218 19.8382 105.969 19.8382 105.712C19.616 105.612 19.3938 105.512 19.1648 105.41C18.2981 104.941 17.7215 104.447 17.0252 103.754C16.7917 103.521 16.5582 103.289 16.3176 103.049C16.0782 102.807 15.8388 102.565 15.5922 102.315C15.347 102.073 15.1018 101.83 14.8492 101.581C14.6176 101.348 14.386 101.116 14.1474 100.876C13.9356 100.663 13.7239 100.451 13.5057 100.232C13.0446 99.6728 13.0446 99.6728 13.0446 98.9179C12.7955 98.9179 12.5464 98.9179 12.2898 98.9179C11.7472 98.2706 11.7472 98.2706 11.1575 97.4317C10.3845 96.2809 10.3845 96.2809 9.27041 95.5209C9.27041 95.2717 9.27041 95.0226 9.27041 94.766C9.02132 94.766 8.77222 94.766 8.51557 94.766C8.51557 94.5169 8.51557 94.2677 8.51557 94.0111C8.26647 94.0111 8.01737 94.0111 7.76073 94.0111C7.76073 93.762 7.76073 93.5128 7.76073 93.2562C7.51163 93.2562 7.26253 93.2562 7.00589 93.2562C7.00589 93.0071 7.00589 92.7579 7.00589 92.5013C6.75679 92.5013 6.50769 92.5013 6.25104 92.5013C6.25104 92.2522 6.25104 92.0031 6.25104 91.7464C6.00194 91.7464 5.75285 91.7464 5.4962 91.7464C3.24045 89.6155 0.45233 86.606 0 83.4898C0.315046 81.7394 0.315046 81.7394 0.967142 80.8004C1.836 80.324 2.64844 79.9414 3.56191 79.5737C3.82816 79.4623 4.09441 79.3509 4.36873 79.2361C5.24565 78.8714 6.12559 78.5148 7.00589 78.1583C7.6104 77.9088 8.21487 77.6591 8.81928 77.4093C21.002 72.4164 33.3479 68.7222 46.6351 68.7222C46.4576 68.2843 46.28 67.8464 46.097 67.3952C43.1973 60.1602 42.4001 53.5672 42.4127 45.8159C42.4131 45.5339 42.4134 45.2519 42.4138 44.9614C42.4331 37.85 43.2789 31.3312 44.8999 24.4057C45.1232 23.4382 45.3312 22.4682 45.5382 21.4971C45.8803 20.0316 45.8803 20.0316 46.2577 19.6541C49.2181 19.4093 52.0273 19.8477 54.9148 20.4562C55.325 20.5409 55.7352 20.6256 56.1578 20.7129C59.9779 21.5267 63.6902 22.5703 67.3933 23.806C67.6897 23.9022 67.9861 23.9983 68.2915 24.0974C76.8523 26.9014 83.8998 31.4131 90.4573 37.515C91.1337 38.1713 91.1337 38.1713 91.9257 38.5264C91.9257 38.7756 91.9257 39.0247 91.9257 39.2813C92.1748 39.2813 92.4239 39.2813 92.6805 39.2813C92.6805 39.5304 92.6805 39.7796 92.6805 40.0362C92.9296 40.0362 93.1787 40.0362 93.4354 40.0362C93.4354 40.2853 93.4354 40.5345 93.4354 40.7911C93.6845 40.7911 93.9336 40.7911 94.1902 40.7911C94.1902 41.0402 94.1902 41.2893 94.1902 41.546C94.4393 41.546 94.6884 41.546 94.9451 41.546C95.5834 42.1667 95.5834 42.1667 96.2896 42.985C96.5237 43.2521 96.7577 43.5193 96.9988 43.7945C97.587 44.5656 97.587 44.5656 97.9644 45.6979C98.2135 45.6979 98.4626 45.6979 98.7193 45.6979C99.3577 46.3452 99.3577 46.3452 100.064 47.1841C100.298 47.46 100.532 47.7359 100.773 48.0201C101.064 48.3653 101.064 48.3653 101.361 48.7175C101.486 48.8421 101.61 48.9666 101.739 49.0949C101.842 48.6768 101.842 48.6768 101.947 48.2501C102.041 47.8672 102.136 47.4843 102.234 47.0898C102.326 46.7175 102.418 46.3453 102.513 45.9618C102.631 45.5011 102.749 45.0403 102.871 44.5656C102.947 44.2677 103.023 43.9699 103.101 43.663C103.852 40.8069 104.792 38.032 105.772 35.2474C106.008 34.5734 106.008 34.5734 106.248 33.8858C106.631 32.7901 107.015 31.6949 107.4 30.6001C107.649 30.6001 107.898 30.6001 108.155 30.6001C108.217 30.2651 108.217 30.2651 108.28 29.9233C108.633 28.1654 109.024 26.8206 110.042 25.3158C110.166 24.9421 110.291 24.5685 110.419 24.1835C110.668 24.1835 110.918 24.1835 111.174 24.1835C111.229 23.8254 111.283 23.4673 111.339 23.0983C111.552 21.9188 111.552 21.9188 111.929 21.1639C112.178 21.1639 112.427 21.1639 112.684 21.1639C112.734 20.9274 112.784 20.691 112.836 20.4473C112.902 20.1389 112.969 19.8304 113.038 19.5126C113.136 19.0528 113.136 19.0528 113.237 18.5837C113.439 17.7669 113.439 17.7669 113.816 17.012C114.065 17.012 114.314 17.012 114.571 17.012C114.696 16.2647 114.82 15.5173 114.948 14.7473C115.198 14.7473 115.447 14.7473 115.703 14.7473C115.828 14.1245 115.952 13.5017 116.081 12.8601C116.33 12.8601 116.579 12.8601 116.836 12.8601C116.878 12.5862 116.92 12.3122 116.964 12.03C117.224 10.9254 117.611 10.1338 118.18 9.15639C118.352 8.85814 118.524 8.55988 118.701 8.25258C118.832 8.02926 118.964 7.80593 119.1 7.57584C119.349 7.57584 119.598 7.57584 119.855 7.57584C119.894 7.31115 119.933 7.04647 119.973 6.77376C120.268 5.54088 120.768 4.53845 121.365 3.42392C121.614 3.42392 121.863 3.42392 122.119 3.42392C122.236 3.06582 122.353 2.70772 122.473 2.33877C122.874 1.15925 122.874 1.15925 123.252 0.404353C126.42 -0.936182 129.081 1.34449 131.555 3.04648Z" fill="#417B51"/>
<path d="M131.555 3.04648C132.091 3.40426 132.628 3.76153 133.165 4.11837C133.722 4.49197 134.278 4.86598 134.834 5.24039C135.242 5.51216 135.242 5.51216 135.657 5.78941C136.317 6.23952 136.957 6.71671 137.594 7.19839C137.594 7.4475 137.594 7.69662 137.594 7.95328C137.843 7.95328 138.092 7.95328 138.349 7.95328C138.349 8.2024 138.349 8.45151 138.349 8.70817C138.551 8.79381 138.754 8.87944 138.962 8.96767C140.17 9.63507 141.1 10.4205 142.123 11.3503C142.123 11.5994 142.123 11.8485 142.123 12.1052C142.372 12.1052 142.621 12.1052 142.878 12.1052C142.878 12.3543 142.878 12.6034 142.878 12.8601C143.127 12.8601 143.376 12.8601 143.633 12.8601C143.633 13.1092 143.633 13.3583 143.633 13.615C143.882 13.615 144.131 13.615 144.387 13.615C144.387 13.8641 144.387 14.1132 144.387 14.3699C144.637 14.3699 144.886 14.3699 145.142 14.3699C145.675 14.8844 145.675 14.8844 146.298 15.6202C146.532 15.8956 146.766 16.1709 147.007 16.4547C147.264 16.7631 147.52 17.0716 147.784 17.3894C148.06 17.7213 148.336 18.0531 148.62 18.395C149.48 19.4389 150.335 20.4856 151.181 21.5414C151.397 21.7252 151.614 21.9091 151.837 22.0985C154.147 24.3507 154.123 26.7367 154.163 29.7753C154.164 30.9759 154.153 32.176 154.141 33.3765C154.142 34.2417 154.144 35.1069 154.148 35.9721C154.153 38.3174 154.142 40.6623 154.128 43.0075C154.116 45.4666 154.118 47.9258 154.118 50.3849C154.116 54.5168 154.103 58.6485 154.085 62.7803C154.065 67.0206 154.054 71.2608 154.054 75.5011C154.054 75.7619 154.053 76.0228 154.053 76.2915C154.053 76.552 154.053 76.8124 154.053 77.0807C154.053 77.6052 154.053 78.1297 154.053 78.6542C154.053 78.9129 154.053 79.1717 154.053 79.4382C154.051 83.738 154.04 88.0377 154.03 92.3374C154.026 93.7971 154.025 95.2569 154.024 96.7166C154.021 99.0186 154.012 101.32 153.999 103.622C153.996 104.463 153.994 105.305 153.994 106.146C153.991 114.373 153.259 122.11 147.383 128.443C145.432 130.307 143.237 131.783 140.613 132.511C139.284 132.383 138.726 132.133 137.594 131.378C137.594 131.129 137.594 130.88 137.594 130.623C137.345 130.623 137.096 130.623 136.839 130.623C136.839 130.374 136.839 130.125 136.839 129.868C136.621 129.767 136.403 129.666 136.179 129.562C135.308 129.103 134.567 128.622 133.82 127.981C133.82 127.732 133.82 127.483 133.82 127.226C133.571 127.226 133.322 127.226 133.065 127.226C132.466 126.619 132.466 126.619 131.791 125.811C131.05 124.936 130.325 124.112 129.503 123.31C128.913 122.697 128.913 122.697 128.913 121.942C128.54 121.818 128.166 121.693 127.781 121.565C127.781 121.316 127.781 121.066 127.781 120.81C127.532 120.81 127.283 120.81 127.026 120.81C127.026 120.561 127.026 120.312 127.026 120.055C126.652 119.93 126.279 119.806 125.894 119.677C125.894 119.428 125.894 119.179 125.894 118.923C125.645 118.923 125.396 118.923 125.139 118.923C123.629 117.235 123.629 117.235 123.629 116.28C123.256 116.156 122.882 116.031 122.497 115.903C122.115 115.277 121.738 114.647 121.365 114.016C121.082 113.743 120.799 113.47 120.508 113.189C119.313 111.959 118.408 110.656 117.473 109.227C117.301 108.972 117.13 108.716 116.953 108.454C115.703 106.565 115.703 106.565 115.703 105.712C115.454 105.712 115.205 105.712 114.949 105.712C114.446 104.966 114.446 104.966 113.887 103.966C113.213 102.793 112.571 101.745 111.646 100.758C110.573 99.387 110.364 98.3496 110.042 96.6532C109.793 96.6532 109.544 96.6532 109.287 96.6532C107.695 93.3275 106.391 89.9247 105.136 86.4621C105.014 86.1381 104.892 85.8141 104.767 85.4802C104.076 83.5598 103.731 81.6455 103.424 79.6298C103.275 78.7 103.091 77.7994 102.871 76.8844C101.852 72.3866 101.624 68.0238 101.668 63.4379C101.671 62.8527 101.675 62.2675 101.678 61.6823C101.7 58.4612 101.741 55.2393 101.857 52.0202C101.865 51.7229 101.874 51.4256 101.882 51.1193C102.124 45.9328 103.667 41.1285 105.395 36.2854C105.59 35.7294 105.785 35.1733 105.98 34.6171C106.449 33.2766 106.923 31.9379 107.4 30.6001C107.649 30.6001 107.898 30.6001 108.155 30.6001C108.196 30.3767 108.238 30.1534 108.28 29.9233C108.633 28.1654 109.024 26.8206 110.042 25.3158C110.229 24.7553 110.229 24.7553 110.42 24.1835C110.669 24.1835 110.918 24.1835 111.174 24.1835C111.229 23.8254 111.283 23.4673 111.34 23.0983C111.552 21.9188 111.552 21.9188 111.929 21.1639C112.178 21.1639 112.427 21.1639 112.684 21.1639C112.759 20.8092 112.759 20.8092 112.836 20.4473C112.903 20.1389 112.969 19.8304 113.038 19.5126C113.136 19.0528 113.136 19.0528 113.237 18.5837C113.439 17.7669 113.439 17.7669 113.816 17.012C114.065 17.012 114.315 17.012 114.571 17.012C114.696 16.2647 114.82 15.5173 114.949 14.7473C115.198 14.7473 115.447 14.7473 115.703 14.7473C115.828 14.1245 115.953 13.5017 116.081 12.8601C116.33 12.8601 116.579 12.8601 116.836 12.8601C116.878 12.5862 116.92 12.3122 116.964 12.03C117.224 10.9254 117.611 10.1338 118.18 9.15639C118.352 8.85814 118.524 8.55988 118.701 8.25258C118.899 7.91759 118.899 7.91759 119.1 7.57584C119.349 7.57584 119.598 7.57584 119.855 7.57584C119.894 7.31115 119.933 7.04647 119.973 6.77376C120.268 5.54088 120.769 4.53845 121.365 3.42392C121.614 3.42392 121.863 3.42392 122.12 3.42392C122.236 3.06582 122.353 2.70772 122.473 2.33877C122.874 1.15925 122.874 1.15925 123.252 0.404353C126.42 -0.936182 129.081 1.34449 131.555 3.04648Z" fill="#3D694A"/>
<path d="M48.076 19.5806C50.4225 19.604 52.6242 19.9736 54.9153 20.4564C55.3255 20.5411 55.7357 20.6258 56.1583 20.7131C59.9784 21.5268 63.6906 22.5705 67.3938 23.8062C67.6902 23.9024 67.9866 23.9985 68.292 24.0976C76.8527 26.9015 83.9003 31.4133 90.4578 37.5152C91.1342 38.1714 91.1342 38.1714 91.9262 38.5266C91.9262 38.7757 91.9262 39.0248 91.9262 39.2815C92.1753 39.2815 92.4244 39.2815 92.681 39.2815C92.681 39.5306 92.681 39.7797 92.681 40.0364C92.9301 40.0364 93.1792 40.0364 93.4358 40.0364C93.4358 40.2855 93.4358 40.5346 93.4358 40.7913C93.6849 40.7913 93.934 40.7913 94.1907 40.7913C94.1907 41.0404 94.1907 41.2895 94.1907 41.5462C94.4398 41.5462 94.6889 41.5462 94.9455 41.5462C95.5839 42.1669 95.5839 42.1669 96.2901 42.9852C96.5241 43.2523 96.7581 43.5194 96.9992 43.7946C97.5875 44.5658 97.5875 44.5658 97.9649 45.6981C98.214 45.6981 98.4631 45.6981 98.7197 45.6981C99.3448 46.3321 99.3448 46.3321 100.041 47.1607C100.716 47.9591 101.377 48.7328 102.117 49.4726C102.2 50.2838 102.2 50.2838 102.184 51.3035C102.179 51.8771 102.179 51.8771 102.173 52.4623C102.166 52.8794 102.158 53.2965 102.15 53.7262C102.143 54.6165 102.135 55.5068 102.128 56.3971C102.111 57.7948 102.093 59.1924 102.073 60.59C101.971 67.9891 102.338 74.9716 104.378 82.1113C104.806 83.6093 105.187 85.1152 105.561 86.6274C105.663 87.0416 105.663 87.0416 105.768 87.4642C105.935 88.1366 106.102 88.8092 106.268 89.4819C102.25 87.1834 102.25 87.1834 100.439 85.9964C90.9463 79.7978 79.9903 74.6315 68.9035 72.1193C68.5727 72.0408 68.2419 71.9622 67.9011 71.8812C64.0034 70.9672 60.1439 70.2421 56.1478 69.9682C55.7244 69.9376 55.7244 69.9376 55.2924 69.9064C53.8934 69.8074 52.4967 69.7261 51.0953 69.6716C47.4157 69.4763 47.4157 69.4763 46.3573 68.4866C45.9408 67.6866 45.712 66.9562 45.5033 66.0802C45.3286 65.6033 45.1509 65.1275 44.9696 64.653C44.5107 63.2436 44.0571 61.8336 43.6162 60.4185C43.5257 60.1378 43.4352 59.857 43.342 59.5678C42.0882 55.2355 42.4059 50.2973 42.4132 45.816C42.4135 45.5341 42.4139 45.2521 42.4143 44.9616C42.4335 37.8502 43.2793 31.3313 44.9003 24.4059C45.1237 23.4384 45.3317 22.4684 45.5387 21.4973C46.0071 19.4903 46.1476 19.5968 48.076 19.5806Z" fill="#4C7F61"/>
<path d="M131.555 3.04654C132.091 3.40433 132.628 3.76159 133.165 4.11843C133.721 4.49204 134.278 4.86604 134.834 5.24045C135.105 5.42163 135.377 5.60281 135.657 5.78948C136.316 6.23958 136.957 6.71677 137.593 7.19845C137.593 7.44757 137.593 7.69668 137.593 7.95335C137.843 7.95335 138.092 7.95335 138.348 7.95335C138.348 8.20246 138.348 8.45158 138.348 8.70824C138.551 8.79387 138.753 8.87951 138.962 8.96773C140.169 9.63513 141.1 10.4206 142.123 11.3504C142.123 11.5995 142.123 11.8486 142.123 12.1053C142.372 12.1053 142.621 12.1053 142.877 12.1053C142.877 12.3544 142.877 12.6035 142.877 12.8601C143.126 12.8601 143.376 12.8601 143.632 12.8601C143.632 13.1093 143.632 13.3584 143.632 13.615C143.881 13.615 144.13 13.615 144.387 13.615C144.387 13.8642 144.387 14.1133 144.387 14.3699C144.636 14.3699 144.885 14.3699 145.142 14.3699C145.674 14.8845 145.674 14.8845 146.298 15.6202C146.532 15.8956 146.766 16.171 147.007 16.4547C147.263 16.7632 147.52 17.0717 147.784 17.3895C148.06 17.7213 148.336 18.0532 148.62 18.395C149.48 19.439 150.335 20.4857 151.181 21.5414C151.397 21.7253 151.613 21.9091 151.836 22.0986C154.146 24.3508 154.122 26.7368 154.162 29.7754C154.164 30.976 154.152 32.1761 154.14 33.3766C154.142 34.2418 154.144 35.107 154.147 35.9722C154.153 38.3174 154.142 40.6623 154.128 43.0075C154.115 45.4667 154.117 47.9258 154.117 50.385C154.115 54.5169 154.103 58.6486 154.084 62.7804C154.065 67.0207 154.054 71.2608 154.053 75.5011C154.053 75.762 154.053 76.0229 154.053 76.2916C154.053 76.552 154.053 76.8125 154.053 77.0808C154.053 77.6053 154.053 78.1298 154.052 78.6543C154.052 78.913 154.052 79.1717 154.052 79.4383C154.051 83.738 154.04 88.0377 154.029 92.3374C154.026 93.7972 154.024 95.257 154.023 96.7167C154.02 99.0186 154.012 101.32 153.999 103.622C153.995 104.464 153.993 105.305 153.993 106.146C153.991 114.349 153.284 122.18 147.356 128.456C145.566 130.146 143.215 132.133 140.613 132.133C140.61 131.804 140.607 131.475 140.604 131.137C140.301 99.149 138.943 68.064 132.021 36.7218C131.354 33.6924 130.709 30.6587 130.077 27.6218C128.105 14.1661 128.105 14.1661 123.629 1.53676C123.38 1.4122 123.131 1.28764 122.874 1.15931C123.251 0.404417 123.251 0.404417 123.865 0.144923C127.069 -0.276694 129.007 1.29383 131.555 3.04654Z" fill="#2E5639"/>
<path d="M63.2418 70.6097C63.589 70.6774 63.9363 70.7451 64.2941 70.8149C78.0236 73.536 91.2322 79.3018 102.855 87.0986C103.623 87.6064 103.623 87.6064 104.45 88.0446C106.459 89.1595 107.232 90.1661 107.943 92.3365C108.079 92.7098 108.079 92.7098 108.219 93.0907C108.642 94.2623 109.018 95.4371 109.287 96.6535C109.536 96.6535 109.785 96.6535 110.042 96.6535C110.134 96.8769 110.225 97.1002 110.319 97.3303C111.064 99.0871 111.822 100.473 113.061 101.938C114.949 104.717 114.949 104.717 114.949 105.712C115.198 105.712 115.447 105.712 115.703 105.712C116.274 106.44 116.274 106.44 116.933 107.446C117.169 107.804 117.405 108.161 117.648 108.53C117.894 108.908 118.139 109.286 118.392 109.675C118.641 110.054 118.89 110.432 119.146 110.821C119.762 111.759 120.376 112.698 120.987 113.639C119.855 114.016 119.855 114.016 118.755 113.482C118.287 113.207 117.82 112.929 117.355 112.648C116.804 112.329 116.253 112.011 115.702 111.694C115.4 111.52 115.098 111.347 114.786 111.168C96.011 100.547 75.0645 92.6413 54.1218 87.5786C53.3532 87.3869 52.5852 87.1916 51.8246 86.9703C48.7319 86.0763 45.5979 85.4885 42.434 84.9123C41.502 84.7421 40.5709 84.5678 39.6397 84.3932C34.2334 83.3918 28.8323 82.6273 23.3295 82.4521C22.9236 82.4378 22.5177 82.4235 22.0995 82.4087C14.9337 82.1937 7.75782 82.2799 0.589844 82.3106C0.710276 81.5944 0.710276 81.5944 0.967265 80.8008C1.83081 80.3113 2.62272 79.9382 3.53845 79.5741C3.8064 79.4627 4.07435 79.3513 4.35042 79.2365C5.23339 78.8715 6.1196 78.5152 7.00601 78.1587C7.61111 77.9094 8.21606 77.6597 8.82087 77.4097C26.6487 70.0981 44.0391 66.8255 63.2418 70.6097Z" fill="#5B9D6D"/>
<path d="M46.2582 19.6538C47.8667 19.7687 48.6102 20.7816 49.655 21.9185C50.1436 22.651 50.6057 23.4017 51.0438 24.1655C51.1681 24.38 51.2924 24.5946 51.4204 24.8157C51.6867 25.276 51.9516 25.7371 52.2154 26.1989C52.7785 27.1845 53.3484 28.1662 53.9178 29.1481C54.2101 29.6523 54.502 30.1567 54.7937 30.6612C63.2922 45.3601 72.2123 59.8738 83.4677 72.6432C84.1343 73.4041 84.7854 74.1779 85.4392 74.9497C86.5312 76.2029 87.7407 77.272 89.0203 78.3305C89.6616 78.9129 89.6616 78.9129 90.4165 80.0452C88.1677 79.3644 86.0516 78.3975 83.906 77.4503C75.0413 73.545 65.8802 70.6348 56.1478 69.9677C55.7244 69.9371 55.7244 69.9371 55.2924 69.9059C53.8934 69.807 52.4967 69.7256 51.0953 69.6712C47.4157 69.4759 47.4157 69.4759 46.3573 68.4861C45.9408 67.6861 45.712 66.9558 45.5033 66.0797C45.3286 65.6028 45.1509 65.127 44.9696 64.6525C44.5107 63.2431 44.0571 61.8331 43.6162 60.418C43.5257 60.1373 43.4352 59.8565 43.342 59.5673C42.0882 55.235 42.4059 50.2969 42.4132 45.8156C42.4135 45.5336 42.4139 45.2516 42.4143 44.9611C42.4335 37.8497 43.2793 31.3309 44.9003 24.4054C45.1237 23.4379 45.3317 22.4679 45.5387 21.4968C45.8808 20.0313 45.8808 20.0313 46.2582 19.6538Z" fill="#30553F"/>
<path d="M11.1572 96.6533C12.958 97.7647 14.3635 99.0254 15.8278 100.546C17.3601 102.107 18.8977 103.621 20.5677 105.037C21.3639 105.726 22.1324 106.441 22.9008 107.161C26.5536 110.573 30.4839 113.601 34.5898 116.447C34.8282 116.641 35.0666 116.835 35.3122 117.035C35.3122 117.285 35.3122 117.534 35.3122 117.79C33.403 117.424 32.0549 116.282 30.5001 115.172C30.2009 114.964 29.9017 114.756 29.5934 114.541C29.1694 114.241 29.1694 114.241 28.7368 113.935C28.348 113.66 28.348 113.66 27.9514 113.379C27.6717 113.134 27.6717 113.134 27.3863 112.884C27.3863 112.634 27.3863 112.385 27.3863 112.129C27.1805 112.039 26.9748 111.95 26.7627 111.857C25.649 111.249 24.7493 110.49 23.7773 109.675C22.7331 108.802 21.7255 107.977 20.5928 107.222C20.5928 106.973 20.5928 106.724 20.5928 106.467C20.3437 106.467 20.0946 106.467 19.8379 106.467C19.8379 106.218 19.8379 105.969 19.8379 105.712C19.6157 105.612 19.3935 105.513 19.1645 105.41C18.2978 104.941 17.7212 104.448 17.025 103.754C16.7914 103.521 16.5579 103.289 16.3173 103.049C15.9582 102.686 15.9582 102.686 15.5919 102.315C15.3467 102.073 15.1015 101.83 14.8489 101.581C14.6173 101.348 14.3857 101.116 14.1471 100.876C13.8295 100.557 13.8295 100.557 13.5054 100.232C13.0443 99.6729 13.0443 99.6729 13.0443 98.918C12.7952 98.918 12.5461 98.918 12.2895 98.918C11.1572 97.6115 11.1572 97.6115 11.1572 96.6533Z" fill="#5A9C6B"/>
<path d="M151.937 23.4287C153.069 23.8062 153.069 23.8062 153.824 24.9385C153.871 25.9529 153.871 25.9529 153.824 26.8257C152.152 24.8846 152.152 24.8846 151.937 23.4287Z" fill="#3A6648"/>
</svg>
