<svg width="191" height="117" viewBox="0 0 191 117" fill="none" xmlns="http://www.w3.org/2000/svg">
<path d="M162.194 116.343C161.764 116.343 161.334 116.344 160.891 116.344C159.721 116.345 158.552 116.328 157.383 116.307C156.157 116.288 154.931 116.286 153.705 116.283C151.388 116.273 149.072 116.249 146.755 116.219C144.116 116.186 141.476 116.169 138.837 116.154C133.411 116.123 127.986 116.07 122.561 116.004C122.561 114.802 122.561 113.6 122.561 112.361C122.465 112.619 122.368 112.877 122.269 113.143C121.652 114.341 121.056 115.283 119.911 116.004C117.301 116.75 114.405 116.474 111.72 116.434C110.873 116.434 110.026 116.437 109.179 116.44C107.119 116.445 105.06 116.433 103 116.413C100.602 116.391 98.2038 116.389 95.8053 116.387C91.5272 116.384 87.2494 116.364 82.9713 116.334C78.8192 116.305 74.6672 116.286 70.515 116.279C70.131 116.279 70.131 116.279 69.7393 116.278C68.7103 116.277 67.6814 116.275 66.6525 116.274C62.6955 116.267 58.7386 116.253 54.7816 116.238C53.586 116.233 52.3904 116.229 51.1948 116.225C48.4693 116.217 45.7439 116.204 43.0184 116.183C42.1915 116.178 41.3645 116.174 40.5375 116.172C39.4124 116.169 38.2874 116.159 37.1623 116.148C36.8319 116.149 36.5015 116.149 36.1611 116.15C35.7106 116.143 35.7106 116.143 35.251 116.137C34.8613 116.134 34.8613 116.134 34.4638 116.132C33.6156 115.971 33.3686 115.64 32.7975 115.011C31.9742 114.585 31.152 114.182 30.3133 113.789C27.9492 112.649 25.9195 111.339 23.8543 109.711C23.6032 109.535 23.3522 109.36 23.0935 109.179C22.9073 109.027 22.7212 108.874 22.5294 108.717C22.5294 108.499 22.5294 108.28 22.5294 108.055C22.3344 107.967 22.1393 107.88 21.9384 107.79C21.1777 107.378 20.6717 106.945 20.0607 106.336C19.7533 106.03 19.7533 106.03 19.4396 105.718C19.2295 105.505 19.0195 105.293 18.803 105.074C18.5878 104.861 18.3726 104.648 18.1509 104.429C17.9477 104.225 17.7444 104.021 17.535 103.811C17.3492 103.624 17.1634 103.438 16.9719 103.245C16.5672 102.755 16.5672 102.755 16.5672 102.093C16.3486 102.093 16.13 102.093 15.9048 102.093C15.4962 101.628 15.4962 101.628 15.0405 100.977C14.8722 100.738 14.704 100.499 14.5307 100.253C14.3556 99.999 14.1806 99.7454 14.0002 99.4841C13.8303 99.2433 13.6603 99.0025 13.4852 98.7544C11.2297 95.524 9.44026 92.2017 7.81033 88.6155C7.62009 88.1998 7.42966 87.7842 7.23909 87.3686C6.86874 86.561 6.49905 85.7532 6.12976 84.9451C5.62944 83.8591 5.11435 82.7815 4.5928 81.7056C1.52296 75.3247 -0.106827 68.1101 0.00572205 61.0196C5.11894 59.2149 10.5426 59.1843 15.9048 59.0322C16.1406 59.0245 16.3764 59.0167 16.6193 59.0088C31.0832 58.5694 45.5812 62.9869 56.3067 72.8855C56.9654 73.5122 57.6154 74.1461 58.2608 74.7865C58.4641 74.9879 58.6673 75.1893 58.8767 75.3968C60.2896 76.8335 60.2896 76.8335 60.2896 77.5813C60.5082 77.5813 60.7268 77.5813 60.9521 77.5813C61.0614 77.7999 61.1707 78.0185 61.2833 78.2437C61.8892 77.6379 61.7889 76.7635 61.8956 75.9491C62.7392 69.5458 64.3057 63.3427 66.5734 57.2994C66.9599 56.2594 67.3325 55.2149 67.7048 54.1698C69.1959 50.0162 70.7657 46.0164 72.8763 42.1393C73.0454 41.8092 73.2145 41.4792 73.3887 41.1391C74.421 39.155 75.6261 37.3719 76.9714 35.5858C77.5189 34.8889 77.5189 34.8889 77.8448 34.1897C78.0634 34.1897 78.282 34.1897 78.5073 34.1897C78.5927 34.0022 78.678 33.8148 78.766 33.6217C79.2123 32.7849 79.7375 32.0941 80.329 31.3535C80.9729 30.5446 81.5766 29.7512 82.1508 28.8899C82.3694 28.8899 82.588 28.8899 82.8132 28.8899C82.8132 28.6713 82.8132 28.4527 82.8132 28.2275C83.0319 28.2275 83.2505 28.2275 83.4757 28.2275C83.4757 28.0089 83.4757 27.7902 83.4757 27.565C83.6943 27.565 83.9129 27.565 84.1382 27.565C84.2406 27.3011 84.2406 27.3011 84.3452 27.0319C84.9926 25.9063 85.8676 25.0773 86.788 24.1699C86.969 23.9863 87.1501 23.8027 87.3366 23.6135C88.6915 22.2653 88.6915 22.2653 89.4379 22.2653C89.4379 22.0467 89.4379 21.828 89.4379 21.6028C89.6565 21.6028 89.8751 21.6028 90.1003 21.6028C90.1003 21.3842 90.1003 21.1656 90.1003 20.9403C90.3189 20.9403 90.5375 20.9403 90.7628 20.9403C90.7628 20.7217 90.7628 20.5031 90.7628 20.2779C91.9093 19.2842 91.9093 19.2842 92.7502 19.2842C92.7502 19.0656 92.7502 18.8469 92.7502 18.6217C93.2858 18.1313 93.2858 18.1313 94.0337 17.5659C94.2719 17.3836 94.5102 17.2012 94.7556 17.0134C99.696 13.4162 104.79 9.95461 110.321 7.33129C111.253 6.88875 112.16 6.41585 113.064 5.91837C116.069 4.26679 119.116 2.81933 122.292 1.52177C122.64 1.37665 122.988 1.23153 123.347 1.08201C125.261 0.320358 126.791 -0.19825 128.854 0.0726166C130.175 0.719421 130.628 1.76064 131.256 3.05372C131.428 3.40214 131.601 3.75056 131.778 4.10953C132.167 5.04112 132.167 5.04112 132.167 6.03482C132.385 6.03482 132.604 6.03482 132.829 6.03482C134.415 8.62386 135.304 11.0701 135.955 14.0258C136.05 14.4377 136.144 14.8495 136.242 15.2739C136.495 16.3799 136.74 17.4875 136.983 18.5958C137.136 19.2904 137.292 19.9845 137.448 20.6785C138.698 26.2547 139.831 31.8137 140.447 37.502C140.477 37.7483 140.506 37.9945 140.536 38.2482C140.828 40.8558 140.909 43.4724 140.986 46.0934C140.997 46.4625 140.997 46.4625 141.008 46.839C141.191 53.2819 141.029 59.686 140.249 66.089C140.143 67.0656 140.087 67.9894 140.116 68.9692C140.266 68.7506 140.417 68.532 140.571 68.3067C140.749 68.0881 140.927 67.8695 141.11 67.6443C141.328 67.6443 141.547 67.6443 141.772 67.6443C141.772 67.4257 141.772 67.2071 141.772 66.9818C141.991 66.9818 142.209 66.9818 142.435 66.9818C142.435 66.7632 142.435 66.5446 142.435 66.3193C144.249 64.6632 144.249 64.6632 145.085 64.6632C145.085 64.4446 145.085 64.2259 145.085 64.0007C146.231 63.007 146.231 63.007 147.072 63.007C147.072 62.7884 147.072 62.5698 147.072 62.3445C147.674 61.8712 148.301 61.4282 148.935 60.9989C149.129 60.8676 149.322 60.7364 149.522 60.6011C150.138 60.1853 150.758 59.7738 151.378 59.3634C151.571 59.2353 151.764 59.1073 151.962 58.9753C153.114 58.2131 154.275 57.4674 155.448 56.7364C155.979 56.405 156.507 56.0697 157.036 55.7341C164.088 51.4645 175.701 46.011 184.17 46.4453C184.17 46.2267 184.17 46.0081 184.17 45.7829C185.308 45.3812 185.729 45.4054 186.837 45.9328C188.144 47.0626 188.25 47.9364 188.491 49.5946C188.538 49.8727 188.585 50.1508 188.634 50.4373C188.782 51.3275 188.919 52.2192 189.055 53.1114C189.152 53.6933 189.249 54.2752 189.346 54.8568C190.219 60.1343 190.923 65.3915 190.898 70.7496C190.896 71.1604 190.895 71.5712 190.894 71.9945C190.851 75.474 190.518 78.8157 189.801 82.2186C189.756 82.4374 189.712 82.6562 189.666 82.8817C188.139 90.1615 184.244 97.0678 179.532 102.755C179.385 102.935 179.237 103.114 179.084 103.3C178.037 104.569 176.97 105.821 175.889 107.061C175.744 107.228 175.598 107.395 175.449 107.566C173.938 109.289 172.419 110.954 170.64 112.403C169.905 113.02 169.905 113.02 169.228 113.773C166.989 116.088 165.348 116.427 162.194 116.343Z" fill="#5A8658"/>
<path d="M162.194 116.343C161.764 116.343 161.334 116.344 160.891 116.344C159.721 116.345 158.552 116.328 157.383 116.307C156.157 116.288 154.931 116.286 153.705 116.283C151.388 116.274 149.072 116.249 146.755 116.219C144.116 116.186 141.476 116.17 138.837 116.155C133.411 116.123 127.986 116.071 122.561 116.005C122.561 114.802 122.561 113.6 122.561 112.361C122.435 112.62 122.309 112.879 122.179 113.146C121.248 114.742 120.559 115.827 118.723 116.33C117.245 116.474 115.771 116.415 114.29 116.36C113.745 116.354 113.199 116.348 112.653 116.345C111.224 116.331 109.796 116.295 108.367 116.255C106.906 116.217 105.445 116.201 103.983 116.182C101.122 116.144 98.261 116.081 95.4 116.005C95.3926 114.656 95.3883 113.307 95.3845 111.959C95.3813 111.395 95.3813 111.395 95.3782 110.82C95.3475 96.4642 98.7473 82.0472 102.687 68.3069C102.78 67.9812 102.874 67.6556 102.97 67.32C108.274 49.007 114.68 30.0393 123.861 13.2937C124.782 11.5858 125.614 9.83392 126.453 8.0845C126.605 7.76803 126.758 7.45155 126.915 7.1255C127.863 5.13479 128.725 3.12444 129.517 1.06649C129.735 1.06649 129.954 1.06649 130.179 1.06649C130.513 1.70699 130.843 2.34906 131.173 2.99178C131.357 3.34917 131.542 3.70655 131.732 4.07476C132.167 5.04129 132.167 5.04129 132.167 6.035C132.385 6.035 132.604 6.035 132.829 6.035C134.415 8.62402 135.304 11.0703 135.955 14.026C136.05 14.4379 136.144 14.8497 136.242 15.274C136.495 16.3801 136.74 17.4877 136.983 18.596C137.136 19.2906 137.292 19.9847 137.448 20.6787C138.698 26.2549 139.831 31.8139 140.447 37.5022C140.477 37.7484 140.506 37.9947 140.536 38.2484C140.828 40.8559 140.909 43.4726 140.986 46.0936C140.997 46.4626 140.997 46.4626 141.008 46.8392C141.191 53.2821 141.029 59.6862 140.249 66.0892C140.143 67.0657 140.087 67.9896 140.116 68.9694C140.266 68.7508 140.417 68.5322 140.571 68.3069C140.749 68.0883 140.927 67.8697 141.11 67.6444C141.328 67.6444 141.547 67.6444 141.772 67.6444C141.772 67.4258 141.772 67.2072 141.772 66.982C141.991 66.982 142.209 66.982 142.435 66.982C142.435 66.7634 142.435 66.5448 142.435 66.3195C144.249 64.6633 144.249 64.6633 145.085 64.6633C145.085 64.4447 145.085 64.2261 145.085 64.0009C146.231 63.0072 146.231 63.0072 147.072 63.0072C147.072 62.7886 147.072 62.5699 147.072 62.3447C147.674 61.8714 148.301 61.4284 148.935 60.9991C149.129 60.8678 149.322 60.7365 149.522 60.6013C150.138 60.1855 150.758 59.774 151.378 59.3636C151.571 59.2355 151.764 59.1074 151.962 58.9754C153.114 58.2133 154.275 57.4675 155.448 56.7365C155.979 56.4052 156.507 56.0699 157.036 55.7343C164.088 51.4646 175.701 46.0112 184.17 46.4455C184.17 46.2269 184.17 46.0083 184.17 45.783C185.308 45.3814 185.729 45.4056 186.837 45.933C188.144 47.0628 188.25 47.9366 188.491 49.5948C188.538 49.8729 188.585 50.1509 188.634 50.4374C188.782 51.3277 188.919 52.2194 189.055 53.1116C189.152 53.6935 189.249 54.2753 189.346 54.857C190.219 60.1345 190.923 65.3917 190.898 70.7498C190.896 71.1606 190.895 71.5714 190.894 71.9946C190.851 75.4741 190.518 78.8159 189.801 82.2187C189.756 82.4376 189.712 82.6564 189.666 82.8818C188.139 90.1616 184.244 97.068 179.532 102.755C179.385 102.935 179.237 103.115 179.084 103.3C178.037 104.569 176.97 105.821 175.889 107.061C175.744 107.228 175.598 107.395 175.449 107.567C173.938 109.289 172.419 110.955 170.64 112.404C169.905 113.02 169.905 113.02 169.228 113.773C166.989 116.088 165.348 116.427 162.194 116.343Z" fill="#4D825C"/>
<path d="M114.291 116.36C113.745 116.354 113.199 116.348 112.654 116.345C111.224 116.331 109.796 116.295 108.367 116.255C106.906 116.217 105.445 116.201 103.984 116.182C101.122 116.143 98.2615 116.081 95.4005 116.005C95.3931 114.656 95.3888 113.307 95.3849 111.959C95.3818 111.395 95.3818 111.395 95.3786 110.819C95.348 96.4641 98.7477 82.0471 102.688 68.3069C102.781 67.9812 102.874 67.6555 102.97 67.32C108.275 49.007 114.681 30.0393 123.862 13.2936C124.783 11.5857 125.615 9.83389 126.453 8.08447C126.606 7.768 126.758 7.45152 126.915 7.12546C127.864 5.13476 128.725 3.1244 129.517 1.06646C129.736 1.06646 129.954 1.06646 130.18 1.06646C130.513 1.70696 130.844 2.34903 131.173 2.99175C131.358 3.34914 131.542 3.70652 131.732 4.07473C132.167 5.04126 132.167 5.04126 132.167 6.03497C132.386 6.03497 132.604 6.03497 132.829 6.03497C134.416 8.62399 135.304 11.0703 135.955 14.026C136.05 14.4378 136.145 14.8497 136.242 15.274C136.496 16.38 136.741 17.4876 136.984 18.5959C137.137 19.2906 137.292 19.9846 137.448 20.6786C138.699 26.2549 139.831 31.8139 140.448 37.5022C140.477 37.7484 140.506 37.9946 140.537 38.2483C140.829 40.8558 140.91 43.4725 140.986 46.0935C140.993 46.3402 141 46.5869 141.008 46.8411C141.183 53.1093 141.031 59.3176 140.324 65.5535C140.286 65.8919 140.248 66.2303 140.209 66.579C139.966 68.5184 139.523 70.1407 138.792 71.9504C138.612 72.7466 138.612 72.7466 138.522 73.5031C137.092 81.9368 133.894 90.449 130.18 98.1179C129.967 98.5685 129.755 99.0192 129.543 99.47C128.172 102.336 126.593 105.052 124.921 107.753C124.227 108.881 123.598 109.935 123.106 111.169C121.008 115.759 119.082 116.536 114.291 116.36Z" fill="#84BB81"/>
<path d="M65.5898 116.004C61.4611 116.027 57.3323 116.045 53.2035 116.056C51.2864 116.061 49.3694 116.068 47.4523 116.079C45.6032 116.09 43.7541 116.096 41.9049 116.099C41.1985 116.1 40.4921 116.104 39.7857 116.109C38.7983 116.117 37.811 116.118 36.8235 116.117C36.5298 116.121 36.236 116.124 35.9333 116.128C35.53 116.126 35.53 116.126 35.1184 116.124C34.8849 116.125 34.6513 116.126 34.4106 116.127C33.6045 115.967 33.3472 115.607 32.7981 115.011C31.9747 114.585 31.1526 114.182 30.3138 113.789C27.9497 112.649 25.92 111.339 23.8548 109.711C23.6038 109.535 23.3527 109.36 23.0941 109.179C22.9079 109.027 22.7217 108.874 22.5299 108.717C22.5299 108.499 22.5299 108.28 22.5299 108.055C22.3349 107.967 22.1399 107.88 21.939 107.789C21.1783 107.378 20.6723 106.945 20.0612 106.336C19.8563 106.132 19.6513 105.928 19.4402 105.718C19.2301 105.505 19.02 105.293 18.8036 105.074C18.4808 104.755 18.4808 104.755 18.1515 104.429C17.9482 104.225 17.745 104.021 17.5356 103.811C17.3498 103.624 17.1639 103.438 16.9724 103.245C16.5678 102.755 16.5678 102.755 16.5678 102.092C16.3492 102.092 16.1306 102.092 15.9053 102.092C15.4968 101.628 15.4968 101.628 15.041 100.977C14.8728 100.738 14.7046 100.499 14.5312 100.253C14.3562 99.999 14.1811 99.7453 14.0008 99.484C13.8308 99.2432 13.6609 99.0024 13.4858 98.7543C11.2302 95.5239 9.44082 92.2016 7.81089 88.6154C7.62064 88.1997 7.43022 87.7841 7.23964 87.3685C6.86931 86.5609 6.4996 85.7531 6.13031 84.945C5.63 83.859 5.11491 82.7814 4.59336 81.7055C1.52351 75.3247 -0.10627 68.1101 0.00627899 61.0195C5.1195 59.2148 10.5432 59.1842 15.9053 59.0321C16.1411 59.0244 16.3769 59.0166 16.6199 59.0087C31.0838 58.5693 45.5818 62.9868 56.3073 72.8854C56.9659 73.5121 57.616 74.146 58.2614 74.7864C58.5662 75.0885 58.5662 75.0885 58.8773 75.3967C60.2902 76.8334 60.2902 76.8334 60.2902 77.5812C60.5088 77.5812 60.7274 77.5812 60.9526 77.5812C62.3459 79.1331 62.0489 80.9984 61.9968 82.9508C61.9862 83.708 61.976 84.4651 61.966 85.2223C61.9591 85.6178 61.9522 86.0132 61.9451 86.4207C61.7877 96.2756 61.8277 106.708 65.5898 116.004Z" fill="#33463B"/>
<path d="M160.205 116.295C159.586 116.29 158.967 116.286 158.347 116.283C156.728 116.271 155.109 116.242 153.489 116.209C151.833 116.178 150.176 116.165 148.52 116.15C145.277 116.118 142.034 116.067 138.791 116.004C139.869 114.916 140.952 113.902 142.145 112.94C142.463 112.683 142.781 112.425 143.109 112.159C143.595 111.767 143.595 111.767 144.091 111.367C146.205 109.662 148.274 107.929 150.281 106.098C150.933 105.508 151.596 104.937 152.268 104.37C155.7 101.37 158.851 98.0712 161.646 94.4741C161.933 94.1212 162.22 93.7689 162.508 93.417C172.295 81.366 179.038 66.0707 182.845 51.0825C182.913 50.8176 182.981 50.5526 183.051 50.2795C183.436 48.7833 183.809 47.2848 184.17 45.7828C185.308 45.3812 185.729 45.4054 186.837 45.9327C188.144 47.0626 188.25 47.9364 188.491 49.5946C188.538 49.8727 188.585 50.1507 188.634 50.4372C188.782 51.3275 188.919 52.2192 189.055 53.1114C189.152 53.6933 189.249 54.2751 189.346 54.8568C190.219 60.1342 190.923 65.3914 190.898 70.7495C190.896 71.1604 190.895 71.5712 190.894 71.9944C190.851 75.4739 190.518 78.8156 189.801 82.2185C189.756 82.4373 189.712 82.6562 189.666 82.8816C188.139 90.1614 184.244 97.0677 179.532 102.755C179.385 102.935 179.237 103.114 179.084 103.3C178.037 104.569 176.97 105.82 175.889 107.061C175.744 107.228 175.598 107.394 175.449 107.566C173.937 109.289 172.422 110.965 170.633 112.403C169.905 113.011 169.905 113.011 169.298 113.774C166.662 116.713 163.87 116.393 160.205 116.295Z" fill="#3E694A"/>
</svg>
