<svg width="85" height="77" viewBox="0 0 85 77" fill="none" xmlns="http://www.w3.org/2000/svg">
<path d="M8.89261 76.812C9.16796 76.594 9.16796 76.594 9.45854 76.3243C10.1803 75.6878 10.9604 75.1936 11.7794 74.692C12.0842 74.5022 12.3889 74.3122 12.6934 74.1219C12.8437 74.0281 12.994 73.9344 13.1488 73.8378C14.9796 72.6866 16.744 71.46 18.4549 70.1364C18.5532 70.0609 18.6515 69.9853 18.7528 69.9075C20.0746 68.8906 21.3597 67.8401 22.6193 66.7472C23.207 66.2386 23.802 65.7481 24.4201 65.2763C25.0058 64.8287 25.5238 64.3573 26.0326 63.8216C26.2355 63.6223 26.4384 63.4231 26.6416 63.224C27.0751 62.7914 27.4841 62.3476 27.882 61.8821C28.4111 61.2672 28.9737 60.6925 29.5509 60.123C30.3414 59.3408 31.093 58.5408 31.8061 57.6873C31.9275 57.5438 32.0489 57.4003 32.174 57.2525C36.1626 52.4676 39.3921 47.037 42.451 41.6298C42.5335 41.4843 42.6159 41.3387 42.7009 41.1887C44.6442 37.7234 46.178 34.0052 47.5028 30.2633C47.5912 30.4479 47.6795 30.6326 47.7706 30.8229C48.7516 32.8044 49.8976 34.651 51.1225 36.4878C51.1987 36.6027 51.2748 36.7176 51.3533 36.836C52.3424 38.3242 53.387 39.7213 54.5392 41.0886C54.7992 41.4113 55.0586 41.7345 55.3173 42.0583C56.8974 43.9808 58.6363 45.744 60.3916 47.5048C60.479 47.5927 60.5664 47.6805 60.6565 47.7711C60.9095 48.0251 61.1633 48.2784 61.4171 48.5316C61.5649 48.6792 61.7127 48.8268 61.8649 48.9789C63.0602 50.1096 63.0602 50.1096 63.5603 50.1096C63.5603 50.2287 63.5603 50.3478 63.5603 50.4705C63.8377 50.7147 63.8377 50.7147 64.2277 50.9948C64.4416 51.1501 64.4416 51.1501 64.6598 51.3085C64.8142 51.419 64.9686 51.5294 65.1277 51.6432C65.4457 51.8737 65.7635 52.1044 66.0813 52.3353C66.2373 52.4485 66.3934 52.5617 66.5542 52.6783C67.1058 53.0825 67.645 53.4998 68.1836 53.921C69.1641 54.6812 70.1695 55.3992 71.1876 56.1081C71.8916 56.6 72.5857 57.1012 73.2699 57.6204C74.7339 58.7295 76.1385 59.74 77.8171 60.4965C78.8834 60.982 78.8834 60.982 79.6178 61.837C80.5413 62.265 81.1715 62.1589 82.1437 62.0174C85.5025 53.4418 85.7015 43.1373 83.7675 34.2325C83.7044 33.9204 83.6416 33.6082 83.5793 33.2959C82.9758 30.3915 81.9196 27.6224 80.5212 25.0125C80.3395 24.6702 80.1644 24.3252 79.9906 23.9788C78.8335 21.6996 77.3679 19.7314 75.7141 17.7895C75.3102 17.3002 74.9418 16.7996 74.5773 16.2806C73.8969 15.3262 73.1316 14.4812 72.3319 13.6279C71.6054 12.8515 70.8887 12.0661 70.2472 11.2175C69.8288 10.7232 69.3679 10.3328 68.8757 9.91372C68.3249 9.41889 67.8109 8.89319 67.2928 8.36463C66.4201 7.47771 65.5133 6.67583 64.5371 5.90216C64.155 5.58928 63.8123 5.26923 63.4701 4.91408C62.7567 4.18571 62.0002 3.53587 61.19 2.91687C60.9565 2.73754 60.7247 2.55595 60.4942 2.37265C57.9755 0.402023 56.0036 -0.0288696 52.8536 0.015564C52.4256 0.01297 51.9975 0.00937653 51.5694 0.00486755C50.4183 -0.0042038 49.2677 0.001297 48.1165 0.0101547C47.3962 0.0145264 46.676 0.0150528 45.9556 0.0135193C45.8354 0.0132599 45.7152 0.0130081 45.5913 0.0127487C45.347 0.0121994 45.1027 0.0116501 44.8583 0.0110779C42.5788 0.00627899 40.2994 0.0154724 38.0199 0.029808C36.0673 0.0417938 34.1149 0.0424652 32.1623 0.0347672C29.8868 0.0258179 27.6115 0.0232315 25.3361 0.0312042C25.0934 0.0320435 24.8506 0.0328827 24.6079 0.0337067C24.4288 0.0343246 24.4288 0.0343246 24.2461 0.0349579C23.4077 0.0374374 22.5694 0.0353851 21.731 0.0317993C20.6028 0.0274658 19.475 0.0329437 18.3469 0.0459442C17.9336 0.0491409 17.5202 0.0489807 17.1069 0.0451889C13.8226 0.01828 13.8226 0.01828 12.9864 0.749481C12.5716 1.24847 12.2625 1.72606 11.9598 2.29797C11.7964 2.52024 11.6294 2.73997 11.4573 2.95552C10.5778 4.17896 9.78808 5.41783 9.05753 6.73521C8.73151 7.31539 8.38881 7.87962 8.03561 8.44357C4.33685 14.414 1.36796 20.5004 0.593229 27.557C0.575611 27.7085 0.557994 27.8601 0.539842 28.0163C0.187608 31.101 0.115461 34.1984 0.0519645 37.2997C0.0477491 37.4781 0.0435337 37.6565 0.0391906 37.8404C-0.132411 45.7066 1.44584 53.2928 3.11913 60.9349C3.14963 61.0747 3.18013 61.2144 3.21155 61.3584C3.7436 63.7954 4.27946 66.2307 4.93823 68.6372C5.17954 69.5278 5.3955 70.4231 5.60133 71.3225C5.62911 71.4436 5.65689 71.5647 5.68552 71.6894C5.8242 72.2952 5.96133 72.9012 6.09643 73.5077C6.74154 76.3445 6.74154 76.3445 7.41541 76.9022C7.99297 77.0342 8.32243 76.9909 8.89261 76.812Z" fill="#6EA06B"/>
<path d="M82.1436 62.0174C85.5024 53.4417 85.7015 43.1373 83.7674 34.2325C83.7043 33.9203 83.6415 33.6081 83.5793 33.2958C82.9757 30.3914 81.9195 27.6223 80.5212 25.0124C80.3394 24.6701 80.1644 24.3251 79.9906 23.9787C78.8334 21.6995 77.3679 19.7314 75.714 17.7894C75.3101 17.3001 74.9418 16.7995 74.5772 16.2805C73.8969 15.3261 73.1315 14.4811 72.3318 13.6278C71.6053 12.8514 70.8887 12.066 70.2471 11.2175C69.8288 10.7231 69.3679 10.3327 68.8756 9.91364C68.3248 9.4188 67.8109 8.8931 67.2927 8.36455C66.4201 7.47763 65.5133 6.67574 64.5371 5.90208C64.1549 5.58919 63.8122 5.26914 63.47 4.91399C62.7562 4.1852 61.9993 3.53645 61.1885 2.91745C60.9565 2.73806 60.7271 2.55536 60.4997 2.37013C57.8881 0.271778 55.7895 0.00335693 52.5094 0.166653C52.0913 0.178452 51.6731 0.189148 51.2549 0.198719C50.244 0.224213 49.2344 0.263149 48.2244 0.313244C48.35 0.970722 48.5194 1.57638 48.7431 2.20767C49.133 3.37011 49.4362 4.52176 49.6678 5.72589C49.6927 5.84959 49.7177 5.97329 49.7434 6.10073C50.21 8.50711 50.2622 10.9061 50.2654 13.3487C50.2661 13.5006 50.2667 13.6525 50.2674 13.8091C50.2745 16.9324 49.9727 19.9121 49.2618 22.9561C49.2346 23.0756 49.2073 23.1951 49.1793 23.3182C48.8147 24.915 48.4068 26.4863 47.8236 28.0188C47.4358 29.0582 47.3151 29.9182 47.7706 30.9461C47.9031 31.2053 48.0397 31.4624 48.1793 31.7178C48.2559 31.8606 48.3326 32.0034 48.4115 32.1506C49.239 33.6441 50.178 35.0665 51.1224 36.4877C51.1986 36.6028 51.2748 36.7178 51.3533 36.8363C52.3424 38.3243 53.3871 39.7213 54.5392 41.0885C54.7991 41.4112 55.0586 41.7344 55.3172 42.0582C56.8973 43.9807 58.6363 45.7439 60.3916 47.5047C60.479 47.5926 60.5664 47.6805 60.6564 47.771C60.9094 48.0251 61.1632 48.2783 61.417 48.5316C61.5648 48.6791 61.7126 48.8267 61.8649 48.9788C63.0602 50.1095 63.0602 50.1095 63.5602 50.1095C63.5602 50.2286 63.5602 50.3477 63.5602 50.4704C63.8377 50.7146 63.8377 50.7146 64.2277 50.9947C64.3703 51.0983 64.5129 51.2018 64.6598 51.3084C64.8914 51.4741 64.8914 51.4741 65.1277 51.6431C65.4457 51.8736 65.7635 52.1043 66.0812 52.3352C66.2373 52.4484 66.3934 52.5616 66.5542 52.6783C67.1058 53.0824 67.6449 53.4997 68.1835 53.9209C69.1641 54.6811 70.1695 55.3991 71.1876 56.1081C71.8915 56.6 72.5857 57.1011 73.2699 57.6203C74.7339 58.7294 76.1384 59.74 77.8171 60.4965C78.8834 60.9819 78.8834 60.9819 79.6177 61.8369C80.5412 62.2649 81.1715 62.1588 82.1436 62.0174Z" fill="#3C7057"/>
<path d="M8.89261 76.8124C9.57954 76.2236 9.61475 75.3106 9.79472 74.4669C9.89237 74.0228 9.99037 73.5789 10.0886 73.1349C10.1159 73.0113 10.1432 72.8877 10.1713 72.7603C10.4898 71.319 10.8114 69.8783 11.1338 68.4379C11.2383 67.9706 11.3426 67.5033 11.4468 67.0359C11.6199 66.2605 11.7949 65.4854 11.9709 64.7107C12.0373 64.4174 12.1032 64.1241 12.1686 63.8306C12.6204 61.8046 13.1883 59.8401 13.8298 57.8663C14.0521 57.1702 14.2432 56.466 14.4293 55.7595C14.6616 54.8793 14.9217 54.0282 15.2496 53.1787C15.3873 52.8177 15.5155 52.4546 15.6408 52.089C16.2975 50.1761 16.9954 48.2805 17.7107 46.3888C18.463 44.3992 19.1824 42.4018 19.8696 40.3884C20.438 38.7298 21.0558 37.0929 21.6901 35.4585C21.8779 34.9677 22.0613 34.4753 22.244 33.9825C22.9276 32.1426 23.6586 30.3229 24.3976 28.5046C24.4636 28.3419 24.5296 28.1792 24.5977 28.0116C25.0745 26.8372 25.5531 25.6635 26.0326 24.4902C26.1285 24.2554 26.1285 24.2554 26.2264 24.0158C26.5885 23.1297 26.9521 22.2442 27.3179 21.3595C27.4285 21.0918 27.5387 20.8239 27.6486 20.5559C28.3673 18.8044 29.1635 17.1102 30.0232 15.4237C30.3853 14.7059 30.7213 13.9758 31.0619 13.2477C32.359 10.5069 33.8058 7.8518 35.268 5.19639C35.3286 5.08622 35.3892 4.97606 35.4517 4.86255C36.1864 3.52863 36.9361 2.20562 37.7137 0.896187C37.9405 0.494156 37.9405 0.494156 37.9405 0.313736C34.7928 0.267311 31.6453 0.232346 28.4974 0.210907C27.0356 0.200684 25.5741 0.186768 24.1124 0.164017C22.838 0.144196 21.5637 0.131424 20.2892 0.127007C19.6146 0.124428 18.9405 0.118393 18.266 0.103905C17.5118 0.0878296 16.7582 0.0875092 16.0038 0.0884323C15.6709 0.0777283 15.6709 0.0777283 15.3313 0.0668106C14.3884 0.0792236 13.815 0.109886 13.0909 0.747597C12.6775 1.24789 12.3136 1.75479 11.9598 2.29837C11.7938 2.51868 11.6265 2.73808 11.4573 2.95592C10.5778 4.17936 9.78808 5.41824 9.05753 6.73561C8.73151 7.3158 8.38881 7.88003 8.03561 8.44398C4.33685 14.4144 1.36796 20.5008 0.593229 27.5574C0.575611 27.7089 0.557994 27.8605 0.539842 28.0167C0.187608 31.1014 0.115461 34.1988 0.0519645 37.3001C0.0477491 37.4785 0.0435337 37.6569 0.0391906 37.8408C-0.132411 45.707 1.44584 53.2932 3.11913 60.9353C3.14963 61.0751 3.18013 61.2148 3.21155 61.3588C3.7436 63.7958 4.27946 66.2311 4.93823 68.6376C5.17954 69.5282 5.3955 70.4235 5.60133 71.3229C5.62911 71.444 5.65689 71.5651 5.68552 71.6899C5.8242 72.2956 5.96133 72.9016 6.09643 73.5081C6.74154 76.3449 6.74154 76.3449 7.41541 76.9026C7.97081 77.0296 8.34775 76.9747 8.89261 76.8124Z" fill="#4E835D"/>
<path d="M79.6177 61.4766C79.526 60.0915 79.1664 58.8912 78.7044 57.5862C78.6305 57.377 78.5567 57.1678 78.4806 56.9522C77.8907 55.3146 77.2233 53.7899 76.3702 52.2751C76.2689 52.0942 76.1677 51.9134 76.0634 51.7271C75.216 50.2185 74.353 48.7192 73.4834 47.2233C73.328 46.9557 73.328 46.9557 73.1694 46.6827C70.8109 42.6343 68.3596 38.6492 65.7253 34.7742C65.4976 34.4378 65.27 34.1014 65.0424 33.765C64.0218 32.26 62.9931 30.7624 61.9365 29.2826C60.7314 27.5911 59.6074 25.8476 58.4807 24.1033C57.9655 23.3064 57.4475 22.5114 56.9298 21.7162C56.3809 20.8729 55.8329 20.0291 55.2912 19.1811C54.2793 17.6 53.2265 16.0562 52.1359 14.5282C51.6552 13.8534 51.1953 13.1665 50.7482 12.4689C50.6894 12.3873 50.6305 12.3056 50.5699 12.2215C50.5104 12.2215 50.4508 12.2215 50.3895 12.2215C50.3859 12.3466 50.3823 12.4717 50.3786 12.6006C50.2213 17.8592 49.712 23.0572 47.8236 28.0193C47.4358 29.0587 47.3151 29.9186 47.7706 30.9466C47.9031 31.2058 48.0397 31.4629 48.1793 31.7183C48.2559 31.8611 48.3326 32.0039 48.4115 32.151C49.239 33.6446 50.178 35.067 51.1224 36.4882C51.1986 36.6032 51.2748 36.7183 51.3533 36.8368C52.3424 38.3248 53.3871 39.7218 54.5392 41.0889C54.7991 41.4117 55.0586 41.7349 55.3172 42.0587C56.8973 43.9812 58.6363 45.7443 60.3916 47.5052C60.479 47.5931 60.5664 47.6809 60.6564 47.7715C60.9094 48.0255 61.1632 48.2788 61.417 48.532C61.5648 48.6796 61.7126 48.8272 61.8649 48.9793C63.0602 50.11 63.0602 50.11 63.5602 50.11C63.5602 50.2291 63.5602 50.3482 63.5602 50.4709C63.8377 50.7151 63.8377 50.7151 64.2277 50.9952C64.3703 51.0987 64.5129 51.2023 64.6598 51.3089C64.8914 51.4746 64.8914 51.4746 65.1277 51.6436C65.4457 51.8741 65.7635 52.1048 66.0812 52.3357C66.2373 52.4489 66.3934 52.5621 66.5542 52.6787C67.1058 53.0829 67.6449 53.5001 68.1835 53.9214C69.1641 54.6816 70.1695 55.3996 71.1876 56.1085C71.8915 56.6004 72.5857 57.1016 73.2699 57.6208C74.7339 58.7299 76.1384 59.7404 77.8171 60.4969C78.3273 60.7417 79.0748 61.4766 79.6177 61.4766Z" fill="#4D8269"/>
<path d="M2.9388 60.0327C3.05788 60.0327 3.17696 60.0327 3.29964 60.0327C3.16894 59.2583 3.03715 58.484 2.90497 57.7098C2.88495 57.5921 2.86492 57.4744 2.84429 57.3531C2.5941 55.8856 2.32623 54.4241 2.02965 52.9651C1.62492 50.9666 1.35452 49.0013 1.21705 46.967C1.16316 46.2044 1.06666 45.4549 0.957691 44.6983C0.735002 43.0822 0.651102 41.4652 0.570772 39.8368C0.555131 39.5362 0.539392 39.2356 0.523552 38.935C0.48553 38.2095 0.448834 37.484 0.412903 36.7584C-0.0599301 37.4676 -0.00212483 38.0666 0.00695491 38.8896C0.00843757 39.056 0.00992023 39.2224 0.0114478 39.3939C0.118829 46.4279 1.43023 53.1853 2.9388 60.0327Z" fill="#6A9D6A"/>
</svg>
