<svg width="21" height="21" viewBox="0 0 21 21" fill="none" xmlns="http://www.w3.org/2000/svg">
<path d="M9.01033 4.55337L9.01515 4.56033L9.02072 4.5667C9.2919 4.87696 9.37982 5.19939 9.34563 5.527C9.31076 5.86112 9.14729 6.21271 8.89191 6.56792C8.77161 6.73525 8.63184 6.90167 8.4605 7.08753C8.37828 7.17672 8.3142 7.24378 8.17823 7.38425L7.39833 8.18965C7.35021 8.23932 7.34652 8.30147 7.34625 8.32754C7.3459 8.36086 7.35151 8.39528 7.35874 8.42686C7.37345 8.49114 7.40129 8.57049 7.43888 8.65984C7.5147 8.84003 7.63838 9.08013 7.8063 9.35811C8.14252 9.91469 8.66216 10.6332 9.34758 11.3414C10.0327 12.0492 10.7285 12.586 11.2679 12.9334C11.5373 13.1069 11.7703 13.2348 11.9455 13.3133C12.0323 13.3522 12.1099 13.3812 12.1733 13.3966C12.2044 13.4041 12.239 13.4102 12.273 13.4097C12.3005 13.4094 12.3636 13.4047 12.4129 13.3539L13.1923 12.549L13.1923 12.5489C13.6205 12.1066 13.8388 11.9022 14.1375 11.6999C14.448 11.4897 14.761 11.3642 15.0575 11.35C15.349 11.3361 15.6365 11.4288 15.9066 11.6781L15.9126 11.6837L15.9192 11.6885C17.8723 13.1305 18.9639 14.0058 19.4933 14.5735C20.4895 15.6418 20.3612 17.2939 19.4984 18.235C19.1848 18.5772 18.7863 18.9888 18.3144 19.4583L18.3125 19.4603C16.9358 20.882 14.7782 21.1779 12.3619 20.5082C9.948 19.8392 7.30503 18.2117 5.00683 15.8374C2.70822 13.4626 1.13147 10.7321 0.48235 8.23788C-0.167737 5.7399 0.118035 3.5091 1.49352 2.08866L1.49353 2.08866L1.4943 2.08784C2.00613 1.55127 2.17453 1.37755 2.67299 0.870621C3.54876 -0.0200335 5.22149 -0.157768 6.23 0.870485C6.78364 1.43496 7.67116 2.61929 9.01033 4.55337ZM7.44769 5.56501L7.51571 5.47785L7.45258 5.38708C6.26886 3.6852 5.45581 2.60917 5.01091 2.15555C4.85812 1.99978 4.62783 1.94895 4.42872 1.95501C4.2313 1.96103 4.01542 2.02447 3.88575 2.15635C3.39347 2.65699 3.23123 2.82436 2.72073 3.3595C1.74374 4.3689 1.6562 6.17314 2.27438 8.18918C2.8964 10.2178 4.24592 12.5125 6.22931 14.5616C8.21201 16.61 10.4346 18.0047 12.403 18.6459C14.3593 19.2833 16.1157 19.1896 17.1026 18.1717C17.5685 17.7079 17.9492 17.3148 18.243 16.9943C18.3779 16.8471 18.4492 16.6337 18.4555 16.4261C18.4618 16.2177 18.4031 15.9916 18.2481 15.8254C17.8327 15.3799 16.8308 14.575 15.1256 13.3111L15.031 13.241L14.9404 13.3163C14.8089 13.4255 14.6507 13.581 14.4146 13.8249L13.6351 14.6299C13.0302 15.2546 12.2077 15.3166 11.2426 14.9322C10.2732 14.5461 9.19053 13.7179 8.12511 12.6171C7.05918 11.5159 6.25643 10.3971 5.88205 9.39456C5.50863 8.39458 5.56927 7.5399 6.17651 6.9132L6.95575 6.10848C7.08058 5.97952 7.13868 5.91875 7.20844 5.84308C7.30342 5.74004 7.38298 5.64793 7.44769 5.56501Z" fill="#4A5759" stroke="white" stroke-width="0.3"/>
</svg>
