<svg width="266" height="162" viewBox="0 0 266 162" fill="none" xmlns="http://www.w3.org/2000/svg">
<path d="M161.824 0.0541253C161.824 0.403857 161.824 0.753589 161.824 1.11392C161.998 1.11392 162.173 1.11392 162.354 1.11392C163.979 6.63413 164.685 12.4687 165.171 18.1917C165.196 18.4919 165.196 18.4919 165.222 18.7982C165.635 23.7865 165.644 28.7686 165.618 33.7707C165.615 34.7213 165.616 35.6719 165.617 36.6226C165.632 50.8262 165.632 50.8262 164.208 57.5479C164.135 57.917 164.062 58.2861 163.99 58.6553C163.802 59.6119 163.608 60.5671 163.413 61.5222C163.325 61.9637 163.236 62.4053 163.148 62.8469C163.323 62.9343 163.498 63.0218 163.678 63.1119C164.338 62.7549 164.966 62.3858 165.599 61.9858C168.896 59.9325 168.896 59.9325 170.037 59.9325C170.037 59.7576 170.037 59.5827 170.037 59.4026C174.794 57.4378 174.794 57.4378 176.469 56.7761C176.995 56.5662 177.519 56.3526 178.042 56.1368C180.41 55.1691 182.793 54.3274 185.238 53.5737C185.421 53.5169 185.604 53.4601 185.793 53.4015C190.957 51.8056 196.182 50.6648 201.482 49.6323C204.184 49.104 206.853 48.5114 209.513 47.7945C209.799 47.7177 210.085 47.6409 210.379 47.5617C211.87 47.1524 211.87 47.1524 213.222 46.4201C215.203 46.0773 216.576 46.4966 218.231 47.5844C219.281 48.3898 219.751 48.9078 219.936 50.265C220.086 53.2997 219.151 55.9557 218.248 58.8185C217.866 60.0793 217.536 61.3527 217.201 62.6265C216.029 67.0368 214.725 71.4156 213.288 75.7466C213.195 76.0291 213.101 76.3117 213.005 76.6028C212.109 79.2638 211.031 81.8382 209.827 84.374C209.745 84.5492 209.662 84.7244 209.577 84.9049C209.38 85.3244 209.181 85.7434 208.983 86.1624C208.808 86.1624 208.633 86.1624 208.453 86.1624C208.365 86.687 208.278 87.2116 208.188 87.7521C208.013 87.7521 207.838 87.7521 207.658 87.7521C207.629 87.9471 207.599 88.1421 207.569 88.343C207.386 89.1085 207.14 89.5697 206.705 90.2204C206.56 90.4412 206.415 90.662 206.266 90.8894C206.108 91.1273 205.95 91.3652 205.787 91.6104C204.045 94.2828 202.446 97.0176 200.881 99.7954C199.994 101.369 199.094 102.922 198.12 104.444C198.295 104.356 198.47 104.269 198.65 104.179C210.181 103.117 222.153 104.187 233.357 107.093C233.682 107.175 233.682 107.175 234.013 107.259C240.744 108.985 247.183 111.635 253.492 114.512C254.385 114.916 255.278 115.32 256.171 115.723C257.062 116.125 257.953 116.529 258.843 116.934C259.008 117.009 259.172 117.084 259.342 117.161C259.822 117.379 260.301 117.597 260.781 117.816C261.936 118.322 263.113 118.764 264.3 119.188C264.885 119.546 264.885 119.546 265.123 120.214C265.15 120.871 265.15 120.871 264.817 121.417C264.653 121.586 264.49 121.756 264.322 121.93C264.151 122.111 263.98 122.291 263.803 122.477C263.636 122.646 263.468 122.816 263.295 122.99C263.163 123.132 263.031 123.274 262.895 123.421C262.6 123.732 262.287 124.026 261.97 124.315C261.796 124.315 261.621 124.315 261.441 124.315C261.441 124.49 261.441 124.665 261.441 124.845C261.089 125.2 261.089 125.2 260.58 125.623C259.603 126.452 258.655 127.304 257.715 128.173C254.418 131.204 254.418 131.204 253.757 131.204C253.757 131.378 253.757 131.553 253.757 131.734C252.84 132.528 252.84 132.528 252.168 132.528C252.168 132.703 252.168 132.878 252.168 133.058C251.609 133.538 251.048 133.988 250.462 134.433C250.294 134.562 250.125 134.692 249.952 134.826C249.613 135.087 249.273 135.347 248.933 135.607C248.119 136.234 247.319 136.881 246.517 137.524C246.074 137.827 246.074 137.827 245.544 137.827C245.544 138.002 245.544 138.177 245.544 138.357C245.046 138.745 244.55 139.09 244.021 139.434C243.85 139.546 243.68 139.658 243.504 139.773C239.119 142.618 234.664 145.437 229.913 147.63C229.496 147.834 229.496 147.834 229.07 148.042C218.477 153.141 206.565 155.181 194.941 156.109C194.449 156.15 194.449 156.15 193.947 156.192C190.297 156.452 186.636 156.433 182.979 156.437C182.207 156.439 181.435 156.442 180.662 156.448C170.316 156.528 159.599 155.746 149.61 152.896C147.933 152.425 146.97 152.298 145.393 153.076C144.329 153.592 143.23 153.984 142.119 154.387C141.897 154.468 141.676 154.549 141.448 154.632C139.196 155.455 136.949 156.228 134.633 156.851C133.089 157.266 131.592 157.67 130.13 158.328C127.56 159.467 124.786 160.125 122.083 160.878C121.822 160.952 121.561 161.025 121.292 161.101C121.04 161.172 120.787 161.242 120.527 161.315C120.304 161.377 120.08 161.44 119.85 161.504C117.964 161.97 116.143 161.987 114.209 161.987C113.676 161.987 113.144 161.992 112.611 161.997C108.121 162.004 108.121 162.004 106.981 161.408C106.318 160.356 106.066 159.425 105.935 158.198C105.902 157.891 105.868 157.584 105.834 157.268C105.803 156.946 105.772 156.623 105.739 156.291C105.689 155.796 105.689 155.796 105.637 155.292C105.398 152.818 105.296 150.378 105.392 147.895C105.132 147.805 104.872 147.715 104.604 147.622C99.5429 145.823 95.1725 143.066 90.82 139.947C90.7527 140.115 90.6855 140.282 90.6161 140.455C90.2901 141.007 90.2901 141.007 89.3132 141.354C86.9464 141.787 84.4186 141.455 82.104 140.866C81.2697 140.68 80.4301 140.626 79.5798 140.552C78.4544 140.428 77.3535 140.189 76.2484 139.947C76.2484 139.772 76.2484 139.597 76.2484 139.417C75.9369 139.39 75.6255 139.362 75.3045 139.334C72.8585 139.06 70.4004 138.601 68.0829 137.761C67.4013 137.527 66.7127 137.346 66.0151 137.165C64.868 136.859 63.8256 136.448 62.7365 135.973C62.3295 135.846 61.9209 135.725 61.5112 135.608C60.1153 135.206 58.7796 134.682 57.4326 134.141C56.7245 133.883 56.06 133.712 55.3182 133.588C55.3182 133.413 55.3182 133.238 55.3182 133.058C54.9685 133.058 54.6188 133.058 54.2585 133.058C54.2585 132.883 54.2585 132.709 54.2585 132.528C54.0618 132.496 53.865 132.463 53.6624 132.429C52.9864 132.275 52.4763 132.068 51.874 131.734C51.874 131.559 51.874 131.384 51.874 131.204C51.5243 131.204 51.1746 131.204 50.8143 131.204C50.8143 131.029 50.8143 130.854 50.8143 130.674C50.3771 130.586 49.94 130.499 49.4896 130.409C49.4896 130.234 49.4896 130.059 49.4896 129.879C49.3372 129.846 49.1848 129.814 49.0277 129.781C48.407 129.608 47.9079 129.371 47.3411 129.066C47.1413 128.96 46.9415 128.853 46.7357 128.743C46.5297 128.631 46.3238 128.52 46.1116 128.405C45.9016 128.293 45.6915 128.18 45.4751 128.064C44.9581 127.787 44.4417 127.509 43.9259 127.229C43.9259 127.055 43.9259 126.88 43.9259 126.699C43.7346 126.678 43.5434 126.656 43.3463 126.633C42.4514 126.395 41.9789 125.966 41.2765 125.375C41.0142 125.287 40.7519 125.2 40.4817 125.11C40.4817 124.935 40.4817 124.76 40.4817 124.58C40.3277 124.55 40.1738 124.52 40.0152 124.489C39.3671 124.299 38.9551 124.042 38.4077 123.649C38.2174 123.514 38.0272 123.379 37.8312 123.239C37.6349 123.097 37.4385 122.955 37.2362 122.808C37.0439 122.671 36.8516 122.534 36.6535 122.393C36.0726 121.977 35.4952 121.556 34.9179 121.136C34.6124 120.918 34.6124 120.918 34.3006 120.695C34.0099 120.484 34.0099 120.484 33.7133 120.269C33.5375 120.143 33.3617 120.017 33.1806 119.887C33.0545 119.774 32.9284 119.662 32.7984 119.546C32.7984 119.371 32.7984 119.196 32.7984 119.016C32.4487 118.929 32.099 118.841 31.7387 118.751C31.7387 118.576 31.7387 118.401 31.7387 118.221C31.389 118.134 31.0392 118.046 30.6789 117.956C30.6789 117.781 30.6789 117.606 30.6789 117.426C30.5228 117.354 30.3668 117.282 30.206 117.208C28.7709 116.446 27.5322 115.174 26.4399 113.982C26.4399 113.807 26.4399 113.632 26.4399 113.452C26.2924 113.441 26.1448 113.43 25.9928 113.419C25.2328 113.131 24.9198 112.671 24.4311 112.041C24.0312 111.569 23.6061 111.195 23.1282 110.803C22.5008 110.285 21.9676 109.763 21.4557 109.13C20.9507 108.41 20.9507 108.41 20.3463 108.153C20.3463 107.978 20.3463 107.803 20.3463 107.623C20.1142 107.524 20.1142 107.524 19.8775 107.423C19.2036 107.047 18.8112 106.634 18.3096 106.05C18.0703 105.776 18.0703 105.776 17.8263 105.496C17.432 104.974 17.432 104.974 17.167 104.179C16.9293 104.064 16.9293 104.064 16.6868 103.947C15.9206 103.553 15.5805 102.998 15.0475 102.324C14.6614 102.007 14.2751 101.689 13.8864 101.375C13.0344 100.628 12.332 99.7445 11.6033 98.8799C11.3875 98.6282 11.1716 98.3765 10.9493 98.1171C8.47643 95.2276 6.06499 92.287 3.85283 89.1917C3.41571 88.5824 2.96691 87.9843 2.51261 87.3878C1.95773 86.6489 1.45195 85.9138 1.00577 85.1026C0.906387 84.939 0.807004 84.7754 0.70461 84.6068C0.601811 84.4262 0.499013 84.2455 0.3931 84.0593C0.295766 83.893 0.198432 83.7267 0.0981481 83.5553C-0.135642 82.6758 0.0712143 82.1941 0.475893 81.3933C2.94552 79.9191 6.35266 79.517 9.13517 78.8866C9.88013 78.7132 10.617 78.5143 11.3549 78.3133C13.4121 77.7908 15.5228 77.5417 17.6214 77.2433C18.3999 77.1286 19.1742 76.9937 19.9489 76.8561C21.9042 76.527 23.856 76.335 25.8396 76.3872C28.2241 76.4878 28.2241 76.4878 30.3167 75.5499C32.1135 72.8663 32.6568 69.3274 33.2018 66.2072C34.2256 60.4121 35.804 54.8631 40.73 51.1291C44.9808 48.3767 49.706 47.0625 54.6569 46.2587C54.9836 46.2049 54.9836 46.2049 55.317 46.1501C55.8472 46.063 56.3775 45.9765 56.9079 45.8902C57.9088 36.8418 57.9088 36.8418 58.6579 27.7702C58.758 26.3009 58.8825 24.8351 59.0274 23.3696C59.0556 23.06 59.0556 23.06 59.0845 22.7442C59.1836 21.7888 59.2791 21.2699 59.8222 20.4552C61.6166 19.9911 62.5003 20.3528 64.0612 21.25C64.7558 21.6813 65.4285 22.1386 66.0979 22.6079C66.2813 22.7354 66.4646 22.863 66.6535 22.9945C69.3056 24.8537 71.8251 26.8428 74.2635 28.9743C75.0699 29.6928 75.0699 29.6928 75.9835 30.2582C75.9835 30.4331 75.9835 30.608 75.9835 30.7881C76.1583 30.7881 76.3332 30.7881 76.5133 30.7881C76.5133 30.963 76.5133 31.1379 76.5133 31.318C76.6773 31.3945 76.8412 31.4711 77.0101 31.5499C77.5731 31.8479 77.5731 31.8479 78.103 32.3778C77.9773 30.9494 77.8472 29.5223 77.6869 28.0973C76.959 21.3265 77.6313 14.9139 78.8978 8.26753C79.0726 8.26753 79.2475 8.26753 79.4277 8.26753C79.4277 8.09266 79.4277 7.9178 79.4277 7.73763C81.2222 7.56388 82.5291 8.16419 84.1469 8.89678C84.4157 9.0167 84.6845 9.13662 84.9615 9.26018C88.9692 11.0775 92.611 13.2421 96.1502 15.8534C96.493 16.1027 96.8397 16.3466 97.1896 16.5858C97.6361 16.8919 98.0709 17.2149 98.5032 17.5407C98.5032 17.7156 98.5032 17.8905 98.5032 18.0706C98.6672 18.1526 98.8311 18.2346 99 18.319C99.3643 18.5012 99.7286 18.6833 100.093 18.8655C100.093 19.0403 100.093 19.2152 100.093 19.3954C100.257 19.4719 100.421 19.5484 100.59 19.6272C101.153 19.9253 101.153 19.9253 101.683 20.4552C101.942 20.069 102.202 19.6826 102.461 19.296C102.605 19.0808 102.75 18.8657 102.899 18.644C103.275 18.0899 103.275 18.0899 103.537 17.5407C103.712 17.5407 103.887 17.5407 104.067 17.5407C104.242 17.191 104.417 16.8413 104.597 16.4809C104.772 16.4809 104.947 16.4809 105.127 16.4809C105.127 16.3061 105.127 16.1312 105.127 15.951C105.68 15.5215 105.68 15.5215 106.435 15.0403C106.678 14.8821 106.92 14.724 107.171 14.5611C109.649 13.2378 112.265 13.0068 115.021 12.6728C118.581 12.2082 121.809 11.3574 124.616 9.02925C126.761 7.37907 129.244 7.004 131.886 7.20773C133.648 7.58527 134.696 8.4121 135.726 9.89965C136.972 11.8597 137.829 13.9278 138.244 16.216C138.594 16.1285 138.944 16.0411 139.304 15.951C139.304 15.7762 139.304 15.6013 139.304 15.4211C139.665 15.0568 139.665 15.0568 140.181 14.6263C141.397 13.5978 142.56 12.5183 143.723 11.4314C144.338 10.917 144.338 10.917 144.868 10.917C144.868 10.7421 144.868 10.5673 144.868 10.3871C145.283 10.0061 145.718 9.64518 146.159 9.2942C146.426 9.08074 146.693 8.86728 146.968 8.64736C147.371 8.32819 147.371 8.32819 147.782 8.00258C148.007 7.81986 148.231 7.63714 148.463 7.44888C151.76 4.77187 155.218 2.47843 158.981 0.509505C159.145 0.423268 159.31 0.33703 159.479 0.248179C160.283 -0.0702265 160.97 -0.0170118 161.824 0.0541253ZM117.049 102.854C117.136 103.816 117.224 104.778 117.314 105.769C118.123 104.807 118.123 104.807 118.374 103.914C117.937 103.564 117.499 103.214 117.049 102.854Z" fill="#2A605F"/>
<path d="M213.222 46.4201C215.516 46.1846 216.954 46.6054 218.785 48.0098C219.56 48.6913 219.794 49.2279 219.936 50.265C220.086 53.2998 219.151 55.9557 218.248 58.8185C217.866 60.0793 217.536 61.3527 217.201 62.6266C216.029 67.0368 214.725 71.4156 213.288 75.7466C213.195 76.0292 213.101 76.3117 213.005 76.6028C212.109 79.2638 211.031 81.8382 209.827 84.374C209.745 84.5492 209.662 84.7244 209.577 84.9049C209.38 85.3244 209.181 85.7435 208.983 86.1624C208.808 86.1624 208.633 86.1624 208.453 86.1624C208.365 86.687 208.278 87.2116 208.188 87.7521C208.013 87.7521 207.838 87.7521 207.658 87.7521C207.629 87.9471 207.599 88.1421 207.569 88.343C207.386 89.1085 207.14 89.5697 206.705 90.2205C206.488 90.5516 206.488 90.5516 206.266 90.8894C206.029 91.2463 206.029 91.2463 205.787 91.6104C204.045 94.2829 202.446 97.0177 200.881 99.7954C199.994 101.369 199.094 102.923 198.12 104.444C198.295 104.356 198.47 104.269 198.65 104.179C210.181 103.118 222.153 104.187 233.357 107.093C233.573 107.148 233.79 107.203 234.013 107.259C240.744 108.985 247.183 111.636 253.492 114.512C254.385 114.916 255.278 115.32 256.171 115.723C257.062 116.126 257.953 116.529 258.843 116.934C259.008 117.009 259.172 117.084 259.342 117.161C259.822 117.379 260.301 117.597 260.781 117.816C261.936 118.322 263.113 118.764 264.3 119.188C264.885 119.546 264.885 119.546 265.123 120.214C265.15 120.871 265.15 120.871 264.816 121.417C264.653 121.587 264.49 121.756 264.322 121.93C264.151 122.111 263.98 122.291 263.803 122.477C263.636 122.646 263.468 122.816 263.295 122.99C263.163 123.132 263.031 123.274 262.895 123.421C262.6 123.732 262.287 124.026 261.97 124.315C261.796 124.315 261.621 124.315 261.441 124.315C261.441 124.49 261.441 124.665 261.441 124.845C261.089 125.2 261.089 125.2 260.58 125.623C259.603 126.452 258.655 127.304 257.715 128.173C254.418 131.204 254.418 131.204 253.757 131.204C253.757 131.379 253.757 131.553 253.757 131.734C252.84 132.528 252.84 132.528 252.168 132.528C252.168 132.703 252.168 132.878 252.168 133.058C251.609 133.538 251.048 133.988 250.462 134.433C250.294 134.562 250.125 134.692 249.952 134.826C249.613 135.087 249.273 135.347 248.933 135.607C248.119 136.234 247.319 136.881 246.517 137.524C246.074 137.827 246.074 137.827 245.544 137.827C245.544 138.002 245.544 138.177 245.544 138.357C245.046 138.745 244.55 139.09 244.021 139.434C243.85 139.546 243.68 139.658 243.504 139.773C239.119 142.618 234.664 145.437 229.913 147.63C229.496 147.834 229.496 147.834 229.07 148.042C218.477 153.141 206.565 155.181 194.941 156.109C194.613 156.136 194.285 156.163 193.947 156.192C190.297 156.452 186.636 156.433 182.979 156.437C182.207 156.439 181.435 156.442 180.662 156.448C170.316 156.528 159.599 155.746 149.61 152.896C147.933 152.425 146.97 152.298 145.393 153.076C144.329 153.592 143.23 153.984 142.119 154.387C141.897 154.468 141.676 154.549 141.448 154.632C139.196 155.455 136.949 156.228 134.633 156.851C133.089 157.266 131.592 157.67 130.13 158.328C127.56 159.467 124.786 160.125 122.083 160.878C121.822 160.952 121.561 161.025 121.292 161.101C121.04 161.172 120.787 161.242 120.527 161.315C120.192 161.409 120.192 161.409 119.85 161.504C117.964 161.97 116.143 161.987 114.209 161.987C113.676 161.987 113.144 161.992 112.611 161.997C108.617 162.003 108.617 162.003 106.981 161.408C106.385 160.729 106.385 160.729 106.186 159.818C106.825 154.071 110.908 148.026 114.135 143.391C114.263 143.206 114.391 143.021 114.523 142.831C116.277 140.32 118.105 137.906 120.123 135.602C120.654 134.994 121.18 134.381 121.706 133.767C121.978 133.451 122.25 133.134 122.523 132.819C123.326 131.886 124.092 130.933 124.848 129.962C126.815 127.546 129.378 125.72 131.824 123.818C132.882 122.993 133.913 122.141 134.932 121.268C136.102 120.266 137.293 119.299 138.509 118.354C139.897 117.275 141.248 116.162 142.584 115.02C143.642 114.118 144.719 113.243 145.808 112.379C147.747 110.836 149.648 109.25 151.535 107.645C152.428 106.887 153.33 106.142 154.24 105.404C155.596 104.301 156.915 103.157 158.232 102.007C159.216 101.151 160.212 100.312 161.227 99.4926C162.466 98.4907 163.637 97.4292 164.808 96.3505C165.496 95.7331 166.201 95.1515 166.924 94.5745C168.527 93.2814 170.012 91.8727 171.51 90.4606C172.327 89.6917 173.161 88.9481 174.011 88.2158C174.97 87.3766 175.904 86.5101 176.841 85.646C177.372 85.1563 177.906 84.6696 178.442 84.1851C181.028 81.8342 183.495 79.3674 185.963 76.8937C186.698 76.1575 187.434 75.4226 188.171 74.6879C188.644 74.2143 189.117 73.7406 189.59 73.2669C189.808 73.0502 190.025 72.8335 190.249 72.6102C191.368 71.4861 192.449 70.3437 193.482 69.1391C194.125 68.3926 194.799 67.6745 195.471 66.9536C196.475 65.8714 197.464 64.78 198.43 63.6635C199.056 62.9516 199.697 62.2534 200.339 61.5553C202.493 59.2101 204.601 56.8507 206.598 54.3686C206.779 54.1473 206.959 53.926 207.145 53.6979C208.076 52.5486 208.967 51.3825 209.827 50.1791C210.544 49.1851 211.228 48.2762 212.162 47.4799C212.337 47.4799 212.512 47.4799 212.692 47.4799C212.867 47.1302 213.042 46.7805 213.222 46.4201Z" fill="#214A4A"/>
<path d="M59.8222 20.4552C60.5176 20.4055 60.5176 20.4055 61.1469 20.4552C63.901 25.2257 66.4049 30.1033 68.8452 35.0406C70.0771 37.5315 71.3286 40.008 72.6298 42.4635C73.7938 44.6618 74.92 46.8784 76.0331 49.1028C76.1942 49.4246 76.1942 49.4246 76.3586 49.7529C78.5577 54.155 80.6184 58.6113 82.6069 63.1119C82.7252 63.3792 82.7252 63.3792 82.8458 63.6518C84.2928 66.9227 85.728 70.1987 87.1243 73.4915C88.4883 76.7076 89.8867 79.9015 91.3665 83.0659C91.4455 83.2352 91.5246 83.4045 91.6061 83.579C92.3594 85.1898 93.1179 86.797 93.9196 88.3845C97.7626 96.0459 100.597 104.264 103.49 112.322C103.798 113.177 104.11 114.029 104.424 114.881C105.025 116.52 105.61 118.164 106.186 119.811C106.298 120.128 106.41 120.444 106.525 120.771C106.871 121.762 107.209 122.757 107.544 123.752C107.651 124.056 107.758 124.36 107.868 124.673C108.841 127.621 108.395 129.913 107.693 132.86C106.903 136.342 106.598 139.861 106.301 143.414C106.281 143.634 106.262 143.854 106.241 144.081C106.204 144.498 106.17 144.915 106.139 145.333C106.014 146.718 106.014 146.718 105.508 147.365C105.382 147.453 105.256 147.54 105.127 147.63C100.014 146.451 94.9299 143.125 90.82 139.947C90.7527 140.115 90.6855 140.282 90.6161 140.455C90.2901 141.007 90.2901 141.007 89.3132 141.355C86.9464 141.787 84.4186 141.456 82.104 140.866C81.2697 140.68 80.4301 140.626 79.5798 140.552C78.4544 140.428 77.3535 140.189 76.2484 139.947C76.2484 139.772 76.2484 139.597 76.2484 139.417C75.9369 139.39 75.6255 139.362 75.3045 139.334C72.8585 139.06 70.4004 138.601 68.0829 137.761C67.4013 137.527 66.7127 137.347 66.0151 137.165C64.868 136.86 63.8256 136.448 62.7365 135.973C62.3295 135.847 61.9209 135.726 61.5112 135.608C60.1153 135.207 58.7796 134.682 57.4326 134.141C56.7245 133.883 56.06 133.712 55.3182 133.588C55.3182 133.413 55.3182 133.238 55.3182 133.058C54.9685 133.058 54.6188 133.058 54.2585 133.058C54.2585 132.883 54.2585 132.709 54.2585 132.528C54.0618 132.496 53.865 132.463 53.6624 132.429C52.9864 132.275 52.4763 132.068 51.874 131.734C51.874 131.559 51.874 131.384 51.874 131.204C51.5243 131.204 51.1746 131.204 50.8143 131.204C50.8143 131.029 50.8143 130.854 50.8143 130.674C50.3771 130.586 49.94 130.499 49.4896 130.409C49.4896 130.234 49.4896 130.059 49.4896 129.879C49.3372 129.847 49.1848 129.814 49.0277 129.781C48.407 129.608 47.9079 129.371 47.3411 129.067C47.1413 128.96 46.9415 128.853 46.7357 128.743C46.5297 128.632 46.3238 128.52 46.1116 128.405C45.9016 128.293 45.6915 128.18 45.4751 128.064C44.9581 127.787 44.4417 127.509 43.9259 127.229C43.9259 127.055 43.9259 126.88 43.9259 126.7C43.7346 126.678 43.5434 126.656 43.3463 126.633C42.4514 126.395 41.9789 125.966 41.2765 125.375C41.0142 125.287 40.7519 125.2 40.4817 125.11C40.4817 124.935 40.4817 124.76 40.4817 124.58C40.3277 124.55 40.1738 124.52 40.0152 124.489C39.3671 124.299 38.9551 124.042 38.4077 123.65C38.2174 123.514 38.0272 123.379 37.8312 123.239C37.6349 123.097 37.4385 122.955 37.2362 122.808C37.0439 122.671 36.8516 122.534 36.6535 122.393C36.0726 121.977 35.4952 121.556 34.9179 121.136C34.6124 120.918 34.6124 120.918 34.3006 120.695C34.0099 120.484 34.0099 120.484 33.7133 120.269C33.5375 120.143 33.3617 120.017 33.1806 119.887C33.0545 119.774 32.9284 119.662 32.7984 119.546C32.7984 119.371 32.7984 119.196 32.7984 119.016C32.4487 118.929 32.099 118.841 31.7387 118.751C31.7387 118.576 31.7387 118.401 31.7387 118.221C31.389 118.134 31.0392 118.046 30.6789 117.956C30.6789 117.781 30.6789 117.607 30.6789 117.426C30.5228 117.354 30.3668 117.282 30.206 117.208C28.7709 116.446 27.5322 115.174 26.4399 113.982C26.4399 113.807 26.4399 113.632 26.4399 113.452C26.2924 113.441 26.1448 113.43 25.9928 113.419C25.2328 113.131 24.9198 112.672 24.4311 112.041C24.0312 111.569 23.6061 111.196 23.1282 110.803C22.5008 110.285 21.9676 109.763 21.4557 109.13C20.9507 108.41 20.9507 108.41 20.3463 108.153C20.3463 107.978 20.3463 107.803 20.3463 107.623C20.1142 107.524 20.1142 107.524 19.8775 107.424C19.2036 107.047 18.8112 106.635 18.3096 106.05C18.0703 105.776 18.0703 105.776 17.8263 105.496C17.432 104.974 17.432 104.974 17.167 104.179C16.9293 104.064 16.9293 104.064 16.6868 103.947C15.9206 103.553 15.5805 102.998 15.0475 102.324C14.6614 102.007 14.2751 101.69 13.8864 101.375C13.0344 100.628 12.332 99.7446 11.6033 98.88C11.3875 98.6283 11.1716 98.3765 10.9493 98.1172C8.47643 95.2276 6.06499 92.2871 3.85283 89.1918C3.41571 88.5825 2.96691 87.9843 2.51261 87.3878C1.95773 86.649 1.45195 85.9139 1.00577 85.1027C0.906387 84.9391 0.807004 84.7755 0.70461 84.6069C0.601811 84.4262 0.499013 84.2456 0.3931 84.0594C0.295766 83.8931 0.198432 83.7268 0.0981481 83.5554C-0.135642 82.6759 0.0712143 82.1941 0.475893 81.3934C2.94552 79.9192 6.35266 79.5171 9.13517 78.8867C9.88013 78.7133 10.617 78.5143 11.3549 78.3133C13.4121 77.7909 15.5228 77.5418 17.6214 77.2433C18.3999 77.1287 19.1742 76.9938 19.9489 76.8561C21.9042 76.5271 23.856 76.3351 25.8396 76.3873C28.2241 76.4878 28.2241 76.4878 30.3167 75.55C32.1135 72.8664 32.6568 69.3274 33.2018 66.2073C34.2256 60.4122 35.804 54.8632 40.73 51.1292C44.9808 48.3767 49.706 47.0626 54.6569 46.2587C54.9836 46.205 54.9836 46.205 55.317 46.1502C55.8472 46.0631 56.3775 45.9766 56.9079 45.8903C57.9088 36.8419 57.9088 36.8419 58.6579 27.7703C58.758 26.301 58.8825 24.8352 59.0274 23.3697C59.0556 23.0601 59.0556 23.0601 59.0845 22.7443C59.1836 21.7889 59.2791 21.2699 59.8222 20.4552Z" fill="#244D42"/>
<path d="M161.824 0.0541253C161.89 0.667854 161.89 0.667854 161.824 1.37887C161.377 1.80009 161.377 1.80009 160.764 2.15715C160.545 2.29172 160.326 2.42628 160.1 2.56493C159.882 2.69812 159.664 2.83132 159.439 2.96856C157.51 4.2996 155.714 5.85052 154.095 7.54513C153.61 8.00258 153.61 8.00258 153.081 8.00258C153.012 8.15832 152.943 8.31406 152.872 8.47452C152.53 9.10046 152.161 9.48761 151.657 9.98969C150.343 11.4275 149.409 13.0685 148.438 14.7494C147.781 15.8825 147.104 16.9734 146.339 18.0375C145.304 19.4923 144.448 21.0262 143.592 22.5913C142.383 24.7806 141.16 26.9566 139.862 29.095C139.223 30.1601 138.71 31.226 138.244 32.3778C138.069 32.3778 137.894 32.3778 137.714 32.3778C137.687 32.5145 137.66 32.6511 137.631 32.7918C137.211 34.2823 136.474 35.6866 135.81 37.0807C134.351 40.1786 132.97 43.3339 131.855 46.5733C131.667 47.0886 131.455 47.5955 131.237 48.0988C130.829 49.063 130.489 50.0287 130.163 51.0236C130.106 51.1986 130.048 51.3737 129.989 51.554C129.826 52.0504 129.663 52.5471 129.501 53.0438C129.369 53.4414 129.237 53.8388 129.104 54.2361C129.043 54.4205 128.982 54.6049 128.919 54.795C128.754 55.2851 128.584 55.7732 128.41 56.2605C127.559 58.7042 126.935 61.1671 126.355 63.6883C126.134 64.646 125.894 65.594 125.626 66.5396C124.645 70.0433 124.074 73.6581 123.441 77.2369C123.394 77.4972 123.348 77.7574 123.3 78.0256C122.049 85.0822 120.859 92.1753 120.172 99.312C119.827 102.635 119.827 102.635 119.003 103.649C118.883 103.736 118.762 103.824 118.639 103.914C118.201 103.739 117.764 103.564 117.314 103.384C117.351 103.562 117.388 103.74 117.426 103.923C117.674 106.219 117.001 107.653 115.906 109.627C112.739 115.344 110.744 121.532 108.836 127.759C108.053 126.977 107.867 125.99 107.545 124.956C107.393 124.478 107.241 124 107.089 123.523C107.009 123.271 106.93 123.02 106.848 122.76C105.392 118.168 103.83 113.647 102.073 109.16C101.629 108.02 101.2 106.874 100.771 105.728C98.4269 99.4672 95.9997 93.306 93.0613 87.2948C90.5641 82.181 88.26 76.9812 86.0588 71.7337C84.7655 68.6546 83.4134 65.6032 82.0403 62.5589C81.8044 62.035 81.5695 61.5107 81.3347 60.9863C79.0087 55.797 76.5587 50.6774 74.0129 45.5921C73.8799 45.3262 73.7468 45.0602 73.6097 44.7862C72.1807 41.9345 70.7287 39.097 69.2352 36.2785C68.2751 34.462 67.3614 32.6244 66.4546 30.7808C65.0525 27.9335 63.6238 25.1247 61.9676 22.4138C61.1469 21.0602 61.1469 21.0602 61.1469 20.1902C65.8761 20.678 71.2913 26.2903 74.7094 29.3444C75.3808 29.9846 75.3808 29.9846 75.9834 30.2582C75.9834 30.4331 75.9834 30.608 75.9834 30.7881C76.1583 30.7881 76.3331 30.7881 76.5133 30.7881C76.5133 30.963 76.5133 31.1379 76.5133 31.318C76.6772 31.3945 76.8412 31.4711 77.0101 31.5499C77.5731 31.8479 77.5731 31.8479 78.1029 32.3778C77.9773 30.9494 77.8471 29.5223 77.6869 28.0973C76.9589 21.3265 77.6313 14.9139 78.8978 8.26753C79.0726 8.26753 79.2475 8.26753 79.4276 8.26753C79.4276 8.09266 79.4276 7.9178 79.4276 7.73763C81.2222 7.56388 82.5291 8.16419 84.1469 8.89678C84.4157 9.0167 84.6845 9.13662 84.9615 9.26018C88.9691 11.0775 92.6109 13.2421 96.1502 15.8534C96.4929 16.1027 96.8397 16.3466 97.1895 16.5858C97.636 16.8919 98.0709 17.2149 98.5032 17.5407C98.5032 17.7156 98.5032 17.8905 98.5032 18.0706C98.6672 18.1526 98.8311 18.2346 99 18.319C99.3643 18.5012 99.7286 18.6833 100.093 18.8655C100.093 19.0403 100.093 19.2152 100.093 19.3954C100.257 19.4719 100.421 19.5484 100.59 19.6272C101.153 19.9253 101.153 19.9253 101.682 20.4552C101.942 20.069 102.202 19.6826 102.461 19.296C102.605 19.0808 102.75 18.8657 102.899 18.644C103.275 18.0899 103.275 18.0899 103.537 17.5407C103.712 17.5407 103.887 17.5407 104.067 17.5407C104.329 17.0161 104.329 17.0161 104.597 16.4809C104.772 16.4809 104.947 16.4809 105.127 16.4809C105.127 16.3061 105.127 16.1312 105.127 15.951C105.68 15.5215 105.68 15.5215 106.435 15.0403C106.678 14.8821 106.92 14.724 107.171 14.5611C109.649 13.2378 112.265 13.0068 115.021 12.6728C118.581 12.2082 121.809 11.3574 124.616 9.02925C126.761 7.37907 129.244 7.004 131.886 7.20773C133.648 7.58527 134.696 8.4121 135.726 9.89965C136.972 11.8597 137.829 13.9278 138.244 16.216C138.594 16.1285 138.943 16.0411 139.304 15.951C139.304 15.7762 139.304 15.6013 139.304 15.4211C139.665 15.0568 139.665 15.0568 140.181 14.6263C141.397 13.5978 142.56 12.5183 143.723 11.4314C144.338 10.917 144.338 10.917 144.868 10.917C144.868 10.7421 144.868 10.5673 144.868 10.3871C145.283 10.0061 145.718 9.64518 146.159 9.2942C146.426 9.08074 146.693 8.86728 146.968 8.64736C147.237 8.43458 147.505 8.2218 147.782 8.00258C148.007 7.81986 148.231 7.63714 148.463 7.44888C151.76 4.77187 155.218 2.47843 158.981 0.509505C159.145 0.423268 159.31 0.33703 159.479 0.248179C160.283 -0.0702265 160.97 -0.0170118 161.824 0.0541253Z" fill="#3A785E"/>
<path d="M204.486 103.897C214.218 103.709 223.925 104.646 233.357 107.093C233.573 107.148 233.79 107.203 234.013 107.259C240.744 108.985 247.183 111.635 253.492 114.512C254.385 114.916 255.278 115.32 256.171 115.723C257.062 116.125 257.953 116.529 258.843 116.934C259.09 117.046 259.09 117.046 259.342 117.161C259.822 117.379 260.301 117.597 260.781 117.816C261.936 118.322 263.113 118.764 264.3 119.188C264.885 119.546 264.885 119.546 265.123 120.214C265.15 120.871 265.15 120.871 264.816 121.417C264.653 121.586 264.49 121.756 264.322 121.93C264.065 122.201 264.065 122.201 263.803 122.477C263.636 122.646 263.468 122.816 263.295 122.99C263.163 123.132 263.031 123.274 262.895 123.421C262.6 123.732 262.287 124.026 261.97 124.315C261.796 124.315 261.621 124.315 261.441 124.315C261.441 124.49 261.441 124.665 261.441 124.845C261.089 125.2 261.089 125.2 260.58 125.623C259.603 126.452 258.655 127.304 257.715 128.173C254.418 131.204 254.418 131.204 253.757 131.204C253.757 131.378 253.757 131.553 253.757 131.734C252.84 132.528 252.84 132.528 252.168 132.528C252.168 132.703 252.168 132.878 252.168 133.058C251.609 133.538 251.048 133.988 250.462 134.433C250.294 134.562 250.125 134.692 249.952 134.826C249.613 135.087 249.273 135.347 248.933 135.607C248.119 136.234 247.319 136.881 246.517 137.524C246.074 137.827 246.074 137.827 245.544 137.827C245.544 138.002 245.544 138.177 245.544 138.357C245.046 138.745 244.55 139.09 244.021 139.434C243.85 139.546 243.68 139.658 243.504 139.773C239.119 142.618 234.664 145.437 229.913 147.63C229.635 147.766 229.357 147.902 229.07 148.042C218.477 153.141 206.565 155.181 194.941 156.109C194.613 156.136 194.285 156.163 193.947 156.192C190.297 156.452 186.636 156.433 182.979 156.437C182.207 156.439 181.434 156.442 180.662 156.448C169.635 156.533 157.711 155.857 147.252 152.135C147.904 151.386 148.587 151.04 149.484 150.63C149.92 150.427 149.92 150.427 150.364 150.22C150.676 150.076 150.988 149.932 151.309 149.783C158.763 146.277 165.396 141.776 171.403 136.14C171.972 135.614 172.546 135.105 173.134 134.6C174.494 133.415 175.766 132.147 177.041 130.872C177.277 130.64 177.513 130.407 177.756 130.168C179.166 128.76 180.463 127.305 181.709 125.75C182.296 125.021 182.909 124.336 183.549 123.653C185.681 121.329 187.624 118.856 189.525 116.342C189.793 115.988 190.061 115.635 190.331 115.282C192.354 112.626 194.223 109.925 195.931 107.054C197.351 104.685 197.351 104.685 198.12 104.179C198.925 104.011 199.717 103.993 200.538 103.98C200.905 103.969 200.905 103.969 201.279 103.958C202.348 103.93 203.417 103.919 204.486 103.897Z" fill="#578B7D"/>
<path d="M161.824 1.11401C161.998 1.11401 162.173 1.11401 162.353 1.11401C163.979 6.63423 164.685 12.4688 165.171 18.1918C165.188 18.3919 165.205 18.5921 165.222 18.7982C165.635 23.7865 165.644 28.7687 165.618 33.7708C165.615 34.7214 165.616 35.672 165.617 36.6226C165.632 50.7543 165.632 50.7543 164.208 57.548C164.143 57.9045 164.08 58.2613 164.018 58.6182C163.199 63.2224 163.199 63.2224 161.855 64.3104C161.153 64.7407 160.434 65.1173 159.704 65.4965C154.303 68.5058 149.17 71.9757 144.338 75.8295C144.067 76.043 144.067 76.043 143.792 76.2608C140.253 79.06 137.011 82.0772 133.806 85.2517C133.574 85.4802 133.342 85.7087 133.103 85.9441C131.522 87.5236 130.102 89.1876 128.706 90.9315C128.455 91.2294 128.203 91.5261 127.948 91.8206C126.058 94.0058 124.326 96.2904 122.613 98.615C122.261 99.0914 121.909 99.5675 121.556 100.043C121.258 100.444 120.961 100.846 120.664 101.248C120.52 101.428 120.376 101.609 120.228 101.794C120.141 101.794 120.053 101.794 119.963 101.794C119.993 100.95 120.028 100.105 120.063 99.2609C120.071 99.0288 120.079 98.7967 120.087 98.5576C120.271 94.2786 121.091 90.0337 121.759 85.8098C121.916 84.8125 122.072 83.815 122.228 82.8175C122.995 77.9327 123.809 73.0665 124.982 68.2609C125.189 67.4056 125.381 66.5481 125.567 65.688C126.228 62.6479 127.036 59.7067 128.008 56.7522C128.236 56.0354 128.433 55.3116 128.623 54.5839C128.881 53.6101 129.183 52.678 129.552 51.7409C129.803 51.0927 130.032 50.4376 130.263 49.7817C130.623 48.7854 131.022 47.8263 131.472 46.8673C131.955 45.828 132.36 44.7895 132.73 43.7045C133.357 41.903 134.092 40.156 134.85 38.4055C134.966 38.1339 135.083 37.8623 135.203 37.5825C135.314 37.3281 135.425 37.0737 135.54 36.8117C135.64 36.5828 135.739 36.3539 135.842 36.118C136.125 35.5573 136.125 35.5573 136.654 35.0274C136.855 34.5805 137.042 34.1269 137.217 33.6696C137.311 33.4284 137.405 33.1873 137.501 32.9389C137.571 32.7538 137.642 32.5687 137.714 32.3779C137.889 32.3779 138.064 32.3779 138.244 32.3779C138.265 32.1522 138.286 31.9264 138.307 31.6938C138.543 30.6366 139.013 29.892 139.618 29.0164C139.839 28.6861 140.058 28.3552 140.277 28.0239C140.383 27.8624 140.49 27.7009 140.6 27.5345C141.298 26.4513 141.879 25.3013 142.483 24.1645C143.825 21.6634 145.199 19.216 146.806 16.8744C147.59 15.7285 148.297 14.5535 148.991 13.3513C149.865 11.8475 150.848 10.5728 152.061 9.315C152.594 8.78064 152.594 8.78064 153.081 8.00267C153.255 8.00267 153.43 8.00267 153.61 8.00267C153.679 7.84557 153.747 7.68846 153.817 7.52659C154.392 6.48741 155.354 5.83523 156.26 5.08824C156.47 4.91167 156.679 4.73509 156.895 4.55317C158.216 3.46369 159.56 2.52887 161.046 1.67806C161.543 1.41739 161.543 1.41739 161.824 1.11401Z" fill="#274F3E"/>
<path d="M57.1728 45.8903C57.1722 46.046 57.1716 46.2018 57.171 46.3622C57.165 48.0177 57.1611 49.6732 57.1582 51.3286C57.1569 51.9424 57.1551 52.5561 57.1528 53.1698C57.1326 58.6312 57.1588 64.0826 57.8848 69.5038C57.9072 69.6757 57.9296 69.8476 57.9527 70.0248C59.4032 81.1566 61.3874 92.395 65.7036 102.827C65.9158 103.384 65.9158 103.384 65.9158 104.179C65.5934 104.19 65.271 104.201 64.9388 104.212C64.7574 104.218 64.5761 104.224 64.3893 104.231C63.6746 104.168 63.1364 103.916 62.4716 103.649C61.9218 103.553 61.3694 103.471 60.8157 103.401C59.3433 103.188 58.0316 102.844 56.6429 102.324C55.2447 101.83 53.8731 101.418 52.4153 101.139C51.874 101 51.874 101 51.3369 100.729C50.5737 100.35 49.7993 100.302 48.9597 100.205C48.9597 100.03 48.9597 99.855 48.9597 99.6748C48.6263 99.6529 48.293 99.6311 47.9496 99.6086C46.6596 99.4684 45.5453 99.0743 44.3398 98.6088C43.5084 98.292 42.6632 98.0582 41.8063 97.8202C41.2371 97.6338 40.6701 97.4412 40.1029 97.2489C39.3279 96.9945 38.5475 96.7621 37.766 96.5285C36.2551 96.068 34.7888 95.5277 33.321 94.9451C32.2913 94.5472 31.2477 94.2071 30.1956 93.8739C28.6139 93.3667 27.1245 92.7752 25.6233 92.0668C24.7552 91.6845 23.8758 91.3732 22.9791 91.064C21.6323 90.596 20.3933 90.0508 19.1323 89.3904C18.2267 88.9471 17.2895 88.6248 16.3391 88.2913C13.1275 87.1349 13.1275 87.1349 11.7296 86.2866C11.0578 85.8882 10.4207 85.6356 9.6825 85.3841C8.3461 84.9145 7.05902 84.3741 5.77465 83.7779C5.77465 83.603 5.77465 83.4282 5.77465 83.248C5.54446 83.221 5.31428 83.194 5.07712 83.1662C4.12651 82.971 3.46746 82.6525 2.6285 82.1716C2.37236 82.0265 2.11622 81.8813 1.85231 81.7318C1.66038 81.6201 1.46844 81.5084 1.27069 81.3934C2.12038 80.8269 2.93909 80.546 3.90352 80.2508C4.08749 80.194 4.27147 80.1372 4.46102 80.0786C7.75643 79.0813 11.1149 78.2188 14.5176 77.6841C14.8899 77.6215 15.2621 77.5587 15.6343 77.4957C17.7729 77.1395 19.9129 76.8256 22.0684 76.5912C22.2736 76.5679 22.4787 76.5447 22.6901 76.5207C23.7853 76.4065 24.8541 76.3515 25.9555 76.3707C28.2775 76.4722 28.2775 76.4722 30.3094 75.551C32.1209 72.882 32.6578 69.3216 33.2018 66.2073C34.2256 60.4122 35.804 54.8632 40.73 51.1292C45.2794 48.1833 51.6853 45.8903 57.1728 45.8903Z" fill="#2A605F"/>
<path d="M79.4276 7.73775C81.2221 7.564 82.529 8.1643 84.1468 8.8969C84.4156 9.01682 84.6845 9.13674 84.9614 9.2603C88.9691 11.0776 92.6109 13.2422 96.1502 15.8535C96.4929 16.1028 96.8396 16.3467 97.1895 16.586C97.636 16.8921 98.0709 17.215 98.5032 17.5408C98.5032 17.7157 98.5032 17.8906 98.5032 18.0707C98.6671 18.1527 98.8311 18.2347 99 18.3191C99.3642 18.5013 99.7285 18.6834 100.093 18.8656C100.093 19.0404 100.093 19.2153 100.093 19.3955C100.238 19.4518 100.383 19.5082 100.533 19.5662C101.37 20.0514 101.954 20.7189 102.593 21.4323C102.732 21.5851 102.87 21.7379 103.012 21.8953C103.454 22.3851 103.893 22.8774 104.332 23.3697C104.472 23.5247 104.612 23.6797 104.756 23.8394C108.661 28.1686 111.941 32.7836 114.664 37.9419C114.779 38.1576 114.893 38.3732 115.011 38.5954C115.328 39.2021 115.636 39.8123 115.939 40.4258C116.031 40.6036 116.122 40.7814 116.216 40.9646C117.094 42.816 116.57 44.2206 115.934 46.0397C115.482 47.4301 115.198 48.869 114.878 50.2946C114.824 50.5314 114.769 50.7683 114.713 51.0123C114.642 51.3309 114.642 51.3309 114.569 51.6559C114.398 52.2558 114.15 52.7538 113.87 53.3089C113.727 53.9667 113.601 54.6165 113.489 55.2794C113.255 56.6075 112.994 57.9128 112.661 59.2205C111.645 63.5869 110.857 69.3523 112.015 73.7099C112.06 74.3769 112.085 75.0452 112.098 75.7136C112.106 75.8917 112.113 76.0698 112.121 76.2533C112.128 76.7744 112.128 76.7744 112.015 77.6841C111.48 78.2047 111.48 78.2047 110.955 78.479C110.004 77.8446 109.947 77.5258 109.581 76.466C108.777 74.2818 107.764 72.2259 106.716 70.1497C106.617 69.9526 106.518 69.7556 106.416 69.5525C102.768 62.3064 98.5489 55.48 93.0388 49.4909C92.3551 48.7453 91.6895 47.9858 91.0259 47.2223C90.2755 46.3664 89.5105 45.5237 88.747 44.6794C88.2541 44.1289 87.7724 43.5712 87.293 43.009C86.6087 42.2176 85.8829 41.4857 85.1341 40.7564C83.8798 39.5342 82.8279 38.3745 81.9083 36.8717C81.4176 36.166 80.8265 35.6735 80.1458 35.1558C77.634 32.9765 77.7024 28.9523 77.4414 25.8341C77.0267 19.8521 77.782 14.123 78.8977 8.26765C79.0726 8.26765 79.2474 8.26765 79.4276 8.26765C79.4276 8.09278 79.4276 7.91791 79.4276 7.73775Z" fill="#204B4B"/>
<path d="M57.1728 45.8903C57.1722 46.046 57.1716 46.2018 57.171 46.3622C57.165 48.0177 57.1611 49.6732 57.1582 51.3286C57.1569 51.9424 57.1551 52.5561 57.1528 53.1698C57.1322 58.745 57.1873 64.2865 57.9345 69.8184C57.9816 70.1824 58.0286 70.5464 58.0755 70.9104C58.3537 73.0439 58.6807 75.1653 59.0617 77.2827C59.3043 78.6749 59.3605 79.9839 59.2923 81.3934C57.7632 81.3025 56.4323 81.1175 55.0129 80.5333C51.2086 78.981 46.8367 78.3393 42.7709 77.8698C41.7916 77.7551 40.8329 77.61 39.869 77.4026C37.4482 76.8823 34.9505 76.8367 32.4838 76.7402C32.0676 76.723 32.0676 76.723 31.6429 76.7055C30.9684 76.6778 30.2938 76.6507 29.6191 76.6243C30.0882 75.4206 30.6792 74.3483 31.3319 73.2348C32.3876 71.0294 32.7571 68.6583 33.1818 66.2673C34.2263 60.4529 35.7808 54.8807 40.73 51.1292C45.2794 48.1833 51.6853 45.8903 57.1728 45.8903Z" fill="#578B7D"/>
<path d="M134.005 8.00261C136.128 9.67105 137.214 12.3756 137.979 14.8913C138.054 15.0798 138.128 15.2683 138.205 15.4626C138.36 15.9842 138.36 15.9842 138.244 17.0109C137.642 17.6442 136.98 18.1316 136.278 18.6513C133.298 20.9029 130.727 23.8839 128.441 26.8139C128.171 27.1445 127.899 27.4742 127.627 27.8034C123.945 32.2586 120.841 36.8828 118.26 42.064C117.82 42.7483 117.538 42.968 116.784 43.2408C116.684 42.9962 116.584 42.7517 116.481 42.4997C113.715 35.8864 109.886 30.1752 105.226 24.7606C105.083 24.5946 104.941 24.4286 104.794 24.2575C104.1 23.4592 103.405 22.7168 102.62 22.0076C101.947 21.25 101.947 21.25 101.938 20.568C102.223 19.9013 102.527 19.2769 102.891 18.6502C103.012 18.4409 103.132 18.2315 103.257 18.0158C103.349 17.859 103.442 17.7023 103.537 17.5408C103.712 17.5408 103.887 17.5408 104.067 17.5408C104.242 17.191 104.417 16.8413 104.597 16.481C104.772 16.481 104.947 16.481 105.127 16.481C105.127 16.3061 105.127 16.1312 105.127 15.9511C105.68 15.5216 105.68 15.5216 106.435 15.0403C106.799 14.8031 106.799 14.8031 107.171 14.5611C109.649 13.2378 112.265 13.0069 115.02 12.6728C118.581 12.2083 121.809 11.3574 124.616 9.02928C127.182 7.05588 131.108 6.36782 134.005 8.00261Z" fill="#578B7D"/>
<path d="M131.091 157.698C126.687 160.634 119.39 161.987 114.209 161.987C113.676 161.987 113.144 161.992 112.611 161.997C110.669 162 108.865 161.899 106.981 161.408C106.894 161.058 106.806 160.708 106.716 160.348C106.956 160.355 107.195 160.362 107.441 160.369C114.193 160.537 120.718 160.226 127.206 158.102C128.531 157.68 129.718 157.636 131.091 157.698Z" fill="#295F5E"/>
<path d="M89.4953 138.357C89.9324 138.794 90.3696 139.232 90.82 139.682C90.6451 140.119 90.4703 140.556 90.2901 141.007C89.9404 141.007 89.5907 141.007 89.2303 141.007C89.3178 140.132 89.4052 139.258 89.4953 138.357Z" fill="#295C5A"/>
<path d="M103.537 13.0366C103.712 13.2115 103.887 13.3864 104.067 13.5665C103.892 13.5665 103.717 13.5665 103.537 13.5665C103.537 13.3917 103.537 13.2168 103.537 13.0366Z" fill="#C2DBDB"/>
<path d="M101.947 11.7119C102.122 11.7119 102.297 11.7119 102.477 11.7119C102.39 11.8868 102.302 12.0616 102.212 12.2418C102.125 12.0669 102.037 11.8921 101.947 11.7119Z" fill="#CAD6D6"/>
<path d="M99.8279 10.1222C100.003 10.2971 100.178 10.4719 100.358 10.6521C100.183 10.6521 100.008 10.6521 99.8279 10.6521C99.8279 10.4772 99.8279 10.3024 99.8279 10.1222Z" fill="#B1E0D6"/>
<path d="M145.397 6.41296C145.485 6.58783 145.572 6.7627 145.662 6.94286C145.487 6.85543 145.313 6.76799 145.132 6.67791C145.22 6.59048 145.307 6.50305 145.397 6.41296Z" fill="#AAFFFF"/>
</svg>
