<svg width="481" height="449" viewBox="0 0 481 449" fill="none" xmlns="http://www.w3.org/2000/svg">
<path opacity="0.996" fill-rule="evenodd" clip-rule="evenodd" d="M0 -1C22.8464 -1 45.6965 -1 68.5428 -1C85.2696 22.6158 105.465 42.759 129.133 59.4291C141.145 67.5209 154.021 73.8984 167.76 78.5619C169.532 84.887 171.933 90.9489 174.955 96.7474C169.464 104.722 164.476 113.057 159.996 121.753C156.944 129.015 154.422 136.466 152.423 144.106C152.169 144.391 151.855 144.517 151.476 144.485C136.124 141.56 121.355 136.825 107.169 130.277C85.1181 123.889 66.248 112.334 50.5551 95.6108C43.9924 87.7808 37.4259 79.9512 30.8632 72.1211C25.1601 63.5088 19.6048 54.7948 14.2009 45.9794C7.26706 32.5083 2.9765 18.2378 1.32541 3.16753C0.992167 1.73071 0.552887 0.341534 0 -1Z" fill="#28503F"/>
<path fill-rule="evenodd" clip-rule="evenodd" d="M68.543 -1C73.5909 -1 78.6426 -1 83.6906 -1C109.07 10.0563 135.2 19.086 162.079 26.0889C201.925 35.8835 242.195 38.1566 282.881 32.9085C316.638 26.3433 349.205 16.1771 380.583 2.40979C367.988 10.3956 355.745 18.9201 343.85 27.9832C342.839 28.1095 341.832 28.2358 340.821 28.3621C340.359 29.1396 339.98 29.9605 339.685 30.8247C331.145 37.1814 322.814 43.8115 314.691 50.7152C306.769 58.3262 298.942 65.9665 291.213 73.6366C275.497 81.0726 258.96 85.619 241.604 87.2758C222.874 88.9591 204.318 87.8225 185.937 83.866C179.783 82.3278 173.724 80.56 167.76 78.5619C154.021 73.8984 141.145 67.5209 129.133 59.4291C105.465 42.759 85.2697 22.6158 68.543 -1Z" fill="#2B6160"/>
<path fill-rule="evenodd" clip-rule="evenodd" d="M83.6904 -1C184.676 -1 285.657 -1 386.642 -1C384.624 0.135287 382.605 1.27188 380.583 2.40979C349.205 16.1771 316.638 26.3433 282.881 32.9085C242.195 38.1566 201.925 35.8835 162.079 26.0889C135.2 19.086 109.07 10.0563 83.6904 -1Z" fill="#214A4A"/>
<path opacity="0.999" fill-rule="evenodd" clip-rule="evenodd" d="M386.642 -1C412.772 -1 438.901 -1 465.031 -1C455.17 10.3185 445.513 21.8108 436.061 33.4768C409.788 66.961 383.658 100.554 357.672 134.255C344.058 151.288 330.297 168.21 316.395 185.023C297.135 206.822 277.314 228.165 256.941 249.052C253.389 252.982 249.98 257.023 246.716 261.175C242.168 265.85 237.753 270.65 233.462 275.572C228.024 281.391 222.469 287.074 216.8 292.621C215.077 294.655 215.077 296.676 216.8 298.683C216.69 300.224 217.194 301.487 218.314 302.472C218.496 302.831 218.561 303.21 218.504 303.608C217.818 303.506 217.186 303.253 216.61 302.851C215.861 300.305 215.043 297.78 214.149 295.273C211.756 277.832 211.881 260.405 214.528 242.99C215.883 234.22 217.523 225.507 219.451 216.848C221.636 208.883 223.843 200.926 226.078 192.979C227.581 188.108 229.031 183.183 230.433 178.204C234.329 169.905 237.798 161.444 240.846 152.82C244.209 145.207 247.682 137.63 251.26 130.088C253.828 126.09 256.1 121.922 258.077 117.585C261.549 112.408 264.829 107.104 267.923 101.673C272.107 96.6035 276.148 91.4255 280.041 86.1392C283.994 82.1236 287.717 77.956 291.212 73.6366C298.941 65.9665 306.769 58.3262 314.691 50.7152C322.814 43.8115 331.145 37.1814 339.685 30.8247C339.98 29.9605 340.359 29.1396 340.821 28.3621C341.832 28.2358 342.839 28.1095 343.85 27.9832C355.745 18.9201 367.988 10.3956 380.583 2.40979C382.605 1.27189 384.624 0.135287 386.642 -1Z" fill="#38725A"/>
<path fill-rule="evenodd" clip-rule="evenodd" d="M465.031 -1C470.458 -1 475.888 -1 481.315 -1C481.315 17.3118 481.315 35.6237 481.315 53.9356C477.475 68.2942 473.624 82.6911 469.765 97.1263C465.766 106.39 461.979 115.735 458.404 125.162C454.826 132.449 451.353 139.774 447.99 147.137C446.35 150.42 444.707 153.703 443.067 156.987C436.917 167.907 430.48 178.642 423.754 189.191C413.457 202.971 401.972 215.789 389.293 227.646C385.771 230.225 382.488 233.067 379.447 236.17C369.098 246.658 357.862 256.003 345.744 264.206C340.897 267.581 335.845 270.675 330.596 273.488C316.717 279.989 302.706 286.177 288.562 292.053C282.821 293.931 277.012 295.573 271.142 296.978C270.597 297.121 270.218 297.437 270.006 297.925C265.609 298.806 261.19 299.564 256.752 300.198C256.369 299.719 255.801 299.467 255.048 299.441C245.346 300.531 235.689 301.857 226.078 303.419C225.866 303.564 225.741 303.753 225.699 303.987C224.658 304.222 223.586 304.348 222.48 304.366C221.041 304.44 219.716 304.188 218.504 303.608C218.561 303.21 218.497 302.831 218.315 302.472C217.194 301.487 216.69 300.224 216.8 298.683C215.077 296.676 215.077 294.655 216.8 292.621C222.469 287.074 228.024 281.391 233.462 275.572C237.753 270.65 242.169 265.85 246.717 261.175C249.981 257.023 253.389 252.982 256.941 249.052C277.315 228.165 297.135 206.822 316.395 185.023C330.297 168.21 344.059 151.288 357.673 134.255C383.658 100.554 409.788 66.961 436.061 33.4768C445.514 21.8108 455.17 10.3185 465.031 -1Z" fill="#274F3E"/>
<path fill-rule="evenodd" clip-rule="evenodd" d="M481.315 59.2397C481.315 72.3739 481.315 85.5077 481.315 98.6418C476.57 101.962 471.647 104.993 466.546 107.735C472.245 91.7722 477.168 75.6071 481.315 59.2397Z" fill="#578B7D"/>
<path opacity="0.998" fill-rule="evenodd" clip-rule="evenodd" d="M291.212 73.6367C287.717 77.9562 283.994 82.1237 280.041 86.1393C276.148 91.4256 272.107 96.6036 267.923 101.673C264.829 107.104 261.549 112.408 258.077 117.585C256.1 121.922 253.828 126.09 251.26 130.088C247.682 137.63 244.209 145.207 240.846 152.82C234.333 158.191 227.392 162.99 220.018 167.217C219.681 167.529 219.556 167.908 219.64 168.353C219.394 168.238 219.14 168.112 218.882 167.974C215.22 169.805 211.562 171.637 207.9 173.468C207.616 173.722 207.488 174.038 207.522 174.415C190.564 181.908 173.019 187.591 154.884 191.464C165.211 165.165 179.98 141.739 199.19 121.184C209.854 111.269 220.965 101.924 232.515 93.1483C235.511 91.0933 238.54 89.1361 241.604 87.2759C258.959 85.6191 275.496 81.0727 291.212 73.6367Z" fill="#28503F"/>
<path fill-rule="evenodd" clip-rule="evenodd" d="M167.76 78.562C173.724 80.5602 179.783 82.3279 185.937 83.8661C182.267 88.2023 178.605 92.4959 174.955 96.7476C171.933 90.949 169.532 84.8872 167.76 78.562Z" fill="#588C7D"/>
<path opacity="0.998" fill-rule="evenodd" clip-rule="evenodd" d="M185.936 83.8662C204.318 87.8227 222.874 88.9593 241.604 87.276C238.54 89.1362 235.511 91.0935 232.515 93.1484C220.965 101.924 209.854 111.269 199.191 121.185C179.98 141.739 165.211 165.166 154.884 191.464C154.335 192.01 153.642 192.262 152.801 192.222C151.498 192.103 150.298 191.724 149.204 191.085C146.765 181.181 146.447 171.205 148.257 161.155C149.211 155.569 150.283 150.012 151.476 144.485C151.854 144.517 152.169 144.391 152.422 144.106C154.422 136.466 156.944 129.015 159.996 121.753C164.476 113.057 169.463 104.722 174.954 96.7477C178.605 92.496 182.267 88.2023 185.936 83.8662Z" fill="#38725B"/>
<path fill-rule="evenodd" clip-rule="evenodd" d="M481.314 98.6416C481.314 171.889 481.314 245.137 481.314 318.384C479.883 317.542 479.254 316.28 479.421 314.595C479.788 311.319 479.849 308.036 479.61 304.745C474.547 253.664 462.364 204.412 443.066 156.987C444.706 153.703 446.35 150.42 447.989 147.136C455.041 134.445 461.225 121.311 466.545 107.734C471.646 104.993 476.569 101.962 481.314 98.6416Z" fill="#214A4A"/>
<path fill-rule="evenodd" clip-rule="evenodd" d="M481.315 53.9355C481.315 55.7037 481.315 57.4715 481.315 59.2397C477.168 75.6071 472.245 91.7721 466.546 107.735C461.225 121.311 455.041 134.445 447.99 147.137C451.353 139.774 454.826 132.449 458.404 125.162C461.979 115.735 465.766 106.39 469.765 97.1263C473.624 82.6911 477.475 68.2942 481.315 53.9355Z" fill="#397159"/>
<path opacity="0.998" fill-rule="evenodd" clip-rule="evenodd" d="M240.847 152.82C237.798 161.444 234.33 169.906 230.433 178.204C229.032 183.183 227.581 188.108 226.078 192.98C225.544 191.949 225.29 190.813 225.321 189.57C225.65 188.326 225.586 187.064 225.131 185.781C223.105 180.021 221.276 174.212 219.64 168.353C219.557 167.908 219.682 167.529 220.019 167.217C227.392 162.99 234.333 158.191 240.847 152.82Z" fill="#588C7E"/>
<path fill-rule="evenodd" clip-rule="evenodd" d="M443.067 156.987C462.365 204.412 474.547 253.665 479.61 304.745C479.849 308.036 479.788 311.319 479.421 314.596C477.274 312.322 475.13 310.049 472.983 307.776C472.377 294.321 470.419 281.06 467.113 267.995C460.562 248.572 451.977 230.133 441.362 212.681C436.012 204.887 430.206 197.435 423.943 190.328C423.761 189.968 423.697 189.589 423.753 189.191C430.479 178.642 436.917 167.907 443.067 156.987Z" fill="#2B6160"/>
<path opacity="0.956" fill-rule="evenodd" clip-rule="evenodd" d="M219.64 168.353C221.276 174.212 223.105 180.021 225.131 185.781C225.585 187.063 225.65 188.326 225.32 189.569C219.167 184.802 213.233 179.75 207.522 174.415C207.488 174.037 207.617 173.722 207.901 173.468C211.563 171.637 215.221 169.805 218.883 167.974C219.14 168.112 219.394 168.238 219.64 168.353Z" fill="#F7E1D7"/>
<path opacity="0.999" fill-rule="evenodd" clip-rule="evenodd" d="M423.754 189.191C423.697 189.589 423.762 189.968 423.943 190.328C430.207 197.435 436.012 204.887 441.363 212.681C451.978 230.133 460.563 248.572 467.114 267.995C470.42 281.06 472.378 294.321 472.984 307.776C473.991 326.623 472.158 345.187 467.493 363.469C465.421 369.989 463.592 376.556 462.002 383.17C462.971 383.057 463.853 383.182 464.652 383.549C463.895 383.549 463.138 383.549 462.38 383.549C460.506 391.808 458.044 399.893 454.996 407.797C449.236 419.068 443.681 430.434 438.334 441.895C436.603 444.766 434.266 446.975 431.328 448.525C427.76 449.282 424.985 448.21 422.997 445.304C423.224 445.213 423.349 445.024 423.375 444.736C422.966 443.762 422.716 442.755 422.618 441.705C423.436 439.254 423.815 436.727 423.754 434.128C423.22 422.19 422.523 410.255 421.671 398.325C419.857 389.372 418.089 380.405 416.37 371.425C409.822 346.226 403.509 320.968 397.435 295.652C391.607 275.728 385.612 255.901 379.447 236.17C382.488 233.067 385.771 230.226 389.293 227.646C401.972 215.79 413.457 202.971 423.754 189.191Z" fill="#214A4A"/>
<path opacity="0.999" fill-rule="evenodd" clip-rule="evenodd" d="M379.447 236.17C385.612 255.9 391.606 275.727 397.434 295.652C403.509 320.968 409.821 346.226 416.369 371.425C418.088 380.404 419.857 389.372 421.671 398.325C422.523 410.255 423.219 422.189 423.753 434.127C423.814 436.726 423.435 439.253 422.617 441.705C422.716 442.754 422.966 443.762 423.375 444.736C423.348 445.024 423.223 445.213 422.996 445.304C421.171 444.073 419.406 442.747 417.694 441.326C413.381 436.836 408.837 432.604 404.061 428.634C397.987 422.871 392.371 416.684 387.21 410.069C377.894 396.354 370.256 381.708 364.299 366.121C364.644 365.652 364.708 365.147 364.488 364.605C354.264 340.615 348.08 315.61 345.933 289.59C345.372 281.117 345.312 272.656 345.743 264.206C357.861 256.003 369.097 246.658 379.447 236.17Z" fill="#2B6160"/>
<path opacity="0.995" fill-rule="evenodd" clip-rule="evenodd" d="M345.744 264.206C345.312 272.656 345.373 281.117 345.933 289.59C348.08 315.61 354.264 340.615 364.489 364.606C364.709 365.147 364.644 365.652 364.3 366.121C356.711 362.578 349.008 359.231 341.2 356.081C331.861 351.284 323.026 345.727 314.691 339.411C309.643 336.76 304.845 333.729 300.301 330.318C297.006 327.15 293.852 323.866 290.834 320.468C282.34 315.126 275.838 307.991 271.331 299.062C270.937 298.603 270.494 298.224 270.006 297.925C270.218 297.436 270.597 297.121 271.142 296.978C277.012 295.573 282.821 293.931 288.562 292.053C302.706 286.177 316.717 279.989 330.596 273.488C335.845 270.675 340.897 267.581 345.744 264.206Z" fill="#588C7E"/>
<path opacity="0.787" fill-rule="evenodd" clip-rule="evenodd" d="M256.752 300.199C246.501 302.264 236.151 303.527 225.699 303.987C225.741 303.754 225.866 303.564 226.078 303.419C235.689 301.857 245.346 300.531 255.048 299.441C255.801 299.467 256.369 299.719 256.752 300.199Z" fill="#366E56"/>
<path opacity="0.996" fill-rule="evenodd" clip-rule="evenodd" d="M472.983 307.776C475.13 310.049 477.274 312.322 479.421 314.595C479.254 316.28 479.883 317.543 481.314 318.384C481.314 339.727 481.314 361.07 481.314 382.412C475.778 383.004 470.222 383.382 464.652 383.549C463.853 383.182 462.97 383.057 462.001 383.17C463.591 376.556 465.421 369.989 467.492 363.469C472.157 345.187 473.99 326.623 472.983 307.776Z" fill="#588C7D"/>
</svg>
