<svg width="427" height="232" viewBox="0 0 427 232" fill="none" xmlns="http://www.w3.org/2000/svg">
<path d="M0 0.568906C33.9017 0.503487 67.8034 0.439173 113.472 0.388615C114.038 0.388021 114.603 0.387427 115.169 0.386834C127.042 0.374388 138.915 0.362821 150.787 0.352268C156.752 0.346965 162.716 0.341494 168.681 0.335863C169.58 0.335015 170.48 0.334171 171.38 0.333328C185.227 0.320305 199.075 0.303673 212.923 0.276542C213.22 0.275959 213.518 0.275376 213.824 0.274776C218.622 0.265356 223.419 0.255633 228.216 0.245869C242.039 0.217737 255.863 0.191868 269.687 0.180846C269.971 0.180618 270.256 0.18039 270.549 0.180155C276.796 0.17519 283.043 0.17138 289.29 0.168663C291.803 0.167549 294.317 0.166269 296.831 0.164932C297.106 0.16479 297.381 0.164647 297.665 0.164501C306.517 0.159839 315.369 0.141675 324.221 0.116371C333.394 0.0902167 342.565 0.0792024 351.738 0.085633C357.023 0.0888681 362.307 0.0802681 367.592 0.0545669C371.126 0.0385564 374.66 0.038136 378.194 0.0501632C380.205 0.0565687 382.216 0.056414 384.228 0.0371709C399.168 -0.0975056 399.168 -0.0975053 406.064 4.28744C407.607 5.22086 409.254 5.92842 410.897 6.66539C413.277 7.78129 415.544 8.99824 417.793 10.3623C419.637 11.4128 421.562 12.2795 423.493 13.1565C424.116 13.4402 424.116 13.4402 424.751 13.7296C425.054 13.8598 425.358 13.99 425.671 14.1242C426.298 14.5037 426.298 14.5037 426.661 15.6166C426.689 17.0451 426.437 17.3264 425.524 18.3745C425.364 18.8288 425.364 18.8288 425.201 19.2923C424.669 20.4937 424.085 21.0172 423.082 21.8582C421.123 23.5497 419.309 25.3494 417.513 27.213C416.974 27.7645 416.415 28.2969 415.853 28.8256C415.598 28.8256 415.343 28.8256 415.08 28.8256C415.08 29.0811 415.08 29.3366 415.08 29.5998C413.74 30.761 413.74 30.761 412.758 30.761C412.758 31.0165 412.758 31.272 412.758 31.5352C405.053 38.8718 394.647 44.1591 384.906 48.1795C385.535 48.5728 386.164 48.966 386.792 49.3592C387.347 49.7059 387.901 50.0527 388.455 50.3997C389.884 51.2943 391.315 52.1869 392.749 53.074C395.612 54.8481 398.414 56.6676 401.153 58.6307C401.705 59.0172 402.257 59.4033 402.809 59.7889C403.41 60.2092 404.01 60.6295 404.611 61.0499C404.9 61.2512 405.189 61.4524 405.486 61.6598C405.896 61.9477 405.896 61.9477 406.314 62.2414C406.558 62.4126 406.803 62.5839 407.056 62.7604C407.278 62.9304 407.5 63.1004 407.73 63.2756C407.958 63.4486 408.187 63.6216 408.422 63.7999C408.89 64.4368 408.89 64.4368 408.872 65.4279C408.503 66.3722 408.503 66.3722 407.799 66.8395C407.491 66.9453 407.183 67.051 406.865 67.16C406.513 67.2848 406.161 67.4096 405.798 67.5382C405.414 67.6644 405.03 67.7905 404.635 67.9205C404.249 68.0532 403.863 68.1859 403.466 68.3225C402.15 68.7706 400.83 69.2053 399.509 69.6382C398.478 69.9774 397.448 70.3177 396.418 70.6588C396.147 70.7483 395.877 70.8377 395.599 70.9299C393.501 71.6274 391.413 72.3502 389.327 73.0811C374.082 78.4147 359.081 81.6494 342.861 81.5892C342.493 81.5889 342.125 81.5886 341.746 81.5883C335.82 81.5765 330.03 81.2692 324.172 80.307C323.745 80.2371 323.318 80.1671 322.879 80.095C321.762 79.91 320.646 79.7226 319.53 79.5329C319.713 79.8857 319.896 80.2384 320.085 80.6019C323.933 88.1029 326.797 95.7069 329.19 103.782C329.701 105.448 330.266 107.094 330.844 108.738C331.228 110.039 331.257 111.091 331.135 112.435C326.196 114.082 319.864 113.281 314.739 113.28C313.278 113.281 311.817 113.288 310.357 113.296C298.23 113.324 298.23 113.324 292.451 112.047C292.597 112.252 292.743 112.456 292.894 112.666C295.547 116.59 297.443 120.914 299.414 125.208C299.546 125.494 299.677 125.78 299.813 126.074C303.334 133.789 303.334 133.789 302.896 137.208C301.752 138.352 300.427 138.268 298.882 138.417C298.554 138.449 298.226 138.482 297.888 138.515C288.307 139.379 278.924 138.448 269.628 136.046C269.694 136.48 269.76 136.914 269.828 137.361C273.982 164.709 271.958 186.815 261.117 212.301C260.367 214.067 259.617 215.833 258.869 217.599C258.696 218.005 258.524 218.411 258.347 218.829C256.766 222.567 255.254 226.33 253.767 230.106C253.384 230.106 253.001 230.106 252.607 230.106C252.607 230.362 252.607 230.617 252.607 230.881C252.084 230.944 251.56 230.989 251.035 231.026C250.743 231.053 250.452 231.08 250.151 231.107C248.807 230.81 248.179 230.151 247.177 229.234C245.818 228.025 244.319 227.001 242.839 225.945C242.529 225.722 242.219 225.499 241.899 225.269C240.707 224.414 239.515 223.566 238.294 222.752C238.294 222.496 238.294 222.241 238.294 221.978C238.086 221.882 237.879 221.786 237.665 221.687C236.521 221.085 235.471 220.416 234.425 219.655C234.425 219.4 234.425 219.144 234.425 218.881C234.202 218.777 233.978 218.674 233.748 218.567C232.856 218.096 232.096 217.602 231.33 216.946C231.33 216.69 231.33 216.435 231.33 216.172C231.11 216.076 230.889 215.981 230.661 215.883C229.637 215.316 228.938 214.652 228.109 213.825C227.8 213.517 227.49 213.208 227.172 212.89C226.853 212.568 226.534 212.246 226.205 211.914C225.88 211.591 225.555 211.269 225.22 210.937C224.759 210.474 224.759 210.474 224.289 210.002C224.007 209.72 223.725 209.437 223.435 209.145C222.82 208.43 222.82 208.43 222.82 207.656C222.565 207.656 222.309 207.656 222.046 207.656C221.531 207.088 221.045 206.493 220.571 205.89C219.343 204.348 218.089 202.848 216.778 201.376C213.982 198.223 211.486 194.907 209.081 191.449C208.561 190.702 208.035 189.96 207.508 189.218C199.93 178.379 189.728 160.559 190.325 146.885C188.494 147.838 187.24 149.139 185.828 150.61C183.579 152.902 181.258 154.976 178.72 156.949C178.179 157.38 177.639 157.811 177.099 158.243C173.63 160.999 170.134 163.555 166.341 165.851C166.049 166.03 165.757 166.208 165.456 166.392C159.674 169.921 153.853 173.332 147.768 176.315C146.744 176.817 145.729 177.333 144.719 177.863C141.146 179.727 137.518 181.211 133.71 182.527C132.622 182.905 131.538 183.296 130.454 183.686C125.665 185.379 120.952 186.627 115.925 187.369C115.212 187.478 114.501 187.602 113.792 187.736C110.268 188.37 106.814 188.408 103.245 188.382C102.234 188.374 101.222 188.374 100.21 188.374C99.566 188.372 98.9215 188.37 98.2771 188.367C97.9753 188.366 97.6735 188.366 97.3626 188.366C95.2526 188.347 95.2526 188.347 94.389 187.915C94.3784 187.326 94.371 186.737 94.3648 186.149C94.3603 185.821 94.3559 185.493 94.3512 185.155C94.389 184.044 94.389 184.044 94.6066 182.825C94.8301 180.856 94.6093 179.018 94.4132 177.052C92.4652 154.393 95.6664 131.557 101.739 109.725C100.549 110.17 99.4139 110.685 98.2801 111.255C93.8651 113.465 89.493 115.069 84.718 116.305C84.3315 116.406 83.9451 116.506 83.5469 116.609C73.1114 119.281 60.4142 122.468 49.709 120.031C49.2582 119.932 48.8074 119.833 48.3429 119.732C47.1945 119.402 47.1945 119.402 46.034 118.628C44.8248 115.314 45.8579 111.206 46.4208 107.862C46.463 107.611 46.5053 107.36 46.5488 107.101C48.6446 94.7983 52.579 82.2382 58.0468 70.9977C58.3763 70.3185 58.6931 69.6332 59.0082 68.9472C60.5474 65.6821 62.5561 62.7538 64.6023 59.7919C64.0183 59.2075 63.4719 59.3093 62.656 59.2521C62.3234 59.2266 61.9908 59.2011 61.6481 59.1748C61.0998 59.133 61.0998 59.133 60.5405 59.0903C46.6814 57.8962 33.4775 54.9467 21.6631 47.4054C21.1645 47.0918 20.6658 46.7783 20.1671 46.4649C15.6699 43.6177 15.6699 43.6177 14.3131 42.3734C13.9673 40.7763 13.9115 39.9339 14.7649 38.5374C18.2895 34.6071 24.1936 31.6407 29.013 29.5998C29.2683 29.5998 29.5236 29.5998 29.7867 29.5998C28.1922 27.9096 26.4401 26.523 24.5885 25.1242C24.303 24.9059 24.0176 24.6876 23.7234 24.4627C22.4758 23.5139 21.2323 22.5909 19.9087 21.7509C19.594 21.5308 19.2794 21.3108 18.9552 21.0841C18.9552 20.8286 18.9552 20.5731 18.9552 20.3099C18.7158 20.1901 18.4765 20.0704 18.2298 19.947C17.6979 19.6809 17.166 19.4148 16.6341 19.1487C16.6341 18.8932 16.6341 18.6377 16.6341 18.3745C16.4102 18.2732 16.1863 18.1719 15.9556 18.0676C13.7247 16.868 11.7613 14.8197 10.0578 12.9554C10.0578 12.6999 10.0578 12.4445 10.0578 12.1813C9.80253 12.1813 9.54722 12.1813 9.28416 12.1813C8.12364 10.8414 8.12364 10.8414 8.12364 9.85879C7.86833 9.85879 7.61302 9.85879 7.34996 9.85879C7.34996 9.60331 7.34996 9.34784 7.34996 9.08463C7.09465 9.08463 6.83933 9.08463 6.57628 9.08463C6.57628 8.82916 6.57628 8.57369 6.57628 8.31047C6.32895 8.20669 6.08161 8.1029 5.82678 7.99597C5.02892 7.53632 5.02892 7.53632 4.64208 6.37508C4.38677 6.37508 4.13145 6.37508 3.8684 6.37508C3.8684 6.11961 3.8684 5.86414 3.8684 5.60092C3.61309 5.60092 3.35777 5.60092 3.09472 5.60092C1.16052 3.48121 1.16052 3.48121 1.16052 2.5043C0.905206 2.5043 0.649892 2.5043 0.38684 2.5043C0.259183 1.86562 0.131526 1.22694 0 0.568906ZM255.315 25.3419C255.187 25.9806 255.059 26.6193 254.928 27.2773C255.694 27.1496 256.46 27.0218 257.249 26.8902C256.61 26.3793 255.972 25.8683 255.315 25.3419Z" fill="#274F3E"/>
<path d="M0 0.568909C73.9136 0.568909 147.827 0.568909 223.98 0.568909C222.485 3.56208 220.977 6.48131 219.314 9.37494C217.542 12.4836 215.81 15.6098 214.116 18.7616C212.244 22.2412 210.328 25.6928 208.375 29.1274C207.438 30.7749 206.505 32.4233 205.601 34.089C201.917 40.8708 197.701 47.3294 193.545 53.8284C192.114 56.0733 190.718 58.3369 189.336 60.6125C186.627 65.0678 183.816 69.4395 180.92 73.7751C180.745 74.0371 180.571 74.2991 180.39 74.5691C176.934 79.7393 173.418 84.8683 169.847 89.9598C169.62 90.2836 169.393 90.6073 169.16 90.9409C168.478 91.9125 167.797 92.8837 167.115 93.8548C166.913 94.1429 166.711 94.431 166.503 94.7278C163.91 98.4228 161.284 102.093 158.638 105.75C157.589 107.2 156.548 108.655 155.51 110.112C150.505 117.134 145.427 124.1 140.245 130.992C138.744 132.99 137.261 135 135.781 137.014C135.098 137.942 134.414 138.87 133.731 139.798C133.304 140.378 132.877 140.959 132.45 141.539C130.123 144.701 127.735 147.775 125.175 150.751C124.244 151.836 123.336 152.936 122.435 154.045C121.163 155.609 119.871 157.154 118.567 158.69C116.265 161.403 114.007 164.15 111.786 166.929C109.576 169.687 107.327 172.365 104.903 174.938C103.475 176.461 102.175 178.058 100.888 179.703C99.2111 181.767 97.2698 183.587 95.1627 185.205C94.9074 185.205 94.6521 185.205 94.389 185.205C94.4211 184.976 94.4533 184.747 94.4864 184.512C94.8022 181.932 94.6767 179.557 94.4132 176.98C92.4445 154.357 95.6767 131.52 101.739 109.725C100.549 110.17 99.4139 110.685 98.2801 111.255C93.8651 113.465 89.493 115.069 84.718 116.305C84.3315 116.406 83.9451 116.506 83.5469 116.609C73.1114 119.281 60.4142 122.468 49.709 120.031C49.2582 119.932 48.8074 119.833 48.3429 119.732C47.1945 119.402 47.1945 119.402 46.034 118.628C44.8249 115.314 45.858 111.206 46.4208 107.862C46.463 107.611 46.5053 107.36 46.5488 107.101C48.6447 94.7983 52.579 82.2382 58.0468 70.9977C58.3763 70.3185 58.6931 69.6332 59.0082 68.9472C60.5474 65.6821 62.5561 62.7538 64.6023 59.7919C64.0183 59.2075 63.4719 59.3093 62.656 59.2521C62.3234 59.2266 61.9908 59.2011 61.6481 59.1748C61.0998 59.133 61.0998 59.133 60.5405 59.0903C46.6814 57.8962 33.4775 54.9467 21.6631 47.4054C21.1645 47.0918 20.6658 46.7783 20.1671 46.4649C15.6699 43.6177 15.6699 43.6177 14.3131 42.3734C13.9673 40.7763 13.9115 39.9339 14.7649 38.5374C18.2895 34.6071 24.1936 31.6407 29.013 29.5998C29.2683 29.5998 29.5236 29.5998 29.7867 29.5998C28.1922 27.9096 26.4401 26.523 24.5885 25.1242C24.303 24.9059 24.0176 24.6876 23.7234 24.4627C22.4758 23.5139 21.2323 22.5909 19.9087 21.7509C19.594 21.5308 19.2794 21.3108 18.9552 21.0841C18.9552 20.8286 18.9552 20.5731 18.9552 20.3099C18.7158 20.1902 18.4765 20.0704 18.2298 19.947C17.6979 19.6809 17.166 19.4148 16.6341 19.1487C16.6341 18.8932 16.6341 18.6377 16.6341 18.3745C16.4102 18.2732 16.1863 18.1719 15.9556 18.0676C13.7247 16.868 11.7613 14.8197 10.0578 12.9554C10.0578 12.6999 10.0578 12.4445 10.0578 12.1813C9.80253 12.1813 9.54722 12.1813 9.28417 12.1813C8.12364 10.8414 8.12364 10.8414 8.12364 9.85879C7.86833 9.85879 7.61302 9.85879 7.34996 9.85879C7.34996 9.60332 7.34996 9.34785 7.34996 9.08463C7.09465 9.08463 6.83934 9.08463 6.57628 9.08463C6.57628 8.82916 6.57628 8.57369 6.57628 8.31048C6.32895 8.20669 6.08161 8.1029 5.82678 7.99597C5.02892 7.53632 5.02892 7.53632 4.64208 6.37508C4.38677 6.37508 4.13145 6.37508 3.8684 6.37508C3.8684 6.11961 3.8684 5.86414 3.8684 5.60093C3.61309 5.60093 3.35777 5.60093 3.09472 5.60093C1.16052 3.48121 1.16052 3.48121 1.16052 2.5043C0.905206 2.5043 0.649892 2.5043 0.38684 2.5043C0.259183 1.86562 0.131526 1.22694 0 0.568909Z" fill="#38725A"/>
<path d="M247.578 0.568944C266.597 0.471336 285.615 0.396383 304.635 0.351515C306.883 0.34619 309.132 0.340679 311.381 0.335052C312.053 0.333377 312.053 0.333377 312.738 0.331668C319.973 0.313176 327.207 0.279624 334.442 0.240438C341.874 0.200521 349.305 0.176949 356.737 0.168328C361.318 0.162506 365.897 0.144166 370.478 0.10945C373.625 0.0868206 376.772 0.0801681 379.919 0.0856705C381.731 0.0883791 383.543 0.0844379 385.354 0.0613832C393.064 -0.0318687 399.272 0.102365 406.042 4.28702C407.6 5.20735 409.249 5.92404 410.897 6.66543C413.277 7.78163 415.544 8.99826 417.793 10.3623C419.637 11.4129 421.562 12.2795 423.493 13.1565C424.116 13.4402 424.116 13.4402 424.751 13.7296C425.054 13.8598 425.358 13.9901 425.671 14.1242C426.298 14.5038 426.298 14.5038 426.661 15.6166C426.689 17.0452 426.437 17.3264 425.524 18.3745C425.418 18.6774 425.311 18.9803 425.201 19.2923C424.669 20.4938 424.085 21.0172 423.082 21.8583C421.123 23.5497 419.309 25.3495 417.513 27.2131C416.974 27.7645 416.415 28.297 415.853 28.8257C415.598 28.8257 415.343 28.8257 415.08 28.8257C415.08 29.0811 415.08 29.3366 415.08 29.5998C413.741 30.7611 413.741 30.7611 412.759 30.7611C412.759 31.0165 412.759 31.272 412.759 31.5352C405.053 38.8718 394.647 44.1591 384.906 48.1796C385.535 48.5728 386.164 48.966 386.792 49.3592C387.347 49.7059 387.901 50.0527 388.455 50.3997C389.884 51.2943 391.315 52.187 392.749 53.074C395.612 54.8481 398.414 56.6676 401.153 58.6307C401.705 59.0173 402.257 59.4033 402.809 59.7889C403.41 60.2092 404.01 60.6296 404.611 61.0499C405.044 61.3518 405.044 61.3518 405.486 61.6598C405.759 61.8518 406.032 62.0437 406.314 62.2414C406.559 62.4127 406.803 62.5839 407.056 62.7604C407.278 62.9304 407.5 63.1005 407.73 63.2756C407.958 63.4486 408.187 63.6217 408.423 63.7999C408.89 64.4369 408.89 64.4369 408.872 65.4279C408.503 66.3723 408.503 66.3723 407.799 66.8396C407.491 66.9453 407.183 67.0511 406.865 67.16C406.513 67.2848 406.161 67.4096 405.798 67.5382C405.414 67.6644 405.03 67.7906 404.635 67.9206C404.249 68.0532 403.863 68.1859 403.466 68.3226C402.15 68.7706 400.83 69.2054 399.509 69.6382C398.478 69.9774 397.448 70.3177 396.418 70.6588C396.147 70.7483 395.877 70.8378 395.599 70.9299C393.501 71.6275 391.413 72.3502 389.327 73.0811C374.083 78.4145 359.08 81.6511 342.861 81.5893C342.493 81.5888 342.125 81.5884 341.745 81.5879C336.151 81.5745 330.662 81.3623 325.13 80.459C324.241 80.318 323.354 80.2086 322.46 80.1075C319.284 79.6455 319.284 79.6455 317.942 78.3747C317.22 77.3765 316.635 76.3577 316.048 75.2751C315.589 74.5522 315.121 73.8347 314.646 73.1219C314.257 72.5381 314.257 72.5381 313.86 71.9426C305.169 59.2173 293.483 48.8988 279.685 41.9863C279.462 41.8729 279.238 41.7595 279.008 41.6427C270.686 37.4545 262.638 35.0396 253.38 34.2448C253.375 33.6311 253.375 33.6311 253.369 33.0051C253.354 31.451 253.328 29.8971 253.3 28.3431C253.289 27.6774 253.281 27.0116 253.276 26.3458C253.236 21.8274 252.766 17.6719 251.634 13.2947C251.387 12.3385 251.165 11.3768 250.94 10.4152C250.2 7.45475 249.458 4.67929 247.933 2.00688C247.578 1.3431 247.578 1.3431 247.578 0.568944ZM255.315 25.342C255.187 25.9806 255.059 26.6193 254.928 27.2773C255.694 27.1496 256.46 27.0219 257.249 26.8903C256.61 26.3793 255.972 25.8684 255.315 25.342Z" fill="#38725A"/>
<path d="M239.841 75.6621C241.529 77.1994 242.629 78.854 243.782 80.8151C244.155 81.4382 244.529 82.0612 244.903 82.684C245.09 82.9976 245.278 83.3112 245.471 83.6343C246.781 85.8139 248.138 87.964 249.498 90.1129C249.842 90.6664 250.169 91.23 250.493 91.7954C256.346 101.664 273.558 107.15 284.071 109.895C285.81 110.33 287.529 110.649 289.308 110.886C290.66 111.099 291.246 111.243 292.403 112.023C293.61 113.764 294.588 115.579 295.546 117.467C295.725 117.817 295.725 117.817 295.907 118.174C296.703 119.733 297.483 121.298 298.253 122.869C298.506 123.386 298.761 123.902 299.018 124.417C303.246 132.922 303.246 132.922 302.896 137.208C301.752 138.352 300.427 138.268 298.882 138.417C298.554 138.449 298.226 138.482 297.888 138.515C288.307 139.379 278.924 138.448 269.628 136.046C269.694 136.48 269.76 136.914 269.828 137.361C273.982 164.709 271.958 186.815 261.117 212.301C260.367 214.067 259.617 215.833 258.869 217.599C258.696 218.005 258.524 218.411 258.347 218.829C256.766 222.567 255.254 226.33 253.767 230.106C253.384 230.106 253.001 230.106 252.607 230.106C252.607 230.362 252.607 230.617 252.607 230.881C252.084 230.945 251.56 230.989 251.035 231.026C250.743 231.053 250.452 231.08 250.151 231.107C248.807 230.81 248.179 230.151 247.177 229.234C245.818 228.025 244.319 227.001 242.839 225.945C242.529 225.722 242.219 225.499 241.899 225.269C240.707 224.414 239.515 223.566 238.294 222.752C238.294 222.496 238.294 222.241 238.294 221.978C238.086 221.882 237.879 221.786 237.665 221.687C236.521 221.085 235.471 220.416 234.425 219.655C234.425 219.4 234.425 219.144 234.425 218.881C234.202 218.777 233.978 218.674 233.748 218.567C232.856 218.096 232.096 217.602 231.33 216.946C231.33 216.69 231.33 216.435 231.33 216.172C230.999 216.029 230.999 216.029 230.661 215.883C229.637 215.316 228.938 214.652 228.109 213.825C227.8 213.517 227.49 213.208 227.172 212.89C226.853 212.568 226.534 212.246 226.205 211.914C225.88 211.591 225.555 211.269 225.22 210.937C224.912 210.629 224.605 210.32 224.289 210.002C224.007 209.72 223.725 209.437 223.435 209.145C222.82 208.43 222.82 208.43 222.82 207.656C222.565 207.656 222.309 207.656 222.046 207.656C221.531 207.088 221.045 206.493 220.571 205.89C219.343 204.348 218.089 202.848 216.778 201.376C213.982 198.223 211.486 194.907 209.081 191.449C208.561 190.702 208.035 189.96 207.508 189.218C199.48 177.734 193.828 164.201 190.664 150.586C190.582 150.233 190.499 149.88 190.415 149.517C189.789 146.627 189.789 146.627 190.325 145.336C191.166 144.375 191.166 144.375 192.272 143.303C192.469 143.109 192.666 142.915 192.869 142.715C193.502 142.094 194.137 141.477 194.774 140.861C197.751 137.971 200.515 135.053 203.091 131.788C203.462 131.344 203.835 130.902 204.212 130.462C206.764 127.487 209.22 124.451 211.602 121.337C211.887 120.966 211.887 120.966 212.179 120.587C216.949 114.353 221.231 107.774 225.528 101.209C225.777 100.829 226.025 100.45 226.282 100.058C231.378 92.2356 235.757 84.0526 239.841 75.6621Z" fill="#3D7B61"/>
<path d="M0 0.568909C62.0414 0.568909 124.083 0.568909 188.004 0.568909C185.701 2.29737 183.273 3.8235 180.783 5.26828C178.1 6.82907 175.65 8.43697 173.28 10.4591C171.913 11.5995 170.5 12.6659 169.073 13.7296C168.809 13.9272 168.544 14.1248 168.272 14.3283C167.062 15.2309 165.849 16.13 164.635 17.0273C162.407 18.682 160.277 20.3852 158.218 22.2453C157.727 22.6733 157.235 23.1007 156.743 23.5275C155.105 24.9604 153.5 26.4289 151.894 27.8972C151.055 28.6566 150.205 29.3977 149.344 30.132C146.377 32.7167 143.609 35.5566 141.061 38.554C140.125 39.6147 139.115 40.5949 138.099 41.578C137.268 42.4035 137.268 42.4035 136.434 43.5543C135.253 44.8513 134.37 45.2779 132.735 45.8813C132.48 45.9763 132.226 46.0713 131.963 46.1692C131.175 46.4601 130.384 46.7399 129.591 47.0183C129.13 47.186 128.669 47.3536 128.194 47.5263C126.734 48.0371 125.269 48.5081 123.789 48.9537C123.528 49.033 123.267 49.1122 122.998 49.1939C113.977 51.8614 104.452 53.0045 95.066 53.018C94.6385 53.0206 94.6385 53.0206 94.2023 53.0232C90.2456 53.0331 86.6507 52.5491 82.7838 51.6632C82.1674 51.5411 81.5504 51.4216 80.9327 51.3064C77.2131 50.5905 73.5101 49.7978 69.8165 48.9577C69.0728 48.7893 68.3282 48.6248 67.5836 48.4604C64.497 47.7489 61.6776 46.7895 58.7997 45.47C58.458 45.3158 58.1163 45.1616 57.7642 45.0027C56.7671 44.5465 55.7758 44.0797 54.7862 43.6072C54.4343 43.4393 54.0823 43.2714 53.7196 43.0984C51.2955 41.9288 48.9642 40.669 46.6475 39.2979C45.306 38.5131 43.9272 37.8111 42.543 37.1054C39.1819 35.3863 36.1316 33.4923 33.1187 31.2231C32.1087 30.4753 31.0672 29.7745 30.0285 29.0675C27.7808 27.5194 25.5969 25.8958 23.4252 24.2429C22.2826 23.3755 21.1445 22.5377 19.9328 21.769C19.6102 21.543 19.2876 21.3169 18.9552 21.0841C18.9552 20.8286 18.9552 20.5731 18.9552 20.3099C18.7158 20.1902 18.4765 20.0704 18.2298 19.947C17.6979 19.6809 17.166 19.4148 16.6341 19.1487C16.6341 18.8932 16.6341 18.6377 16.6341 18.3745C16.4102 18.2732 16.1863 18.1719 15.9556 18.0676C13.7247 16.868 11.7613 14.8197 10.0578 12.9554C10.0578 12.6999 10.0578 12.4445 10.0578 12.1813C9.80253 12.1813 9.54722 12.1813 9.28416 12.1813C8.12364 10.8414 8.12364 10.8414 8.12364 9.85879C7.86833 9.85879 7.61302 9.85879 7.34996 9.85879C7.34996 9.60332 7.34996 9.34784 7.34996 9.08463C7.09465 9.08463 6.83933 9.08463 6.57628 9.08463C6.57628 8.82916 6.57628 8.57369 6.57628 8.31047C6.32895 8.20669 6.08161 8.1029 5.82678 7.99597C5.02892 7.53632 5.02892 7.53632 4.64208 6.37508C4.38677 6.37508 4.13145 6.37508 3.8684 6.37508C3.8684 6.11961 3.8684 5.86414 3.8684 5.60093C3.61309 5.60093 3.35777 5.60093 3.09472 5.60093C1.16052 3.48121 1.16052 3.48121 1.16052 2.5043C0.905206 2.5043 0.649892 2.5043 0.38684 2.5043C0.259183 1.86562 0.131526 1.22694 0 0.568909Z" fill="#2A605F"/>
<path d="M29.7867 28.8256C31.8381 29.9204 33.6542 31.2051 35.4986 32.6208C37.2611 33.8178 39.1269 34.791 41.0051 35.793C41.7438 36.1942 42.4822 36.5959 43.2203 36.9981C45.2 38.0734 47.1818 39.1449 49.164 40.2155C50.3969 40.8834 51.6264 41.557 52.854 42.2344C58.6031 45.3112 64.2917 47.401 70.6623 48.8127C71.7337 49.0502 72.8029 49.2961 73.8721 49.5434C77.7824 50.4376 81.695 51.2036 85.658 51.8231C87.039 52.0503 87.039 52.0503 87.8337 52.2679C102.094 55.4798 119.745 50.1693 132.958 45.372C133.847 45.0829 133.847 45.0829 134.62 45.0829C134.155 46.0481 133.671 46.895 133.073 47.7925C132.818 47.7925 132.562 47.7925 132.299 47.7925C132.144 48.1222 132.144 48.1222 131.985 48.4586C131.504 49.382 130.962 50.2121 130.371 51.069C130.14 51.4065 129.908 51.7439 129.67 52.0916C129.42 52.4532 129.171 52.8148 128.914 53.1874C128.387 53.9583 127.859 54.7294 127.332 55.5008C127.064 55.8931 126.796 56.2854 126.52 56.6896C120.148 65.9997 120.148 65.9997 114.808 75.9207C114.66 76.2358 114.511 76.551 114.358 76.8757C112.761 80.2955 111.28 83.7628 109.826 87.2458C109.377 88.3195 108.923 89.391 108.469 90.4626C106.146 95.9861 104.257 101.445 103.048 107.322C101.501 110.912 95.8414 112.595 92.4548 113.983C89.9224 114.918 87.3294 115.629 84.718 116.305C84.3315 116.406 83.9451 116.506 83.5469 116.609C73.1114 119.281 60.4142 122.468 49.709 120.031C49.2582 119.932 48.8074 119.833 48.3429 119.732C47.1945 119.402 47.1945 119.402 46.034 118.628C44.8249 115.314 45.858 111.206 46.4208 107.862C46.4631 107.611 46.5053 107.36 46.5488 107.101C48.6447 94.7983 52.579 82.2382 58.0468 70.9977C58.3763 70.3185 58.6931 69.6332 59.0082 68.9472C60.5474 65.6821 62.5561 62.7538 64.6023 59.7919C64.0183 59.2075 63.4719 59.3093 62.656 59.2521C62.3234 59.2266 61.9908 59.2011 61.6481 59.1748C61.2826 59.1469 60.9171 59.119 60.5405 59.0903C46.6814 57.8962 33.4775 54.9467 21.6631 47.4054C21.1645 47.0918 20.6658 46.7783 20.1671 46.4649C15.6699 43.6177 15.6699 43.6177 14.3131 42.3734C13.9673 40.7763 13.9115 39.9339 14.7649 38.5374C18.2895 34.6071 24.1936 31.6407 29.013 29.5998C29.2683 29.5998 29.5236 29.5998 29.7867 29.5998C29.7867 29.3443 29.7867 29.0888 29.7867 28.8256Z" fill="#3D7C61"/>
<path d="M217.404 113.596C218.565 113.983 218.565 113.983 219.246 115.174C219.5 115.71 219.747 116.249 219.991 116.789C220.127 117.084 220.263 117.379 220.404 117.683C221.533 120.18 222.489 122.728 223.433 125.299C224.506 128.163 225.754 130.934 227.036 133.709C229.849 139.801 232.226 145.963 234.425 152.304C234.574 152.725 234.722 153.147 234.875 153.582C237.252 160.34 238.971 167.125 240.331 174.152C240.619 175.551 240.959 176.927 241.316 178.31C244.44 190.539 246.36 202.947 247.787 215.471C247.969 216.979 248.179 218.481 248.392 219.985C248.693 222.208 248.838 224.358 248.787 226.598C248.783 226.905 248.78 227.211 248.776 227.526C248.767 228.257 248.753 228.988 248.738 229.719C246.779 229.1 245.335 227.912 243.734 226.671C243.199 226.26 242.663 225.85 242.127 225.44C241.872 225.245 241.618 225.049 241.355 224.848C240.672 224.343 239.977 223.881 239.259 223.426C238.941 223.204 238.622 222.981 238.294 222.752C238.294 222.496 238.294 222.241 238.294 221.978C238.086 221.882 237.879 221.786 237.665 221.687C236.521 221.085 235.471 220.416 234.425 219.655C234.425 219.4 234.425 219.144 234.425 218.881C234.202 218.777 233.978 218.673 233.748 218.567C232.856 218.096 232.096 217.602 231.33 216.946C231.33 216.69 231.33 216.435 231.33 216.172C230.999 216.029 230.999 216.029 230.661 215.883C229.637 215.316 228.938 214.652 228.109 213.825C227.8 213.516 227.49 213.208 227.172 212.89C226.853 212.568 226.534 212.246 226.205 211.914C225.717 211.43 225.717 211.43 225.22 210.937C224.912 210.629 224.605 210.32 224.289 210.002C224.007 209.72 223.725 209.437 223.435 209.145C222.82 208.43 222.82 208.43 222.82 207.656C222.565 207.656 222.309 207.656 222.046 207.656C221.531 207.088 221.045 206.493 220.571 205.89C219.343 204.348 218.089 202.848 216.778 201.376C213.982 198.223 211.486 194.907 209.081 191.449C208.561 190.702 208.035 189.96 207.508 189.218C199.48 177.734 193.828 164.201 190.664 150.586C190.541 150.057 190.541 150.057 190.415 149.517C189.789 146.627 189.789 146.627 190.325 145.336C191.166 144.375 191.166 144.375 192.272 143.303C192.568 143.012 192.568 143.012 192.869 142.715C193.502 142.094 194.137 141.477 194.774 140.861C197.751 137.971 200.515 135.053 203.091 131.788C203.462 131.344 203.835 130.902 204.212 130.462C208.58 125.368 212.594 120.04 216.544 114.616C217.017 113.983 217.017 113.983 217.404 113.596Z" fill="#678F64"/>
<path d="M250.286 0.568908C268.959 0.471296 287.633 0.396345 306.307 0.351479C308.516 0.346154 310.724 0.340643 312.932 0.335017C313.592 0.333341 313.592 0.333341 314.264 0.331632C321.368 0.313141 328.471 0.279591 335.574 0.240402C342.871 0.200482 350.168 0.176913 357.466 0.168292C361.963 0.162471 366.46 0.144135 370.957 0.109415C374.047 0.086781 377.137 0.0801334 380.228 0.0856349C382.007 0.0883429 383.785 0.0844097 385.564 0.0613476C393.215 -0.032937 399.313 0.151954 406.038 4.28698C407.598 5.20484 409.248 5.92319 410.897 6.66539C413.277 7.78166 415.544 8.99822 417.793 10.3623C419.637 11.4128 421.562 12.2795 423.493 13.1565C424.116 13.4402 424.116 13.4402 424.751 13.7296C425.054 13.8598 425.357 13.99 425.669 14.1242C426.298 14.5037 426.298 14.5037 426.685 15.6166C426.685 16.8262 426.685 16.8262 426.095 17.6351C424.868 18.582 423.681 18.7944 422.188 19.0277C420.321 19.2967 420.321 19.2967 418.561 19.9228C417.985 20.0256 417.405 20.1111 416.825 20.1874C416.468 20.2346 416.11 20.2818 415.742 20.3304C415.356 20.3795 414.97 20.4286 414.572 20.4793C414.173 20.5306 413.775 20.582 413.364 20.6349C410.075 21.0501 406.783 21.3774 403.482 21.6768C401.322 21.874 399.168 22.113 397.013 22.3626C396.201 22.4557 395.389 22.5443 394.577 22.6324C394.143 22.6816 394.143 22.6816 393.7 22.7319C390.534 23.0592 387.375 23.0892 384.196 23.0981C383.599 23.1008 383.002 23.1035 382.405 23.1063C380.482 23.1139 378.56 23.1158 376.637 23.1162C376.309 23.1164 375.981 23.1166 375.642 23.1167C338.821 23.1268 298.226 20.1264 250.286 0.955986C250.286 0.828251 250.286 0.700515 250.286 0.568908Z" fill="#264F3E"/>
<path d="M0 0.568909C61.4031 0.568909 122.806 0.568909 186.07 0.568909C185.208 1.4313 184.521 1.73252 183.405 2.21399C183.015 2.38358 182.625 2.55317 182.224 2.72789C181.801 2.90958 181.379 3.09126 180.945 3.27846C178.127 4.50219 175.317 5.73388 172.531 7.02799C168.649 8.82845 164.717 10.4911 160.756 12.1087C160.499 12.2143 160.242 12.3199 159.977 12.4287C154.343 14.7386 148.613 16.6275 142.72 18.1568C142.435 18.2311 142.149 18.3054 141.856 18.3819C135.479 20.0251 129.029 21.0933 122.51 21.9883C121.263 22.1602 120.023 22.3544 118.782 22.562C112.864 23.5152 107.006 23.5717 101.022 23.5314C99.982 23.5262 98.9418 23.5282 97.9015 23.5302C89.2643 23.5424 80.7634 23.0135 72.2182 21.7614C71.9365 21.7209 71.6548 21.6804 71.3646 21.6386C65.2771 20.7563 59.0166 19.8157 53.1936 17.7909C51.1052 17.0665 48.9641 16.6218 46.8077 16.1488C40.2378 14.6667 33.7588 12.9251 27.3964 10.7109C24.9787 9.88918 22.5236 9.27495 20.0432 8.67336C15.1854 7.49027 10.6421 6.19749 6.19247 3.85605C4.19114 2.86257 2.09708 2.10796 0 1.34307C0 1.08759 0 0.832122 0 0.568909Z" fill="#204A4A"/>
<path d="M247.191 58.2436C265.791 61.2455 285.065 74.6853 299.831 85.5655C300.489 86.0497 301.148 86.5308 301.808 87.0114C306.3 90.3213 310.64 93.8825 314.744 97.6636C315.527 98.3772 316.322 99.0713 317.123 99.7638C318.76 101.194 320.315 102.695 321.851 104.233C322.12 104.503 322.389 104.772 322.666 105.049C328.041 110.492 328.041 110.492 328.041 112.047C328.423 112.175 328.806 112.303 329.201 112.435C329.201 112.562 329.201 112.69 329.201 112.822C325.866 113.117 322.558 113.274 319.211 113.287C318.753 113.29 318.294 113.292 317.822 113.294C316.856 113.298 315.89 113.3 314.924 113.302C313.482 113.305 312.041 113.317 310.599 113.33C303.363 113.362 295.994 113.178 288.97 111.273C288.359 111.132 287.747 110.992 287.135 110.856C276.48 108.439 266.605 104.51 257.466 98.4755C257.183 98.2888 256.899 98.1021 256.607 97.9097C253.058 95.5161 250.697 93.2221 248.617 89.4518C248.185 88.6931 247.751 87.9351 247.316 87.1777C247.102 86.803 246.888 86.4282 246.667 86.0422C245.426 83.9175 244.069 81.8696 242.718 79.8141C242.567 79.5751 242.416 79.3361 242.26 79.0899C241.781 78.3509 241.781 78.3509 241.161 77.6535C240.529 76.8546 240.129 76.2549 239.841 75.275C240.158 73.6798 240.891 72.3462 241.654 70.9204C242.063 70.1007 242.47 69.2802 242.875 68.4588C243.082 68.0479 243.288 67.637 243.501 67.2137C244.4 65.3576 245.162 63.4552 245.909 61.5338C246.04 61.2008 246.171 60.8679 246.306 60.5249C246.603 59.7653 246.897 59.0046 247.191 58.2436Z" fill="#2B605F"/>
<path d="M285.488 44.6958C287.073 45.2055 288.597 45.7909 290.13 46.4377C314.998 56.5425 344.398 60.7839 370.389 52.4842C371.603 52.0981 372.817 51.7622 374.05 51.4455C376.359 50.8261 378.537 49.9261 380.725 48.9703C382.464 48.2471 383.478 48.106 385.293 48.5666C386.203 49.0241 387.045 49.4882 387.909 50.0196C388.275 50.2398 388.275 50.2398 388.649 50.4644C389.164 50.7753 389.679 51.0881 390.192 51.4025C390.963 51.874 391.737 52.3394 392.512 52.804C395.504 54.6099 398.35 56.54 401.153 58.6306C401.756 59.059 402.36 59.485 402.967 59.9083C403.383 60.1998 403.383 60.1998 403.808 60.4972C404.371 60.8899 404.934 61.282 405.498 61.6736C405.908 61.9614 405.908 61.9614 406.327 62.2549C406.57 62.4238 406.812 62.5926 407.062 62.7665C407.282 62.9345 407.502 63.1025 407.73 63.2756C408.072 63.5347 408.072 63.5347 408.422 63.799C408.89 64.4368 408.89 64.4368 408.872 65.4278C408.503 66.3722 408.503 66.3722 407.799 66.8395C407.491 66.9452 407.183 67.051 406.865 67.16C406.513 67.2848 406.161 67.4096 405.798 67.5381C405.414 67.6643 405.03 67.7905 404.635 67.9205C404.249 68.0532 403.863 68.1858 403.466 68.3225C402.15 68.7705 400.83 69.2053 399.509 69.6382C398.478 69.9773 397.448 70.3177 396.417 70.6588C396.147 70.7482 395.877 70.8377 395.599 70.9299C393.501 71.6274 391.413 72.3502 389.327 73.081C374.083 78.4144 359.08 81.651 342.861 81.5892C342.493 81.5888 342.125 81.5883 341.745 81.5878C336.151 81.5744 330.662 81.3622 325.13 80.459C324.241 80.3179 323.354 80.2085 322.46 80.1074C319.284 79.6454 319.284 79.6454 317.942 78.3746C317.22 77.3764 316.635 76.3577 316.048 75.275C315.589 74.5522 315.121 73.8347 314.646 73.1219C314.387 72.7327 314.128 72.3435 313.86 71.9425C306.744 61.5226 297.806 53.0628 287.217 46.2372C286.635 45.8609 286.061 45.4732 285.488 45.0829C285.488 44.9551 285.488 44.8274 285.488 44.6958Z" fill="#578B7D"/>
<path d="M252.993 34.2447C260.552 33.8443 266.984 36.0637 273.883 38.8897C274.2 39.016 274.518 39.1423 274.844 39.2724C283.96 42.915 292.054 48.726 299.414 55.1469C299.7 55.3894 299.986 55.6319 300.28 55.8818C303.845 58.9269 306.983 62.2858 309.859 65.9851C310.124 66.3249 310.124 66.3249 310.394 66.6716C313.256 70.362 315.849 74.1774 318.342 78.1245C318.77 78.7982 318.77 78.7982 319.367 79.5495C324.392 86.4708 326.775 95.7021 329.184 103.769C329.699 105.44 330.265 107.091 330.845 108.74C331.228 110.04 331.257 111.092 331.135 112.435C330.289 112.749 330.289 112.749 329.201 112.822C327.79 111.559 326.622 110.127 325.429 108.661C321.748 104.233 317.638 100.079 313.106 96.5235C312.206 95.811 311.359 95.064 310.512 94.2902C306.332 90.5442 301.756 87.2796 297.191 84.0268C296.358 83.4312 295.529 82.8307 294.7 82.2288C280.186 71.7492 264.084 64.0295 247.191 58.2436C247.313 57.8744 247.313 57.8744 247.438 57.4979C249.929 49.9036 251.982 42.1916 252.993 34.2447Z" fill="#204B4B"/>
<path d="M132.686 47.7924C132.423 48.1597 132.16 48.5269 131.888 48.9053C128.433 53.7508 125.12 58.6869 121.855 63.6627C121.569 64.096 121.569 64.096 121.277 64.5381C117.179 70.7776 113.739 77.3892 111.078 84.3638C110.444 86.0232 109.771 87.6645 109.083 89.3021C108.98 89.5476 108.877 89.7931 108.771 90.046C108.262 91.2602 107.751 92.4735 107.236 93.6856C105.378 98.128 104.043 102.574 103.061 107.282C101.511 110.906 95.8722 112.582 92.4548 113.983C89.9225 114.918 87.3294 115.629 84.718 116.305C84.3316 116.406 83.9451 116.506 83.5469 116.609C73.1222 119.278 60.3692 122.503 49.6848 120.007C49.2295 119.903 48.7742 119.8 48.3052 119.694C47.1945 119.402 47.1945 119.402 46.4208 119.015C46.4208 118.759 46.4208 118.504 46.4208 118.241C47.4421 118.241 48.4634 118.241 49.5156 118.241C49.6614 117.917 49.6614 117.917 49.8102 117.586C51.5226 114.392 54.3692 111.752 56.9499 109.248C58.0142 108.211 59.022 107.158 59.9844 106.025C62.0796 103.597 64.4032 101.382 66.6816 99.1287C67.5964 98.2236 68.5099 97.3172 69.4227 96.4101C69.6322 96.2037 69.8417 95.9972 70.0576 95.7845C71.1408 94.7295 71.1408 94.7295 71.9523 93.4677C72.2076 93.4677 72.4629 93.4677 72.726 93.4677C72.726 93.2122 72.726 92.9567 72.726 92.6935C72.9813 92.6935 73.2366 92.6935 73.4997 92.6935C73.5944 92.4725 73.6891 92.2514 73.7868 92.0237C75.0245 89.789 77.2794 88.0479 79.2055 86.4035C80.6668 85.1519 82.0126 83.8033 83.3641 82.436C85.1726 80.6104 87.01 78.8697 88.9733 77.2104C89.3562 76.8746 89.7392 76.5388 90.1338 76.1928C99.2577 68.2102 109.308 61.3335 119.566 54.9048C121.529 53.672 123.464 52.4044 125.385 51.1068C131.103 47.2643 131.103 47.2643 132.686 47.7924Z" fill="#678F64"/>
<path d="M251.833 94.6289C253.283 95.1444 254.348 95.7864 255.556 96.7337C265.159 103.849 277.422 109.299 289.308 110.886C290.66 111.099 291.245 111.243 292.403 112.023C293.61 113.764 294.588 115.579 295.546 117.467C295.725 117.817 295.725 117.817 295.907 118.174C296.703 119.733 297.483 121.298 298.253 122.869C298.506 123.386 298.761 123.902 299.018 124.417C303.246 132.922 303.246 132.922 302.896 137.208C301.752 138.352 300.427 138.268 298.882 138.417C298.554 138.449 298.226 138.482 297.888 138.515C289.036 139.313 276.988 139.729 268.854 135.659C268.613 134.966 268.613 134.966 268.41 134.064C268.333 133.736 268.256 133.408 268.177 133.07C268.097 132.719 268.017 132.368 267.935 132.006C267.364 129.61 266.785 127.313 265.794 125.051C265.219 123.681 264.745 122.281 264.26 120.878C262.225 115.075 259.791 109.71 256.862 104.306C256.304 103.267 255.749 102.226 255.194 101.185C255.068 100.951 254.943 100.716 254.814 100.475C253.783 98.5444 252.794 96.5948 251.833 94.6289Z" fill="#578B7D"/>
<path d="M29.7867 28.8256C31.8381 29.9204 33.6542 31.2051 35.4986 32.6208C37.2611 33.8178 39.1269 34.791 41.0051 35.793C41.7438 36.1942 42.4822 36.5959 43.2203 36.9981C45.2 38.0734 47.1818 39.1449 49.164 40.2155C50.1519 40.7507 51.1374 41.2898 52.1222 41.8305C59.0494 45.6122 65.7573 47.7317 73.4996 49.3408C73.4996 50.502 73.4996 50.502 72.5084 51.5801C71.8339 52.2329 71.1504 52.8751 70.4657 53.5171C69.049 54.8732 68.1416 56.0873 67.2135 57.8323C66.4927 58.7652 66.4927 58.7652 65.376 59.4048C62.1619 59.7907 58.8771 59.1116 55.705 58.6307C54.9134 58.5285 54.1215 58.4276 53.3296 58.3283C41.9436 56.801 31.3641 53.5977 21.6631 47.4054C21.1645 47.0918 20.6658 46.7783 20.1671 46.4649C15.6699 43.6177 15.6699 43.6177 14.3131 42.3734C13.9673 40.7763 13.9115 39.9339 14.7649 38.5374C18.2895 34.6071 24.1936 31.6407 29.013 29.5998C29.2683 29.5998 29.5236 29.5998 29.7867 29.5998C29.7867 29.3443 29.7867 29.0888 29.7867 28.8256Z" fill="#578B7D"/>
<path d="M258.022 26.8902C259.073 27.5826 259.986 28.4241 260.924 29.2611C263.819 31.7564 266.857 33.9009 270.065 35.9739C270.394 36.1871 270.724 36.4004 271.063 36.6201C271.356 36.8065 271.648 36.993 271.949 37.1851C272.68 37.6989 273.275 38.2372 273.883 38.8896C271.712 38.2739 269.606 37.5736 267.5 36.7607C262.989 35.1266 258.152 34.5497 253.38 34.2447C253.513 31.7094 253.664 29.5139 254.928 27.2773C256.165 26.8646 256.739 26.6845 258.022 26.8902Z" fill="#568A7C"/>
<path d="M323.398 89.5969C324.559 89.984 324.559 89.984 325.109 91.0817C325.279 91.5338 325.448 91.9859 325.623 92.4516C325.796 92.9017 325.97 93.3518 326.149 93.8155C326.493 95.016 326.493 95.016 326.106 96.1773C324.969 94.0183 323.967 91.9762 323.398 89.5969Z" fill="#276564"/>
<path d="M320.691 82.6295C321.834 84.002 322.802 85.5859 323.398 87.2745C323.271 87.6577 323.143 88.0409 323.012 88.4357C320.691 84.6755 320.691 84.6755 320.691 82.6295Z" fill="#236766"/>
<path d="M270.788 36.9543C272.198 37.4501 272.787 37.793 273.883 38.8897C272.606 38.5065 271.33 38.1233 270.014 37.7284C270.27 37.473 270.525 37.2175 270.788 36.9543Z" fill="#4C7F72"/>
</svg>
