<svg width="293" height="169" viewBox="0 0 293 169" fill="none" xmlns="http://www.w3.org/2000/svg">
<path d="M238.521 0C239.975 0.0212429 241.341 0.348897 242.749 0.68514C243.045 0.754899 243.341 0.824657 243.646 0.89653C255.318 3.71379 266.371 7.67958 277.159 12.9429C277.944 13.323 278.732 13.6958 279.522 14.0671C281.879 15.1778 284.197 16.2823 286.423 17.6408C287.671 18.356 288.98 18.9404 290.289 19.5348C290.715 19.7289 290.715 19.7289 291.15 19.927C291.358 20.0162 291.566 20.1053 291.78 20.1971C292.21 20.4569 292.21 20.4569 292.458 21.2186C292.478 22.1965 292.305 22.389 291.68 23.1064C291.607 23.3137 291.534 23.521 291.459 23.7346C291.094 24.557 290.695 24.9153 290.008 25.4909C288.666 26.6487 287.424 27.8806 286.194 29.1562C285.824 29.5337 285.441 29.8981 285.057 30.26C284.882 30.26 284.707 30.26 284.527 30.26C284.527 30.4349 284.527 30.6097 284.527 30.7899C283.61 31.5848 283.61 31.5848 282.937 31.5848C282.937 31.7596 282.937 31.9345 282.937 32.1147C277.66 37.1364 270.532 40.7555 263.861 43.5074C264.292 43.7766 264.723 44.0458 265.153 44.3149C265.533 44.5522 265.913 44.7896 266.292 45.0271C267.271 45.6394 268.251 46.2504 269.233 46.8576C271.194 48.0719 273.113 49.3174 274.989 50.661C275.367 50.9257 275.745 51.1899 276.123 51.4538C276.534 51.7415 276.946 52.0292 277.357 52.317C277.555 52.4547 277.753 52.5925 277.956 52.7344C278.237 52.9315 278.237 52.9315 278.523 53.1325C278.691 53.2497 278.858 53.367 279.031 53.4878C279.183 53.6041 279.336 53.7205 279.493 53.8404C279.649 53.9589 279.806 54.0773 279.967 54.1993C280.288 54.6353 280.288 54.6353 280.275 55.3136C280.023 55.96 280.023 55.96 279.541 56.2799C279.33 56.3523 279.118 56.4246 278.901 56.4992C278.66 56.5847 278.418 56.6701 278.17 56.7581C277.907 56.8445 277.644 56.9308 277.373 57.0198C277.109 57.1106 276.845 57.2014 276.573 57.295C275.672 57.6016 274.768 57.8992 273.863 58.1955C273.157 58.4277 272.451 58.6606 271.745 58.8941C271.56 58.9553 271.375 59.0166 271.185 59.0797C269.748 59.5571 268.318 60.0518 266.89 60.5521C256.448 64.2029 246.174 66.417 235.066 66.3758C234.814 66.3756 234.562 66.3754 234.302 66.3751C230.243 66.3671 226.278 66.1567 222.266 65.4982C221.974 65.4503 221.681 65.4024 221.38 65.353C220.615 65.2264 219.851 65.0981 219.087 64.9683C219.212 65.2097 219.337 65.4512 219.467 65.7C222.102 70.8343 224.064 76.0391 225.703 81.5662C226.052 82.707 226.439 83.8333 226.836 84.9586C227.098 85.8492 227.119 86.5691 227.035 87.4889C223.652 88.6166 219.316 88.0681 215.805 88.0679C214.805 88.0684 213.805 88.0733 212.804 88.0783C204.499 88.0974 204.499 88.0974 200.541 87.2239C200.641 87.3636 200.741 87.5033 200.844 87.6472C202.662 90.3329 203.96 93.2931 205.31 96.2322C205.4 96.4278 205.49 96.6235 205.583 96.8251C207.994 102.106 207.994 102.106 207.694 104.446C206.911 105.229 206.003 105.172 204.946 105.274C204.721 105.296 204.496 105.318 204.264 105.341C197.703 105.932 191.276 105.295 184.91 103.651C184.955 103.948 185 104.244 185.047 104.55C187.892 123.27 186.506 138.401 179.081 155.846C178.567 157.054 178.054 158.263 177.541 159.472C177.423 159.75 177.305 160.028 177.183 160.314C176.101 162.873 175.065 165.449 174.047 168.033C173.785 168.033 173.523 168.033 173.252 168.033C173.252 168.208 173.252 168.383 173.252 168.563C172.895 168.607 172.535 168.637 172.176 168.662C171.976 168.681 171.776 168.699 171.571 168.718C170.65 168.515 170.22 168.064 169.534 167.436C168.603 166.608 167.576 165.908 166.563 165.185C166.35 165.032 166.138 164.88 165.919 164.722C165.102 164.137 164.286 163.557 163.45 162.999C163.45 162.824 163.45 162.649 163.45 162.469C163.308 162.404 163.165 162.338 163.019 162.271C162.236 161.858 161.516 161.4 160.8 160.88C160.8 160.705 160.8 160.53 160.8 160.35C160.647 160.279 160.494 160.208 160.337 160.134C159.726 159.812 159.205 159.474 158.681 159.025C158.681 158.85 158.681 158.675 158.681 158.495C158.529 158.43 158.378 158.365 158.222 158.297C157.521 157.91 157.042 157.455 156.474 156.889C156.262 156.678 156.051 156.467 155.833 156.249C155.614 156.029 155.395 155.808 155.17 155.581C154.948 155.36 154.725 155.139 154.495 154.912C154.18 154.595 154.18 154.595 153.858 154.272C153.665 154.079 153.472 153.885 153.273 153.686C152.852 153.196 152.852 153.196 152.852 152.666C152.677 152.666 152.502 152.666 152.322 152.666C151.969 152.278 151.636 151.87 151.312 151.457C150.471 150.402 149.612 149.376 148.714 148.368C146.799 146.21 145.089 143.94 143.442 141.573C143.086 141.062 142.726 140.554 142.365 140.046C137.175 132.627 130.188 120.429 130.597 111.069C129.343 111.722 128.484 112.613 127.517 113.619C125.977 115.188 124.387 116.608 122.649 117.958C122.279 118.253 121.909 118.548 121.539 118.844C119.163 120.731 116.768 122.48 114.171 124.052C113.971 124.174 113.771 124.296 113.565 124.422C109.604 126.837 105.618 129.172 101.451 131.214C100.749 131.557 100.054 131.91 99.3623 132.273C96.9153 133.549 94.4302 134.565 91.8226 135.466C91.0773 135.725 90.3352 135.992 89.5927 136.259C86.3128 137.418 83.0846 138.272 79.6419 138.78C79.1536 138.855 78.6667 138.939 78.1813 139.031C75.7673 139.465 73.4016 139.491 70.9578 139.473C70.265 139.468 69.5722 139.468 68.8794 139.468C68.438 139.467 67.9966 139.465 67.5552 139.463C67.3485 139.463 67.1418 139.463 66.9289 139.462C65.4838 139.45 65.4838 139.45 64.8924 139.154C64.8851 138.751 64.88 138.348 64.8758 137.945C64.8727 137.721 64.8696 137.496 64.8665 137.265C64.8924 136.504 64.8924 136.504 65.0414 135.67C65.1945 134.322 65.0432 133.064 64.9089 131.719C63.5748 116.209 65.7672 100.578 69.9262 85.6342C69.111 85.9389 68.3338 86.2911 67.5573 86.6816C64.5335 88.1942 61.5392 89.2918 58.2689 90.1384C58.0042 90.207 57.7395 90.2757 57.4668 90.3464C50.3198 92.1752 41.6237 94.3564 34.2919 92.6885C33.9832 92.6209 33.6744 92.5532 33.3564 92.4836C32.5698 92.258 32.5698 92.258 31.775 91.7281C30.9469 89.4599 31.6544 86.6481 32.0399 84.3592C32.0689 84.1872 32.0978 84.0152 32.1276 83.8379C33.563 75.4171 36.2576 66.82 40.0023 59.1261C40.228 58.6612 40.4449 58.1921 40.6608 57.7225C41.7149 55.4876 43.0907 53.4833 44.4921 51.4559C44.0921 51.0559 43.7179 51.1256 43.1591 51.0864C42.9313 51.0689 42.7035 51.0515 42.4688 51.0335C42.0933 51.0049 42.0933 51.0049 41.7102 50.9757C32.2184 50.1583 23.1753 48.1395 15.0839 42.9775C14.7424 42.7629 14.4009 42.5483 14.0593 42.3338C10.9793 40.3849 10.9793 40.3849 10.05 39.5332C9.81318 38.44 9.77499 37.8634 10.3595 36.9075C12.7734 34.2173 16.817 32.1869 20.1177 30.7899C20.2926 30.7899 20.4674 30.7899 20.6476 30.7899C19.5556 29.633 18.3556 28.6839 17.0875 27.7264C16.8919 27.577 16.6964 27.4276 16.495 27.2736C15.6405 26.6242 14.7889 25.9925 13.8823 25.4175C13.6668 25.2668 13.4513 25.1162 13.2293 24.961C13.2293 24.7862 13.2293 24.6113 13.2293 24.4311C12.9834 24.3082 12.9834 24.3082 12.7325 24.1828C12.3682 24.0006 12.0039 23.8185 11.6397 23.6363C11.6397 23.4614 11.6397 23.2866 11.6397 23.1064C11.4863 23.0371 11.333 22.9677 11.175 22.8963C9.64708 22.0752 8.30233 20.6732 7.1357 19.3971C7.1357 19.2223 7.1357 19.0474 7.1357 18.8672C6.96084 18.8672 6.78598 18.8672 6.60582 18.8672C5.811 17.9501 5.811 17.9501 5.811 17.2775C5.63614 17.2775 5.46128 17.2775 5.28112 17.2775C5.28112 17.1027 5.28112 16.9278 5.28112 16.7476C5.10626 16.7476 4.9314 16.7476 4.75125 16.7476C4.75125 16.5728 4.75125 16.3979 4.75125 16.2177C4.58185 16.1467 4.41246 16.0757 4.23793 16.0025C3.69149 15.6878 3.69149 15.6878 3.42655 14.893C3.25169 14.893 3.07683 14.893 2.89667 14.893C2.89667 14.7181 2.89667 14.5433 2.89667 14.3631C2.72182 14.3631 2.54696 14.3631 2.3668 14.3631C1.0421 12.9122 1.0421 12.9122 1.0421 12.2435C0.867244 12.2435 0.692384 12.2435 0.512226 12.2435C0.115404 11.1992 -0.0697201 10.5897 0.214169 9.49468C0.777164 8.79919 0.77716 8.79919 1.69071 8.64041C2.09246 8.60245 2.49449 8.56728 2.89667 8.53424C3.11248 8.51211 3.32828 8.48998 3.55063 8.46718C8.22248 7.9922 12.8874 7.91385 17.5785 7.89712C18.6381 7.89282 19.6977 7.88571 20.7572 7.87905C22.8308 7.8665 24.9045 7.85678 26.9781 7.84811C28.6679 7.84099 30.3577 7.83272 32.0474 7.82375C55.6243 7.69934 79.2015 7.712 102.779 7.73939C102.779 7.56453 102.779 7.38966 102.779 7.2095C103.601 6.79845 104.47 6.90693 105.372 6.90936C105.578 6.90911 105.784 6.90885 105.996 6.90859C106.433 6.90841 106.87 6.9089 107.307 6.91001C107.97 6.91141 108.633 6.91003 109.295 6.90832C109.721 6.9085 110.146 6.90884 110.572 6.90936C110.768 6.90882 110.964 6.90829 111.166 6.90773C112.454 6.91343 113.689 7.03661 114.966 7.2095C115.698 7.2406 116.42 7.2599 117.152 7.25917C117.363 7.25915 117.574 7.25913 117.792 7.25911C120.719 7.23295 123.636 6.9695 126.553 6.74415C127.752 6.65469 128.95 6.58041 130.15 6.51401C130.333 6.50344 130.517 6.49287 130.705 6.48199C133.9 6.30924 133.9 6.30924 134.687 6.89487C135.101 7.47444 135.101 7.47444 135.101 8.26929C135.237 8.22761 135.372 8.18593 135.512 8.14299C136.366 7.96053 137.191 7.93793 138.064 7.9055C138.254 7.89814 138.443 7.89077 138.639 7.88318C139.05 7.86737 139.461 7.85207 139.871 7.83722C140.522 7.81369 141.172 7.78877 141.822 7.76349C143.437 7.70099 145.052 7.64089 146.667 7.58071C148.032 7.52973 149.398 7.47785 150.763 7.42476C151.403 7.40024 152.044 7.37705 152.684 7.3539C153.077 7.33878 153.47 7.32359 153.863 7.30833C154.206 7.2956 154.549 7.28287 154.902 7.26975C155.594 7.2215 156.165 7.13055 156.826 6.94455C157.95 6.86431 159.074 6.83255 160.2 6.79681C160.746 6.7791 161.292 6.75844 161.838 6.73756C162.186 6.72594 162.533 6.71433 162.892 6.70237C163.208 6.69157 163.525 6.68077 163.851 6.66964C164.799 6.67987 165.694 6.78993 166.629 6.94455C166.716 6.68225 166.804 6.41995 166.894 6.1497C168.163 5.89661 169.433 5.64733 170.704 5.40098C171.132 5.3174 171.561 5.23293 171.989 5.14741C178.832 3.78264 185.736 3.31396 192.686 2.89492C193.828 2.82571 194.969 2.75445 196.11 2.68325C196.574 2.65432 197.038 2.62539 197.502 2.59646C197.732 2.58213 197.961 2.56781 198.198 2.55305C198.892 2.50984 199.586 2.46688 200.281 2.42398C204.055 2.19033 207.827 1.9367 211.599 1.67827C217.201 1.29556 222.803 0.953323 228.409 0.652022C228.728 0.634769 229.046 0.617516 229.374 0.59974C230.271 0.551462 231.167 0.504215 232.064 0.45745C232.325 0.443434 232.587 0.429418 232.857 0.414976C234.02 0.355713 235.176 0.316406 236.341 0.328857C237.475 0.319992 237.441 0.0679431 238.521 0ZM175.107 27.8755C175.019 28.3126 174.932 28.7498 174.842 29.2002C175.367 29.1128 175.891 29.0254 176.432 28.9353C175.994 28.5855 175.557 28.2358 175.107 27.8755Z" fill="#274F3E"/>
<path d="M132.452 6.33189C132.73 6.32199 133.009 6.31208 133.296 6.30188C134.232 6.44359 134.54 6.72529 135.101 7.47448C135.101 7.73678 135.101 7.99908 135.101 8.26933C135.248 8.22724 135.395 8.18514 135.546 8.14178C136.214 7.99258 136.831 7.95114 137.515 7.92566C137.92 7.90978 137.92 7.90978 138.333 7.89357C138.625 7.88335 138.916 7.87313 139.217 7.86259C139.521 7.85121 139.825 7.83982 140.139 7.82809C140.785 7.80418 141.431 7.78083 142.077 7.758C143.048 7.72349 144.02 7.68685 144.991 7.64991C148.496 7.5204 151.994 7.43806 155.501 7.47448C155.293 8.71629 154.799 9.56879 154.11 10.6042C152.95 12.4026 151.907 14.2476 150.898 16.135C149.823 18.1454 148.729 20.1399 147.586 22.1129C146.445 24.0862 145.359 26.0837 144.293 28.0986C141.415 33.5356 138.265 38.7997 134.947 43.9803C134.311 44.9743 133.679 45.9711 133.048 46.9684C132.852 47.277 132.852 47.277 132.653 47.5918C131.909 48.7689 131.176 49.9519 130.454 51.1423C128.424 54.4862 126.329 57.7745 124.156 61.0272C123.976 61.2961 123.976 61.2961 123.793 61.5704C121.426 65.1095 119.018 68.6202 116.572 72.1053C116.417 72.327 116.261 72.5486 116.101 72.7769C115.635 73.4419 115.168 74.1067 114.701 74.7714C114.562 74.9686 114.424 75.1658 114.281 75.3689C112.506 77.8981 110.707 80.4102 108.895 82.9134C108.177 83.9058 107.463 84.9016 106.753 85.8992C103.325 90.7054 99.8471 95.474 96.2979 100.191C95.2701 101.559 94.2542 102.935 93.2408 104.313C92.773 104.948 92.3049 105.584 91.8368 106.219C91.5442 106.616 91.2517 107.013 90.9595 107.411C89.3657 109.575 87.7305 111.679 85.9767 113.716C85.3397 114.459 84.7175 115.211 84.1004 115.971C83.2292 117.041 82.3446 118.099 81.451 119.15C79.8746 121.007 78.3281 122.887 76.8074 124.79C75.2988 126.671 73.7647 128.501 72.109 130.255C71.291 131.125 70.5327 132.021 69.7937 132.961C68.9004 134.074 67.9431 135.059 66.896 136.024C66.758 136.152 66.62 136.28 66.4778 136.411C65.4907 137.299 65.4907 137.299 64.8924 137.299C64.9144 137.143 64.9364 136.986 64.959 136.824C65.1753 135.059 65.0894 133.433 64.9089 131.669C63.5606 116.184 65.7742 100.552 69.9262 85.6343C69.111 85.939 68.3338 86.2911 67.5573 86.6817C64.5335 88.1942 61.5392 89.2919 58.2689 90.1384C58.0042 90.2071 57.7395 90.2757 57.4668 90.3464C50.3198 92.1752 41.6237 94.3564 34.2919 92.6885C33.9832 92.6209 33.6744 92.5533 33.3564 92.4836C32.5698 92.258 32.5698 92.258 31.775 91.7281C30.9469 89.46 31.6544 86.6481 32.0399 84.3592C32.0689 84.1872 32.0978 84.0152 32.1276 83.838C33.563 75.4172 36.2576 66.82 40.0023 59.1261C40.228 58.6612 40.4449 58.1921 40.6608 57.7226C41.7149 55.4877 43.0907 53.4833 44.4921 51.4559C44.0921 51.0559 43.7179 51.1256 43.1591 51.0864C42.9313 51.069 42.7035 51.0515 42.4688 51.0335C42.0933 51.0049 42.0933 51.0049 41.7102 50.9757C32.2184 50.1583 23.1753 48.1395 15.0839 42.9776C14.7424 42.7629 14.4009 42.5483 14.0593 42.3338C10.9793 40.3849 10.9793 40.3849 10.05 39.5332C9.81318 38.4401 9.77499 37.8635 10.3595 36.9076C12.7734 34.2174 16.817 32.1869 20.1177 30.7899C20.2926 30.7899 20.4674 30.7899 20.6476 30.7899C19.5556 29.633 18.3556 28.6839 17.0875 27.7265C16.8919 27.5771 16.6964 27.4276 16.495 27.2737C15.6405 26.6243 14.7889 25.9925 13.8823 25.4175C13.6668 25.2669 13.4513 25.1163 13.2293 24.9611C13.2293 24.7862 13.2293 24.6114 13.2293 24.4312C12.9834 24.3082 12.9834 24.3082 12.7325 24.1828C12.3682 24.0006 12.0039 23.8185 11.6397 23.6363C11.6397 23.4615 11.6397 23.2866 11.6397 23.1064C11.4863 23.0371 11.333 22.9678 11.175 22.8963C9.64708 22.0752 8.30233 20.6732 7.1357 19.3972C7.1357 19.2223 7.1357 19.0474 7.1357 18.8673C6.96084 18.8673 6.78598 18.8673 6.60582 18.8673C5.811 17.9501 5.811 17.9501 5.811 17.2776C5.63614 17.2776 5.46128 17.2776 5.28112 17.2776C5.28112 17.1027 5.28112 16.9278 5.28112 16.7477C5.10626 16.7477 4.9314 16.7477 4.75125 16.7477C4.75125 16.5728 4.75125 16.3979 4.75125 16.2178C4.58185 16.1467 4.41246 16.0757 4.23793 16.0025C3.69149 15.6879 3.69149 15.6879 3.42655 14.893C3.25169 14.893 3.07683 14.893 2.89667 14.893C2.89667 14.7182 2.89667 14.5433 2.89667 14.3631C2.72182 14.3631 2.54696 14.3631 2.3668 14.3631C1.0421 12.9122 1.0421 12.9122 1.0421 12.2436C0.867244 12.2436 0.692384 12.2436 0.512226 12.2436C0.115404 11.1993 -0.0697201 10.5898 0.214169 9.49472C0.777164 8.79923 0.777168 8.79923 1.69071 8.64045C2.09247 8.60249 2.49449 8.56732 2.89667 8.53428C3.11248 8.51215 3.32828 8.49002 3.55063 8.46722C8.22248 7.99224 12.8874 7.91389 17.5785 7.89715C18.6381 7.89286 19.6976 7.88575 20.7572 7.87909C22.8308 7.86654 24.9045 7.85682 26.9781 7.84815C28.6679 7.84103 30.3577 7.83275 32.0474 7.82379C55.6243 7.69938 79.2015 7.71204 102.779 7.73943C102.779 7.56457 102.779 7.3897 102.779 7.20954C103.601 6.79849 104.47 6.90697 105.372 6.9094C105.578 6.90914 105.784 6.90889 105.996 6.90863C106.433 6.90845 106.87 6.90894 107.307 6.91005C107.97 6.91145 108.633 6.91007 109.295 6.90836C109.721 6.90854 110.146 6.90888 110.572 6.9094C110.768 6.90886 110.964 6.90833 111.166 6.90777C112.454 6.91347 113.689 7.03665 114.966 7.20954C115.698 7.24064 116.42 7.25994 117.152 7.25921C117.467 7.25918 117.467 7.25918 117.788 7.25915C121.571 7.22522 125.349 6.85661 129.116 6.53474C130.228 6.44219 131.336 6.35839 132.452 6.33189Z" fill="#38725A"/>
<path d="M164.509 62.3188C165.665 63.371 166.419 64.5036 167.208 65.8459C167.464 66.2724 167.72 66.6988 167.976 67.1251C168.105 67.3398 168.233 67.5544 168.365 67.7756C169.263 69.2675 170.192 70.7392 171.123 72.2101C171.359 72.5889 171.583 72.9748 171.804 73.3618C175.813 80.1169 187.601 83.8715 194.802 85.7504C195.993 86.0483 197.17 86.2665 198.388 86.4291C199.314 86.5744 199.715 86.6732 200.508 87.2074C201.335 88.3989 202.004 89.641 202.661 90.9332C202.783 91.1729 202.783 91.1729 202.908 91.4174C203.453 92.4843 203.987 93.5558 204.514 94.6314C204.688 94.985 204.863 95.3381 205.038 95.6906C207.934 101.512 207.934 101.512 207.694 104.446C206.911 105.229 206.003 105.172 204.946 105.274C204.721 105.296 204.496 105.318 204.264 105.341C197.703 105.932 191.276 105.295 184.91 103.651C184.955 103.948 185 104.244 185.047 104.55C187.892 123.27 186.506 138.401 179.081 155.846C178.567 157.054 178.054 158.263 177.541 159.472C177.423 159.75 177.305 160.028 177.183 160.314C176.101 162.873 175.065 165.449 174.047 168.033C173.785 168.033 173.523 168.033 173.252 168.033C173.252 168.208 173.252 168.383 173.252 168.563C172.895 168.607 172.535 168.637 172.176 168.662C171.976 168.681 171.776 168.699 171.571 168.718C170.65 168.515 170.22 168.064 169.534 167.436C168.603 166.608 167.576 165.908 166.563 165.185C166.35 165.032 166.138 164.88 165.919 164.722C165.102 164.137 164.286 163.557 163.45 162.999C163.45 162.824 163.45 162.649 163.45 162.469C163.308 162.404 163.165 162.338 163.019 162.271C162.236 161.858 161.516 161.4 160.8 160.88C160.8 160.705 160.8 160.53 160.8 160.35C160.647 160.279 160.494 160.208 160.337 160.134C159.726 159.812 159.205 159.475 158.681 159.025C158.681 158.85 158.681 158.675 158.681 158.495C158.454 158.397 158.454 158.397 158.222 158.297C157.521 157.91 157.042 157.455 156.474 156.889C156.263 156.678 156.051 156.467 155.833 156.249C155.614 156.029 155.395 155.808 155.17 155.581C154.948 155.36 154.725 155.139 154.495 154.912C154.285 154.701 154.075 154.49 153.858 154.272C153.665 154.079 153.472 153.885 153.273 153.686C152.852 153.196 152.852 153.196 152.852 152.666C152.677 152.666 152.502 152.666 152.322 152.666C151.969 152.278 151.636 151.871 151.312 151.457C150.471 150.402 149.612 149.376 148.714 148.368C146.799 146.21 145.09 143.94 143.442 141.573C143.086 141.062 142.726 140.554 142.365 140.046C136.867 132.185 132.996 122.922 130.829 113.603C130.773 113.361 130.716 113.12 130.658 112.871C130.23 110.893 130.23 110.893 130.597 110.01C131.173 109.352 131.173 109.352 131.93 108.617C132.065 108.485 132.2 108.352 132.34 108.215C132.773 107.79 133.208 107.368 133.644 106.946C135.683 104.968 137.576 102.971 139.34 100.736C139.594 100.432 139.85 100.129 140.108 99.8287C141.855 97.7918 143.538 95.714 145.169 93.5827C145.365 93.3284 145.365 93.3284 145.564 93.069C148.831 88.8018 151.764 84.2988 154.707 79.8054C154.877 79.5454 155.047 79.2854 155.223 79.0175C158.713 73.663 161.712 68.0619 164.509 62.3188Z" fill="#3D7B61"/>
<path d="M169.013 9.59406C169.189 9.69037 169.366 9.78668 169.547 9.88591C170.34 10.3191 171.134 10.7515 171.928 11.1837C172.172 11.3169 172.415 11.4501 172.667 11.5874C175.882 13.3345 179.021 14.8808 182.525 15.9528C182.767 16.03 183.009 16.1072 183.258 16.1867C185.363 16.8513 187.477 17.4039 189.629 17.8975C189.798 17.9365 189.967 17.9756 190.14 18.0158C194.21 18.9556 198.299 19.7923 202.396 20.606C202.582 20.6431 202.769 20.6803 202.961 20.7186C209.021 21.9248 215.077 23.1072 221.206 23.9013C221.428 23.9301 221.649 23.9589 221.878 23.9886C233.665 25.5061 245.455 26.0905 257.332 26.1029C257.99 26.1036 258.649 26.1051 259.308 26.1066C264.963 26.116 270.575 26.0439 276.166 25.0935C277.486 24.908 278.81 24.805 280.139 24.6961C283.55 24.4111 286.796 23.9923 290.094 23.0547C290.885 22.8415 290.885 22.8415 291.415 22.8415C291.502 23.42 291.502 23.42 291.415 24.1662C290.831 24.8213 290.831 24.8213 290.024 25.5075C289.733 25.76 289.443 26.0132 289.153 26.2672C288.927 26.4643 288.927 26.4643 288.696 26.6654C287.779 27.4925 286.927 28.3871 286.073 29.2774C285.743 29.6144 285.401 29.9386 285.057 30.26C284.882 30.26 284.707 30.26 284.527 30.26C284.527 30.4349 284.527 30.6098 284.527 30.7899C283.61 31.5848 283.61 31.5848 282.937 31.5848C282.937 31.7596 282.937 31.9345 282.937 32.1147C277.66 37.1365 270.532 40.7555 263.861 43.5075C264.292 43.7766 264.723 44.0458 265.153 44.3149C265.533 44.5522 265.913 44.7896 266.292 45.0271C267.271 45.6395 268.251 46.2504 269.233 46.8576C271.194 48.0719 273.113 49.3174 274.989 50.6611C275.367 50.9257 275.745 51.1899 276.123 51.4538C276.534 51.7416 276.946 52.0293 277.357 52.317C277.654 52.5236 277.654 52.5236 277.956 52.7345C278.143 52.8658 278.33 52.9972 278.523 53.1325C278.691 53.2498 278.858 53.367 279.031 53.4878C279.183 53.6042 279.336 53.7205 279.493 53.8404C279.649 53.9589 279.806 54.0773 279.967 54.1993C280.288 54.6353 280.288 54.6353 280.275 55.3136C280.023 55.96 280.023 55.96 279.541 56.2799C279.33 56.3523 279.118 56.4247 278.901 56.4992C278.66 56.5847 278.418 56.6701 278.17 56.7581C277.907 56.8445 277.644 56.9308 277.373 57.0198C277.109 57.1106 276.845 57.2014 276.573 57.295C275.671 57.6017 274.768 57.8993 273.863 58.1955C273.157 58.4277 272.451 58.6606 271.745 58.8941C271.56 58.9554 271.375 59.0166 271.185 59.0797C269.748 59.5571 268.318 60.0519 266.89 60.5521C256.449 64.2027 246.174 66.4181 235.066 66.3758C234.814 66.3755 234.561 66.3752 234.301 66.3749C230.47 66.3657 226.711 66.2205 222.922 65.6022C222.313 65.5056 221.706 65.4307 221.093 65.3616C218.918 65.0453 218.918 65.0453 217.999 64.1755C217.505 63.4923 217.104 62.7949 216.702 62.0538C216.388 61.5591 216.067 61.068 215.742 60.5801C215.475 60.1805 215.475 60.1805 215.204 59.7728C209.251 51.0626 201.248 43.9998 191.798 39.2683C191.645 39.1907 191.492 39.1131 191.334 39.0331C185.634 36.1664 180.122 34.5134 173.782 33.9693C173.778 33.5493 173.778 33.5493 173.775 33.1208C173.764 32.057 173.746 30.9934 173.727 29.9298C173.72 29.4741 173.714 29.0183 173.71 28.5626C173.683 25.467 173.357 22.6242 172.583 19.6251C172.421 18.9881 172.28 18.347 172.139 17.705C171.546 15.2122 170.728 13.0802 169.43 10.8681C169.013 10.124 169.013 10.124 169.013 9.59406ZM175.107 27.8755C175.019 28.3127 174.932 28.7498 174.842 29.2002C175.367 29.1128 175.891 29.0254 176.432 28.9353C175.994 28.5856 175.557 28.2358 175.107 27.8755Z" fill="#38725A"/>
<path d="M20.6475 30.26C22.0525 31.0093 23.2963 31.8887 24.5595 32.8577C25.7666 33.6771 27.0444 34.3432 28.3308 35.0291C28.8367 35.3036 29.3424 35.5786 29.848 35.8539C31.2038 36.59 32.5611 37.3234 33.9187 38.0562C34.763 38.5133 35.6051 38.9744 36.4459 39.4381C40.3833 41.5441 44.2793 42.9745 48.6424 43.9408C49.3762 44.1034 50.1085 44.2717 50.8407 44.441C53.5188 45.053 56.1984 45.5773 58.9126 46.0014C59.8585 46.1569 59.8585 46.1569 60.4027 46.3058C70.1693 48.5043 82.2578 44.8694 91.3077 41.5857C91.9161 41.3878 91.9161 41.3878 92.446 41.3878C92.127 42.0485 91.7957 42.6282 91.3862 43.2425C91.2113 43.2425 91.0365 43.2425 90.8563 43.2425C90.7496 43.4682 90.7496 43.4682 90.6408 43.6984C90.3118 44.3305 89.9402 44.8987 89.5358 45.4852C89.3772 45.7162 89.2186 45.9472 89.0552 46.1852C88.8846 46.4327 88.7139 46.6802 88.5381 46.9352C88.1767 47.4629 87.8155 47.9907 87.4545 48.5187C87.2709 48.7872 87.0872 49.0557 86.8979 49.3324C82.5343 55.705 82.5343 55.705 78.8772 62.4958C78.7754 62.7115 78.6736 62.9272 78.5688 63.1494C77.4747 65.4903 76.4604 67.8636 75.4648 70.2476C75.1573 70.9825 74.8466 71.716 74.5357 72.4494C72.9446 76.2302 71.6505 79.9666 70.8224 83.9897C69.7629 86.4469 65.887 87.5987 63.5676 88.5487C61.8333 89.1888 60.0573 89.6754 58.2689 90.1384C58.0042 90.207 57.7395 90.2757 57.4668 90.3464C50.3197 92.1752 41.6237 94.3564 34.2919 92.6885C33.9832 92.6209 33.6744 92.5532 33.3563 92.4836C32.5698 92.2579 32.5698 92.2579 31.775 91.7281C30.9469 89.4599 31.6544 86.6481 32.0399 84.3592C32.0688 84.1872 32.0977 84.0152 32.1275 83.8379C33.563 75.4171 36.2575 66.82 40.0023 59.1261C40.2279 58.6612 40.4449 58.1921 40.6608 57.7225C41.7149 55.4876 43.0906 53.4833 44.492 51.4559C44.092 51.0559 43.7178 51.1256 43.1591 51.0864C42.9313 51.0689 42.7035 51.0515 42.4688 51.0335C42.2184 51.0144 41.9681 50.9953 41.7102 50.9757C32.2184 50.1583 23.1753 48.1395 15.0838 42.9775C14.7424 42.7629 14.4008 42.5483 14.0593 42.3338C10.9792 40.3849 10.9792 40.3849 10.05 39.5332C9.81314 38.44 9.77496 37.8634 10.3594 36.9075C12.7733 34.2173 16.8169 32.1869 20.1177 30.7899C20.2925 30.7899 20.4674 30.7899 20.6475 30.7899C20.6475 30.615 20.6475 30.4402 20.6475 30.26Z" fill="#3D7C61"/>
<path d="M132.518 6.39812C132.954 6.40171 132.954 6.40171 133.4 6.40536C133.717 6.40997 133.717 6.40997 134.041 6.41468C134.216 6.76441 134.391 7.11414 134.571 7.47447C133.898 7.9169 133.388 8.24809 132.584 8.36867C131.864 8.48532 131.864 8.48532 131.347 9.1456C130.467 9.98246 129.645 10.3746 128.54 10.8412C128.341 10.9284 128.141 11.0156 127.936 11.1054C127.301 11.3829 126.664 11.656 126.027 11.9289C125.197 12.2883 124.368 12.6494 123.539 13.0104C123.332 13.1003 123.124 13.1901 122.911 13.2827C121.528 13.8846 120.162 14.5154 118.801 15.1652C116.662 16.1843 114.49 17.1125 112.301 18.0174C111.681 18.2735 111.063 18.5315 110.444 18.7896C107.04 20.2067 103.677 21.4094 100.096 22.3116C99.7518 22.3998 99.4075 22.4881 99.0633 22.5765C98.1861 22.801 97.3079 23.0207 96.4289 23.2379C96.0692 23.327 95.7097 23.4169 95.3503 23.5076C92.318 24.2709 89.279 24.8027 86.1868 25.2591C85.7432 25.3262 85.2995 25.3935 84.8559 25.461C82.7016 25.7862 82.7016 25.7862 81.7643 25.9193C81.2245 25.9965 80.685 26.0769 80.1459 26.1589C77.8575 26.4911 75.6325 26.6289 73.3218 26.6211C72.8059 26.6219 72.8059 26.6219 72.2797 26.6227C71.5568 26.6234 70.8339 26.6223 70.111 26.6198C69.2053 26.6169 68.2997 26.6186 67.3941 26.6217C61.4465 26.6388 55.5935 26.2866 49.7081 25.4247C49.5151 25.397 49.3222 25.3692 49.1234 25.3407C44.9542 24.7368 40.6666 24.0929 36.6784 22.7069C35.2482 22.2111 33.7818 21.9067 32.3049 21.583C27.8053 20.5685 23.368 19.3764 19.0105 17.8608C17.3547 17.2984 15.6732 16.8779 13.9744 16.4662C10.6488 15.6567 7.52858 14.7784 4.48735 13.1647C3.33434 12.5979 2.13201 12.1933 0.914816 11.7861C0.247294 11.4487 0.247294 11.4487 0.00305386 10.9323C-0.0320924 10.0096 0.236756 9.53617 0.777172 8.79921C1.49426 8.672 2.17325 8.59164 2.89668 8.53427C3.22042 8.50117 3.22042 8.50117 3.5507 8.4674C8.22234 7.9911 12.8875 7.91387 17.5785 7.89714C18.6381 7.89284 19.6977 7.88574 20.7572 7.87908C22.8308 7.86653 24.9045 7.8568 26.9781 7.84814C28.6679 7.84102 30.3577 7.83274 32.0475 7.82378C55.6243 7.69937 79.2015 7.71203 102.779 7.73942C102.779 7.56455 102.779 7.38969 102.779 7.20952C103.601 6.79848 104.47 6.90696 105.372 6.90939C105.578 6.90913 105.784 6.90888 105.996 6.90862C106.433 6.90844 106.87 6.90893 107.307 6.91003C107.97 6.91144 108.633 6.91005 109.295 6.90835C109.721 6.90853 110.146 6.90887 110.572 6.90939C110.768 6.90885 110.964 6.90831 111.166 6.90776C112.454 6.91345 113.689 7.03664 114.966 7.20952C115.698 7.24063 116.42 7.25993 117.152 7.2592C117.467 7.25917 117.467 7.25917 117.788 7.25914C121.291 7.22771 124.794 6.91085 128.282 6.60349C129.7 6.47898 131.095 6.38265 132.518 6.39812Z" fill="#204A4A"/>
<path d="M129.802 9.85901C129.977 9.94644 130.152 10.0339 130.332 10.124C128.276 11.5098 126.212 12.8883 124.067 14.1323C122.227 15.2018 120.548 16.303 118.923 17.6884C117.987 18.4691 117.019 19.199 116.042 19.9271C115.861 20.0623 115.68 20.1975 115.493 20.3369C114.664 20.9547 113.834 21.5701 113.003 22.1843C111.476 23.3169 110.018 24.4827 108.607 25.7559C108.271 26.0489 107.934 26.3414 107.597 26.6336C106.475 27.6144 105.376 28.6195 104.276 29.6246C103.701 30.1443 103.12 30.6516 102.53 31.1542C100.498 32.9234 98.6019 34.8673 96.8568 36.9189C96.2158 37.645 95.5243 38.3159 94.8284 38.9888C94.2592 39.5539 94.2592 39.5539 93.6879 40.3415C92.8789 41.2293 92.2742 41.5213 91.1544 41.9343C90.9801 41.9994 90.8058 42.0644 90.6263 42.1314C90.0865 42.3305 89.5446 42.5221 89.0018 42.7126C88.6859 42.8274 88.3699 42.9421 88.0445 43.0604C87.0449 43.41 86.0416 43.7323 85.0277 44.0374C84.849 44.0916 84.6704 44.1459 84.4863 44.2018C78.3078 46.0276 71.7842 46.8101 65.356 46.8193C65.0632 46.8211 65.0632 46.8211 64.7645 46.8229C62.0546 46.8297 59.5925 46.4983 56.9442 45.892C56.522 45.8084 56.0995 45.7266 55.6764 45.6477C53.1289 45.1578 50.5928 44.6151 48.0632 44.0401C47.5538 43.9248 47.0438 43.8122 46.5339 43.6997C44.4199 43.2127 42.489 42.556 40.518 41.6528C40.2839 41.5473 40.0499 41.4417 39.8088 41.333C39.1258 41.0207 38.4469 40.7012 37.7692 40.3778C37.5282 40.2628 37.2871 40.1479 37.0387 40.0295C35.3785 39.2289 33.7818 38.3666 32.1952 37.4281C31.2764 36.8909 30.3321 36.4104 29.3841 35.9274C27.0821 34.7507 24.9931 33.4543 22.9295 31.9011C22.2379 31.3892 21.5246 30.9095 20.8131 30.4256C19.2738 29.366 17.778 28.2546 16.2907 27.1232C15.5081 26.5295 14.7287 25.956 13.8989 25.4299C13.6779 25.2752 13.4569 25.1205 13.2293 24.9611C13.2293 24.7862 13.2293 24.6113 13.2293 24.4312C13.0653 24.3492 12.9014 24.2672 12.7325 24.1828C12.3682 24.0006 12.0039 23.8185 11.6396 23.6363C11.6396 23.4615 11.6396 23.2866 11.6396 23.1064C11.4863 23.0371 11.3329 22.9678 11.175 22.8963C9.64706 22.0752 8.30232 20.6732 7.13568 19.3972C7.13568 19.2223 7.13568 19.0474 7.13568 18.8673C6.96082 18.8673 6.78596 18.8673 6.6058 18.8673C5.81098 17.9501 5.81098 17.9501 5.81098 17.2776C5.63612 17.2776 5.46126 17.2776 5.28111 17.2776C5.28111 17.1027 5.28111 16.9278 5.28111 16.7477C5.10625 16.7477 4.93139 16.7477 4.75123 16.7477C4.75123 16.5728 4.75123 16.3979 4.75123 16.2178C4.58183 16.1467 4.41244 16.0757 4.23791 16.0025C3.69147 15.6879 3.69147 15.6879 3.42653 14.893C3.25167 14.893 3.07681 14.893 2.89666 14.893C2.89666 14.7182 2.89666 14.5433 2.89666 14.3631C2.7218 14.3631 2.54694 14.3631 2.36678 14.3631C1.04208 12.9122 1.04208 12.9122 1.04208 12.2435C0.867225 12.2435 0.692365 12.2435 0.512207 12.2435C0.512207 11.9812 0.512207 11.7189 0.512207 11.4487C2.6095 12.0996 4.59262 12.9602 6.6058 13.8332C9.88236 15.2313 13.2564 16.119 16.7155 16.938C18.2722 17.3144 19.754 17.7774 21.2526 18.341C22.4571 18.7784 23.6853 19.1215 24.9197 19.4634C25.1982 19.541 25.4767 19.6187 25.7636 19.6986C29.0783 20.6089 32.4214 21.4033 35.7652 22.1982C37.0357 22.5012 38.3026 22.817 39.5689 23.1364C43.1882 24.0465 46.8273 24.7167 50.5194 25.2591C50.9391 25.3222 50.9391 25.3222 51.3673 25.3864C57.0807 26.1951 62.8035 26.4107 68.5684 26.4183C68.8347 26.419 68.8347 26.419 69.1064 26.4197C75.403 26.4344 81.4988 25.963 87.6906 24.7925C88.434 24.6537 89.1794 24.5278 89.9249 24.4012C91.214 24.1761 92.493 23.9187 93.7707 23.6363C93.9935 23.5876 94.2164 23.5389 94.4459 23.4887C106.043 20.9221 116.822 16.0136 127.493 10.9074C127.807 10.7582 128.121 10.6089 128.445 10.4551C128.701 10.3308 128.957 10.2065 129.221 10.0784C129.413 10.006 129.605 9.93361 129.802 9.85901Z" fill="#2A605F"/>
<path d="M149.143 88.2838C149.938 88.5487 149.938 88.5487 150.404 89.3642C150.578 89.7311 150.748 90.0997 150.915 90.4696C151.008 90.6716 151.101 90.8735 151.197 91.0816C151.971 92.7902 152.625 94.5345 153.272 96.2941C154.007 98.2551 154.862 100.151 155.74 102.051C157.666 106.221 159.294 110.439 160.8 114.779C160.902 115.067 161.004 115.356 161.109 115.653C162.736 120.279 163.914 124.923 164.845 129.734C165.042 130.691 165.275 131.633 165.519 132.58C167.659 140.95 168.974 149.443 169.951 158.016C170.076 159.048 170.22 160.076 170.366 161.105C170.572 162.627 170.671 164.099 170.636 165.632C170.634 165.842 170.631 166.051 170.629 166.267C170.623 166.768 170.613 167.268 170.603 167.768C169.261 167.345 168.272 166.531 167.175 165.682C166.809 165.401 166.442 165.12 166.075 164.839C165.901 164.706 165.726 164.572 165.546 164.434C165.079 164.088 164.602 163.772 164.111 163.461C163.893 163.308 163.674 163.156 163.45 162.999C163.45 162.824 163.45 162.649 163.45 162.469C163.308 162.404 163.165 162.338 163.019 162.271C162.236 161.858 161.516 161.4 160.8 160.88C160.8 160.705 160.8 160.53 160.8 160.35C160.647 160.279 160.494 160.208 160.337 160.134C159.726 159.812 159.205 159.475 158.681 159.025C158.681 158.85 158.681 158.675 158.681 158.495C158.454 158.397 158.454 158.397 158.222 158.297C157.521 157.91 157.042 157.455 156.474 156.889C156.263 156.678 156.051 156.467 155.833 156.249C155.614 156.029 155.395 155.808 155.17 155.581C154.836 155.25 154.836 155.25 154.495 154.912C154.285 154.701 154.075 154.49 153.858 154.272C153.665 154.079 153.472 153.885 153.273 153.686C152.852 153.196 152.852 153.196 152.852 152.666C152.677 152.666 152.502 152.666 152.322 152.666C151.969 152.278 151.636 151.871 151.312 151.457C150.471 150.402 149.612 149.376 148.714 148.368C146.799 146.21 145.09 143.94 143.442 141.573C143.086 141.062 142.726 140.554 142.365 140.046C136.867 132.185 132.996 122.922 130.829 113.603C130.745 113.241 130.745 113.241 130.658 112.871C130.23 110.893 130.23 110.893 130.597 110.01C131.173 109.352 131.173 109.352 131.93 108.618C132.133 108.418 132.133 108.418 132.34 108.215C132.773 107.79 133.208 107.368 133.644 106.946C135.683 104.968 137.576 102.971 139.34 100.736C139.594 100.432 139.85 100.129 140.108 99.8287C143.1 96.3416 145.848 92.6946 148.554 88.982C148.878 88.5487 148.878 88.5487 149.143 88.2838Z" fill="#678F64"/>
<path d="M169.543 50.3961C182.282 52.4509 195.483 61.6502 205.596 69.0975C206.046 69.4289 206.497 69.7582 206.949 70.0872C210.026 72.3527 212.998 74.7903 215.809 77.3784C216.345 77.8669 216.889 78.342 217.438 78.816C218.559 79.7953 219.625 80.8222 220.676 81.8753C220.861 82.0596 221.045 82.2439 221.234 82.4338C224.915 86.1592 224.915 86.1592 224.915 87.224C225.178 87.3114 225.44 87.3988 225.71 87.4889C225.71 87.5763 225.71 87.6638 225.71 87.7539C223.426 87.9558 221.161 88.0637 218.868 88.0726C218.554 88.0741 218.24 88.0756 217.917 88.0772C217.255 88.0797 216.594 88.0814 215.933 88.0824C214.945 88.085 213.957 88.0932 212.97 88.1016C208.014 88.1234 202.967 87.9979 198.157 86.6941C197.738 86.5971 197.319 86.5016 196.9 86.4084C189.603 84.7539 182.839 82.0647 176.581 77.9342C176.386 77.8064 176.192 77.6786 175.992 77.5469C173.561 75.9085 171.944 74.3383 170.52 71.7576C170.224 71.2383 169.927 70.7194 169.629 70.201C169.482 69.9445 169.336 69.688 169.185 69.4238C168.335 67.9695 167.405 66.5677 166.48 65.1608C166.376 64.9972 166.273 64.8336 166.166 64.665C165.838 64.1592 165.838 64.1592 165.414 63.6818C164.981 63.1351 164.707 62.7245 164.509 62.0539C164.727 60.962 165.229 60.0491 165.751 59.0732C166.031 58.5121 166.31 57.9505 166.588 57.3883C166.729 57.107 166.87 56.8258 167.016 56.536C167.632 55.2656 168.154 53.9634 168.666 52.6482C168.755 52.4203 168.845 52.1924 168.937 51.9576C169.141 51.4377 169.342 50.917 169.543 50.3961Z" fill="#2B605F"/>
<path d="M195.772 41.1229C196.857 41.4718 197.901 41.8725 198.951 42.3152C215.983 49.2318 236.118 52.135 253.919 46.454C254.751 46.1897 255.582 45.9598 256.427 45.743C258.007 45.319 259.5 44.703 260.998 44.0487C262.189 43.5537 262.884 43.4572 264.126 43.7724C264.749 44.0856 265.327 44.4032 265.918 44.767C266.169 44.9177 266.169 44.9177 266.425 45.0714C266.778 45.2842 267.13 45.4983 267.482 45.7135C268.01 46.0363 268.54 46.3549 269.071 46.6729C271.12 47.909 273.069 49.2301 274.989 50.6611C275.402 50.9543 275.815 51.2459 276.231 51.5356C276.516 51.7351 276.516 51.7351 276.807 51.9387C277.193 52.2075 277.578 52.4759 277.964 52.7439C278.245 52.9409 278.245 52.9409 278.532 53.1419C278.698 53.2574 278.864 53.3729 279.035 53.492C279.186 53.607 279.337 53.722 279.493 53.8405C279.727 54.0178 279.727 54.0178 279.967 54.1987C280.288 54.6353 280.288 54.6353 280.275 55.3136C280.023 55.96 280.023 55.96 279.541 56.2799C279.329 56.3523 279.118 56.4247 278.901 56.4992C278.659 56.5847 278.418 56.6701 278.17 56.7581C277.907 56.8445 277.644 56.9308 277.373 57.0198C277.109 57.1106 276.845 57.2014 276.573 57.295C275.671 57.6017 274.768 57.8993 273.863 58.1955C273.157 58.4277 272.451 58.6606 271.745 58.8941C271.56 58.9554 271.375 59.0166 271.185 59.0797C269.748 59.5571 268.318 60.0519 266.89 60.5521C256.449 64.2027 246.174 66.4181 235.066 66.3758C234.814 66.3755 234.561 66.3752 234.301 66.3749C230.47 66.3657 226.711 66.2205 222.922 65.6022C222.313 65.5056 221.706 65.4307 221.093 65.3616C218.918 65.0453 218.918 65.0453 217.999 64.1755C217.505 63.4923 217.104 62.7949 216.702 62.0539C216.388 61.5591 216.067 61.068 215.742 60.5801C215.564 60.3137 215.387 60.0473 215.204 59.7728C210.33 52.6406 204.208 46.85 196.956 42.178C196.558 41.9204 196.164 41.655 195.772 41.3879C195.772 41.3004 195.772 41.213 195.772 41.1229Z" fill="#578B7D"/>
<path d="M173.517 33.9693C178.694 33.6952 183.099 35.2144 187.824 37.1487C188.041 37.2351 188.259 37.3216 188.483 37.4107C194.726 39.904 200.269 43.8815 205.31 48.2765C205.506 48.4425 205.701 48.6085 205.903 48.7795C208.344 50.8638 210.494 53.1629 212.463 55.6951C212.645 55.9277 212.645 55.9277 212.83 56.165C214.79 58.691 216.565 61.3026 218.273 64.0043C218.566 64.4654 218.566 64.4654 218.975 64.9797C222.417 69.7172 224.049 76.0358 225.699 81.5577C226.051 82.7012 226.439 83.8311 226.836 84.9598C227.098 85.8497 227.118 86.5699 227.035 87.4889C226.455 87.7042 226.455 87.7042 225.71 87.7539C224.744 86.8893 223.944 85.9095 223.127 84.9057C220.606 81.8752 217.791 79.0319 214.687 76.5981C214.071 76.1104 213.491 75.5991 212.91 75.0694C210.048 72.5053 206.914 70.2708 203.788 68.0443C203.217 67.6366 202.649 67.2256 202.081 66.8136C192.141 59.6405 181.113 54.3565 169.543 50.3961C169.627 50.1435 169.627 50.1435 169.713 49.8857C171.419 44.6875 172.824 39.4089 173.517 33.9693Z" fill="#204B4B"/>
<path d="M91.1213 43.2425C90.9409 43.4939 90.7606 43.7453 90.5748 44.0042C88.2082 47.3209 85.939 50.6996 83.703 54.1054C83.5072 54.402 83.5072 54.402 83.3074 54.7046C80.5009 58.9754 78.1445 63.501 76.322 68.275C75.8878 69.4108 75.4271 70.5343 74.9559 71.6551C74.8854 71.8232 74.8149 71.9912 74.7423 72.1643C74.3936 72.9955 74.0434 73.8259 73.6912 74.6556C72.4182 77.6963 71.5041 80.7397 70.8317 83.9618C69.7698 86.4425 65.9081 87.5901 63.5676 88.5487C61.8333 89.1888 60.0573 89.6754 58.2689 90.1384C58.0042 90.207 57.7395 90.2757 57.4668 90.3464C50.3272 92.1733 41.5928 94.3808 34.2753 92.672C33.9635 92.6013 33.6517 92.5306 33.3305 92.4577C32.5698 92.258 32.5698 92.258 32.0399 91.993C32.0399 91.8182 32.0399 91.6433 32.0399 91.4631C32.7394 91.4631 33.4388 91.4631 34.1594 91.4631C34.2593 91.2413 34.2593 91.2413 34.3612 91.015C35.534 88.8284 37.4836 87.0217 39.251 85.3078C39.98 84.5981 40.6702 83.877 41.3293 83.1017C42.7642 81.4398 44.3557 79.9239 45.9161 78.3813C46.5426 77.7618 47.1683 77.1414 47.7934 76.5205C47.9369 76.3792 48.0804 76.2379 48.2282 76.0923C48.9701 75.3701 48.9701 75.3701 49.5259 74.5064C49.7007 74.5064 49.8756 74.5064 50.0558 74.5064C50.0558 74.3316 50.0558 74.1567 50.0558 73.9765C50.2306 73.9765 50.4055 73.9765 50.5856 73.9765C50.6505 73.8252 50.7154 73.6739 50.7823 73.5181C51.63 71.9885 53.1743 70.7966 54.4935 69.6711C55.4943 68.8144 56.416 67.8913 57.3416 66.9554C58.5802 65.7059 59.8386 64.5144 61.1832 63.3786C61.4455 63.1487 61.7078 62.9189 61.978 62.6821C68.2268 57.2181 75.1099 52.5111 82.1354 48.1108C83.4799 47.267 84.805 46.3993 86.1205 45.5111C90.0369 42.881 90.0369 42.881 91.1213 43.2425Z" fill="#678F64"/>
<path d="M172.722 75.3013C173.716 75.6541 174.445 76.0935 175.272 76.7419C181.849 81.6126 190.248 85.343 198.388 86.4291C199.314 86.5744 199.715 86.6732 200.508 87.2074C201.335 88.3989 202.004 89.641 202.66 90.9332C202.783 91.1729 202.783 91.1729 202.908 91.4175C203.453 92.4843 203.987 93.5558 204.514 94.6314C204.688 94.985 204.863 95.3381 205.038 95.6907C207.934 101.512 207.934 101.512 207.694 104.446C206.911 105.229 206.003 105.172 204.946 105.274C204.721 105.296 204.496 105.318 204.264 105.341C198.202 105.887 189.95 106.171 184.38 103.386C184.215 102.911 184.215 102.911 184.075 102.294C184.023 102.069 183.97 101.845 183.916 101.613C183.861 101.373 183.807 101.133 183.75 100.885C183.359 99.2452 182.963 97.6727 182.284 96.1246C181.89 95.1871 181.566 94.2288 181.234 93.2681C179.84 89.2965 178.173 85.6238 176.167 81.925C175.785 81.2136 175.404 80.5013 175.024 79.7888C174.938 79.6285 174.852 79.4681 174.764 79.3029C174.058 77.9813 173.381 76.6469 172.722 75.3013Z" fill="#578B7D"/>
<path d="M20.6475 30.26C22.0525 31.0093 23.2963 31.8887 24.5595 32.8577C25.7666 33.6771 27.0444 34.3432 28.3308 35.0291C28.8367 35.3036 29.3424 35.5786 29.848 35.8539C31.2038 36.59 32.5611 37.3234 33.9187 38.0562C34.5952 38.4225 35.2702 38.7915 35.9447 39.1617C40.689 41.7502 45.283 43.2009 50.5856 44.3023C50.5856 45.0971 50.5856 45.0971 49.9067 45.835C49.4448 46.2819 48.9767 46.7215 48.5078 47.1609C47.5375 48.0891 46.916 48.9202 46.2804 50.1146C45.7867 50.7532 45.7867 50.7532 45.0219 51.1909C42.8207 51.4551 40.5709 50.9903 38.3984 50.661C37.8563 50.5911 37.314 50.5221 36.7716 50.4541C28.9735 49.4086 21.7279 47.2161 15.0838 42.9775C14.7424 42.7629 14.4008 42.5483 14.0593 42.3338C10.9792 40.3849 10.9792 40.3849 10.05 39.5332C9.81314 38.44 9.77496 37.8634 10.3594 36.9075C12.7733 34.2173 16.8169 32.1869 20.1177 30.7899C20.2925 30.7899 20.4674 30.7899 20.6475 30.7899C20.6475 30.615 20.6475 30.4402 20.6475 30.26Z" fill="#578B7D"/>
<path d="M176.961 28.9353C177.681 29.4092 178.307 29.9852 178.949 30.5581C180.931 32.2661 183.012 33.734 185.209 35.1529C185.435 35.2989 185.66 35.4448 185.893 35.5952C186.093 35.7228 186.293 35.8505 186.5 35.982C187 36.3337 187.408 36.7021 187.824 37.1487C186.337 36.7272 184.895 36.2479 183.452 35.6915C180.363 34.5729 177.05 34.178 173.782 33.9693C173.873 32.2339 173.977 30.7312 174.842 29.2002C175.689 28.9178 176.082 28.7945 176.961 28.9353Z" fill="#568A7C"/>
<path d="M221.736 71.8569C222.531 72.1219 222.531 72.1219 222.908 72.8733C223.024 73.1827 223.14 73.4921 223.26 73.8109C223.378 74.119 223.497 74.4271 223.62 74.7445C223.856 75.5662 223.856 75.5662 223.591 76.3611C222.812 74.8833 222.126 73.4855 221.736 71.8569Z" fill="#276564"/>
<path d="M219.882 67.0879C220.664 68.0274 221.328 69.1115 221.736 70.2673C221.649 70.5296 221.561 70.7919 221.471 71.0621C219.882 68.4883 219.882 68.4883 219.882 67.0879Z" fill="#236766"/>
<path d="M185.704 35.824C186.67 36.1633 187.073 36.398 187.824 37.1487C186.95 36.8864 186.075 36.6241 185.175 36.3539C185.349 36.179 185.524 36.0041 185.704 35.824Z" fill="#4C7F72"/>
</svg>
