<svg width="31" height="31" viewBox="0 0 31 31" fill="none" xmlns="http://www.w3.org/2000/svg">
<path d="M15.5 29.0625C12.8176 29.0625 10.1954 28.2671 7.96508 26.7768C5.73474 25.2865 3.9964 23.1684 2.96989 20.6902C1.94338 18.2119 1.67479 15.485 2.19811 12.8541C2.72142 10.2232 4.01312 7.80662 5.90987 5.90987C7.80662 4.01312 10.2232 2.72142 12.8541 2.19811C15.485 1.67479 18.2119 1.94338 20.6902 2.96989C23.1684 3.9964 25.2865 5.73474 26.7768 7.96508C28.2671 10.1954 29.0625 12.8176 29.0625 15.5C29.0625 19.097 27.6336 22.5467 25.0901 25.0901C22.5467 27.6336 19.097 29.0625 15.5 29.0625ZM15.5 3.87501C13.2008 3.87501 10.9532 4.5568 9.0415 5.83417C7.12978 7.11154 5.63978 8.92712 4.75991 11.0513C3.88004 13.1755 3.64982 15.5129 4.09838 17.7679C4.54693 20.023 5.6541 22.0943 7.27989 23.7201C8.90567 25.3459 10.9771 26.4531 13.2321 26.9016C15.4871 27.3502 17.8245 27.12 19.9487 26.2401C22.0729 25.3602 23.8885 23.8702 25.1658 21.9585C26.4432 20.0468 27.125 17.7992 27.125 15.5C27.125 12.4169 25.9002 9.46 23.7201 7.27989C21.54 5.09978 18.5831 3.87501 15.5 3.87501Z" fill="#4A5759"/>
<path d="M15.5 29.0625C15.2431 29.0625 14.9967 28.9604 14.815 28.7788C14.6333 28.5971 14.5312 28.3507 14.5312 28.0938V2.90625C14.5312 2.64932 14.6333 2.40292 14.815 2.22124C14.9967 2.03956 15.2431 1.9375 15.5 1.9375C15.7569 1.9375 16.0033 2.03956 16.185 2.22124C16.3667 2.40292 16.4688 2.64932 16.4688 2.90625V28.0938C16.4688 28.3507 16.3667 28.5971 16.185 28.7788C16.0033 28.9604 15.7569 29.0625 15.5 29.0625Z" fill="#4A5759"/>
<path d="M22.2812 16.4688C22.0243 16.4688 21.7779 16.3667 21.5962 16.185C21.4146 16.0033 21.3125 15.7569 21.3125 15.5C21.3125 9.20312 18.6484 3.875 15.5 3.875C15.2431 3.875 14.9967 3.77294 14.815 3.59126C14.6333 3.40958 14.5312 3.16318 14.5312 2.90625C14.5312 2.64932 14.6333 2.40292 14.815 2.22124C14.9967 2.03956 15.2431 1.9375 15.5 1.9375C19.8497 1.9375 23.25 7.89531 23.25 15.5C23.25 15.7569 23.1479 16.0033 22.9663 16.185C22.7846 16.3667 22.5382 16.4688 22.2812 16.4688Z" fill="#4A5759"/>
<path d="M15.5 29.0625C15.2431 29.0625 14.9967 28.9604 14.815 28.7788C14.6333 28.5971 14.5312 28.3507 14.5312 28.0938C14.5312 27.8368 14.6333 27.5904 14.815 27.4087C14.9967 27.2271 15.2431 27.125 15.5 27.125C18.6484 27.125 21.3125 21.7969 21.3125 15.5C21.3125 15.2431 21.4146 14.9967 21.5962 14.815C21.7779 14.6333 22.0243 14.5312 22.2812 14.5312C22.5382 14.5312 22.7846 14.6333 22.9663 14.815C23.1479 14.9967 23.25 15.2431 23.25 15.5C23.25 23.1047 19.8497 29.0625 15.5 29.0625Z" fill="#4A5759"/>
<path d="M8.71875 16.4688C8.46182 16.4688 8.21542 16.3667 8.03374 16.185C7.85206 16.0033 7.75 15.7569 7.75 15.5C7.75 7.89531 11.1503 1.9375 15.5 1.9375C15.7569 1.9375 16.0033 2.03956 16.185 2.22124C16.3667 2.40292 16.4688 2.64932 16.4688 2.90625C16.4688 3.16318 16.3667 3.40958 16.185 3.59126C16.0033 3.77294 15.7569 3.875 15.5 3.875C12.3516 3.875 9.6875 9.20312 9.6875 15.5C9.6875 15.7569 9.58544 16.0033 9.40376 16.185C9.22208 16.3667 8.97568 16.4688 8.71875 16.4688Z" fill="#4A5759"/>
<path d="M15.5 29.0625C11.1503 29.0625 7.75 23.1047 7.75 15.5C7.75 15.2431 7.85206 14.9967 8.03374 14.815C8.21542 14.6333 8.46182 14.5312 8.71875 14.5312C8.97568 14.5312 9.22208 14.6333 9.40376 14.815C9.58544 14.9967 9.6875 15.2431 9.6875 15.5C9.6875 21.7969 12.3516 27.125 15.5 27.125C15.7569 27.125 16.0033 27.2271 16.185 27.4087C16.3667 27.5904 16.4688 27.8368 16.4688 28.0938C16.4688 28.3507 16.3667 28.5971 16.185 28.7788C16.0033 28.9604 15.7569 29.0625 15.5 29.0625Z" fill="#4A5759"/>
<path d="M28.0938 16.4688H2.90625C2.64932 16.4688 2.40292 16.3667 2.22124 16.185C2.03956 16.0033 1.9375 15.7569 1.9375 15.5C1.9375 15.2431 2.03956 14.9967 2.22124 14.815C2.40292 14.6333 2.64932 14.5312 2.90625 14.5312H28.0938C28.3507 14.5312 28.5971 14.6333 28.7788 14.815C28.9604 14.9967 29.0625 15.2431 29.0625 15.5C29.0625 15.7569 28.9604 16.0033 28.7788 16.185C28.5971 16.3667 28.3507 16.4688 28.0938 16.4688Z" fill="#4A5759"/>
<path d="M26.1562 10.6562H4.84375C4.58682 10.6562 4.34042 10.5542 4.15874 10.3725C3.97706 10.1908 3.875 9.94443 3.875 9.6875C3.875 9.43057 3.97706 9.18417 4.15874 9.00249C4.34042 8.82081 4.58682 8.71875 4.84375 8.71875H26.1562C26.4132 8.71875 26.6596 8.82081 26.8413 9.00249C27.0229 9.18417 27.125 9.43057 27.125 9.6875C27.125 9.94443 27.0229 10.1908 26.8413 10.3725C26.6596 10.5542 26.4132 10.6562 26.1562 10.6562Z" fill="#4A5759"/>
<path d="M26.1562 22.2812H4.84375C4.58682 22.2812 4.34042 22.1792 4.15874 21.9975C3.97706 21.8158 3.875 21.5694 3.875 21.3125C3.875 21.0556 3.97706 20.8092 4.15874 20.6275C4.34042 20.4458 4.58682 20.3438 4.84375 20.3438H26.1562C26.4132 20.3438 26.6596 20.4458 26.8413 20.6275C27.0229 20.8092 27.125 21.0556 27.125 21.3125C27.125 21.5694 27.0229 21.8158 26.8413 21.9975C26.6596 22.1792 26.4132 22.2812 26.1562 22.2812Z" fill="#4A5759"/>
</svg>
