<svg width="24" height="24" viewBox="0 0 24 24" fill="none" xmlns="http://www.w3.org/2000/svg">
<path d="M11.9375 7.0686C8.97456 7.0686 6.51953 9.4813 6.51953 12.4866C6.51953 15.4919 8.93223 17.9046 11.9375 17.9046C14.9428 17.9046 17.3555 15.4496 17.3555 12.4866C17.3555 9.52363 14.9005 7.0686 11.9375 7.0686ZM11.9375 15.9575C10.0328 15.9575 8.46662 14.3914 8.46662 12.4866C8.46662 10.5818 10.0328 9.01569 11.9375 9.01569C13.8423 9.01569 15.4084 10.5818 15.4084 12.4866C15.4084 14.3914 13.8423 15.9575 11.9375 15.9575Z" fill="#4A5759"/>
<path d="M17.5674 8.16938C18.2453 8.16938 18.7949 7.61981 18.7949 6.94187C18.7949 6.26393 18.2453 5.71436 17.5674 5.71436C16.8894 5.71436 16.3398 6.26393 16.3398 6.94187C16.3398 7.61981 16.8894 8.16938 17.5674 8.16938Z" fill="#4A5759"/>
<path d="M20.742 3.76719C19.6415 2.62433 18.0753 2.03174 16.2976 2.03174H7.578C3.89546 2.03174 1.44043 4.48676 1.44043 8.1693V16.8466C1.44043 18.6667 2.03302 20.2328 3.21821 21.3757C4.36106 22.4762 5.88487 23.0264 7.62032 23.0264H16.2552C18.0754 23.0264 19.5992 22.4339 20.6997 21.3757C21.8425 20.2751 22.4351 18.709 22.4351 16.8889V8.1693C22.4351 6.39153 21.8425 4.86772 20.742 3.76719ZM20.5727 16.8889C20.5727 18.2011 20.1071 19.2593 19.3452 19.9788C18.5833 20.6984 17.5251 21.0794 16.2552 21.0794H7.62032C6.35048 21.0794 5.29228 20.6984 4.53038 19.9788C3.76847 19.2169 3.38752 18.1587 3.38752 16.8466V8.1693C3.38752 6.89946 3.76847 5.84126 4.53038 5.07936C5.24995 4.35978 6.35048 3.97883 7.62032 3.97883H16.3399C17.6097 3.97883 18.6679 4.35978 19.4298 5.12169C20.1494 5.88359 20.5727 6.94179 20.5727 8.1693V16.8889Z" fill="#4A5759"/>
</svg>
