<svg width="32" height="32" viewBox="0 0 32 32" fill="none" xmlns="http://www.w3.org/2000/svg">
<path d="M26.5225 5.125C26.616 5.125 26.7056 5.16214 26.7718 5.22825C26.8379 5.29435 26.875 5.38401 26.875 5.4775V26.525C26.875 26.6185 26.8379 26.7082 26.7718 26.7743C26.7056 26.8404 26.616 26.8775 26.5225 26.8775H5.4775C5.38401 26.8775 5.29435 26.8404 5.22824 26.7743C5.16214 26.7082 5.125 26.6185 5.125 26.525V5.4775C5.125 5.38401 5.16214 5.29435 5.22824 5.22825C5.29435 5.16214 5.38401 5.125 5.4775 5.125H26.525M26.525 3.5H5.4775C4.95303 3.5 4.45005 3.70834 4.0792 4.0792C3.70834 4.45005 3.5 4.95304 3.5 5.4775V26.525C3.50066 27.049 3.7093 27.5514 4.08008 27.9217C4.45086 28.292 4.95347 28.5 5.4775 28.5H26.525C27.0495 28.5 27.5525 28.2917 27.9233 27.9208C28.2942 27.55 28.5025 27.047 28.5025 26.5225V5.4775C28.5025 5.2176 28.4513 4.96025 28.3517 4.72017C28.2522 4.48008 28.1063 4.26197 27.9224 4.07831C27.7385 3.89465 27.5202 3.74904 27.28 3.64981C27.0398 3.55058 26.7824 3.49967 26.5225 3.5H26.525Z" fill="#4A5759"/>
<path d="M12.2499 12.6001H9.31738V23.0326H12.2499V12.6001Z" fill="#4A5759"/>
<path d="M19.3075 12.6001C16.795 12.6001 16.75 14.0526 16.75 14.1526V12.6001H13.75V23.0326H16.75V17.0776C16.75 16.6126 16.8875 15.6126 18.3075 15.6126C19.7275 15.6126 19.715 17.0451 19.715 17.0451V23.0451H22.6825V16.5451C22.6825 13.4626 21 12.6001 19.3075 12.6001Z" fill="#4A5759"/>
<path d="M10.7824 11.8975C11.5915 11.8975 12.2474 11.2416 12.2474 10.4325C12.2474 9.62343 11.5915 8.96753 10.7824 8.96753C9.97329 8.96753 9.31738 9.62343 9.31738 10.4325C9.31738 11.2416 9.97329 11.8975 10.7824 11.8975Z" fill="#4A5759"/>
</svg>
