<svg width="15" height="19" viewBox="0 0 15 19" fill="none" xmlns="http://www.w3.org/2000/svg">
<mask id="path-1-inside-1_595_2420" fill="white">
<path d="M7.31293 18.7492C7.05841 18.7469 6.80716 18.6902 6.57526 18.5825C6.34337 18.4749 6.13594 18.3188 5.96627 18.1242C3.74214 15.6243 0.00073579 10.8683 0.00073579 7.72467C-0.0269484 5.70622 0.72756 3.75901 2.09856 2.31066C3.46957 0.862321 5.34497 0.0312642 7.31293 0C9.28088 0.0312642 11.1563 0.862321 12.5273 2.31066C13.8983 3.75901 14.6528 5.70622 14.6251 7.72467C14.6251 10.8495 10.8837 15.5931 8.65959 18.1305C8.48937 18.3239 8.2817 18.4789 8.04983 18.5854C7.81796 18.6919 7.56699 18.7477 7.31293 18.7492ZM7.31293 1.24995C5.66871 1.28281 4.1042 1.98267 2.96208 3.19625C1.81996 4.40982 1.19333 6.03819 1.21943 7.72467C1.21943 9.68709 3.33388 13.2619 6.8742 17.293C6.93104 17.3535 6.99919 17.4016 7.07457 17.4345C7.14995 17.4673 7.23102 17.4843 7.31293 17.4843C7.39484 17.4843 7.4759 17.4673 7.55129 17.4345C7.62667 17.4016 7.69482 17.3535 7.75166 17.293C11.292 13.2619 13.4064 9.68709 13.4064 7.72467C13.4325 6.03819 12.8059 4.40982 11.6638 3.19625C10.5217 1.98267 8.95715 1.28281 7.31293 1.24995Z"/>
</mask>
<path d="M7.31293 18.7492C7.05841 18.7469 6.80716 18.6902 6.57526 18.5825C6.34337 18.4749 6.13594 18.3188 5.96627 18.1242C3.74214 15.6243 0.00073579 10.8683 0.00073579 7.72467C-0.0269484 5.70622 0.72756 3.75901 2.09856 2.31066C3.46957 0.862321 5.34497 0.0312642 7.31293 0C9.28088 0.0312642 11.1563 0.862321 12.5273 2.31066C13.8983 3.75901 14.6528 5.70622 14.6251 7.72467C14.6251 10.8495 10.8837 15.5931 8.65959 18.1305C8.48937 18.3239 8.2817 18.4789 8.04983 18.5854C7.81796 18.6919 7.56699 18.7477 7.31293 18.7492ZM7.31293 1.24995C5.66871 1.28281 4.1042 1.98267 2.96208 3.19625C1.81996 4.40982 1.19333 6.03819 1.21943 7.72467C1.21943 9.68709 3.33388 13.2619 6.8742 17.293C6.93104 17.3535 6.99919 17.4016 7.07457 17.4345C7.14995 17.4673 7.23102 17.4843 7.31293 17.4843C7.39484 17.4843 7.4759 17.4673 7.55129 17.4345C7.62667 17.4016 7.69482 17.3535 7.75166 17.293C11.292 13.2619 13.4064 9.68709 13.4064 7.72467C13.4325 6.03819 12.8059 4.40982 11.6638 3.19625C10.5217 1.98267 8.95715 1.28281 7.31293 1.24995Z" fill="white"/>
<path d="M7.31293 18.7492L7.30134 20.0446L7.31092 20.0446L7.32051 20.0446L7.31293 18.7492ZM5.96627 18.1242L6.94266 17.2728L6.93408 17.2632L5.96627 18.1242ZM0.00073579 7.72467H1.29614V7.71579L1.29601 7.70691L0.00073579 7.72467ZM7.31293 0L7.3335 -1.29524L7.31293 -1.29556L7.29235 -1.29524L7.31293 0ZM14.6251 7.72467L13.3298 7.70691L13.3297 7.71579V7.72467H14.6251ZM8.65959 18.1305L9.6321 18.9862L9.63373 18.9844L8.65959 18.1305ZM7.31293 1.24995L7.33881 -0.0451939L7.31293 -0.0457111L7.28704 -0.0451939L7.31293 1.24995ZM1.21943 7.72467H2.51483V7.71465L2.51468 7.70462L1.21943 7.72467ZM6.8742 17.293L5.90088 18.1478L5.91528 18.1642L5.93022 18.1801L6.8742 17.293ZM7.75166 17.293L8.69564 18.1801L8.71058 18.1642L8.72497 18.1478L7.75166 17.293ZM13.4064 7.72467L12.1112 7.70462L12.111 7.71465V7.72467H13.4064ZM7.32452 17.4539C7.25528 17.4532 7.18592 17.4378 7.12058 17.4075L6.02994 19.7576C6.42839 19.9425 6.86153 20.0406 7.30134 20.0446L7.32452 17.4539ZM7.12058 17.4075C7.05514 17.3772 6.99412 17.3319 6.94261 17.2729L4.98992 18.9756C5.27777 19.3057 5.63159 19.5727 6.02994 19.7576L7.12058 17.4075ZM6.93408 17.2632C5.84635 16.0406 4.40324 14.2829 3.24029 12.4672C2.03486 10.5851 1.29614 8.88922 1.29614 7.72467H-1.29466C-1.29466 9.70375 -0.162688 11.9577 1.05862 13.8645C2.32241 15.8377 3.86205 17.708 4.99846 18.9853L6.93408 17.2632ZM1.29601 7.70691C1.27289 6.02123 1.90342 4.40117 3.03932 3.20119L1.1578 1.42014C-0.448298 3.11684 -1.32679 5.39121 -1.29454 7.74244L1.29601 7.70691ZM3.03932 3.20119C4.17417 2.00232 5.71943 1.32088 7.3335 1.29524L7.29235 -1.29524C4.97051 -1.25835 2.76496 -0.277682 1.1578 1.42014L3.03932 3.20119ZM7.29235 1.29524C8.90642 1.32088 10.4517 2.00232 11.5865 3.20119L13.4681 1.42014C11.8609 -0.277682 9.65534 -1.25835 7.3335 -1.29524L7.29235 1.29524ZM11.5865 3.20119C12.7224 4.40117 13.353 6.02123 13.3298 7.70691L15.9204 7.74244C15.9526 5.39121 15.0742 3.11684 13.4681 1.42014L11.5865 3.20119ZM13.3297 7.72467C13.3297 8.87847 12.5926 10.5654 11.3857 12.449C10.2219 14.2653 8.77761 16.0306 7.68544 17.2766L9.63373 18.9844C10.7657 17.693 12.3041 15.8179 13.5671 13.8468C14.7869 11.943 15.9205 9.69575 15.9205 7.72467H13.3297ZM7.68708 17.2748C7.63545 17.3334 7.5744 17.3783 7.50901 17.4083L8.59065 19.7625C8.98899 19.5795 9.34328 19.3145 9.6321 18.9862L7.68708 17.2748ZM7.50901 17.4083C7.44372 17.4383 7.37445 17.4534 7.30534 17.4538L7.32051 20.0446C7.75953 20.042 8.19221 19.9456 8.59065 19.7625L7.50901 17.4083ZM7.28704 -0.0451939C5.28949 -0.00527237 3.39591 0.845121 2.01874 2.30845L3.90541 4.08404C4.81248 3.12022 6.04793 2.57089 7.33881 2.54509L7.28704 -0.0451939ZM2.01874 2.30845C0.642615 3.77068 -0.107063 5.72594 -0.0758102 7.74473L2.51468 7.70462C2.49371 6.35043 2.9973 5.04897 3.90541 4.08404L2.01874 2.30845ZM-0.0759654 7.72467C-0.0759654 9.07557 0.613706 10.7169 1.60405 12.3923C2.62763 14.1239 4.09452 16.0911 5.90088 18.1478L7.84751 16.4382C6.11355 14.4639 4.75306 12.6281 3.83434 11.0739C2.88238 9.4635 2.51483 8.33619 2.51483 7.72467H-0.0759654ZM5.93022 18.1801C6.10618 18.3674 6.31898 18.5182 6.55691 18.622L7.59223 16.247C7.67939 16.285 7.7559 16.3396 7.81817 16.4059L5.93022 18.1801ZM6.55691 18.622C6.79492 18.7257 7.05215 18.7797 7.31293 18.7797V16.1889C7.40989 16.1889 7.50498 16.209 7.59223 16.247L6.55691 18.622ZM7.31293 18.7797C7.5737 18.7797 7.83094 18.7257 8.06895 18.622L7.03363 16.247C7.12087 16.209 7.21597 16.1889 7.31293 16.1889V18.7797ZM8.06895 18.622C8.30687 18.5182 8.51968 18.3674 8.69564 18.1801L6.80768 16.4059C6.86995 16.3396 6.94646 16.285 7.03363 16.247L8.06895 18.622ZM8.72497 18.1478C10.5313 16.0911 11.9982 14.1239 13.0218 12.3923C14.0121 10.7169 14.7018 9.07557 14.7018 7.72467H12.111C12.111 8.33619 11.7435 9.4635 10.7915 11.0739C9.87279 12.6281 8.5123 14.4639 6.77834 16.4382L8.72497 18.1478ZM14.7017 7.74473C14.7329 5.72594 13.9832 3.77068 12.6071 2.30845L10.7204 4.08404C11.6286 5.04897 12.1321 6.35043 12.1112 7.70462L14.7017 7.74473ZM12.6071 2.30845C11.2299 0.845121 9.33637 -0.00527237 7.33881 -0.0451939L7.28704 2.54509C8.57793 2.57089 9.81337 3.12022 10.7204 4.08404L12.6071 2.30845Z" fill="white" mask="url(#path-1-inside-1_595_2420)"/>
<mask id="path-3-inside-2_595_2420" fill="white">
<path d="M7.31265 11.2497C6.58955 11.2497 5.88268 11.0298 5.28143 10.6177C4.68019 10.2057 4.21158 9.62004 3.93486 8.93485C3.65814 8.24965 3.58574 7.49568 3.72681 6.76829C3.86788 6.04089 4.21609 5.37273 4.7274 4.84831C5.23872 4.32388 5.89017 3.96674 6.59938 3.82205C7.3086 3.67737 8.04372 3.75162 8.71178 4.03544C9.37984 4.31926 9.95085 4.79988 10.3526 5.41654C10.7543 6.0332 10.9687 6.7582 10.9687 7.49984C10.9687 8.49436 10.5836 9.44815 9.8979 10.1514C9.21225 10.8546 8.28231 11.2497 7.31265 11.2497ZM7.31265 4.99995C6.83058 4.99995 6.35934 5.14657 5.95851 5.42126C5.55768 5.69595 5.24527 6.08638 5.06079 6.54318C4.87631 6.99997 4.82804 7.50262 4.92209 7.98755C5.01614 8.47248 5.24828 8.91792 5.58915 9.26754C5.93003 9.61715 6.36433 9.85524 6.83714 9.9517C7.30995 10.0482 7.80003 9.99866 8.2454 9.80945C8.69078 9.62023 9.07145 9.29982 9.33927 8.88871C9.6071 8.4776 9.75005 7.99428 9.75005 7.49984C9.75005 6.83683 9.49325 6.20097 9.03615 5.73215C8.57905 5.26333 7.95909 4.99995 7.31265 4.99995Z"/>
</mask>
<path d="M7.31265 11.2497C6.58955 11.2497 5.88268 11.0298 5.28143 10.6177C4.68019 10.2057 4.21158 9.62004 3.93486 8.93485C3.65814 8.24965 3.58574 7.49568 3.72681 6.76829C3.86788 6.04089 4.21609 5.37273 4.7274 4.84831C5.23872 4.32388 5.89017 3.96674 6.59938 3.82205C7.3086 3.67737 8.04372 3.75162 8.71178 4.03544C9.37984 4.31926 9.95085 4.79988 10.3526 5.41654C10.7543 6.0332 10.9687 6.7582 10.9687 7.49984C10.9687 8.49436 10.5836 9.44815 9.8979 10.1514C9.21225 10.8546 8.28231 11.2497 7.31265 11.2497ZM7.31265 4.99995C6.83058 4.99995 6.35934 5.14657 5.95851 5.42126C5.55768 5.69595 5.24527 6.08638 5.06079 6.54318C4.87631 6.99997 4.82804 7.50262 4.92209 7.98755C5.01614 8.47248 5.24828 8.91792 5.58915 9.26754C5.93003 9.61715 6.36433 9.85524 6.83714 9.9517C7.30995 10.0482 7.80003 9.99866 8.2454 9.80945C8.69078 9.62023 9.07145 9.29982 9.33927 8.88871C9.6071 8.4776 9.75005 7.99428 9.75005 7.49984C9.75005 6.83683 9.49325 6.20097 9.03615 5.73215C8.57905 5.26333 7.95909 4.99995 7.31265 4.99995Z" fill="white"/>
<path d="M10.9687 7.49984L12.2641 7.49984L10.9687 7.49984ZM7.31265 4.99995V3.70455V4.99995ZM7.31265 9.95429C6.85316 9.95429 6.40119 9.8147 6.01373 9.54917L4.54914 11.6863C5.36416 12.2448 6.32593 12.5451 7.31265 12.5451V9.95429ZM6.01373 9.54917C5.62585 9.28335 5.31866 8.90204 5.136 8.44975L2.73372 9.41994C3.1045 10.338 3.73453 11.128 4.54914 11.6863L6.01373 9.54917ZM5.136 8.44975C4.95324 7.9972 4.90494 7.49742 4.99851 7.01492L2.4551 6.52165C2.26654 7.49395 2.36304 8.5021 2.73372 9.41994L5.136 8.44975ZM4.99851 7.01492C5.09206 6.53257 5.3222 6.09387 5.65491 5.75262L3.7999 3.94399C3.10998 4.65159 2.6437 5.54921 2.4551 6.52165L4.99851 7.01492ZM5.65491 5.75262C5.98728 5.41173 6.40672 5.18344 6.85833 5.09131L6.34044 2.5528C5.37362 2.75004 4.49016 3.23603 3.7999 3.94399L5.65491 5.75262ZM6.85833 5.09131C7.30971 4.99922 7.77794 5.04617 8.20526 5.22771L9.2183 2.84317C8.30949 2.45708 7.30749 2.35551 6.34044 2.5528L6.85833 5.09131ZM8.20526 5.22771C8.63297 5.40941 9.00385 5.71942 9.2672 6.12365L11.438 4.70944C10.8978 3.88035 10.1267 3.2291 9.2183 2.84317L8.20526 5.22771ZM9.2672 6.12365C9.53077 6.52822 9.67335 7.00721 9.67335 7.49984L12.2641 7.49984C12.2641 6.50918 11.9779 5.53819 11.438 4.70944L9.2672 6.12365ZM9.67335 7.49984C9.67335 8.16124 9.41687 8.78914 8.9704 9.24706L10.8254 11.0557C11.7502 10.1072 12.2641 8.82749 12.2641 7.49984L9.67335 7.49984ZM8.9704 9.24706C8.52501 9.70387 7.92801 9.95429 7.31265 9.95429V12.5451C8.63661 12.5451 9.8995 12.0054 10.8254 11.0557L8.9704 9.24706ZM7.31265 3.70455C6.56696 3.70455 5.84082 3.93151 5.22622 4.3527L6.6908 6.48981C6.87785 6.36162 7.0942 6.29535 7.31265 6.29535V3.70455ZM5.22622 4.3527C4.61202 4.77362 4.13819 5.36838 3.85965 6.05808L6.26193 7.02827C6.35235 6.80438 6.50334 6.61828 6.6908 6.48981L5.22622 4.3527ZM3.85965 6.05808C3.58121 6.74752 3.50884 7.50435 3.65038 8.23418L6.19379 7.74092C6.14724 7.50088 6.17141 7.25242 6.26193 7.02827L3.85965 6.05808ZM3.65038 8.23418C3.79196 8.96416 4.14217 9.63906 4.66165 10.1719L6.51666 8.36322C6.35439 8.19678 6.24032 7.9808 6.19379 7.74092L3.65038 8.23418ZM4.66165 10.1719C5.18147 10.705 5.84779 11.0719 6.5782 11.221L7.09608 8.68245C6.88088 8.63854 6.67859 8.5293 6.51666 8.36322L4.66165 10.1719ZM6.5782 11.221C7.30884 11.37 8.0658 11.2932 8.75192 11.0017L7.73889 8.61718C7.53426 8.70411 7.31106 8.72631 7.09608 8.68245L6.5782 11.221ZM8.75192 11.0017C9.43766 10.7104 10.0184 10.2193 10.4247 9.59581L8.25389 8.18161C8.12445 8.38029 7.9439 8.53008 7.73889 8.61718L8.75192 11.0017ZM10.4247 9.59581C10.8307 8.97262 11.0454 8.24329 11.0454 7.49984H8.45465C8.45465 7.74526 8.38354 7.98259 8.25389 8.18161L10.4247 9.59581ZM11.0454 7.49984C11.0454 6.5037 10.6599 5.54196 9.96366 4.82783L8.10865 6.63647C8.32657 6.85998 8.45465 7.16996 8.45465 7.49984H11.0454ZM9.96366 4.82783C9.2663 4.11259 8.31339 3.70455 7.31265 3.70455L7.31265 6.29535C7.60479 6.29535 7.89181 6.41407 8.10865 6.63647L9.96366 4.82783Z" fill="white" mask="url(#path-3-inside-2_595_2420)"/>
</svg>
