<svg width="27" height="28" viewBox="0 0 27 28" fill="none" xmlns="http://www.w3.org/2000/svg">
<mask id="path-1-inside-1_595_2419" fill="white">
<path d="M10.6871 26.8298C10.4326 26.8275 10.1813 26.7707 9.94941 26.6631C9.71751 26.5555 9.51009 26.3994 9.34041 26.2048C7.11629 23.7049 3.37488 18.9489 3.37488 15.8052C3.3472 13.7868 4.10171 11.8396 5.47271 10.3912C6.84371 8.94289 8.71912 8.11183 10.6871 8.08057C12.655 8.11183 14.5304 8.94289 15.9014 10.3912C17.2724 11.8396 18.0269 13.7868 17.9993 15.8052C17.9993 18.9301 14.2579 23.6737 12.0337 26.2111C11.8635 26.4045 11.6558 26.5594 11.424 26.666C11.1921 26.7725 10.9411 26.8283 10.6871 26.8298ZM10.6871 9.33051C9.04285 9.36337 7.47834 10.0632 6.33622 11.2768C5.1941 12.4904 4.56747 14.1188 4.59358 15.8052C4.59358 17.7677 6.70802 21.3425 10.2483 25.3736C10.3052 25.4341 10.3733 25.4822 10.4487 25.515C10.5241 25.5479 10.6052 25.5648 10.6871 25.5648C10.769 25.5648 10.85 25.5479 10.9254 25.515C11.0008 25.4822 11.069 25.4341 11.1258 25.3736C14.6661 21.3425 16.7806 17.7677 16.7806 15.8052C16.8067 14.1188 16.18 12.4904 15.0379 11.2768C13.8958 10.0632 12.3313 9.36337 10.6871 9.33051Z"/>
</mask>
<path d="M10.6871 26.8298C10.4326 26.8275 10.1813 26.7707 9.94941 26.6631C9.71751 26.5555 9.51009 26.3994 9.34041 26.2048C7.11629 23.7049 3.37488 18.9489 3.37488 15.8052C3.3472 13.7868 4.10171 11.8396 5.47271 10.3912C6.84371 8.94289 8.71912 8.11183 10.6871 8.08057C12.655 8.11183 14.5304 8.94289 15.9014 10.3912C17.2724 11.8396 18.0269 13.7868 17.9993 15.8052C17.9993 18.9301 14.2579 23.6737 12.0337 26.2111C11.8635 26.4045 11.6558 26.5594 11.424 26.666C11.1921 26.7725 10.9411 26.8283 10.6871 26.8298ZM10.6871 9.33051C9.04285 9.36337 7.47834 10.0632 6.33622 11.2768C5.1941 12.4904 4.56747 14.1188 4.59358 15.8052C4.59358 17.7677 6.70802 21.3425 10.2483 25.3736C10.3052 25.4341 10.3733 25.4822 10.4487 25.515C10.5241 25.5479 10.6052 25.5648 10.6871 25.5648C10.769 25.5648 10.85 25.5479 10.9254 25.515C11.0008 25.4822 11.069 25.4341 11.1258 25.3736C14.6661 21.3425 16.7806 17.7677 16.7806 15.8052C16.8067 14.1188 16.18 12.4904 15.0379 11.2768C13.8958 10.0632 12.3313 9.36337 10.6871 9.33051Z" fill="white"/>
<path d="M10.6871 26.8298L10.6755 28.1251L10.6851 28.1252L10.6947 28.1252L10.6871 26.8298ZM9.34041 26.2048L10.3168 25.3534L10.3082 25.3438L9.34041 26.2048ZM3.37488 15.8052H4.67028V15.7964L4.67016 15.7875L3.37488 15.8052ZM10.6871 8.08057L10.7076 6.78533L10.6871 6.785L10.6665 6.78533L10.6871 8.08057ZM17.9993 15.8052L16.704 15.7875L16.7039 15.7964V15.8052H17.9993ZM12.0337 26.2111L13.0062 27.0668L13.0079 27.0649L12.0337 26.2111ZM10.6871 9.33051L10.713 8.03537L10.6871 8.03486L10.6612 8.03537L10.6871 9.33051ZM4.59358 15.8052H5.88898V15.7952L5.88882 15.7852L4.59358 15.8052ZM10.2483 25.3736L9.27503 26.2284L9.28942 26.2448L9.30436 26.2607L10.2483 25.3736ZM11.1258 25.3736L12.0698 26.2607L12.0847 26.2448L12.0991 26.2284L11.1258 25.3736ZM16.7806 15.8052L15.4853 15.7852L15.4852 15.7952V15.8052H16.7806ZM10.6987 25.5344C10.6294 25.5338 10.5601 25.5184 10.4947 25.4881L9.40409 27.8381C9.80254 28.0231 10.2357 28.1212 10.6755 28.1251L10.6987 25.5344ZM10.4947 25.4881C10.4293 25.4577 10.3683 25.4125 10.3168 25.3535L8.36406 27.0562C8.65191 27.3863 9.00574 27.6533 9.40409 27.8381L10.4947 25.4881ZM10.3082 25.3438C9.2205 24.1212 7.77738 22.3635 6.61444 20.5478C5.40901 18.6657 4.67028 16.9698 4.67028 15.8052H2.07948C2.07948 17.7843 3.21146 20.0382 4.43276 21.9451C5.69655 23.9183 7.2362 25.7885 8.3726 27.0659L10.3082 25.3438ZM4.67016 15.7875C4.64704 14.1018 5.27756 12.4817 6.41347 11.2818L4.53195 9.50071C2.92585 11.1974 2.04735 13.4718 2.0796 15.823L4.67016 15.7875ZM6.41347 11.2818C7.54831 10.0829 9.09358 9.40145 10.7076 9.3758L10.6665 6.78533C8.34466 6.82222 6.13911 7.80288 4.53195 9.50071L6.41347 11.2818ZM10.6665 9.3758C12.2806 9.40145 13.8258 10.0829 14.9607 11.2818L16.8422 9.50071C15.235 7.80288 13.0295 6.82222 10.7076 6.78533L10.6665 9.3758ZM14.9607 11.2818C16.0966 12.4817 16.7271 14.1018 16.704 15.7875L19.2945 15.823C19.3268 13.4718 18.4483 11.1974 16.8422 9.50071L14.9607 11.2818ZM16.7039 15.8052C16.7039 16.959 15.9667 18.646 14.7598 20.5296C13.5961 22.3458 12.1518 24.1112 11.0596 25.3572L13.0079 27.0649C14.1398 25.7735 15.6783 23.8984 16.9413 21.9273C18.1611 20.0236 19.2947 17.7763 19.2947 15.8052H16.7039ZM11.0612 25.3553C11.0096 25.414 10.9485 25.4588 10.8832 25.4889L11.9648 27.8431C12.3631 27.6601 12.7174 27.395 13.0062 27.0668L11.0612 25.3553ZM10.8832 25.4889C10.8179 25.5189 10.7486 25.534 10.6795 25.5344L10.6947 28.1252C11.1337 28.1226 11.5664 28.0261 11.9648 27.8431L10.8832 25.4889ZM10.6612 8.03537C8.66363 8.07529 6.77006 8.92569 5.39289 10.389L7.27956 12.1646C8.18663 11.2008 9.42207 10.6515 10.713 10.6257L10.6612 8.03537ZM5.39289 10.389C4.01676 11.8512 3.26708 13.8065 3.29834 15.8253L5.88882 15.7852C5.86786 14.431 6.37144 13.1295 7.27956 12.1646L5.39289 10.389ZM3.29818 15.8052C3.29818 17.1561 3.98785 18.7975 4.9782 20.4728C6.00177 22.2044 7.46867 24.1717 9.27503 26.2284L11.2217 24.5188C9.4877 22.5444 8.12721 20.7087 7.20848 19.1545C6.25653 17.5441 5.88898 16.4168 5.88898 15.8052H3.29818ZM9.30436 26.2607C9.48032 26.4479 9.69313 26.5988 9.93105 26.7025L10.9664 24.3276C11.0535 24.3656 11.13 24.4202 11.1923 24.4865L9.30436 26.2607ZM9.93105 26.7025C10.1691 26.8063 10.4263 26.8602 10.6871 26.8602V24.2694C10.784 24.2694 10.8791 24.2895 10.9664 24.3276L9.93105 26.7025ZM10.6871 26.8602C10.9479 26.8602 11.2051 26.8063 11.4431 26.7025L10.4078 24.3276C10.495 24.2895 10.5901 24.2694 10.6871 24.2694V26.8602ZM11.4431 26.7025C11.681 26.5988 11.8938 26.4479 12.0698 26.2607L10.1818 24.4865C10.2441 24.4202 10.3206 24.3656 10.4078 24.3276L11.4431 26.7025ZM12.0991 26.2284C13.9055 24.1717 15.3724 22.2044 16.3959 20.4728C17.3863 18.7975 18.076 17.1561 18.076 15.8052H15.4852C15.4852 16.4168 15.1176 17.5441 14.1657 19.1545C13.2469 20.7087 11.8864 22.5444 10.1525 24.5188L12.0991 26.2284ZM18.0758 15.8253C18.1071 13.8065 17.3574 11.8512 15.9813 10.389L14.0946 12.1646C15.0027 13.1295 15.5063 14.431 15.4853 15.7852L18.0758 15.8253ZM15.9813 10.389C14.6041 8.92569 12.7105 8.07529 10.713 8.03537L10.6612 10.6257C11.9521 10.6515 13.1875 11.2008 14.0946 12.1646L15.9813 10.389Z" fill="white" mask="url(#path-1-inside-1_595_2419)"/>
<mask id="path-3-inside-2_595_2419" fill="white">
<path d="M10.6868 19.3303C9.96369 19.3303 9.25682 19.1103 8.65558 18.6983C8.05434 18.2863 7.58573 17.7006 7.30901 17.0154C7.03228 16.3302 6.95988 15.5763 7.10095 14.8489C7.24202 14.1215 7.59023 13.4533 8.10155 12.9289C8.61286 12.4044 9.26432 12.0473 9.97353 11.9026C10.6827 11.7579 11.4179 11.8322 12.0859 12.116C12.754 12.3998 13.325 12.8805 13.7267 13.4971C14.1285 14.1138 14.3429 14.8388 14.3429 15.5804C14.3429 16.5749 13.9577 17.5287 13.272 18.2319C12.5864 18.9352 11.6565 19.3303 10.6868 19.3303ZM10.6868 13.0805C10.2047 13.0805 9.73348 13.2271 9.33265 13.5018C8.93183 13.7765 8.61942 14.1669 8.43494 14.6237C8.25046 15.0805 8.20219 15.5832 8.29623 16.0681C8.39028 16.553 8.62242 16.9985 8.9633 17.3481C9.30417 17.6977 9.73848 17.9358 10.2113 18.0323C10.6841 18.1287 11.1742 18.0792 11.6195 17.89C12.0649 17.7008 12.4456 17.3804 12.7134 16.9693C12.9812 16.5582 13.1242 16.0748 13.1242 15.5804C13.1242 14.9174 12.8674 14.2815 12.4103 13.8127C11.9532 13.3439 11.3332 13.0805 10.6868 13.0805Z"/>
</mask>
<path d="M10.6868 19.3303C9.96369 19.3303 9.25682 19.1103 8.65558 18.6983C8.05434 18.2863 7.58573 17.7006 7.30901 17.0154C7.03228 16.3302 6.95988 15.5763 7.10095 14.8489C7.24202 14.1215 7.59023 13.4533 8.10155 12.9289C8.61286 12.4044 9.26432 12.0473 9.97353 11.9026C10.6827 11.7579 11.4179 11.8322 12.0859 12.116C12.754 12.3998 13.325 12.8805 13.7267 13.4971C14.1285 14.1138 14.3429 14.8388 14.3429 15.5804C14.3429 16.5749 13.9577 17.5287 13.272 18.2319C12.5864 18.9352 11.6565 19.3303 10.6868 19.3303ZM10.6868 13.0805C10.2047 13.0805 9.73348 13.2271 9.33265 13.5018C8.93183 13.7765 8.61942 14.1669 8.43494 14.6237C8.25046 15.0805 8.20219 15.5832 8.29623 16.0681C8.39028 16.553 8.62242 16.9985 8.9633 17.3481C9.30417 17.6977 9.73848 17.9358 10.2113 18.0323C10.6841 18.1287 11.1742 18.0792 11.6195 17.89C12.0649 17.7008 12.4456 17.3804 12.7134 16.9693C12.9812 16.5582 13.1242 16.0748 13.1242 15.5804C13.1242 14.9174 12.8674 14.2815 12.4103 13.8127C11.9532 13.3439 11.3332 13.0805 10.6868 13.0805Z" fill="white"/>
<path d="M14.3429 15.5804L15.6383 15.5804L14.3429 15.5804ZM10.6868 13.0805V11.7851V13.0805ZM10.6868 18.0349C10.2273 18.0349 9.77534 17.8953 9.38787 17.6297L7.92329 19.7668C8.73831 20.3254 9.70007 20.6257 10.6868 20.6257V18.0349ZM9.38787 17.6297C9 17.3639 8.69281 16.9826 8.51015 16.5303L6.10786 17.5005C6.47864 18.4186 7.10868 19.2086 7.92329 19.7668L9.38787 17.6297ZM8.51015 16.5303C8.32738 16.0778 8.27908 15.578 8.37266 15.0955L5.82925 14.6022C5.64068 15.5745 5.73719 16.5827 6.10786 17.5005L8.51015 16.5303ZM8.37266 15.0955C8.46621 14.6131 8.69634 14.1744 9.02905 13.8332L7.17404 12.0246C6.48412 12.7322 6.01784 13.6298 5.82925 14.6022L8.37266 15.0955ZM9.02905 13.8332C9.36142 13.4923 9.78086 13.264 10.2325 13.1719L9.71459 10.6334C8.74777 10.8306 7.8643 11.3166 7.17404 12.0246L9.02905 13.8332ZM10.2325 13.1719C10.6839 13.0798 11.1521 13.1267 11.5794 13.3083L12.5924 10.9237C11.6836 10.5376 10.6816 10.4361 9.71459 10.6334L10.2325 13.1719ZM11.5794 13.3083C12.0071 13.49 12.378 13.8 12.6413 14.2042L14.8121 12.79C14.272 11.9609 13.5009 11.3097 12.5924 10.9237L11.5794 13.3083ZM12.6413 14.2042C12.9049 14.6088 13.0475 15.0878 13.0475 15.5804L15.6383 15.5804C15.6383 14.5897 15.352 13.6188 14.8121 12.79L12.6413 14.2042ZM13.0475 15.5804C13.0475 16.2418 12.791 16.8697 12.3445 17.3276L14.1996 19.1363C15.1244 18.1877 15.6383 16.9081 15.6383 15.5804L13.0475 15.5804ZM12.3445 17.3276C11.8992 17.7844 11.3022 18.0349 10.6868 18.0349V20.6257C12.0108 20.6257 13.2736 20.0859 14.1996 19.1363L12.3445 17.3276ZM10.6868 11.7851C9.94111 11.7851 9.21497 12.0121 8.60036 12.4333L10.0649 14.5704C10.252 14.4422 10.4683 14.3759 10.6868 14.3759V11.7851ZM8.60036 12.4333C7.98617 12.8542 7.51233 13.4489 7.23379 14.1386L9.63608 15.1088C9.7265 14.8849 9.87748 14.6988 10.0649 14.5704L8.60036 12.4333ZM7.23379 14.1386C6.95536 14.8281 6.88299 15.5849 7.02453 16.3147L9.56794 15.8215C9.52139 15.5815 9.54555 15.333 9.63608 15.1088L7.23379 14.1386ZM7.02453 16.3147C7.1661 17.0447 7.51631 17.7196 8.03579 18.2524L9.8908 16.4438C9.72853 16.2773 9.61446 16.0614 9.56794 15.8215L7.02453 16.3147ZM8.03579 18.2524C8.55561 18.7856 9.22193 19.1525 9.95234 19.3015L10.4702 16.763C10.255 16.7191 10.0527 16.6099 9.8908 16.4438L8.03579 18.2524ZM9.95234 19.3015C10.683 19.4506 11.4399 19.3738 12.1261 19.0823L11.113 16.6977C10.9084 16.7847 10.6852 16.8069 10.4702 16.763L9.95234 19.3015ZM12.1261 19.0823C12.8118 18.791 13.3926 18.2999 13.7988 17.6764L11.628 16.2622C11.4986 16.4609 11.318 16.6106 11.113 16.6977L12.1261 19.0823ZM13.7988 17.6764C14.2048 17.0532 14.4196 16.3239 14.4196 15.5804H11.8288C11.8288 15.8258 11.7577 16.0632 11.628 16.2622L13.7988 17.6764ZM14.4196 15.5804C14.4196 14.5843 14.0341 13.6225 13.3378 12.9084L11.4828 14.717C11.7007 14.9406 11.8288 15.2505 11.8288 15.5804H14.4196ZM13.3378 12.9084C12.6404 12.1932 11.6875 11.7851 10.6868 11.7851L10.6868 14.3759C10.9789 14.3759 11.266 14.4946 11.4828 14.717L13.3378 12.9084Z" fill="white" mask="url(#path-3-inside-2_595_2419)"/>
</svg>
