<svg width="120" height="42" viewBox="0 0 120 42" fill="none" xmlns="http://www.w3.org/2000/svg">
<path d="M27.666 1.7011C28.96 2.72872 29.8689 4.28617 30.147 5.90985C30.1844 8.98629 28.575 11.2082 26.6822 13.4941C26.1882 13.9129 25.8738 14.0133 25.2257 14.0347C24.7766 13.7655 24.7766 13.7655 24.3574 13.3681C24.2113 13.2297 24.0644 13.0904 23.9147 12.9494C22.5373 11.5415 22.5373 11.5415 22.4454 10.6207C22.7148 10.2019 22.7148 10.2019 23.1126 9.77891C23.2517 9.62914 23.3907 9.47981 23.534 9.32598C23.8484 9.00552 24.1735 8.69574 24.5028 8.39023C25.4824 7.3327 26.1368 6.26236 26.2138 4.80105C26.1732 3.98707 26.0968 3.80761 25.5722 3.1325C24.5862 2.40612 23.8569 2.40612 22.6635 2.50439C20.6146 2.89963 18.6854 4.17294 17.3166 5.70903C16.3392 6.73237 16.3392 6.73237 15.7789 7.0037C15.2656 7.26861 15.1886 7.53353 14.964 8.05909C14.6432 8.6466 14.6432 8.6466 14.3224 9.1273H13.8947C13.8127 9.35376 13.8127 9.35376 13.7293 9.58449C13.4427 10.2553 13.0877 10.8258 12.692 11.4389C8.79952 17.6345 6.08332 25.6888 7.73015 33.0168C7.95044 33.8564 8.21565 34.6298 8.55571 35.4309C8.62629 35.6379 8.69687 35.8454 8.76958 36.059C8.84016 36.2045 8.91074 36.3496 8.98346 36.4991C9.19519 36.5696 9.40693 36.6401 9.62508 36.7128V37.14C12.2985 37.7895 14.0951 36.5675 16.298 35.2258C17.6946 34.3242 19.0142 33.318 20.3188 32.2989C20.8471 31.8887 21.3796 31.4892 21.9186 31.094C22.4276 30.718 22.8104 30.3697 23.2553 29.9061C23.7365 29.4532 23.7365 29.4532 24.592 29.4532C24.6626 29.5942 24.7332 29.7352 24.8059 29.8805C24.6305 30.3056 24.6305 30.3056 24.3525 30.8013C24.2637 30.9634 24.175 31.126 24.083 31.2927C23.6723 31.8994 23.1933 32.3609 22.6671 32.8715C22.2864 33.2838 21.9079 33.6983 21.5315 34.1127C20.7038 35.0229 19.8568 35.9031 18.9864 36.7619C18.6377 37.1187 18.334 37.4883 18.0239 37.8792C16.5076 39.6738 14.3453 41.2121 11.9713 41.4898C9.23369 41.5992 6.79552 40.8318 4.69955 39.0543C4.08359 38.4796 4.08359 38.4796 3.63018 37.9861C3.48453 37.8496 3.33931 37.7126 3.1896 37.5716C0.366457 34.5592 -0.0399044 30.265 0.00287052 26.3554C0.233855 21.4203 1.9256 17.1474 4.06648 12.7891H4.49423C4.54685 12.603 4.59946 12.4174 4.65378 12.2251C5.43015 10.1506 7.26305 8.40092 8.78156 6.7986C8.91972 6.64926 9.05746 6.4995 9.20075 6.34568C12.0025 3.39742 15.5314 1.66692 19.4667 0.812349C19.7319 0.751247 19.7319 0.751247 20.0014 0.688864C22.461 0.274398 25.4552 0.507268 27.6795 1.73571L27.666 1.7011Z" fill="#4A5759"/>
<path d="M111.291 14.7333C112.501 15.5301 113.515 16.7116 114.285 17.9379C114.071 18.5788 114.071 18.5788 113.44 18.9377C113.175 19.0648 112.908 19.1898 112.64 19.3116C110.694 20.2153 110.694 20.2153 109.133 21.6617C108.772 22.1124 108.408 22.5184 107.997 22.9243C105.345 25.5948 103.035 29.4831 102.928 33.35C102.931 33.5765 102.933 33.8008 102.936 34.0337C102.938 34.2623 102.94 34.4909 102.942 34.7259C102.944 34.8985 102.947 35.072 102.949 35.2493C103.865 35.1453 104.378 34.978 105.088 34.3947H105.516C105.622 34.0764 105.622 34.0764 105.73 33.7538C105.978 33.5124 106.228 33.271 106.476 33.0317C107.176 32.2797 107.719 31.3952 108.296 30.5534C108.454 30.3313 108.613 30.1091 108.775 29.8805C108.858 29.764 108.94 29.6476 109.026 29.528C109.259 29.199 109.494 28.8678 109.727 28.5388C110.396 27.5454 110.94 26.4814 111.504 25.4196C111.722 25.018 111.943 24.6163 112.161 24.2147C112.269 24.0169 112.377 23.8194 112.488 23.6165C112.596 23.4187 112.704 23.2213 112.815 23.0183C112.925 22.8173 113.034 22.6166 113.147 22.4094C113.611 21.557 114.077 20.7067 114.565 19.8671C114.935 19.2539 114.935 19.2539 115.142 18.6536C115.418 18.0148 115.624 17.6901 116.212 17.3055C117.538 17.4625 118.778 18.0084 119.848 18.801C120.061 19.4419 120.061 19.4419 119.776 20.0871C119.632 20.3584 119.487 20.6276 119.339 20.8968C117.03 25.3192 114.249 31.1516 115.49 36.2791C115.64 36.6572 115.81 37.0268 115.988 37.3943V38.0352C115.081 38.4689 114.303 38.5394 113.293 38.5565C113.015 38.565 112.737 38.5735 112.451 38.5823C111.702 38.4629 111.702 38.4629 111.201 37.9905C110.603 36.9864 110.365 36.228 110.376 35.0636C110.377 34.8265 110.379 34.5894 110.38 34.3437C110.384 34.098 110.387 33.8523 110.391 33.5981C110.393 33.3481 110.395 33.0981 110.397 32.8418C110.402 32.2265 110.409 31.6112 110.418 30.9959C110.206 31.0664 109.994 31.1369 109.776 31.2095C109.628 31.6347 109.485 32.062 109.348 32.4914C108.906 33.2199 108.452 33.816 107.851 34.4142C107.464 34.865 107.081 35.3179 106.701 35.7729C106.586 35.8889 106.472 36.0058 106.354 36.1233H105.926C105.82 36.4395 105.82 36.4395 105.712 36.7642C104.62 37.8025 103.467 38.5353 101.991 38.8344C100.451 38.5375 99.339 37.3624 98.4407 36.1212C97.8569 34.9419 97.7285 33.7497 97.7371 32.4465C97.7387 32.2073 97.7387 32.2073 97.7403 31.9637C97.8459 26.9431 100.67 21.8371 104.221 18.3761C104.375 18.2131 104.529 18.0492 104.689 17.8825C106.477 16.1755 108.646 14.1224 111.276 14.742L111.291 14.7333Z" fill="#4A5759"/>
<path d="M87.337 14.7332C88.5133 15.2673 89.7538 16.0535 90.5451 17.0833C90.7006 17.8802 90.7006 17.8802 90.759 18.5788C90.5366 18.6848 90.3141 18.7909 90.0853 18.8993C87.1766 20.1918 87.1766 20.1918 84.8454 22.2534C84.7491 22.3801 84.6529 22.5077 84.5545 22.638H84.1267C84.0705 22.7613 84.0142 22.8837 83.9563 23.0119C83.6847 23.5182 83.3724 23.9092 83.0045 24.3471C82.1148 25.4709 81.516 26.6758 80.9193 27.979C80.8376 28.1542 80.7561 28.3294 80.6712 28.5089C80.4609 28.9703 80.2605 29.4339 80.0638 29.9018C80.002 30.0415 79.9404 30.1817 79.8766 30.3248C79.2927 31.7285 78.9762 33.3372 79.4232 34.8113C79.7847 35.0006 79.7847 35.0006 80.2787 35.025C83.3799 33.3158 85.3261 29.7053 87.1013 26.7784C87.3922 26.302 87.6852 25.8298 87.9825 25.3555C89.3128 23.2276 90.5062 21.0399 91.6183 18.7967L92.2599 17.5149C93.849 17.3653 94.9334 17.8631 96.3236 18.5831C96.2145 19.6684 95.9707 20.4503 95.4681 21.4031C93.479 25.441 91.1264 31.2734 91.8322 35.8881C92.061 36.4649 92.3241 36.873 92.6877 37.3836V37.8108C91.3446 38.5607 89.9287 38.6953 88.4102 38.4518C87.621 37.9476 87.3836 37.7147 87.0607 36.8238C86.6971 34.9673 86.9477 33.0637 87.1274 31.1837C86.3959 31.8545 85.9511 32.4377 85.4763 33.3158C84.2059 35.3176 81.7763 37.9946 79.3809 38.5501C78.104 38.7374 77.3683 38.5797 76.3011 37.8237C74.8874 36.561 74.4425 34.8754 74.2051 33.0167C74.0451 28.9789 75.8648 24.9624 78.2473 21.7791C78.5981 21.3177 78.5981 21.3177 78.9146 20.7366C79.0154 20.5793 79.1159 20.4225 79.2205 20.2602H79.6482C79.6942 20.11 79.7404 19.9589 79.7877 19.8051C80.1491 19.036 80.6645 18.5083 81.2655 17.9229C81.3802 17.8101 81.4944 17.6964 81.612 17.5811C82.521 16.7051 83.4663 15.9724 84.5635 15.3378C84.7838 15.2056 85.004 15.0729 85.2308 14.9362C86.005 14.6328 86.5161 14.5944 87.3438 14.6969L87.337 14.7332Z" fill="#4A5759"/>
<path d="M70.4409 6.8285C72.3466 6.8285 74.0554 7.62539 75.7878 8.324C75.6665 9.22557 75.1269 9.8494 74.5987 10.5459C73.3774 12.2101 72.1819 13.9214 71.305 15.8015C71.66 15.7903 71.66 15.7903 72.0236 15.779C72.3359 15.773 72.6503 15.7672 72.9625 15.7615C73.1187 15.7562 73.2748 15.7508 73.4352 15.7452C74.1581 15.7354 74.6372 15.7475 75.2638 16.1255C75.3686 16.2304 75.4734 16.3353 75.5803 16.4438C75.5098 16.7964 75.4392 17.1489 75.3665 17.5121C75.0414 17.5755 74.7163 17.6375 74.3912 17.699C74.1778 17.7417 73.9635 17.7845 73.7453 17.8282C73.016 17.9393 73.016 17.9393 72.2054 17.95C71.32 17.981 70.6377 18.0502 69.81 18.3666C68.9845 19.3366 68.5482 20.392 68.099 21.5713C67.9996 21.8084 67.8999 22.0434 67.7975 22.2891C67.0981 24.0111 66.5335 25.7928 65.9603 27.5447C65.8803 27.784 65.8003 28.0211 65.7186 28.2668C64.861 30.8946 63.8664 34.5265 65.1048 37.1543C67.3718 37.5496 68.7406 36.9385 70.6227 35.6823C70.7754 35.6041 70.9286 35.5259 71.0847 35.4452C71.2964 35.5157 71.5082 35.5862 71.7263 35.6588C71.4654 36.6437 70.9435 37.0902 70.1757 37.7034C69.7972 38.0003 69.7972 38.0003 69.4785 38.34C69.147 38.6626 68.8262 38.8763 68.4241 39.1049C68.2393 39.2115 68.2393 39.2115 68.0498 39.3206C66.7773 39.9274 65.2481 39.9146 63.9007 39.5813C62.5597 39.092 61.4411 38.3464 60.3931 37.3594C60.2819 37.2584 60.1707 37.1571 60.0552 37.0539C59.1869 36.178 58.9516 35.5157 58.9409 34.2979C58.9476 34.1039 58.9543 33.9091 58.9611 33.7104C58.9664 33.4049 58.9664 33.4049 58.9717 33.093C59.0661 30.4652 59.6861 27.9015 60.6335 25.466C61.0485 24.3742 61.4227 23.2654 61.8077 22.1545C61.8948 21.9067 61.982 21.6589 62.0708 21.4025C62.154 21.1632 62.2374 20.9239 62.3231 20.6761C62.3986 20.4603 62.4739 20.2445 62.552 20.0202C62.7276 19.4647 62.8557 18.9221 62.9562 18.3474C62.7759 18.3524 62.5948 18.3573 62.4108 18.3624C62.0601 18.3682 62.0601 18.3682 61.7008 18.3741C61.4677 18.3791 61.2345 18.384 60.995 18.3891C60.3919 18.3475 60.3919 18.3475 59.9641 17.9191C59.8681 17.4256 59.8681 17.4256 59.817 16.8509C59.7892 16.5668 59.7892 16.5668 59.7609 16.2762C59.7501 15.7827 59.7501 15.7827 59.9639 15.3554C60.1643 15.3772 60.1643 15.3772 60.3681 15.3994C62.9988 15.7434 62.9988 15.7434 65.3086 14.8269C65.7428 14.0941 66.0679 13.3698 66.378 12.5836C66.6111 12.1521 66.8507 11.7248 67.1009 11.3018C67.2202 11.0952 67.3404 10.8894 67.4623 10.6758C68.3178 9.31916 69.3059 7.94117 70.4352 6.80887L70.4409 6.8285Z" fill="#4A5759"/>
<path d="M54.1865 7.04214C54.5266 7.13187 54.5266 7.13187 54.8709 7.22331C55.104 7.28698 55.3372 7.35064 55.5767 7.41602C55.8055 7.47733 56.0322 7.53886 56.2675 7.6021C56.8214 7.75186 57.3754 7.90333 57.9293 8.05716C58.0872 8.41821 58.0872 8.41821 58.1432 8.91172C57.8053 9.43301 57.8053 9.43301 57.3283 9.97993C56.7936 10.5995 56.3338 11.1507 56.0044 11.9027H55.5767C55.5326 12.0745 55.4884 12.2467 55.443 12.424C55.1158 13.2722 54.6752 13.9302 54.1512 14.6672C53.8304 15.1159 53.8304 15.1159 53.6508 15.7461H57.5005C57.7144 17.028 57.7144 17.028 57.2866 17.6689C56.1103 17.9701 54.8698 17.9466 53.6508 17.9744C52.776 18.0026 52.776 18.0026 51.9804 18.3291C51.5869 18.9508 51.2575 19.5938 50.9474 20.2583C50.8742 20.4144 50.8011 20.5702 50.725 20.7304C49.6919 22.995 48.8856 25.3451 48.0943 27.7165C48.0413 27.8699 47.9882 28.0241 47.9337 28.1822C47.4161 29.7012 47.1338 31.216 46.9456 32.7969C46.9248 32.9629 46.9041 33.1281 46.8825 33.299C46.7651 34.474 46.8408 35.5636 47.2397 36.6745C47.7401 37.1744 47.8749 37.1873 48.5635 37.2214C49.8297 37.2085 50.8092 36.7087 51.9 36.1383C52.6336 35.7601 53.0164 35.6063 53.8633 35.6063C53.3543 37.1979 51.8722 38.2982 50.4627 39.1314C48.8844 39.8877 47.0194 39.9261 45.3511 39.4262C45.0068 39.228 45.0068 39.228 44.6561 39.0246C44.4187 38.8883 44.4187 38.8883 44.177 38.749C42.8103 37.9115 41.9527 37.0719 41.418 35.5443C40.3764 31.0151 42.7782 25.5459 44.3695 21.3799C44.7266 20.4334 45.0389 19.4934 45.302 18.5171C45.0539 18.5245 45.0539 18.5245 44.8015 18.5321C44.5876 18.5359 44.3716 18.5398 44.1513 18.5438C43.9379 18.5487 43.7236 18.5537 43.5054 18.5588C42.9493 18.5171 42.9493 18.5171 42.5216 18.0888C42.1986 17.2834 42.019 16.6082 42.0938 15.7387C42.3077 15.5251 42.3077 15.5251 42.7248 15.508C42.9036 15.511 43.0819 15.5141 43.2659 15.5172C43.561 15.5154 43.561 15.5154 43.8604 15.5135C44.2732 15.5121 44.6881 15.5164 45.1009 15.5268C46.2558 15.5176 46.2558 15.5176 47.2161 14.9457C47.8235 14.1488 48.2577 13.2814 48.6833 12.382C49.2458 11.3117 49.9687 10.331 50.651 9.32692C50.8755 8.97013 50.8755 8.97013 51.1044 8.60694C51.2368 8.42129 51.3696 8.2352 51.5065 8.04506H51.9342C51.9915 7.87329 52.0488 7.7011 52.1079 7.52378C52.1917 7.34304 52.2755 7.16272 52.3624 6.97685C53.1259 6.72262 53.4125 6.82453 54.1803 7.03026L54.1865 7.04214Z" fill="#4A5759"/>
<path d="M34.9378 16.656C35.727 16.891 36.3665 17.2948 37.0509 17.7435C37.1818 17.8253 37.3118 17.9071 37.4465 17.9913C38.2443 18.5062 38.8752 19.0082 39.3885 19.8265C39.1746 20.4674 39.1746 20.4674 38.8004 20.8135C38.1117 21.5399 37.7096 22.3581 37.2498 23.249C37.124 23.484 36.9974 23.719 36.8691 23.9626C34.6662 28.1286 32.4633 33.0424 32.2066 37.8066C32.1123 38.2018 32.1123 38.2018 31.4709 38.6291C31.0153 38.2937 30.5598 37.954 30.1064 37.6143C29.9128 37.4722 29.9128 37.4722 29.715 37.328C28.4831 36.3987 28.4831 36.3987 28.2606 35.6381C28.1079 33.9995 28.2643 32.348 28.4478 30.703C28.4645 30.5505 28.4814 30.3975 28.4985 30.2415C28.6022 29.4041 28.7979 28.714 29.1166 27.9342C29.219 27.4001 29.3112 26.8681 29.3967 26.3319C29.9892 22.9991 31.5355 19.2603 34.0164 16.8462C34.457 16.6069 34.457 16.6069 34.9254 16.6409L34.9378 16.656Z" fill="#4A5759"/>
<path d="M38.7875 3.19656C39.8055 3.50207 40.7187 3.93149 41.6534 4.43782C41.7939 4.51345 41.9335 4.58908 42.079 4.66642C43.0756 5.20694 44.0445 5.7795 44.9877 6.40119C44.6989 7.25576 44.3311 7.77278 43.7044 8.41798C42.7912 9.39859 42.0148 10.4305 41.2449 11.5372C40.6738 12.3597 40.0686 13.1266 39.4184 13.8872C39.0313 13.847 39.0313 13.847 38.5629 13.6736C37.4507 12.2507 37.147 10.5117 37.2796 8.7598C37.412 7.94369 37.594 7.14681 37.7887 6.34565C37.8361 6.13735 37.8834 5.92905 37.9324 5.71327C38.1413 4.81811 38.3366 4.01695 38.7772 3.21366L38.7875 3.19656Z" fill="#4A5759"/>
</svg>
