<svg width="147" height="32" viewBox="0 0 147 32" fill="none" xmlns="http://www.w3.org/2000/svg">
<path d="M146.649 14.7095V12.1366H143.454V8.1367L143.346 8.16981L140.345 9.08802L140.286 9.10599V12.1367H135.55V10.4483C135.55 9.66218 135.725 9.06056 136.072 8.65934C136.416 8.26294 136.908 8.06141 137.536 8.06141C137.987 8.06141 138.454 8.16769 138.924 8.37729L139.042 8.42993V5.72032L138.987 5.69994C138.548 5.54229 137.951 5.46289 137.212 5.46289C136.28 5.46289 135.433 5.66569 134.695 6.06762C133.956 6.47011 133.375 7.0447 132.968 7.77525C132.562 8.50494 132.356 9.34772 132.356 10.2804V12.1366H130.131V14.7095H132.356V25.5486H135.55V14.7095H140.286V21.5976C140.286 24.4344 141.624 25.872 144.263 25.872C144.697 25.872 145.153 25.8212 145.619 25.7217C146.094 25.6195 146.417 25.5175 146.607 25.4085L146.649 25.3836V22.7869L146.519 22.8728C146.346 22.9883 146.13 23.0827 145.877 23.1529C145.623 23.2244 145.411 23.2602 145.246 23.2602C144.628 23.2602 144.171 23.0936 143.887 22.7649C143.6 22.4331 143.454 21.853 143.454 21.0415V14.7095H146.649ZM122.999 23.2606C121.84 23.2606 120.926 22.8762 120.282 22.1191C119.634 21.3581 119.305 20.2732 119.305 18.8948C119.305 17.4726 119.634 16.3595 120.282 15.5851C120.926 14.8158 121.832 14.4253 122.973 14.4253C124.08 14.4253 124.962 14.7982 125.593 15.5343C126.228 16.2742 126.55 17.3783 126.55 18.8171C126.55 20.2735 126.247 21.3922 125.65 22.1406C125.057 22.8833 124.165 23.2606 122.999 23.2606ZM123.141 11.8135C120.929 11.8135 119.173 12.4615 117.92 13.7396C116.669 15.0179 116.034 16.7868 116.034 18.9976C116.034 21.0976 116.653 22.7867 117.875 24.0172C119.097 25.2482 120.76 25.8717 122.817 25.8717C124.961 25.8717 126.683 25.2146 127.935 23.9188C129.187 22.6245 129.821 20.8723 129.821 18.713C129.821 16.5803 129.226 14.8786 128.051 13.6563C126.877 12.4334 125.224 11.8135 123.141 11.8135ZM110.885 11.8135C109.38 11.8135 108.136 12.1983 107.185 12.957C106.229 13.7202 105.744 14.7212 105.744 15.9325C105.744 16.5622 105.848 17.1215 106.054 17.5959C106.262 18.0718 106.583 18.4909 107.009 18.8425C107.432 19.1914 108.085 19.5568 108.95 19.9286C109.678 20.2279 110.22 20.4811 110.565 20.6806C110.901 20.8762 111.14 21.0728 111.275 21.2643C111.407 21.4517 111.473 21.7081 111.473 22.0246C111.473 22.9256 110.798 23.3641 109.41 23.3641C108.895 23.3641 108.307 23.2565 107.664 23.0445C107.025 22.8357 106.422 22.5299 105.876 22.1379L105.743 22.0428V25.1177L105.792 25.1403C106.244 25.3489 106.814 25.5249 107.485 25.6633C108.155 25.8018 108.764 25.8723 109.293 25.8723C110.926 25.8723 112.241 25.4857 113.2 24.7224C114.165 23.9539 114.654 22.9293 114.654 21.6761C114.654 20.7721 114.391 19.9968 113.872 19.3716C113.356 18.7514 112.461 18.182 111.213 17.6788C110.219 17.2797 109.582 16.9484 109.319 16.6941C109.066 16.4484 108.937 16.1009 108.937 15.6609C108.937 15.2709 109.096 14.9584 109.422 14.7054C109.75 14.4511 110.208 14.3217 110.781 14.3217C111.313 14.3217 111.858 14.4058 112.399 14.5705C112.94 14.7352 113.415 14.9559 113.812 15.2258L113.943 15.3149V12.3981L113.893 12.3766C113.527 12.2197 113.044 12.0853 112.458 11.9764C111.874 11.8681 111.345 11.8135 110.885 11.8135ZM97.4176 23.2606C96.2587 23.2606 95.3445 22.8762 94.7005 22.1191C94.0523 21.3581 93.7246 20.2735 93.7246 18.8948C93.7246 17.4726 94.0528 16.3595 94.7012 15.5851C95.3452 14.8158 96.2502 14.4253 97.392 14.4253C98.499 14.4253 99.3806 14.7982 100.012 15.5343C100.647 16.2742 100.969 17.3783 100.969 18.8171C100.969 20.2735 100.666 21.3922 100.069 22.1406C99.4755 22.8833 98.5841 23.2606 97.4176 23.2606ZM97.56 11.8135C95.3479 11.8135 93.5911 12.4615 92.3393 13.7396C91.0877 15.0179 90.4527 16.7868 90.4527 18.9976C90.4527 21.0984 91.0726 22.7867 92.2945 24.0172C93.5164 25.2482 95.1792 25.8717 97.2365 25.8717C99.38 25.8717 101.102 25.2146 102.354 23.9188C103.605 22.6245 104.24 20.8723 104.24 18.713C104.24 16.5803 103.645 14.8786 102.47 13.6563C101.295 12.4334 99.643 11.8135 97.56 11.8135ZM85.6047 14.4593V12.1366H82.4498V25.5484H85.6047V18.6877C85.6047 17.5211 85.8692 16.5627 86.3911 15.8388C86.9064 15.1236 87.5931 14.7611 88.4315 14.7611C88.7156 14.7611 89.0346 14.808 89.3801 14.9007C89.722 14.9928 89.9697 15.0929 90.1157 15.1982L90.2483 15.2943V12.1137L90.1972 12.0917C89.9034 11.9669 89.4878 11.9039 88.9619 11.9039C88.1691 11.9039 87.4596 12.1587 86.8519 12.6602C86.3185 13.1011 85.933 13.7055 85.6382 14.4593H85.6047ZM76.8 11.8135C75.3527 11.8135 74.0617 12.1238 72.9636 12.7356C71.8633 13.3489 71.0123 14.2243 70.4333 15.3376C69.8569 16.4481 69.5642 17.7453 69.5642 19.192C69.5642 20.4592 69.848 21.6221 70.4088 22.647C70.97 23.6736 71.7642 24.4767 72.7696 25.0338C73.7736 25.5901 74.9339 25.8722 76.2187 25.8722C77.718 25.8722 78.9981 25.5724 80.0244 24.9813L80.0658 24.9575V22.0672L79.9332 22.164C79.4683 22.5026 78.9488 22.7729 78.3898 22.9677C77.8322 23.1623 77.3238 23.2606 76.878 23.2606C75.6401 23.2606 74.6463 22.8733 73.925 22.1096C73.2021 21.345 72.8355 20.2712 72.8355 18.9201C72.8355 17.5605 73.2178 16.4591 73.9711 15.6465C74.7222 14.8363 75.7178 14.4253 76.9301 14.4253C77.9671 14.4253 78.9775 14.7764 79.9335 15.4699L80.0658 15.566V12.5205L80.0231 12.4965C79.6634 12.2951 79.1727 12.1288 78.5636 12.0027C77.957 11.8769 77.3637 11.8135 76.8 11.8135ZM67.3914 12.1367H64.2366V25.5484H67.3914V12.1367ZM65.8463 6.42327C65.327 6.42327 64.8741 6.60003 64.5021 6.9503C64.1285 7.30157 63.939 7.74383 63.939 8.26577C63.939 8.7795 64.1262 9.21369 64.4963 9.55561C64.8639 9.89654 65.3182 10.0693 65.8464 10.0693C66.3744 10.0693 66.8304 9.89654 67.2025 9.55618C67.577 9.21369 67.7669 8.77964 67.7669 8.26577C67.7669 7.76208 67.5821 7.32435 67.2179 6.96446C66.8541 6.60527 66.3924 6.42327 65.8463 6.42327ZM57.9747 11.1472V25.5484H61.1944V6.83383H56.7382L51.0742 20.7344L45.5775 6.83383H40.9399V25.5482H43.9656V11.1458H44.0695L49.8738 25.5484H52.1571L57.8708 11.1472H57.9747Z" fill="#706D6E"/>
<path d="M15.1904 15.4214H0.349121V0.580078H15.1904V15.4214Z" fill="#F1511B"/>
<path d="M31.5773 15.4214H16.7363V0.580078H31.5773V15.4214Z" fill="#80CC28"/>
<path d="M15.19 31.8136H0.349121V16.9724H15.19V31.8136Z" fill="#00ADEF"/>
<path d="M31.5773 31.8136H16.7363V16.9724H31.5773V31.8136Z" fill="#FBBC09"/>
</svg>
