<svg width="52" height="44" viewBox="0 0 52 44" fill="none" xmlns="http://www.w3.org/2000/svg">
<path d="M0.641602 0.689453H51.2118V25.5915L50.0625 30.1888L47.7639 34.4029L44.3159 38.234L40.4848 39.7665L33.972 41.682L25.5436 42.4482V33.6367L22.4788 35.1692L12.9011 41.682L3.32336 43.9806V30.1888L8.68687 28.6563L12.1348 24.4421H0.641602V0.689453Z" fill="white"/>
<path d="M23.2152 5.28613H5.23889V21.016H15.4638C15.3695 30.8108 6.24329 32.6609 6.24329 32.6609C6.24329 32.6609 6.19519 32.989 6.24329 38.9346C21.4585 36.0157 23.0786 24.5699 23.2104 21.016H23.2142V20.9179C23.2344 20.3098 23.2142 19.9289 23.2142 19.9289V5.28613H23.2152Z" fill="#90A29F"/>
<path d="M45.839 19.9279V5.28613H27.8637V21.016H38.0895C37.9953 30.8108 28.869 32.6609 28.869 32.6609C28.869 32.6609 28.8209 32.989 28.869 38.9346C44.0842 36.0157 45.7043 24.5699 45.8361 21.016H45.84V20.9179C45.8592 20.3098 45.839 19.9279 45.839 19.9279Z" fill="#90A29F"/>
</svg>
