<svg width="108" height="66" viewBox="0 0 108 66" fill="none" xmlns="http://www.w3.org/2000/svg">
<path d="M91.2629 64.9528C91.0228 64.953 90.7826 64.9533 90.5352 64.9535C89.8822 64.954 89.2296 64.9443 88.5767 64.9326C87.8924 64.9221 87.208 64.9212 86.5236 64.9192C85.2301 64.9141 83.9368 64.9004 82.6434 64.8837C81.1699 64.865 79.6963 64.8559 78.2227 64.8476C75.1936 64.8302 72.1649 64.8007 69.136 64.7638C69.136 64.0926 69.136 63.4213 69.136 62.7297C69.0823 62.8737 69.0285 63.0178 68.9732 63.1662C68.6289 63.8352 68.2958 64.3612 67.6566 64.7638C66.1993 65.1799 64.5827 65.026 63.0839 65.0036C62.6109 65.0039 62.1379 65.0051 61.6649 65.0072C60.515 65.0098 59.3655 65.0031 58.2156 64.9921C56.8766 64.9797 55.5377 64.9783 54.1987 64.9776C51.8103 64.9758 49.422 64.9646 47.0337 64.9478C44.7156 64.9315 42.3976 64.921 40.0794 64.9174C39.8651 64.9171 39.8651 64.9171 39.6464 64.9168C39.0719 64.9159 38.4975 64.915 37.9231 64.9142C35.714 64.9107 33.5048 64.9028 31.2957 64.8941C30.6282 64.8915 29.9607 64.8891 29.2932 64.8871C27.7716 64.8825 26.25 64.8754 24.7285 64.8638C24.2668 64.8607 23.8051 64.8585 23.3434 64.8573C22.7153 64.8556 22.0872 64.8504 21.4591 64.8442C21.2746 64.8445 21.0902 64.8447 20.9001 64.8449C20.6486 64.8414 20.6486 64.8414 20.392 64.8378C20.1745 64.8364 20.1745 64.8364 19.9525 64.8351C19.479 64.7452 19.3411 64.5606 19.0223 64.2091C18.5626 63.9713 18.1036 63.7464 17.6354 63.5272C16.3155 62.8904 15.1823 62.1594 14.0294 61.2503C13.8892 61.1523 13.7491 61.0543 13.6046 60.9534C13.5007 60.8683 13.3968 60.7832 13.2897 60.6955C13.2897 60.5735 13.2897 60.4514 13.2897 60.3257C13.1808 60.2768 13.0719 60.2279 12.9598 60.1776C12.5351 59.9477 12.2526 59.7062 11.9115 59.3664C11.7398 59.1955 11.7398 59.1955 11.5647 59.0211C11.4474 58.9024 11.3302 58.7837 11.2093 58.6614C11.0892 58.5426 10.969 58.4239 10.8453 58.3016C10.7318 58.1877 10.6183 58.0737 10.5014 57.9563C10.3977 57.8522 10.2939 57.748 10.187 57.6407C9.96111 57.3669 9.96111 57.3669 9.96111 56.9971C9.83906 56.9971 9.71701 56.9971 9.59126 56.9971C9.36318 56.7378 9.36318 56.7378 9.10873 56.3744C9.01482 56.2409 8.92089 56.1074 8.82413 55.9699C8.72639 55.8283 8.62866 55.6867 8.52796 55.5408C8.43309 55.4063 8.33822 55.2719 8.24047 55.1334C6.98121 53.3299 5.98222 51.4751 5.07224 49.473C4.96603 49.2409 4.85973 49.0089 4.75333 48.7768C4.54657 48.326 4.34017 47.875 4.134 47.4238C3.85468 46.8175 3.56711 46.2159 3.27594 45.6153C1.56208 42.0529 0.652199 38.0251 0.715027 34.0665C3.56968 33.059 6.59765 33.0419 9.59126 32.957C9.72291 32.9527 9.85455 32.9484 9.99018 32.9439C18.0652 32.6986 26.1592 35.1648 32.1472 40.6911C32.5149 41.041 32.8778 41.3949 33.2381 41.7524C33.3516 41.8649 33.465 41.9773 33.5819 42.0931C34.3708 42.8953 34.3708 42.8953 34.3708 43.3127C34.4928 43.3127 34.6149 43.3127 34.7406 43.3127C34.8016 43.4348 34.8626 43.5568 34.9255 43.6826C35.2638 43.3443 35.2078 42.8562 35.2674 42.4015C35.7383 38.8266 36.6129 35.3635 37.8789 31.9896C38.0947 31.409 38.3027 30.8259 38.5105 30.2424C39.343 27.9235 40.2195 25.6904 41.3978 23.5259C41.4922 23.3416 41.5866 23.1574 41.6838 22.9675C42.2601 21.8598 42.9329 20.8643 43.684 19.8672C43.9897 19.4781 43.9897 19.4781 44.1716 19.0877C44.2936 19.0877 44.4157 19.0877 44.5414 19.0877C44.5891 18.9831 44.6368 18.8784 44.6859 18.7706C44.9351 18.3035 45.2283 17.9178 45.5585 17.5043C45.918 17.0527 46.255 16.6098 46.5756 16.129C46.6976 16.129 46.8197 16.129 46.9454 16.129C46.9454 16.0069 46.9454 15.8849 46.9454 15.7591C47.0675 15.7591 47.1895 15.7591 47.3153 15.7591C47.3153 15.6371 47.3153 15.515 47.3153 15.3893C47.4373 15.3893 47.5594 15.3893 47.6851 15.3893C47.7423 15.2419 47.7423 15.2419 47.8007 15.0917C48.1621 14.4632 48.6506 14.0004 49.1645 13.4938C49.2655 13.3913 49.3666 13.2888 49.4708 13.1832C50.2271 12.4305 50.2271 12.4305 50.6439 12.4305C50.6439 12.3084 50.6439 12.1864 50.6439 12.0606C50.7659 12.0606 50.8879 12.0606 51.0137 12.0606C51.0137 11.9386 51.0137 11.8165 51.0137 11.6908C51.1357 11.6908 51.2578 11.6908 51.3835 11.6908C51.3835 11.5687 51.3835 11.4467 51.3835 11.3209C52.0237 10.7662 52.0237 10.7662 52.4931 10.7662C52.4931 10.6441 52.4931 10.5221 52.4931 10.3963C52.7921 10.1226 52.7921 10.1226 53.2096 9.80688C53.3427 9.7051 53.4757 9.60331 53.6127 9.49844C56.3708 7.49018 59.2149 5.55761 62.3026 4.09304C62.8228 3.84597 63.3294 3.58195 63.834 3.30422C65.5118 2.38217 67.2126 1.57407 68.9858 0.849648C69.1801 0.768631 69.3745 0.687614 69.5748 0.604141C70.6437 0.178917 71.4974 -0.110611 72.6495 0.0406113C73.3868 0.401711 73.6399 0.983009 73.9902 1.70492C74.0865 1.89944 74.1828 2.09396 74.282 2.29436C74.4987 2.81446 74.4987 2.81446 74.4987 3.36923C74.6208 3.36923 74.7428 3.36923 74.8686 3.36923C75.7542 4.81466 76.2502 6.18039 76.6138 7.83051C76.6666 8.06044 76.7195 8.29037 76.774 8.52727C76.9153 9.14475 77.0523 9.76312 77.1879 10.3819C77.2733 10.7697 77.36 11.1572 77.4471 11.5446C78.1453 14.6578 78.7777 17.7613 79.1218 20.937C79.1381 21.0744 79.1545 21.2119 79.1713 21.3535C79.3345 22.8093 79.3794 24.2702 79.4223 25.7334C79.4284 25.9395 79.4284 25.9395 79.4347 26.1497C79.5372 29.7467 79.4465 33.322 79.0113 36.8967C78.9519 37.4419 78.9208 37.9577 78.9368 38.5047C79.0208 38.3827 79.1047 38.2606 79.1911 38.1349C79.2903 38.0128 79.3894 37.8908 79.4916 37.765C79.6137 37.765 79.7357 37.765 79.8615 37.765C79.8615 37.643 79.8615 37.5209 79.8615 37.3952C79.9835 37.3952 80.1056 37.3952 80.2313 37.3952C80.2313 37.2731 80.2313 37.1511 80.2313 37.0253C81.244 36.1007 81.244 36.1007 81.7107 36.1007C81.7107 35.9786 81.7107 35.8566 81.7107 35.7308C82.3508 35.1761 82.3508 35.1761 82.8202 35.1761C82.8202 35.054 82.8202 34.932 82.8202 34.8062C83.1565 34.542 83.5062 34.2947 83.8604 34.055C83.9685 33.9817 84.0766 33.9084 84.188 33.8329C84.5322 33.6008 84.8779 33.371 85.2242 33.1419C85.3318 33.0704 85.4395 32.9989 85.5504 32.9252C86.1936 32.4997 86.8419 32.0834 87.4962 31.6753C87.7928 31.4903 88.088 31.3031 88.383 31.1157C92.3202 28.732 98.8033 25.6874 103.531 25.9299C103.531 25.8079 103.531 25.6858 103.531 25.5601C104.167 25.3358 104.402 25.3493 105.02 25.6438C105.75 26.2745 105.81 26.7624 105.944 27.6881C105.97 27.8434 105.997 27.9986 106.024 28.1586C106.107 28.6556 106.183 29.1534 106.259 29.6515C106.313 29.9764 106.367 30.3012 106.422 30.6259C106.909 33.5723 107.302 36.5073 107.288 39.4987C107.287 39.728 107.286 39.9574 107.285 40.1937C107.262 42.1362 107.076 44.0019 106.675 45.9016C106.65 46.0238 106.626 46.146 106.6 46.2718C105.747 50.3361 103.573 54.1918 100.943 57.3669C100.86 57.4672 100.777 57.5676 100.692 57.6709C100.108 58.3795 99.5121 59.0783 98.9084 59.7709C98.8272 59.864 98.7461 59.9571 98.6625 60.053C97.8191 61.0145 96.9713 61.9445 95.9781 62.7534C95.5678 63.0977 95.5678 63.0977 95.1898 63.5179C93.9394 64.8104 93.0233 64.9999 91.2629 64.9528Z" fill="#5A8658"/>
<path d="M91.2629 64.9527C91.0228 64.9529 90.7826 64.9531 90.5352 64.9534C89.8822 64.9539 89.2296 64.9441 88.5767 64.9325C87.8924 64.922 87.208 64.9211 86.5236 64.9191C85.2301 64.914 83.9368 64.9003 82.6434 64.8836C81.1699 64.8649 79.6963 64.8558 78.2227 64.8475C75.1937 64.8301 72.1649 64.8005 69.136 64.7637C69.136 64.0924 69.136 63.4212 69.136 62.7296C69.0656 62.8741 68.9952 63.0186 68.9227 63.1675C68.4033 64.0587 68.0184 64.6646 66.9932 64.9455C66.1684 65.0257 65.3455 64.9927 64.5187 64.9624C64.2141 64.9586 63.9094 64.9557 63.6047 64.9536C62.8066 64.9459 62.0093 64.926 61.2116 64.9034C60.396 64.8825 59.5803 64.8733 58.7645 64.863C57.1668 64.8413 55.5697 64.8066 53.9724 64.7637C53.9683 64.0108 53.9659 63.2578 53.9638 62.5049C53.962 62.1901 53.962 62.1901 53.9603 61.869C53.9431 53.8546 55.8412 45.8057 58.0407 38.1347C58.0928 37.9529 58.1449 37.7711 58.1986 37.5837C61.16 27.3599 64.7363 16.7704 69.862 7.42153C70.3762 6.46803 70.8407 5.49 71.3088 4.51332C71.394 4.33664 71.4791 4.15995 71.5668 3.97792C72.0962 2.86654 72.5772 1.74418 73.0194 0.595253C73.1414 0.595253 73.2635 0.595253 73.3892 0.595253C73.5755 0.952843 73.7601 1.31129 73.944 1.67012C74.047 1.86964 74.1499 2.06916 74.256 2.27473C74.4987 2.81433 74.4987 2.81433 74.4987 3.36911C74.6208 3.36911 74.7428 3.36911 74.8686 3.36911C75.7542 4.81453 76.2502 6.18026 76.6138 7.83038C76.6666 8.06031 76.7195 8.29025 76.774 8.52715C76.9153 9.14462 77.0523 9.763 77.1879 10.3817C77.2733 10.7695 77.36 11.157 77.4471 11.5445C78.1453 14.6576 78.7777 17.7611 79.1218 20.9368C79.1381 21.0743 79.1545 21.2118 79.1713 21.3534C79.3345 22.8092 79.3794 24.27 79.4223 25.7333C79.4284 25.9393 79.4284 25.9393 79.4347 26.1496C79.5372 29.7465 79.4465 33.3219 79.0113 36.8966C78.9519 37.4418 78.9208 37.9576 78.9369 38.5046C79.0208 38.3825 79.1047 38.2605 79.1911 38.1347C79.2903 38.0127 79.3894 37.8906 79.4916 37.7649C79.6137 37.7649 79.7357 37.7649 79.8615 37.7649C79.8615 37.6428 79.8615 37.5208 79.8615 37.395C79.9835 37.395 80.1056 37.395 80.2313 37.395C80.2313 37.273 80.2313 37.1509 80.2313 37.0252C81.244 36.1006 81.244 36.1006 81.7107 36.1006C81.7107 35.9785 81.7107 35.8565 81.7107 35.7307C82.3508 35.1759 82.3508 35.1759 82.8202 35.1759C82.8202 35.0539 82.8202 34.9319 82.8202 34.8061C83.1565 34.5419 83.5062 34.2945 83.8604 34.0549C83.9685 33.9816 84.0766 33.9083 84.188 33.8328C84.5322 33.6006 84.8779 33.3709 85.2242 33.1418C85.3318 33.0703 85.4395 32.9988 85.5504 32.9251C86.1936 32.4996 86.8419 32.0832 87.4962 31.6751C87.7928 31.4901 88.088 31.3029 88.383 31.1156C92.3202 28.7319 98.8033 25.6873 103.531 25.9298C103.531 25.8077 103.531 25.6857 103.531 25.5599C104.167 25.3357 104.402 25.3492 105.02 25.6436C105.75 26.2744 105.81 26.7622 105.944 27.688C105.97 27.8432 105.997 27.9985 106.024 28.1584C106.107 28.6555 106.183 29.1533 106.259 29.6514C106.313 29.9762 106.367 30.3011 106.422 30.6258C106.909 33.5721 107.302 36.5072 107.288 39.4985C107.287 39.7279 107.286 39.9572 107.285 40.1935C107.262 42.1361 107.076 44.0017 106.675 45.9015C106.65 46.0237 106.626 46.1459 106.6 46.2717C105.747 50.3359 103.573 54.1916 100.943 57.3668C100.86 57.4671 100.777 57.5674 100.692 57.6708C100.108 58.3794 99.5121 59.0782 98.9084 59.7708C98.8272 59.8639 98.7461 59.957 98.6625 60.0529C97.8191 61.0144 96.9713 61.9443 95.9781 62.7533C95.5678 63.0976 95.5678 63.0976 95.1898 63.5178C93.9394 64.8103 93.0233 64.9998 91.2629 64.9527Z" fill="#4D825C"/>
<path d="M64.5189 64.9625C64.2142 64.9587 63.9095 64.9559 63.6049 64.9538C62.8068 64.9461 62.0095 64.9262 61.2118 64.9036C60.3962 64.8827 59.5805 64.8735 58.7647 64.8632C57.167 64.8415 55.5699 64.8068 53.9726 64.7639C53.9685 64.011 53.9661 63.258 53.9639 62.5051C53.9622 62.1903 53.9622 62.1903 53.9604 61.8692C53.9433 53.8547 55.8413 45.8059 58.0409 38.1349C58.093 37.9531 58.1451 37.7713 58.1987 37.5839C61.1602 27.36 64.7364 16.7706 69.8621 7.42172C70.3763 6.46822 70.8409 5.49019 71.309 4.51351C71.3941 4.33683 71.4792 4.16014 71.5669 3.97811C72.0964 2.86673 72.5774 1.74437 73.0195 0.595444C73.1416 0.595444 73.2636 0.595444 73.3894 0.595444C73.5756 0.953033 73.7603 1.31149 73.9441 1.67031C74.0471 1.86983 74.1501 2.06936 74.2562 2.27493C74.4989 2.81453 74.4989 2.81453 74.4989 3.3693C74.6209 3.3693 74.743 3.3693 74.8687 3.3693C75.7544 4.81472 76.2504 6.18045 76.6139 7.83057C76.6668 8.0605 76.7197 8.29044 76.7741 8.52734C76.9155 9.14481 77.0524 9.76319 77.1881 10.3819C77.2735 10.7697 77.3602 11.1572 77.4473 11.5447C78.1455 14.6578 78.7778 17.7613 79.1219 20.937C79.1383 21.0745 79.1547 21.212 79.1715 21.3536C79.3346 22.8093 79.3798 24.2702 79.4224 25.7335C79.4265 25.8712 79.4305 26.009 79.4347 26.1509C79.5322 29.6503 79.4477 33.1163 79.0526 36.5977C79.0316 36.7867 79.0105 36.9756 78.9888 37.1703C78.8529 38.253 78.6057 39.1587 78.1973 40.1691C78.0968 40.6135 78.0968 40.6135 78.0471 41.0359C77.2484 45.7443 75.463 50.4966 73.3894 54.778C73.2708 55.0296 73.1524 55.2812 73.034 55.5329C72.2687 57.1328 71.387 58.6495 70.4535 60.1571C70.0658 60.7869 69.7147 61.3756 69.4403 62.0644C68.269 64.6269 67.1938 65.0608 64.5189 64.9625Z" fill="#84BB81"/>
<path d="M37.3297 64.764C35.0246 64.7768 32.7196 64.7867 30.4145 64.7927C29.3442 64.7956 28.274 64.7996 27.2037 64.8058C26.1714 64.8119 25.1391 64.8152 24.1067 64.8166C23.7123 64.8176 23.3179 64.8197 22.9236 64.8226C22.3723 64.8267 21.8211 64.8272 21.2698 64.827C21.1058 64.829 20.9418 64.831 20.7728 64.833C20.5476 64.8319 20.5476 64.8319 20.3179 64.8307C20.1875 64.8312 20.0571 64.8317 19.9227 64.8322C19.4727 64.7433 19.329 64.542 19.0224 64.2092C18.5628 63.9715 18.1038 63.7465 17.6355 63.5273C16.3157 62.8905 15.1825 62.1595 14.0296 61.2504C13.8894 61.1525 13.7492 61.0545 13.6048 60.9535C13.5009 60.8684 13.397 60.7833 13.2899 60.6957C13.2899 60.5736 13.2899 60.4516 13.2899 60.3258C13.181 60.277 13.0721 60.2281 12.9599 60.1777C12.5353 59.9479 12.2528 59.7063 11.9116 59.3665C11.7972 59.2526 11.6828 59.1386 11.5649 59.0212C11.4476 58.9025 11.3303 58.7838 11.2095 58.6615C11.0293 58.4834 11.0293 58.4834 10.8454 58.3018C10.732 58.1878 10.6185 58.0739 10.5016 57.9565C10.3979 57.8523 10.2941 57.7481 10.1872 57.6408C9.96129 57.367 9.96129 57.367 9.96129 56.9972C9.83924 56.9972 9.71719 56.9972 9.59145 56.9972C9.36337 56.738 9.36337 56.738 9.10892 56.3745C9.015 56.241 8.92108 56.1075 8.82431 55.97C8.72658 55.8284 8.62884 55.6868 8.52815 55.5409C8.43328 55.4065 8.3384 55.272 8.24065 55.1335C6.98139 53.33 5.9824 51.4753 5.07243 49.4731C4.96621 49.241 4.85991 49.009 4.75351 48.777C4.54675 48.3261 4.34035 47.8751 4.13419 47.424C3.85486 46.8177 3.5673 46.2161 3.27612 45.6154C1.56227 42.0531 0.652378 38.0252 0.715214 34.0667C3.56986 33.0591 6.59783 33.0421 9.59145 32.9571C9.72309 32.9528 9.85473 32.9485 9.99036 32.944C18.0654 32.6988 26.1594 35.165 32.1474 40.6912C32.5151 41.0411 32.878 41.3951 33.2383 41.7526C33.4085 41.9212 33.4085 41.9212 33.5821 42.0933C34.3709 42.8954 34.3709 42.8954 34.3709 43.3129C34.493 43.3129 34.615 43.3129 34.7408 43.3129C35.5186 44.1792 35.3528 45.2206 35.3237 46.3106C35.3178 46.7334 35.3121 47.1561 35.3065 47.5788C35.3027 47.7996 35.2988 48.0204 35.2949 48.2478C35.207 53.7497 35.2293 59.5741 37.3297 64.764Z" fill="#33463B"/>
<path d="M90.1521 64.9267C89.8064 64.9236 89.4608 64.9212 89.1152 64.9195C88.2109 64.9132 87.307 64.8969 86.4029 64.8784C85.4782 64.8613 84.5534 64.8538 83.6285 64.8454C81.8179 64.8276 80.0076 64.7993 78.1972 64.7641C78.7987 64.1567 79.4038 63.5902 80.0695 63.0536C80.2471 62.9096 80.4247 62.7656 80.6076 62.6173C80.879 62.3985 80.879 62.3985 81.1559 62.1752C82.336 61.2232 83.4915 60.2559 84.6116 59.2338C84.9758 58.9041 85.346 58.5856 85.7212 58.2687C87.6371 56.5942 89.3964 54.7523 90.9568 52.7441C91.1167 52.5471 91.2771 52.3504 91.4378 52.1539C96.9019 45.426 100.667 36.8868 102.792 28.5191C102.83 28.3712 102.868 28.2233 102.907 28.0708C103.122 27.2355 103.33 26.3989 103.531 25.5604C104.167 25.3361 104.402 25.3496 105.02 25.6441C105.75 26.2748 105.81 26.7627 105.944 27.6884C105.97 27.8437 105.997 27.9989 106.024 28.1589C106.107 28.6559 106.183 29.1537 106.259 29.6518C106.313 29.9767 106.367 30.3015 106.422 30.6263C106.909 33.5726 107.302 36.5076 107.288 39.499C107.287 39.7283 107.286 39.9577 107.285 40.194C107.262 42.1365 107.076 44.0022 106.675 45.9019C106.65 46.0241 106.626 46.1463 106.6 46.2722C105.747 50.3364 103.573 54.1921 100.943 57.3672C100.86 57.4675 100.777 57.5679 100.692 57.6712C100.108 58.3798 99.5121 59.0786 98.9084 59.7712C98.8272 59.8643 98.7461 59.9574 98.6625 60.0533C97.8189 61.0151 96.9727 61.9505 95.9738 62.7536C95.5674 63.0929 95.5674 63.0929 95.2288 63.5191C93.7569 65.16 92.1981 64.981 90.1521 64.9267Z" fill="#3E694A"/>
</svg>
