<svg width="61" height="57" viewBox="0 0 61 57" fill="none" xmlns="http://www.w3.org/2000/svg">
<path d="M6.38157 55.9915C6.57917 55.8351 6.57917 55.8351 6.78771 55.6415C7.30567 55.1847 7.8655 54.83 8.45323 54.4701C8.67201 54.3339 8.89067 54.1975 9.10923 54.0609C9.21707 53.9936 9.32491 53.9263 9.43602 53.857C10.7499 53.0309 12.0161 52.1506 13.244 51.2007C13.3145 51.1465 13.385 51.0923 13.4577 51.0365C14.4063 50.3067 15.3285 49.5529 16.2325 48.7685C16.6542 48.4035 17.0813 48.0515 17.5248 47.7129C17.9452 47.3917 18.3169 47.0534 18.6821 46.669C18.8276 46.5259 18.9733 46.383 19.1191 46.2401C19.4302 45.9296 19.7237 45.6112 20.0092 45.2771C20.389 44.8358 20.7927 44.4234 21.2069 44.0147C21.7742 43.4533 22.3136 42.8792 22.8254 42.2667C22.9125 42.1637 22.9996 42.0607 23.0894 41.9546C25.9518 38.5208 28.2694 34.6235 30.4646 30.7431C30.5238 30.6386 30.583 30.5342 30.644 30.4265C32.0386 27.9397 33.1393 25.2713 34.09 22.5859C34.1535 22.7184 34.2169 22.851 34.2822 22.9875C34.9863 24.4096 35.8087 25.7347 36.6877 27.0529C36.7424 27.1354 36.7971 27.2179 36.8534 27.3028C37.5632 28.3708 38.3128 29.3734 39.1397 30.3547C39.3263 30.5863 39.5125 30.8182 39.6981 31.0506C40.832 32.4303 42.08 33.6956 43.3397 34.9592C43.4024 35.0223 43.4651 35.0854 43.5298 35.1504C43.7113 35.3327 43.8935 35.5144 44.0756 35.6962C44.1817 35.8021 44.2877 35.908 44.397 36.0171C45.2548 36.8286 45.2548 36.8286 45.6137 36.8286C45.6137 36.9141 45.6137 36.9995 45.6137 37.0876C45.8128 37.2628 45.8128 37.2628 46.0926 37.4639C46.2461 37.5753 46.2461 37.5753 46.4027 37.689C46.5135 37.7682 46.6244 37.8475 46.7385 37.9292C46.9667 38.0946 47.1948 38.2601 47.4228 38.4258C47.5349 38.5071 47.6469 38.5883 47.7623 38.672C48.1581 38.9621 48.545 39.2615 48.9316 39.5638C49.6353 40.1094 50.3568 40.6246 51.0874 41.1334C51.5926 41.4864 52.0908 41.8461 52.5818 42.2187C53.6324 43.0146 54.6404 43.7398 55.845 44.2827C56.6103 44.6311 56.6103 44.6311 57.1373 45.2447C57.8 45.5518 58.2523 45.4757 58.95 45.3742C61.3604 39.2199 61.5033 31.825 60.1153 25.4345C60.07 25.2105 60.025 24.9864 59.9803 24.7623C59.5472 22.6779 58.7892 20.6907 57.7856 18.8177C57.6552 18.5721 57.5296 18.3245 57.4048 18.0759C56.5744 16.4402 55.5227 15.0278 54.3358 13.6342C54.0459 13.283 53.7816 12.9238 53.52 12.5513C53.0317 11.8664 52.4825 11.26 51.9086 10.6476C51.3872 10.0904 50.8729 9.52676 50.4125 8.91781C50.1123 8.56301 49.7815 8.28284 49.4282 7.98212C49.033 7.62701 48.6641 7.24974 48.2923 6.87043C47.666 6.23393 47.0153 5.65846 46.3147 5.10324C46.0404 4.8787 45.7945 4.64902 45.5489 4.39414C45.037 3.87144 44.4941 3.40508 43.9127 2.96085C43.7451 2.83216 43.5787 2.70184 43.4133 2.5703C41.6058 1.15608 40.1906 0.846855 37.9301 0.878742C37.6229 0.876881 37.3157 0.874298 37.0085 0.871063C36.1824 0.864555 35.3566 0.8685 34.5305 0.874859C34.0136 0.877995 33.4967 0.878372 32.9798 0.87727C32.8935 0.877087 32.8072 0.876907 32.7183 0.876717C32.543 0.876328 32.3676 0.875927 32.1923 0.875519C30.5563 0.872078 28.9206 0.878674 27.2847 0.888962C25.8834 0.89756 24.4823 0.898045 23.081 0.892525C21.448 0.886097 19.8152 0.884243 18.1822 0.889965C18.008 0.890568 17.8338 0.891167 17.6596 0.891762C17.5311 0.892204 17.5311 0.892204 17.3999 0.892658C16.7983 0.89444 16.1967 0.892963 15.595 0.890392C14.7853 0.887283 13.976 0.891216 13.1664 0.900543C12.8698 0.90284 12.5732 0.902725 12.2766 0.899998C9.91958 0.880692 9.91958 0.880692 9.31945 1.40544C9.02182 1.76353 8.79996 2.10627 8.58271 2.5167C8.46547 2.67621 8.34565 2.83391 8.22209 2.98859C7.59093 3.86658 7.0242 4.75566 6.49992 5.70107C6.26596 6.11744 6.02002 6.52236 5.76655 6.92707C3.11214 11.2117 0.981526 15.5796 0.425544 20.6437C0.412901 20.7525 0.400258 20.8613 0.387232 20.9734C0.134452 23.1871 0.0826754 25.4099 0.0371077 27.6356C0.0340825 27.7636 0.0310573 27.8917 0.0279405 28.0236C-0.0952086 33.6688 1.03742 39.113 2.23825 44.5973C2.26014 44.6976 2.28203 44.7979 2.30458 44.9013C2.6864 46.6502 3.07096 48.3978 3.54372 50.1248C3.7169 50.764 3.87188 51.4065 4.01959 52.052C4.03953 52.1389 4.05947 52.2258 4.08001 52.3153C4.17954 52.75 4.27795 53.1849 4.3749 53.6202C4.83786 55.656 4.83786 55.656 5.32146 56.0562C5.73595 56.1509 5.97238 56.1198 6.38157 55.9915Z" fill="#6EA06B"/>
<path d="M58.9499 45.3742C61.3603 39.2199 61.5031 31.825 60.1152 25.4345C60.0699 25.2105 60.0248 24.9864 59.9801 24.7623C59.547 22.678 58.789 20.6907 57.7855 18.8177C57.6551 18.5721 57.5295 18.3245 57.4047 18.0759C56.5743 16.4402 55.5225 15.0278 54.3356 13.6342C54.0458 13.283 53.7815 12.9238 53.5198 12.5513C53.0316 11.8664 52.4823 11.26 51.9084 10.6476C51.3871 10.0904 50.8728 9.52677 50.4123 8.91782C50.1121 8.56303 49.7813 8.28286 49.4281 7.98214C49.0328 7.62702 48.664 7.24976 48.2921 6.87044C47.6659 6.23394 47.0151 5.65847 46.3145 5.10325C46.0403 4.87871 45.7944 4.64903 45.5488 4.39415C45.0365 3.87114 44.4934 3.40556 43.9114 2.96134C43.745 2.8326 43.5803 2.70149 43.4172 2.56856C41.5429 1.06268 40.0369 0.870052 37.6829 0.98724C37.3829 0.995708 37.0828 1.00338 36.7827 1.01025C36.0572 1.02855 35.3326 1.05649 34.6078 1.09244C34.6979 1.56428 34.8195 1.99893 34.9801 2.45197C35.2598 3.28619 35.4774 4.11267 35.6437 4.97681C35.6616 5.06558 35.6795 5.15435 35.6979 5.24582C36.0328 6.97274 36.0702 8.69441 36.0726 10.4473C36.073 10.5563 36.0735 10.6653 36.0739 10.7777C36.0791 13.0192 35.8625 15.1575 35.3523 17.342C35.3328 17.4278 35.3132 17.5136 35.2931 17.6019C35.0315 18.7478 34.7387 19.8754 34.3202 20.9753C34.0419 21.7212 33.9552 22.3383 34.2821 23.076C34.3772 23.262 34.4753 23.4465 34.5755 23.6299C34.6304 23.7323 34.6854 23.8348 34.7421 23.9404C35.3359 25.0122 36.0098 26.033 36.6876 27.053C36.7422 27.1355 36.7969 27.218 36.8532 27.3031C37.5631 28.371 38.3128 29.3735 39.1396 30.3547C39.3261 30.5863 39.5123 30.8182 39.698 31.0506C40.8319 32.4303 42.0799 33.6956 43.3396 34.9593C43.4023 35.0223 43.465 35.0854 43.5296 35.1504C43.7112 35.3327 43.8933 35.5144 44.0755 35.6962C44.1815 35.8021 44.2876 35.908 44.3969 36.0171C45.2546 36.8286 45.2546 36.8286 45.6135 36.8286C45.6135 36.9141 45.6135 36.9995 45.6135 37.0876C45.8126 37.2628 45.8126 37.2628 46.0925 37.4639C46.1948 37.5382 46.2972 37.6125 46.4026 37.689C46.5688 37.8079 46.5688 37.8079 46.7384 37.9292C46.9666 38.0946 47.1947 38.2601 47.4227 38.4258C47.5347 38.5071 47.6467 38.5883 47.7621 38.672C48.158 38.9621 48.5449 39.2615 48.9314 39.5638C49.6351 40.1094 50.3566 40.6246 51.0873 41.1334C51.5925 41.4864 52.0906 41.8461 52.5816 42.2187C53.6323 43.0146 54.6402 43.7398 55.8449 44.2827C56.6101 44.6311 56.6101 44.6311 57.1371 45.2447C57.7999 45.5519 58.2522 45.4757 58.9499 45.3742Z" fill="#3C7057"/>
<path d="M6.38157 55.9919C6.87454 55.5694 6.89981 54.9141 7.02897 54.3087C7.09905 53.99 7.16937 53.6714 7.23987 53.3528C7.25947 53.2641 7.27906 53.1754 7.29925 53.084C7.52776 52.0496 7.75856 51.0157 7.98997 49.982C8.06498 49.6466 8.13978 49.3113 8.21457 48.9759C8.33883 48.4194 8.46437 47.8632 8.59071 47.3071C8.63835 47.0967 8.68565 46.8862 8.73255 46.6756C9.05678 45.2217 9.46433 43.8118 9.9247 42.3953C10.0842 41.8957 10.2214 41.3904 10.355 40.8834C10.5217 40.2517 10.7083 39.6409 10.9436 39.0313C11.0425 38.7722 11.1344 38.5116 11.2244 38.2493C11.6957 36.8764 12.1965 35.5161 12.7099 34.1586C13.2498 32.7307 13.766 31.2972 14.2591 29.8524C14.6671 28.662 15.1105 27.4874 15.5656 26.3145C15.7005 25.9622 15.832 25.6088 15.9631 25.2552C16.4538 23.9347 16.9784 22.6289 17.5087 21.324C17.5561 21.2072 17.6034 21.0904 17.6523 20.9701C17.9945 20.1273 18.3379 19.2851 18.6821 18.4431C18.7509 18.2745 18.7509 18.2745 18.8211 18.1026C19.081 17.4667 19.3419 16.8312 19.6044 16.1963C19.6838 16.0042 19.7629 15.812 19.8417 15.6196C20.3575 14.3626 20.9289 13.1468 21.5459 11.9365C21.8057 11.4214 22.0469 10.8974 22.2913 10.3749C23.2222 8.40797 24.2605 6.50256 25.3098 4.59691C25.3533 4.51785 25.3968 4.43879 25.4416 4.35733C25.9689 3.40004 26.5069 2.45059 27.065 1.51088C27.2277 1.22237 27.2277 1.22237 27.2277 1.09289C24.9688 1.05957 22.7099 1.03448 20.4509 1.01909C19.4018 1.01176 18.353 1.00177 17.304 0.985439C16.3894 0.971214 15.475 0.962048 14.5603 0.958881C14.0762 0.957027 13.5924 0.952698 13.1084 0.942299C12.5671 0.930763 12.0263 0.930538 11.4849 0.931198C11.246 0.923515 11.246 0.923515 11.0023 0.91568C10.3256 0.924591 9.91413 0.946594 9.39449 1.40424C9.09782 1.76328 8.8366 2.12706 8.58271 2.51715C8.46358 2.67526 8.34355 2.83271 8.22209 2.98904C7.59093 3.86704 7.0242 4.75611 6.49992 5.70153C6.26596 6.11789 6.02002 6.52281 5.76655 6.92753C3.11214 11.2122 0.981526 15.5801 0.425544 20.6442C0.412901 20.753 0.400258 20.8618 0.387232 20.9738C0.134452 23.1876 0.0826754 25.4104 0.0371077 27.6361C0.0340825 27.7641 0.0310573 27.8921 0.0279405 28.024C-0.0952086 33.6692 1.03742 39.1134 2.23825 44.5978C2.26014 44.6981 2.28202 44.7984 2.30458 44.9017C2.6864 46.6506 3.07096 48.3983 3.54372 50.1253C3.7169 50.7645 3.87188 51.4069 4.01959 52.0524C4.03953 52.1393 4.05947 52.2262 4.08001 52.3158C4.17954 52.7504 4.27795 53.1854 4.3749 53.6206C4.83786 55.6564 4.83786 55.6564 5.32146 56.0567C5.72004 56.1478 5.99055 56.1084 6.38157 55.9919Z" fill="#4E835D"/>
<path d="M57.1371 44.9863C57.0713 43.9923 56.8132 43.131 56.4817 42.1944C56.4287 42.0443 56.3757 41.8941 56.3211 41.7394C55.8977 40.5642 55.4188 39.47 54.8065 38.3829C54.7339 38.2531 54.6612 38.1234 54.5864 37.9897C53.9782 36.907 53.3589 35.8311 52.7349 34.7575C52.6233 34.5655 52.6233 34.5655 52.5095 34.3696C50.8169 31.4643 49.0578 28.6043 47.1673 25.8235C47.0039 25.582 46.8405 25.3406 46.6772 25.0992C45.9448 24.0192 45.2065 22.9444 44.4482 21.8824C43.5834 20.6685 42.7768 19.4173 41.9682 18.1656C41.5985 17.5937 41.2267 17.0231 40.8552 16.4524C40.4613 15.8472 40.068 15.2417 39.6792 14.6331C38.9531 13.4984 38.1975 12.3905 37.4149 11.294C37.0699 10.8097 36.7398 10.3168 36.419 9.81612C36.3768 9.75754 36.3346 9.69896 36.2911 9.6386C36.2483 9.6386 36.2056 9.6386 36.1616 9.6386C36.159 9.72837 36.1564 9.81815 36.1538 9.91064C36.0409 13.6844 35.6754 17.4148 34.3202 20.9758C34.0419 21.7217 33.9552 22.3389 34.2821 23.0766C34.3772 23.2626 34.4753 23.4471 34.5755 23.6304C34.6304 23.7329 34.6854 23.8354 34.7421 23.941C35.3359 25.0128 36.0098 26.0336 36.6876 27.0535C36.7422 27.1361 36.7969 27.2186 36.8532 27.3036C37.5631 28.3715 38.3128 29.3741 39.1396 30.3552C39.3261 30.5869 39.5123 30.8188 39.698 31.0512C40.8319 32.4308 42.0799 33.6962 43.3396 34.9598C43.4023 35.0229 43.465 35.0859 43.5296 35.1509C43.7112 35.3332 43.8933 35.515 44.0755 35.6967C44.1815 35.8026 44.2876 35.9086 44.3969 36.0177C45.2546 36.8292 45.2546 36.8292 45.6135 36.8292C45.6135 36.9146 45.6135 37.0001 45.6135 37.0881C45.8126 37.2634 45.8126 37.2634 46.0925 37.4644C46.1948 37.5387 46.2972 37.613 46.4026 37.6895C46.5688 37.8084 46.5688 37.8084 46.7384 37.9297C46.9666 38.0951 47.1947 38.2607 47.4227 38.4264C47.5347 38.5076 47.6467 38.5889 47.7621 38.6726C48.158 38.9626 48.5449 39.2621 48.9314 39.5644C49.6351 40.1099 50.3566 40.6252 51.0873 41.134C51.5925 41.487 52.0906 41.8467 52.5816 42.2192C53.6323 43.0152 54.6402 43.7404 55.8449 44.2833C56.211 44.4589 56.7475 44.9863 57.1371 44.9863Z" fill="#4D8269"/>
<path d="M2.10902 43.9502C2.19448 43.9502 2.27993 43.9502 2.36798 43.9502C2.27418 43.3944 2.1796 42.8388 2.08475 42.2832C2.07037 42.1987 2.056 42.1142 2.0412 42.0272C1.86165 40.974 1.66941 39.9252 1.45657 38.8781C1.16612 37.4439 0.972067 36.0335 0.87341 34.5736C0.834739 34.0264 0.765488 33.4885 0.687284 32.9455C0.527472 31.7857 0.467262 30.6253 0.409613 29.4567C0.398388 29.2409 0.387093 29.0252 0.375726 28.8095C0.348439 28.2889 0.322105 27.7682 0.296319 27.2474C-0.0430087 27.7564 -0.00152488 28.1862 0.00499117 28.7769C0.0060552 28.8963 0.00711922 29.0157 0.0082155 29.1388C0.0852773 34.1867 1.0264 39.0362 2.10902 43.9502Z" fill="#6A9D6A"/>
</svg>
