<svg width="58" height="58" viewBox="0 0 58 58" fill="none" xmlns="http://www.w3.org/2000/svg">
<path d="M29.0414 0.780273C13.4971 0.780273 0.779022 13.4983 0.779022 29.0427C0.779022 44.587 13.4971 57.305 29.0414 57.305C44.5857 57.305 57.3038 44.587 57.3038 29.0427C57.3038 13.4983 44.5857 0.780273 29.0414 0.780273ZM29.0414 10.2011C34.2228 10.2011 38.4622 15.3825 38.4622 21.9771C38.4622 28.5716 34.2228 33.7531 29.0414 33.7531C23.86 33.7531 19.6206 28.5716 19.6206 21.9771C19.6206 15.3825 23.86 10.2011 29.0414 10.2011ZM44.5857 46.7066C40.5819 50.2394 34.9294 52.5946 29.0414 52.5946C23.1534 52.5946 17.5009 50.2394 13.4971 46.7066C12.555 45.7646 12.3195 44.3514 13.2616 43.4094C15.8523 40.3476 19.3851 38.2279 23.1534 37.0503C25.0376 37.9924 26.9217 38.4635 29.0414 38.4635C31.1611 38.4635 33.0452 37.9924 34.9294 37.0503C38.9332 38.2279 42.2305 40.3476 44.8212 43.4094C45.7633 44.3514 45.7633 45.7646 44.5857 46.7066Z" fill="#4A5759"/>
</svg>
