<svg width="430" height="53" viewBox="0 0 430 53" fill="none" xmlns="http://www.w3.org/2000/svg">
<path fill-rule="evenodd" clip-rule="evenodd" d="M430 24.4706L412.083 18.3529C394.167 12.2353 358.333 0 322.5 0C286.667 0 223.269 7.64706 187.436 18.3529C151.603 29.0588 115.769 38.2353 79.9359 41.2941C44.1026 44.3529 35.8333 45.8824 17.9166 44.3529L1.36379e-05 42.8235V52H17.9166C35.8333 52 71.6667 52 107.5 52C143.333 52 179.167 52 215 52C250.833 52 286.667 52 322.5 52C358.333 52 394.167 52 412.083 52H430V24.4706Z" fill="#B1C4B2"/>
<path fill-rule="evenodd" clip-rule="evenodd" d="M0 25.4706L17.9167 19.3529C35.8333 13.2353 71.6667 1 107.5 1C143.333 1 206.731 8.64706 242.564 19.3529C278.397 30.0588 314.231 39.2353 350.064 42.2941C385.897 45.3529 394.167 46.8824 412.083 45.3529L430 43.8235V53H412.083C394.167 53 358.333 53 322.5 53C286.667 53 250.833 53 215 53C179.167 53 143.333 53 107.5 53C71.6667 53 35.8333 53 17.9167 53H0V25.4706Z" fill="#90A297"/>
</svg>
