<svg width="1439" height="148" viewBox="0 0 1439 148" fill="none" xmlns="http://www.w3.org/2000/svg">
<path fill-rule="evenodd" clip-rule="evenodd" d="M-2 66.8235L58 50.1176C118 33.4118 238 0 358 0C478 0 690.308 20.8823 810.308 50.1176C930.308 79.3529 1050.31 104.412 1170.31 112.765C1290.31 121.118 1318 125.294 1378 121.118L1438 116.941V142H1378C1318 142 1198 142 1078 142C958 142 838 142 718 142C598 142 478 142 358 142C238 142 118 142 58 142H-2V66.8235Z" fill="#759D93"/>
<path fill-rule="evenodd" clip-rule="evenodd" d="M1439 72.8235L1379 56.1176C1319 39.4118 1199 6 1079 6C959 6 746.692 26.8823 626.692 56.1176C506.692 85.3529 386.692 110.412 266.692 118.765C146.692 127.118 119 131.294 58.9999 127.118L-1.00004 122.941V148H58.9999C119 148 239 148 359 148C479 148 599 148 719 148C839 148 959 148 1079 148C1199 148 1319 148 1379 148H1439V72.8235Z" fill="#E5EBE5"/>
</svg>
