<svg width="1439" height="163" viewBox="0 0 1439 163" fill="none" xmlns="http://www.w3.org/2000/svg">
<path fill-rule="evenodd" clip-rule="evenodd" d="M0 53.9014L60 40.4261C120 26.9507 240 0 360 0C480 0 692.308 16.8442 812.308 40.4261C932.308 64.008 1052.31 84.221 1172.31 90.9587C1292.31 97.6964 1320 101.065 1380 97.6964L1440 94.3275V114.541H1380C1320 114.541 1200 114.541 1080 114.541C960 114.541 840 114.541 720 114.541C600 114.541 480 114.541 360 114.541C240 114.541 120 114.541 60 114.541H0V53.9014Z" fill="#55897C"/>
<path fill-rule="evenodd" clip-rule="evenodd" d="M0 89.931L120.839 87.1207C241.678 84.3103 480 78.6897 721.678 63.2328C960 47.7759 1201.68 23.8879 1319.16 12.6466L1440 0V163H1319.16C1201.68 163 960 163 721.678 163C480 163 241.678 163 120.839 163H0V89.931Z" fill="url(#paint0_linear_282_602)"/>
<defs>
<linearGradient id="paint0_linear_282_602" x1="0" y1="81.5" x2="0" y2="734.601" gradientUnits="userSpaceOnUse">
<stop stop-color="#A7C9A9"/>
<stop offset="0.114968" stop-color="#E5EBE5"/>
</linearGradient>
</defs>
</svg>
