<svg width="430" height="63" viewBox="0 0 430 63" fill="none" xmlns="http://www.w3.org/2000/svg">
<path fill-rule="evenodd" clip-rule="evenodd" d="M430 31.3807H412.083C394.167 31.3807 358.333 31.3807 322.5 31.3807C291.5 31.3807 280 31.3807 237.5 24.8718C201.667 17.717 143.333 2.76142 107.5 0.376483C71.6666 -2.00846 35.8333 7.53131 17.9166 12.3012L-2.07424e-05 17.0711V60H17.9166C35.8333 60 71.6666 60 107.5 60C143.333 60 179.167 60 215 60C250.833 60 286.667 60 322.5 60C358.333 60 394.167 60 412.083 60H430V31.3807Z" fill="#90A297"/>
<path fill-rule="evenodd" clip-rule="evenodd" d="M431 32.4706L413.083 26.3529C395.167 20.2353 359.333 8 323.5 8C287.667 8 224.269 15.6471 188.436 26.3529C152.603 37.0588 116.769 46.2353 80.9359 49.2941C45.1026 52.3529 36.8333 53.8824 18.9166 52.3529L1.00001 50.8235V60H18.9166C36.8333 60 72.6667 60 108.5 60C144.333 60 180.167 60 216 60C251.833 60 287.667 60 323.5 60C359.333 60 395.167 60 413.083 60H431V32.4706Z" fill="#B1C4B2"/>
</svg>
