<svg width="1440" height="175" viewBox="0 0 1440 175" fill="none" xmlns="http://www.w3.org/2000/svg">
<path fill-rule="evenodd" clip-rule="evenodd" d="M0 82.0706L60 61.5529C120 41.0353 240 0 360 0C480 0 692.308 25.6471 812.308 61.5529C932.308 97.4588 1052.31 128.235 1172.31 138.494C1292.31 148.753 1320 153.882 1380 148.753L1440 143.624V174.4H1380C1320 174.4 1200 174.4 1080 174.4C960 174.4 840 174.4 720 174.4C600 174.4 480 174.4 360 174.4C240 174.4 120 174.4 60 174.4H0V82.0706Z" fill="#90A297"/>
<path fill-rule="evenodd" clip-rule="evenodd" d="M0 88.9965L60 98.8046C120 107.959 240 126.921 360 126.921C480 126.921 600 107.959 720 79.8423C840 51.7258 960 13.8012 1080 18.3783C1200 23.6093 1320 70.6881 1380 94.2275L1440 117.767V174H1380C1320 174 1200 174 1080 174C960 174 840 174 720 174C600 174 480 174 360 174C240 174 120 174 60 174H0V88.9965Z" fill="#E5EBE5"/>
</svg>
