<svg width="430" height="48" viewBox="0 0 430 48" fill="none" xmlns="http://www.w3.org/2000/svg">
<path fill-rule="evenodd" clip-rule="evenodd" d="M0 21.7059L17.9167 16.5294C35.8333 11.3529 71.6667 1 107.5 1C143.333 1 206.731 7.47059 242.564 16.5294C278.397 25.5882 314.231 33.3529 350.064 35.9412C385.897 38.5294 394.167 39.8235 412.083 38.5294L430 37.2353V45H412.083C394.167 45 358.333 45 322.5 45C286.667 45 250.833 45 215 45C179.167 45 143.333 45 107.5 45C71.6667 45 35.8333 45 17.9167 45H0V21.7059Z" fill="#B1C4B2"/>
<path fill-rule="evenodd" clip-rule="evenodd" d="M430 22.5882L412.083 16.9412C394.167 11.2941 358.333 0 322.5 0C286.667 0 223.269 7.05882 187.436 16.9412C151.603 26.8235 115.769 35.2941 79.9359 38.1176C44.1026 40.9412 35.8333 42.3529 17.9166 40.9412L1.36379e-05 39.5294V48H17.9166C35.8333 48 71.6667 48 107.5 48C143.333 48 179.167 48 215 48C250.833 48 286.667 48 322.5 48C358.333 48 394.167 48 412.083 48H430V22.5882Z" fill="#E5EBE5"/>
</svg>
