<svg width="1447" height="176" viewBox="0 0 1447 176" fill="none" xmlns="http://www.w3.org/2000/svg">
<path fill-rule="evenodd" clip-rule="evenodd" d="M8.14648 82.0706L68.0965 61.5529C128.047 41.0353 247.947 0 367.847 0C487.747 0 699.877 25.6471 819.777 61.5529C939.677 97.4588 1059.58 128.235 1179.48 138.494C1299.38 148.753 1327.05 153.882 1387 148.753L1446.95 143.624V174.4H1387C1327.05 174.4 1207.15 174.4 1087.25 174.4C967.347 174.4 847.447 174.4 727.547 174.4C607.647 174.4 487.747 174.4 367.847 174.4C247.947 174.4 128.047 174.4 68.0965 174.4H8.14648V82.0706Z" fill="#90A297"/>
<path d="M1111.31 45.0105C1113.27 45.0088 1115.24 45.006 1117.2 45.003C1136.24 44.9776 1155.21 45.0811 1174.05 46.6061C1174.76 46.6627 1174.76 46.6627 1175.49 46.7206C1196.84 48.4156 1217.8 50.9292 1238.56 53.8621C1239.46 53.9883 1240.36 54.1145 1241.28 54.2445C1269.12 58.1823 1269.12 58.1823 1281.69 60.5105C1283.69 60.8793 1285.69 61.2395 1287.69 61.5996C1289.92 62.0014 1292.15 62.4052 1294.39 62.8088C1295.55 63.0195 1296.72 63.2298 1297.89 63.4395C1303.84 64.5079 1309.71 65.5893 1315.45 66.9117C1317.92 67.4619 1320.44 67.9562 1322.96 68.4455C1354.66 74.5933 1386.1 81.8365 1415.57 90.2416C1417.13 90.6835 1418.69 91.1188 1420.26 91.5498C1424.91 92.8327 1429.49 94.1673 1434.02 95.5501C1434.5 95.6977 1434.99 95.8453 1435.49 95.9974C1436.19 96.213 1436.19 96.213 1436.9 96.4328C1437.31 96.5576 1437.71 96.6824 1438.13 96.811C1438.88 97.0565 1438.88 97.0565 1439.65 97.307C1440.07 97.4191 1440.49 97.5312 1440.92 97.6467C1442.42 98.0901 1443.64 98.5162 1444.87 99.1325C1445.39 100.282 1445.55 101.059 1445.49 102.207C1445.5 102.515 1445.5 102.823 1445.51 103.14C1445.51 104.175 1445.49 105.209 1445.46 106.243C1445.46 106.997 1445.46 107.75 1445.46 108.503C1445.46 110.521 1445.43 112.539 1445.39 114.557C1445.36 116.45 1445.36 118.344 1445.36 120.237C1445.35 123.575 1445.32 126.912 1445.27 130.25C1445.2 135.678 1445.15 141.105 1445.1 146.533C1445.1 146.958 1445.1 147.383 1445.09 147.821C1445.08 149.984 1445.06 152.146 1445.04 154.309C1445.01 158.112 1444.97 161.914 1444.94 165.716C1444.92 167.555 1444.91 169.394 1444.89 171.233C1444.89 171.841 1444.88 172.45 1444.88 173.058C1444.87 173.693 1444.87 173.693 1444.87 174.34C1368.32 174.44 1291.78 174.537 959.109 174.883C955.466 174.886 951.822 174.89 948.179 174.893C895.457 174.941 842.735 174.988 781.939 175.041C780.325 175.043 778.71 175.044 777.095 175.046C776.018 175.047 774.942 175.048 773.865 175.048C748.668 175.071 723.471 175.093 698.274 175.115C697.745 175.116 697.216 175.116 696.671 175.117C652.518 175.156 608.364 175.196 564.211 175.235C563.689 175.236 563.167 175.236 562.629 175.237C562.107 175.237 561.585 175.238 561.047 175.238C560.525 175.239 560.003 175.239 559.466 175.24C558.412 175.241 557.359 175.242 556.306 175.242C548.969 175.249 541.633 175.256 534.296 175.262C483.279 175.308 432.262 175.354 102.914 175.689C102.08 175.69 101.246 175.691 100.386 175.691C66.924 175.727 33.462 175.764 0 175.8C0 140.982 0 106.164 0 70.2909C2.64997 70.5507 4.38156 70.7443 6.73208 71.2663C7.28315 71.3876 7.83423 71.5089 8.40201 71.6339C8.97804 71.763 9.55408 71.892 10.1476 72.025C10.7447 72.1569 11.3419 72.2888 11.9571 72.4247C15.177 73.1368 18.3875 73.859 21.5985 74.5806C28.2258 76.0667 28.2258 76.0667 35.1449 77.1631C38.1683 77.6205 40.7588 78.2295 43.5461 78.9488C49.3996 80.4187 55.354 81.6955 61.444 82.9091C61.9732 83.0153 62.5024 83.1215 63.0477 83.231C75.777 85.7837 88.6553 88.1412 101.557 90.4746C104.214 90.9551 106.867 91.4394 109.519 91.9263C122.426 94.2953 135.437 96.4829 148.533 98.5849C152.088 99.1566 155.633 99.741 159.173 100.333C172.033 102.477 184.965 104.388 198.065 106.148C199.999 106.409 201.932 106.673 203.864 106.937C220.157 109.159 236.497 111.238 253.026 112.994C254.843 113.187 256.658 113.382 258.474 113.577C261.696 113.923 264.921 114.262 268.147 114.599C269.696 114.762 271.244 114.927 272.791 115.093C286.38 116.551 299.937 117.655 313.737 118.505C315.208 118.598 316.68 118.69 318.151 118.783C332.839 119.71 347.551 120.511 362.292 121.203C363.686 121.269 365.08 121.334 366.473 121.4C367.13 121.431 367.786 121.461 368.461 121.493C372.984 121.711 377.458 122.009 381.953 122.339C385.952 122.609 389.958 122.744 393.987 122.863C394.885 122.891 395.784 122.919 396.71 122.948C420.426 123.61 444.013 122.783 467.673 122.009C473.208 121.828 478.745 121.665 484.285 121.515C510.767 120.778 537.019 118.906 563.07 116.489C566.091 116.219 569.122 115.99 572.156 115.758C580.517 115.113 588.636 114.207 596.825 113.162C600.504 112.697 604.195 112.313 607.924 111.956C614.741 111.291 621.364 110.336 628.03 109.378C633.816 108.552 639.615 107.824 645.488 107.164C654.94 106.087 664.08 104.657 673.278 103.148C674.955 102.875 676.633 102.602 678.311 102.329C684.081 101.391 689.85 100.45 695.613 99.5012C697.927 99.1205 700.242 98.7433 702.564 98.3751C707.789 97.5443 712.823 96.5643 717.871 95.5044C723.343 94.3714 728.794 93.2888 734.41 92.3399C739.391 91.4861 744.296 90.5271 749.216 89.5936C753.172 88.8432 757.13 88.0966 761.106 87.3713C767.242 86.25 773.181 85.1126 778.983 83.6136C782.362 82.8087 785.859 82.1692 789.383 81.5349C792.947 80.8821 796.389 80.1319 799.826 79.3338C806.358 77.8188 813.006 76.4486 819.673 75.0826C820.928 74.8244 822.184 74.5661 823.44 74.3078C831.859 72.5775 840.293 70.8665 848.756 69.1883C850.04 68.9299 851.32 68.6665 852.598 68.4C858.167 67.2404 863.8 66.2276 869.526 65.271C870.455 65.1149 871.384 64.9588 872.341 64.7979C885.141 62.6547 898.035 60.6511 910.957 58.6937C913.101 58.3637 915.227 58.0135 917.352 57.6555C926.88 56.0538 936.488 54.7181 946.235 53.4752C948.126 53.2264 950.006 52.9693 951.885 52.701C960.382 51.4944 968.904 50.5829 977.612 49.8234C978.321 49.7608 979.031 49.6982 979.762 49.6337C994.959 48.31 1010.19 47.6747 1025.57 47.1434C1031.3 46.9429 1036.98 46.6527 1042.69 46.3322C1065.52 45.1394 1088.36 45.0264 1111.31 45.0105Z" fill="#E5EBE5"/>
</svg>
