<svg width="1439" height="139" viewBox="0 0 1439 139" fill="none" xmlns="http://www.w3.org/2000/svg">
<path fill-rule="evenodd" clip-rule="evenodd" d="M1439 65.4118L1379.04 49.0588C1319.08 32.7059 1199.17 0 1079.25 0C959.333 0 747.173 20.4412 627.256 49.0588C507.34 77.6765 387.423 102.206 267.506 110.382C147.59 118.559 119.917 122.647 59.9583 118.559L0 114.471V139H59.9583C119.917 139 239.833 139 359.75 139C479.667 139 599.583 139 719.5 139C839.417 139 959.333 139 1079.25 139C1199.17 139 1319.08 139 1379.04 139H1439V65.4118Z" fill="#E5EBE5"/>
</svg>
