<svg width="430" height="39" viewBox="0 0 430 39" fill="none" xmlns="http://www.w3.org/2000/svg">
<path d="M330.353 0.00312816C330.939 0.00263694 331.525 0.00179767 332.112 0.000892869C337.787 -0.00667226 343.444 0.0241722 349.06 0.478872C349.273 0.495769 349.273 0.495769 349.491 0.513009C355.856 1.01842 362.104 1.76789 368.296 2.64237C368.563 2.67999 368.831 2.71762 369.106 2.75638C377.409 3.93051 377.409 3.93051 381.155 4.62469C381.75 4.73465 382.347 4.84204 382.944 4.94941C383.61 5.06923 384.275 5.18961 384.941 5.30996C385.289 5.3728 385.637 5.43548 385.985 5.49801C387.759 5.81658 389.51 6.139 391.22 6.5333C391.958 6.69736 392.708 6.84473 393.462 6.99062C402.914 8.82369 412.286 10.9834 421.074 13.4895C421.538 13.6212 422.003 13.751 422.471 13.8795C423.859 14.262 425.223 14.66 426.575 15.0723C426.719 15.1163 426.864 15.1603 427.013 15.2057C427.221 15.2699 427.221 15.2699 427.434 15.3355C427.555 15.3727 427.676 15.4099 427.801 15.4482C428.025 15.5214 428.025 15.5214 428.254 15.5961C428.379 15.6296 428.503 15.663 428.632 15.6974C429.08 15.8296 429.443 15.9567 429.809 16.1404C429.966 16.4833 430.014 16.7148 429.995 17.0572C429.997 17.149 429.998 17.2408 430 17.3354C430.002 17.6439 429.994 17.9522 429.985 18.2607C429.985 18.4853 429.985 18.7098 429.986 18.9344C429.986 19.5362 429.977 20.1378 429.966 20.7395C429.957 21.304 429.957 21.8685 429.956 22.433C429.952 23.4282 429.943 24.4234 429.93 25.4186C429.909 27.0369 429.894 28.6552 429.88 30.2735C429.879 30.4003 429.878 30.527 429.877 30.6575C429.871 31.3024 429.866 31.9473 429.86 32.5922C429.851 33.7259 429.841 34.8596 429.831 35.9933C429.826 36.5416 429.821 37.0899 429.817 37.6382C429.815 37.8197 429.813 38.0011 429.812 38.1825C429.81 38.3716 429.81 38.3716 429.809 38.5646C406.986 38.5946 384.164 38.6235 284.973 38.7266C283.887 38.7276 282.8 38.7286 281.714 38.7295C265.994 38.7438 250.274 38.7578 232.147 38.7738C231.666 38.7742 231.184 38.7746 230.703 38.7751C230.382 38.7753 230.061 38.7756 229.74 38.7759C222.227 38.7825 214.714 38.7892 207.201 38.7959C207.043 38.796 206.886 38.7962 206.723 38.7963C193.558 38.808 180.393 38.8198 167.228 38.8316C167.072 38.8318 166.917 38.8319 166.756 38.8321C166.601 38.8322 166.445 38.8323 166.285 38.8325C166.129 38.8326 165.973 38.8328 165.813 38.8329C165.499 38.8332 165.185 38.8335 164.871 38.8338C162.683 38.8357 160.496 38.8377 158.309 38.8397C143.097 38.8533 127.885 38.867 29.6855 38.9668C29.4367 38.9671 29.1879 38.9674 28.9316 38.9676C18.9544 38.9783 8.9772 38.9892 -1 39C-1 28.6185 -1 18.237 -1 7.54085C-0.20987 7.61832 0.306429 7.67604 1.00727 7.8317C1.17158 7.86787 1.33589 7.90404 1.50519 7.9413C1.67694 7.97978 1.84869 8.01827 2.02565 8.05791C2.2037 8.09724 2.38176 8.13656 2.5652 8.17708C3.52525 8.38942 4.4825 8.60474 5.43992 8.8199C7.41596 9.26302 7.41596 9.26302 9.47897 9.58991C10.3805 9.72629 11.1529 9.90789 11.9839 10.1223C13.7292 10.5606 15.5046 10.9413 17.3205 11.3032C17.4783 11.3348 17.636 11.3665 17.7986 11.3991C21.594 12.1603 25.4339 12.8632 29.2808 13.5589C30.0729 13.7022 30.864 13.8466 31.6546 13.9918C35.5032 14.6981 39.3825 15.3504 43.2875 15.9771C44.3473 16.1476 45.4042 16.3218 46.4598 16.4985C50.2942 17.1375 54.1502 17.7075 58.0559 18.2323C58.6327 18.3101 59.209 18.3887 59.7852 18.4673C64.6431 19.13 69.5152 19.7499 74.4436 20.2735C74.9852 20.331 75.5265 20.3892 76.0678 20.4474C77.0286 20.5505 77.9903 20.6516 78.9522 20.752C79.4139 20.8006 79.8754 20.8497 80.3367 20.8992C84.3885 21.3341 88.4307 21.663 92.5454 21.9165C92.9842 21.9442 93.4229 21.9719 93.8616 21.9997C98.241 22.276 102.627 22.5147 107.023 22.7211C107.438 22.7406 107.854 22.7602 108.27 22.7797C108.465 22.7889 108.661 22.7981 108.862 22.8076C110.211 22.8725 111.545 22.9614 112.885 23.0599C114.077 23.1402 115.272 23.1805 116.473 23.216C116.741 23.2244 117.009 23.2327 117.285 23.2414C124.356 23.4387 131.389 23.1921 138.444 22.9614C140.094 22.9075 141.745 22.8587 143.397 22.8142C151.293 22.5942 159.12 22.0362 166.888 21.3155C167.789 21.2352 168.692 21.1666 169.597 21.0974C172.09 20.9054 174.511 20.6351 176.952 20.3237C178.049 20.1847 179.15 20.0704 180.262 19.9639C182.294 19.7657 184.269 19.4809 186.257 19.1952C187.982 18.949 189.711 18.7319 191.462 18.5352C194.28 18.214 197.006 17.7877 199.748 17.3378C200.248 17.2563 200.748 17.1749 201.249 17.0936C202.969 16.8138 204.689 16.5332 206.408 16.2503C207.097 16.1368 207.788 16.0244 208.48 15.9146C210.038 15.6669 211.539 15.3747 213.044 15.0587C214.676 14.7208 216.301 14.398 217.976 14.1151C219.461 13.8605 220.923 13.5746 222.39 13.2963C223.57 13.0725 224.75 12.8499 225.935 12.6337C227.765 12.2993 229.536 11.9602 231.266 11.5132C232.273 11.2732 233.316 11.0825 234.367 10.8934C235.429 10.6988 236.455 10.4751 237.48 10.2371C239.428 9.78542 241.41 9.37687 243.398 8.96958C243.772 8.89258 244.147 8.81557 244.521 8.73855C247.031 8.22266 249.546 7.71248 252.069 7.21211C252.452 7.13507 252.834 7.05653 253.215 6.97707C254.876 6.63132 256.555 6.32933 258.262 6.04409C258.539 5.99755 258.816 5.95101 259.102 5.90305C262.918 5.26402 266.763 4.66661 270.616 4.083C271.255 3.9846 271.889 3.88017 272.522 3.77344C275.363 3.29586 278.228 2.8976 281.134 2.527C281.698 2.45284 282.259 2.37616 282.819 2.29616C285.352 1.9364 287.893 1.66463 290.49 1.43816C290.701 1.41949 290.913 1.40083 291.131 1.38159C295.662 0.986929 300.203 0.797516 304.79 0.639087C306.497 0.579295 308.192 0.492763 309.893 0.39723C316.702 0.041564 323.512 0.00788062 330.353 0.00312816Z" fill="#E5EBE5"/>
</svg>
