<svg width="1443" height="211" viewBox="0 0 1443 211" fill="none" xmlns="http://www.w3.org/2000/svg">
<path fill-rule="evenodd" clip-rule="evenodd" d="M1440 85.774H1380.12C1320.25 85.774 1200.5 85.774 1080.75 85.774C977.152 85.774 938.721 85.774 796.692 67.9829C676.942 48.4264 482 7.54789 362.25 1.02905C242.5 -5.48978 122.75 20.5856 62.875 33.6232L3 46.6609V164H62.875C122.75 164 242.5 164 362.25 164C482 164 601.75 164 721.5 164C841.25 164 961 164 1080.75 164C1200.5 164 1320.25 164 1380.12 164H1440V85.774Z" fill="#90A297"/>
<path fill-rule="evenodd" clip-rule="evenodd" d="M1436 104L1376.17 88C1316.33 72 1196.67 40 1077 40C957.333 40 745.615 60 625.949 88C506.282 116 386.615 140 266.949 148C147.282 156 119.667 160 59.8333 156L0 152V176H59.8333C119.667 176 239.333 176 359 176C478.667 176 598.333 176 718 176C837.667 176 957.333 176 1077 176C1196.67 176 1316.33 176 1376.17 176H1436V104Z" fill="#D3DED4"/>
</svg>
