<svg width="1440" height="177" viewBox="0 0 1440 177" fill="none" xmlns="http://www.w3.org/2000/svg">
<path fill-rule="evenodd" clip-rule="evenodd" d="M0 82.0706L60 61.5529C120 41.0353 240 0 360 0C480 0 692.308 25.6471 812.308 61.5529C932.308 97.4588 1052.31 128.235 1172.31 138.494C1292.31 148.753 1320 153.882 1380 148.753L1440 143.624V174.4H1380C1320 174.4 1200 174.4 1080 174.4C960 174.4 840 174.4 720 174.4C600 174.4 480 174.4 360 174.4C240 174.4 120 174.4 60 174.4H0V82.0706Z" fill="#90A297"/>
<path fill-rule="evenodd" clip-rule="evenodd" d="M0 91.9965L60 101.805C120 110.959 240 129.921 360 129.921C480 129.921 600 110.959 720 82.8423C840 54.7258 960 16.8012 1080 21.3783C1200 26.6093 1320 73.6881 1380 97.2275L1440 120.767V177H1380C1320 177 1200 177 1080 177C960 177 840 177 720 177C600 177 480 177 360 177C240 177 120 177 60 177H0V91.9965Z" fill="#E5EBE5"/>
</svg>
