<svg width="17" height="17" viewBox="0 0 17 17" fill="none" xmlns="http://www.w3.org/2000/svg">
<path d="M8.43411 0.939944C6.85581 0.939944 5.31296 1.40796 4.00066 2.28482C2.68835 3.16167 1.66553 4.40798 1.06155 5.86613C0.457559 7.32429 0.299528 8.9288 0.607439 10.4768C0.915349 12.0247 1.67537 13.4466 2.79139 14.5627C3.90742 15.6787 5.32932 16.4387 6.87729 16.7466C8.42526 17.0545 10.0298 16.8965 11.4879 16.2925C12.9461 15.6885 14.1924 14.6657 15.0692 13.3534C15.9461 12.0411 16.4141 10.4982 16.4141 8.91995C16.415 7.87176 16.2092 6.83368 15.8084 5.86511C15.4077 4.89654 14.8199 4.01649 14.0788 3.27531C13.3376 2.53412 12.4575 1.94635 11.4889 1.54563C10.5204 1.1449 9.4823 0.93908 8.43411 0.939944ZM8.43411 15.0223C7.22718 15.0223 6.04735 14.6644 5.04382 13.9939C4.0403 13.3233 3.25814 12.3703 2.79627 11.2552C2.33439 10.1402 2.21355 8.91318 2.44901 7.72944C2.68447 6.5457 3.26566 5.45836 4.11909 4.60493C4.97252 3.7515 6.05986 3.17031 7.2436 2.93485C8.42734 2.69939 9.65432 2.82023 10.7694 3.28211C11.8844 3.74398 12.8375 4.52613 13.508 5.52966C14.1786 6.53319 14.5365 7.71302 14.5365 8.91995C14.5381 9.72177 14.3813 10.516 14.0752 11.2571C13.7691 11.9982 13.3197 12.6716 12.7527 13.2386C12.1857 13.8055 11.5124 14.255 10.7713 14.5611C10.0302 14.8672 9.23593 15.0239 8.43411 15.0223ZM10.7812 6.43207L8.05858 9.71795L6.18093 8.35665C5.75846 8.02807 5.19517 8.12195 4.86658 8.54442C4.53799 8.96689 4.63187 9.53018 5.05434 9.85877C5.61764 10.2812 6.22787 10.7037 6.79117 11.1262C7.21364 11.4078 7.58917 11.8303 8.10552 11.8772C8.24635 11.8772 8.43411 11.8772 8.57493 11.7834L8.85658 11.5017L10.9689 8.96689C11.3445 8.49748 11.72 8.07501 12.0955 7.6056C12.3772 7.23007 12.4711 6.76065 12.1425 6.38512L12.0016 6.2443C11.6731 6.00959 11.1098 6.05654 10.7812 6.43207Z" fill="#4A5759"/>
</svg>
