<svg width="36" height="36" viewBox="0 0 36 36" fill="none" xmlns="http://www.w3.org/2000/svg">
<path d="M18 36C27.9411 36 36 27.9411 36 18C36 8.05887 27.9411 0 18 0C8.05887 0 0 8.05887 0 18C0 27.9411 8.05887 36 18 36Z" fill="#90A297"/>
<path d="M17.9997 31.4438L3.26221 17.2125H32.7372L17.9997 31.4438Z" fill="#607072"/>
<path d="M28.0122 9.5625H7.98721L3.26221 17.2125H32.7372L28.0122 9.5625Z" fill="#A6C7B9"/>
<path d="M18 31.4438L12.6562 17.2125H23.3438L18 31.4438Z" fill="#E5EBE5"/>
<path d="M13.6128 15.3L9.39404 9.5625H18.0003L13.6128 15.3Z" fill="#E5EBE5"/>
<path d="M22.1625 15.3L18 9.5625H26.6062L22.1625 15.3Z" fill="#E5EBE5"/>
<g opacity="0.2">
<path d="M19.4065 9.5625L7.59404 21.4312L6.58154 20.475L17.494 9.5625H19.4065Z" fill="white"/>
<path d="M26.0435 9.5625L10.9685 24.6375L8.60596 22.3875L21.3747 9.5625H26.0435Z" fill="white"/>
</g>
</svg>
