<svg width="39" height="39" viewBox="0 0 39 39" fill="none" xmlns="http://www.w3.org/2000/svg">
<circle cx="19.5" cy="19.5" r="19.5" fill="#90A297"/>
<path d="M20.7962 17.9948V20.4382C20.7962 21.1292 21.3639 21.6968 22.0549 21.6968C22.746 21.6968 23.3136 21.1292 23.3136 20.4382V14.1694C23.3136 12.9848 24.2514 11.9482 25.4361 11.9235C26.6454 11.8989 27.6573 12.8861 27.6573 14.0954V23.153C27.6573 23.844 28.2249 24.4116 28.916 24.4116C29.607 24.4116 30.1746 23.844 30.1746 23.153V20.7096C30.1746 19.7471 30.9397 18.982 31.9022 18.982C32.8648 18.982 33.6299 19.7471 33.6299 20.7096V23.3257C33.6299 25.3248 32.001 26.9537 30.0019 26.9537H27.6573V31.6676H23.3383V24.2389H20.9937C18.9946 24.2389 17.3657 22.61 17.3657 20.6109V17.9948C17.3657 17.0323 18.1308 16.2672 19.0933 16.2672C20.0312 16.2672 20.7962 17.0323 20.7962 17.9948Z" fill="#647471"/>
<path d="M24.5228 13.0341V16.3659C24.5228 17.3285 23.7577 18.0935 22.7952 18.0935C21.8327 18.0935 21.0676 17.3285 21.0676 16.3659V9.06066C21.0676 7.43178 19.7842 6.02502 18.1554 6.00034C16.5018 5.97566 15.1444 7.30838 15.1444 8.96194V20.0679C15.1444 21.0305 14.3793 21.7955 13.4168 21.7955C12.4543 21.7955 11.6892 21.0305 11.6892 20.0679V16.7361C11.6892 15.4528 10.628 14.3915 9.3446 14.3915C8.06124 14.3915 7 15.4528 7 16.7361V20.3147C7 23.0295 9.2212 25.2507 11.936 25.2507H15.1444V31.6675H21.0676V21.5487H24.276C26.9908 21.5487 29.212 19.3275 29.212 16.6127V13.0341C29.212 11.7508 28.1508 10.6895 26.8674 10.6895C25.584 10.6895 24.5228 11.7508 24.5228 13.0341Z" fill="#E5EBE5"/>
<path d="M27.2377 14.6382V16.6126C27.2377 17.97 26.1271 19.0806 24.7697 19.0806H21.0677V11.6766C21.0677 10.9856 20.5247 10.4426 19.8337 10.4426C19.1426 10.4426 18.5997 10.9856 18.5997 11.6766V28.8292C18.5997 29.2982 18.2048 29.693 17.7359 29.693C17.267 29.693 16.8721 30.0879 16.8721 30.5568V30.8036C16.8721 31.2726 17.267 31.6674 17.7359 31.6674H21.0677V21.5486H26.2505C27.8794 21.5486 29.2121 20.2159 29.2121 18.587V14.6382C29.2121 14.0953 28.7678 13.651 28.2249 13.651C27.6819 13.651 27.2377 14.0953 27.2377 14.6382Z" fill="#90A29F"/>
<path d="M13.4168 21.7955C12.4543 21.7955 11.6892 21.0304 11.6892 20.0679V16.7361C11.6892 15.4527 10.628 14.3915 9.3446 14.3915C8.06124 14.3915 7 15.4527 7 16.7361V20.3147C7 23.0295 9.2212 25.2507 11.936 25.2507H15.1444V31.6675H21.0676V21.5487H24.276C26.9908 21.5487 29.212 19.3275 29.212 16.6127V12.96C29.212 11.7013 28.2001 10.6895 26.9415 10.6895H26.8921C25.584 10.6895 24.5475 11.726 24.5475 13.0341C24.5475 14.12 24.5475 15.3787 24.5475 16.3659C24.5475 17.3284 23.7824 18.0935 22.8199 18.0935" stroke="#444B54" stroke-width="1.21502" stroke-miterlimit="10" stroke-linecap="round" stroke-linejoin="round"/>
<path d="M21.0677 16.3659V9.06066C21.0677 7.43178 19.7844 6.02502 18.1555 6.00034C16.5019 5.97566 15.1445 7.30838 15.1445 8.96194V20.0679" stroke="#444B54" stroke-width="1.21502" stroke-miterlimit="10" stroke-linecap="round" stroke-linejoin="round"/>
<path d="M10.2085 31.6675H27.4845" stroke="#444B54" stroke-width="1.21502" stroke-miterlimit="10" stroke-linecap="round" stroke-linejoin="round"/>
<path d="M31.3097 32.408C31.7186 32.408 32.0501 32.0766 32.0501 31.6676C32.0501 31.2587 31.7186 30.9272 31.3097 30.9272C30.9008 30.9272 30.5693 31.2587 30.5693 31.6676C30.5693 32.0766 30.9008 32.408 31.3097 32.408Z" fill="#444B54"/>
<path d="M7.617 15.1319L7 14.5149" stroke="#444B54" stroke-width="1.21502" stroke-miterlimit="10" stroke-linecap="round" stroke-linejoin="round"/>
<path d="M29.2119 14.6384H30.1991" stroke="#444B54" stroke-width="1.21502" stroke-miterlimit="10" stroke-linecap="round" stroke-linejoin="round"/>
<path d="M21.8825 25.5715H21.1421" stroke="#444B54" stroke-width="1.21502" stroke-miterlimit="10" stroke-linecap="round" stroke-linejoin="round"/>
<path d="M20.5 6.86431L21.117 6.24731" stroke="#444B54" stroke-width="1.21502" stroke-miterlimit="10" stroke-linecap="round" stroke-linejoin="round"/>
</svg>
