<svg width="46" height="37" viewBox="0 0 46 37" fill="none" xmlns="http://www.w3.org/2000/svg">
<path d="M0.260742 17.5933C0.357168 17.3732 0.311871 17.1342 0.328688 16.9074C0.415484 15.7656 0.641427 14.6527 0.941825 13.5505C1.27667 12.3211 1.75446 11.1491 2.34237 10.0222C2.91075 8.93386 3.58736 7.91644 4.36487 6.96601C5.58205 5.47989 6.9948 4.20941 8.60882 3.16853C9.75792 2.42764 10.9796 1.82779 12.2674 1.3561C13.5169 0.898116 14.8027 0.60477 16.1129 0.412189C16.596 0.340582 17.0894 0.325394 17.5795 0.295964C18.0055 0.270603 18.4309 0.249718 18.8562 0.267484C19.8125 0.307763 20.7641 0.381133 21.7108 0.551064C22.9628 0.776736 24.1736 1.1246 25.3522 1.59805C26.9597 2.24509 28.439 3.11428 29.7978 4.19028C30.4836 4.73358 31.1374 5.31362 31.7343 5.95199C32.3497 6.60974 32.9218 7.30574 33.4427 8.04202C33.5249 8.15757 33.5079 8.2148 33.3933 8.28153C32.4775 8.80787 31.5634 9.33407 30.6533 9.86936C30.5044 9.95711 30.4511 9.85675 30.3903 9.77334C29.8984 9.09348 29.3551 8.45837 28.7473 7.88213C27.8025 6.98663 26.7665 6.21536 25.6265 5.58052C24.4723 4.93809 23.2511 4.47197 21.9725 4.15435C21.2346 3.97126 20.486 3.85083 19.726 3.7955C19.2288 3.75929 18.7328 3.70233 18.2348 3.72335C16.3192 3.80404 14.4637 4.16153 12.6937 4.9286C11.303 5.53062 10.0301 6.31599 8.88534 7.30235C7.56726 8.43722 6.47172 9.76195 5.6165 11.2772C4.75857 12.7962 4.19412 14.4261 3.90919 16.1446C3.74997 17.1136 3.6671 18.0962 3.72149 19.08C3.82117 20.8977 4.19412 22.6533 4.91535 24.3346C5.43721 25.5492 6.1008 26.6777 6.92388 27.7049C8.11692 29.195 9.53808 30.4337 11.2065 31.378C12.4257 32.0677 13.714 32.5826 15.0763 32.906C15.7883 33.0746 16.5084 33.193 17.2386 33.248C17.7217 33.2837 18.2034 33.3412 18.6875 33.3203C20.1676 33.2594 21.6215 33.053 23.0377 32.5888C24.4419 32.1278 25.7461 31.4758 26.9571 30.6342C27.4742 30.2734 27.9562 29.8693 28.4287 29.4511C29.3643 28.6235 30.1494 27.6695 30.8372 26.6337C31.4677 25.6847 31.9764 24.672 32.3657 23.5986C32.6592 22.784 32.8848 21.9553 33.0375 21.1038C33.1202 20.6434 33.1544 20.1776 33.2136 19.7152C33.2629 19.3279 33.2446 18.9395 33.2669 18.5534C33.2936 18.0746 33.242 17.589 33.1993 17.1085C33.1267 16.3005 32.9764 15.505 32.7684 14.7208C32.5901 14.0465 32.3618 13.3909 32.0898 12.7503C32.0314 12.6134 32.0491 12.547 32.1828 12.4714C33.0868 11.9566 33.9867 11.4347 34.8845 10.9085C35.0117 10.8344 35.054 10.8563 35.1133 10.9871C35.6894 12.2523 36.1116 13.566 36.3797 14.9288C36.5775 15.9275 36.6802 16.9334 36.7193 17.9528C36.7454 18.6752 36.7201 19.3931 36.6687 20.1069C36.5889 21.1838 36.3943 22.2482 36.1084 23.2933C35.7466 24.6222 35.2523 25.8984 34.6014 27.1104C33.9997 28.2298 33.3008 29.2837 32.4722 30.2517C32.0371 30.76 31.5969 31.2611 31.1104 31.7201C30.1642 32.612 29.1452 33.4085 28.0336 34.089C26.8788 34.7968 25.6648 35.3702 24.3828 35.8065C23.1889 36.2119 21.9671 36.4915 20.716 36.6418C20.4104 36.6787 20.1067 36.7339 19.8017 36.7803C19.1244 36.7803 18.446 36.7803 17.7687 36.7803C17.7235 36.7267 17.6613 36.7417 17.6043 36.7417C17.017 36.7378 16.4323 36.6883 15.8558 36.5954C14.634 36.4002 13.4362 36.1135 12.2696 35.6889C10.9799 35.2186 9.76009 34.617 8.61031 33.8761C6.9963 32.8356 5.58355 31.5647 4.3665 30.0782C3.58831 29.1286 2.9117 28.1101 2.34332 27.0225C1.75554 25.8951 1.27762 24.7228 0.942774 23.494C0.642512 22.3913 0.41657 21.2793 0.329637 20.1365C0.312821 19.9098 0.358117 19.6714 0.261691 19.4506C0.260742 18.8315 0.260742 18.2123 0.260742 17.5933Z" fill="#4A5759"/>
<path d="M45.5308 5.61285C45.0151 5.90593 44.4976 6.19548 43.9841 6.49167C42.9363 7.09572 41.8911 7.70248 40.8448 8.3083C40.6544 8.41842 40.4447 8.50454 40.2775 8.64246C39.9048 8.95059 39.5175 8.9335 39.09 8.78419C38.7321 8.65928 38.3574 8.58279 37.9949 8.47023C37.8516 8.42629 37.7435 8.46439 37.6259 8.53275C35.9891 9.47897 34.3511 10.4225 32.7143 11.3688C30.8122 12.4701 28.9119 13.5755 27.0079 14.6759C25.7777 15.3871 24.5437 16.0902 23.3123 16.8007C22.0435 17.5336 20.7745 18.2664 19.512 19.0098C19.0433 19.2862 18.5727 19.2284 18.2961 18.8595C18.0119 18.4815 18.0882 17.9355 18.4917 17.6857C19.0709 17.3281 19.666 16.9964 20.2558 16.6554C21.677 15.8338 23.0987 15.0144 24.5193 14.1923C25.6484 13.5387 26.7733 12.8794 27.9036 12.2273C29.2805 11.433 30.6621 10.6464 32.039 9.85124C33.6383 8.92726 35.2342 7.99637 36.8347 7.0747C36.9576 7.0035 37.0079 6.91087 37.0404 6.78637C37.1838 6.24999 37.3355 5.71552 37.4702 5.17656C37.4979 5.06671 37.555 5.01626 37.6401 4.96744C38.8409 4.27673 40.0406 3.58493 41.2412 2.89273C41.9184 2.50268 42.5945 2.11088 43.307 1.69995C43.2266 2.18764 43.1563 2.63735 43.0781 3.08531C42.9864 3.6027 42.889 4.11859 42.7957 4.6353C42.7721 4.7598 42.7846 4.85094 42.9425 4.89176C43.8061 5.1116 44.6686 5.34202 45.5306 5.56823C45.5308 5.58342 45.5308 5.59821 45.5308 5.61285Z" fill="#364042"/>
<path d="M7.43086 18.6838C7.41676 16.6494 7.86213 14.8989 8.7419 13.2623C9.46245 11.9218 10.4264 10.7819 11.6198 9.83244C12.9807 8.75006 14.511 8.03683 16.2075 7.67391C17.143 7.4732 18.094 7.38192 19.0482 7.44187C21.471 7.5943 23.6424 8.41603 25.5305 9.9545C26.14 10.4518 26.6862 11.0144 27.1736 11.6332C27.2783 11.766 27.2745 11.8294 27.1124 11.9214C26.0915 12.4979 25.0772 13.0855 24.0658 13.6782C23.9386 13.7524 23.8818 13.7487 23.7777 13.6374C22.6157 12.3957 21.1899 11.6278 19.5105 11.3834C18.1424 11.184 16.8082 11.3698 15.5443 11.958C13.5651 12.879 12.2559 14.3898 11.5949 16.4649C11.3283 17.2999 11.2518 18.1638 11.3147 19.0304C11.4253 20.5476 11.9562 21.9096 12.9351 23.0826C14.1659 24.5614 15.7346 25.4446 17.6504 25.6726C19.5881 25.903 21.3445 25.4097 22.8856 24.2198C24.3816 23.0646 25.2796 21.5367 25.5963 19.6683C25.7744 18.6178 25.7102 17.5842 25.4157 16.5631C25.386 16.4599 25.3814 16.408 25.4977 16.3421C26.5473 15.7432 27.5914 15.1337 28.6347 14.5234C28.7531 14.4541 28.7979 14.4626 28.8502 14.602C29.1443 15.3707 29.3424 16.1603 29.4535 16.9758C29.5427 17.6313 29.5975 18.2881 29.5648 18.9481C29.499 20.3101 29.2203 21.6272 28.6792 22.8843C28.226 23.9361 27.6293 24.8982 26.8863 25.7668C26.196 26.575 25.3928 27.2546 24.5013 27.8331C23.3442 28.5843 22.0912 29.1062 20.743 29.3792C19.9115 29.5488 19.066 29.6408 18.2128 29.6073C17.162 29.567 16.1333 29.4039 15.1297 29.0853C13.9165 28.7007 12.8029 28.1244 11.7943 27.3502C10.5932 26.4296 9.61556 25.3132 8.86342 23.9941C8.15697 22.7547 7.72258 21.4301 7.51671 20.0264C7.44375 19.5253 7.40754 19.0205 7.43086 18.6838Z" fill="#90A29F"/>
<path d="M18.3739 14.8457C19.1871 14.819 19.8707 15.0488 20.4969 15.4673C20.7213 15.6171 20.7124 15.6239 20.4883 15.7525C19.7153 16.1985 18.9301 16.6275 18.1795 17.1102C17.4442 17.5832 17.2952 18.4898 17.7795 19.2127C18.2308 19.8862 19.1184 20.0557 19.8448 19.6217C20.5116 19.2234 21.1896 18.8449 21.8584 18.4497C22.0324 18.3465 22.0663 18.3941 22.0577 18.5736C22.0164 19.4963 21.6926 20.2967 21.0518 20.9679C20.3032 21.7488 19.3775 22.1243 18.3105 22.0904C16.4835 22.0322 15.0352 20.6311 14.8376 18.9252C14.7568 18.219 14.8448 17.5463 15.1406 16.9139C15.5421 16.0587 16.1881 15.4373 17.075 15.0881C17.5075 14.9177 17.9556 14.8099 18.3739 14.8457Z" fill="#4A5759"/>
</svg>
