<svg width="41" height="44" viewBox="0 0 41 44" fill="none" xmlns="http://www.w3.org/2000/svg">
<circle cx="21.5" cy="19.5" r="19.5" fill="#90A297"/>
<path d="M10.092 17.5595L34.3708 3.54207L38.0884 9.98105L13.8095 23.9985C13.5131 24.1696 13.161 24.2161 12.8304 24.1278C12.4997 24.0396 12.2176 23.8238 12.046 23.5277L9.61909 19.3243C9.44778 19.0275 9.40135 18.6749 9.49003 18.3439C9.57871 18.013 9.79523 17.7308 10.092 17.5595Z" fill="#E5EBE5"/>
<path d="M14.7663 21.4419C14.6195 21.5269 14.4574 21.5822 14.2893 21.6045C14.1211 21.6268 13.9503 21.6157 13.7864 21.5718C13.6225 21.528 13.469 21.4523 13.3344 21.349C13.1999 21.2457 13.0871 21.1168 13.0024 20.9699L10.7981 17.1526L10.0926 17.5589C9.94561 17.6435 9.81678 17.7564 9.71349 17.8909C9.61019 18.0254 9.53445 18.179 9.4906 18.3429C9.44676 18.5067 9.43567 18.6776 9.45798 18.8458C9.48028 19.0139 9.53554 19.176 9.62059 19.3228L12.0462 23.5245C12.2173 23.8212 12.4992 24.0379 12.83 24.1269C13.1607 24.2158 13.5133 24.1698 13.8101 23.9989L38.0885 9.98025L37.2224 8.47668L14.7663 21.4419Z" fill="#90A29F"/>
<path d="M1.36112 22.6L0.240197 23.2472C0.10754 23.3238 0.0620885 23.4934 0.138678 23.6261L3.57899 29.5848C3.65558 29.7175 3.8252 29.763 3.95786 29.6864L5.07878 29.0392C5.21144 28.9626 5.25689 28.793 5.1803 28.6603L1.73999 22.7015C1.6634 22.5689 1.49377 22.5234 1.36112 22.6Z" fill="#607072"/>
<path d="M5.17804 28.6603L1.73786 22.7045C1.71994 22.6725 1.69582 22.6445 1.66693 22.622C1.63803 22.5995 1.60493 22.5831 1.56958 22.5735C1.53423 22.564 1.49733 22.5617 1.46105 22.5666C1.42477 22.5715 1.38984 22.5837 1.35832 22.6023L1.0542 22.7775L4.12458 28.0959C4.14287 28.1275 4.15473 28.1624 4.15949 28.1986C4.16425 28.2348 4.16182 28.2716 4.15232 28.3069C4.14283 28.3421 4.12646 28.3752 4.10417 28.4041C4.08187 28.433 4.05408 28.4573 4.02239 28.4754L3.20736 28.945L3.57716 29.5848C3.61429 29.6483 3.67494 29.6947 3.74597 29.7138C3.817 29.7329 3.89271 29.7233 3.9567 29.687L5.07586 29.0399C5.10779 29.0219 5.13582 28.9978 5.1583 28.9689C5.18078 28.94 5.19726 28.9069 5.20678 28.8716C5.2163 28.8362 5.21866 28.7993 5.21373 28.763C5.20879 28.7268 5.19666 28.6918 5.17804 28.6603Z" fill="#90A29F"/>
<path d="M9.68942 19.4422L2.31494 23.6998L4.60483 27.666L11.9793 23.4084L9.68942 19.4422Z" fill="#4A5759"/>
<path d="M3.01514 23.2955L4.05157 25.0935C4.18078 25.3159 4.39279 25.4781 4.64125 25.5447C4.88972 25.6113 5.15444 25.5767 5.37753 25.4487L9.40649 23.1228C9.62941 22.9941 9.79206 22.782 9.85867 22.5334C9.92528 22.2847 9.8904 22.0198 9.7617 21.7968L8.72283 19.9989L3.01514 23.2955Z" fill="#617072"/>
<path d="M35.3137 1.27622L34.1043 1.97447C33.8401 2.12698 33.7496 2.46475 33.9021 2.7289L38.5578 10.7928C38.7103 11.0569 39.0481 11.1474 39.3122 10.9949L40.5216 10.2967C40.7858 10.1442 40.8763 9.8064 40.7238 9.54225L36.0681 1.47836C35.9156 1.21421 35.5778 1.12371 35.3137 1.27622Z" fill="#607072"/>
<path d="M40.723 9.54207L39.6647 7.71006L38.5674 8.34262C38.5045 8.37924 38.435 8.40307 38.3629 8.41274C38.2908 8.4224 38.2174 8.41772 38.1471 8.39896C38.0768 8.38019 38.0109 8.34771 37.9532 8.30339C37.8954 8.25907 37.8471 8.20377 37.8108 8.14069L34.2149 1.90991L34.1054 1.9756C34.0424 2.01165 33.9872 2.05981 33.9429 2.11732C33.8986 2.17482 33.8661 2.24053 33.8473 2.31064C33.8285 2.38076 33.8238 2.4539 33.8335 2.52584C33.8431 2.59779 33.8669 2.66711 33.9035 2.72982L38.5577 10.7926C38.5937 10.8556 38.6419 10.9108 38.6994 10.9551C38.7569 10.9994 38.8226 11.0319 38.8927 11.0507C38.9628 11.0694 39.036 11.0742 39.1079 11.0645C39.1799 11.0549 39.2492 11.0311 39.3119 10.9945L40.5211 10.2963C40.5841 10.2602 40.6393 10.2121 40.6836 10.1546C40.7279 10.0971 40.7604 10.0314 40.7792 9.96124C40.7979 9.89112 40.8026 9.81798 40.793 9.74604C40.7834 9.67409 40.7596 9.60477 40.723 9.54207Z" fill="#4A5759"/>
<path d="M34.4876 12.0605L30.77 5.62292L29.9258 6.10951L33.6433 12.5471L34.4876 12.0605Z" fill="#4A5759"/>
<path d="M22.3714 17.8337H20.5005V43.3342H22.3714V17.8337Z" fill="#607072"/>
<path d="M13.4886 43.3359H11.6152L18.6562 17.8337H20.5271L13.4886 43.3359Z" fill="#607072"/>
<path d="M29.3832 43.3359H31.2542L24.2157 17.8337H22.3447L29.3832 43.3359Z" fill="#607072"/>
<path d="M22.3447 17.8337H20.5273L20.5005 17.9335V22.6948C21.1187 22.8116 21.7532 22.8116 22.3714 22.6948V17.9335L22.3447 17.8337Z" fill="#4A5759"/>
<path d="M20.5007 17.8337H18.6565L17.7466 21.1279C18.1816 21.6151 18.7082 22.0119 19.2964 22.2958L20.5007 17.9335V17.8337Z" fill="#4A5759"/>
<path d="M20.5005 17.9335L20.5273 17.8337H20.5005V17.9335Z" fill="#7C79AB"/>
<path d="M22.3716 17.8337V17.9335L23.5759 22.2958C24.1641 22.0119 24.6907 21.6151 25.1257 21.1279L24.2158 17.8337H22.3716Z" fill="#4A5759"/>
<path d="M22.3447 17.8337L22.3715 17.9335V17.8337H22.3447Z" fill="#7C79AB"/>
<path d="M21.4346 21.6143C23.5227 21.6143 25.2154 19.9216 25.2154 17.8335C25.2154 15.7455 23.5227 14.0527 21.4346 14.0527C19.3465 14.0527 17.6538 15.7455 17.6538 17.8335C17.6538 19.9216 19.3465 21.6143 21.4346 21.6143Z" fill="#607072"/>
<path d="M21.4346 14.0554C20.9102 14.0548 20.3914 14.1636 19.9113 14.3747C19.4313 14.5858 19.0005 14.8947 18.6465 15.2816C19.4266 14.8206 20.3463 14.6551 21.2382 14.8153C22.1301 14.9754 22.9348 15.4506 23.5058 16.1542C24.0768 16.8578 24.3761 17.7431 24.3491 18.6489C24.3222 19.5546 23.9709 20.4206 23.3591 21.0891C23.9252 20.7551 24.3943 20.2791 24.7199 19.7081C25.0455 19.1372 25.2163 18.4911 25.2154 17.8338C25.2154 15.7463 23.5221 14.0554 21.4346 14.0554Z" fill="#90A29F"/>
<path d="M21.435 19.678C22.4535 19.678 23.2792 18.8523 23.2792 17.8338C23.2792 16.8153 22.4535 15.9896 21.435 15.9896C20.4165 15.9896 19.5908 16.8153 19.5908 17.8338C19.5908 18.8523 20.4165 19.678 21.435 19.678Z" fill="#4A5759"/>
<path d="M28.118 7.36635L23.5122 10.0134C23.0481 10.2801 22.8881 10.8726 23.1548 11.3367L23.1552 11.3373C23.4219 11.8014 24.0143 11.9614 24.4784 11.6947L29.0843 9.04762C29.5484 8.7809 29.7084 8.18846 29.4417 7.72436L29.4413 7.72373C29.1746 7.25963 28.5821 7.09963 28.118 7.36635Z" fill="#90A29F"/>
<path d="M18.3599 12.9995L15.767 14.4896C15.4256 14.6858 15.308 15.1216 15.5041 15.4629L15.5044 15.4633C15.7006 15.8047 16.1363 15.9224 16.4777 15.7262L19.0706 14.236C19.4119 14.0398 19.5296 13.6041 19.3334 13.2627L19.3332 13.2623C19.137 12.921 18.7013 12.8033 18.3599 12.9995Z" fill="#90A29F"/>
<path d="M7.29787 20.8344L4.7168 22.3246C4.37702 22.5208 4.2606 22.9553 4.45677 23.2951L4.45702 23.2955C4.65319 23.6353 5.08768 23.7517 5.42747 23.5555L8.00854 22.0653C8.34832 21.8691 8.46475 21.4347 8.26857 21.0949L8.26832 21.0945C8.07215 20.7547 7.63766 20.6382 7.29787 20.8344Z" fill="#90A29F"/>
<path d="M1.12422 24.0497C1.04292 23.9089 0.863352 23.8603 0.723131 23.9413C0.58291 24.0223 0.535139 24.202 0.616431 24.3428L2.21354 27.1091C2.29483 27.2499 2.4744 27.2984 2.61463 27.2175C2.75485 27.1365 2.80262 26.9567 2.72132 26.8159L1.12422 24.0497Z" fill="#90A29F"/>
<path d="M36.5636 2.50725C36.3795 2.1884 35.9718 2.07916 35.653 2.26324C35.3342 2.44733 35.2249 2.85503 35.409 3.17387L37.0147 5.95511C37.1988 6.27395 37.6065 6.38319 37.9254 6.19911C38.2442 6.01502 38.3535 5.60732 38.1694 5.28848L36.5636 2.50725Z" fill="#90A29F"/>
</svg>
