<svg width="149" height="105" viewBox="0 0 149 105" fill="none" xmlns="http://www.w3.org/2000/svg">
<path d="M83.624 61.8438C83.5114 61.6452 83.3988 61.4465 83.2828 61.2418C83.1584 61.0268 83.034 60.8117 82.9058 60.5902C82.7754 60.3614 82.645 60.1327 82.5107 59.8971C82.1532 59.2713 81.7941 58.6466 81.4341 58.0224C81.209 57.6321 80.9845 57.2414 80.7602 56.8507C79.9772 55.4866 79.1923 54.1236 78.4056 52.7617C77.673 51.4934 76.9446 50.2228 76.218 48.9511C75.5933 47.8581 74.9658 46.7667 74.3361 45.6765C73.9604 45.026 73.5858 44.3748 73.2141 43.7219C72.7993 42.9938 72.3787 42.2692 71.9575 41.5448C71.8356 41.3288 71.7136 41.1129 71.588 40.8904C70.9428 39.7925 70.4843 39.0157 69.1954 38.6514C68.1524 38.6407 67.4941 38.8123 66.5943 39.3313C66.3648 39.4619 66.1352 39.5925 65.8988 39.7271C65.6471 39.8739 65.3955 40.0209 65.1439 40.1679C64.8743 40.3226 64.6047 40.4772 64.3349 40.6315C63.5945 41.0559 62.8562 41.4836 62.1182 41.912C61.3217 42.3735 60.5234 42.8318 59.7254 43.2906C58.1626 44.1896 56.6016 45.0916 55.0411 45.9946C53.7732 46.7283 52.5047 47.4609 51.2357 48.1927C51.0552 48.2968 50.8747 48.4009 50.6887 48.5082C50.322 48.7197 49.9553 48.9312 49.5886 49.1426C46.1495 51.1261 42.7124 53.113 39.2759 55.101C36.3256 56.8076 33.3737 58.5113 30.4205 60.2129C26.9925 62.1882 23.5655 64.1652 20.1401 66.1451C19.775 66.3561 19.41 66.5671 19.0449 66.7781C18.8653 66.8819 18.6857 66.9857 18.5006 67.0927C17.2333 67.825 15.9652 68.5561 14.6968 69.2867C13.1519 70.1766 11.6081 71.0684 10.0658 71.9628C9.27849 72.4193 8.4907 72.8748 7.70152 73.3281C6.97966 73.7427 6.2593 74.1597 5.54008 74.5789C5.2791 74.7304 5.01758 74.8809 4.75549 75.0305C4.40032 75.2333 4.04727 75.4399 3.69435 75.6466C3.39884 75.8174 3.39884 75.8174 3.09737 75.9916C2.56639 76.4021 2.38873 76.6775 2.2159 77.3221C2.49646 78.1091 2.74052 78.3626 3.48864 78.7412C3.85456 78.864 3.85456 78.864 4.22788 78.9893C4.47096 79.0729 4.71403 79.1565 4.96448 79.2427C5.37818 79.3837 5.79396 79.5191 6.21298 79.6435C6.66327 79.8584 6.66327 79.8584 6.78143 80.3581C6.78027 81.243 6.62055 82.0637 6.44111 82.9281C6.34204 83.4219 6.24374 83.9158 6.14776 84.4103C6.08246 84.7466 6.01477 85.0824 5.94626 85.4181C5.93694 86.0666 6.0335 86.3015 6.46648 86.7917C7.03379 87.0747 7.62432 87.2597 8.2289 87.4471C8.86552 87.6524 9.5 87.8624 10.1317 88.0823C10.2905 88.1375 10.4493 88.1927 10.6129 88.2496C11.1228 88.4373 11.1228 88.4373 11.7818 88.833C12.2059 89.8093 11.7755 91.0226 11.5608 92.0328C11.4853 92.3986 11.4101 92.7646 11.3354 93.1306C11.3014 93.2916 11.2675 93.4525 11.2325 93.6184C11.0356 94.7032 11.0356 94.7032 11.3841 95.3192C12.1321 96.0098 12.9238 96.2332 13.8844 96.5315C14.4014 96.6991 14.9181 96.8674 15.4345 97.0369C15.7748 97.1481 16.1161 97.2562 16.4577 97.3632C16.8745 97.5723 16.8745 97.5723 17.0919 98.0303C17.2158 98.8124 17.0596 99.4094 16.8707 100.176C16.4442 101.938 16.4442 101.938 16.8281 102.71C17.1784 103.238 17.1784 103.238 17.7541 103.392C18.2487 103.168 18.2487 103.168 18.8554 102.819C19.2019 102.621 19.2019 102.621 19.5554 102.42C19.813 102.27 20.0706 102.121 20.3282 101.971C20.6008 101.815 20.8735 101.658 21.1462 101.502C21.8982 101.071 22.6488 100.637 23.3993 100.204C24.2078 99.7368 25.0175 99.272 25.827 98.8069C27.4139 97.8947 28.9997 96.9805 30.585 96.0655C31.8732 95.322 33.1618 94.5791 34.4506 93.8365C38.1016 91.7329 41.7518 89.6277 45.4008 87.5205C45.5977 87.4068 45.7946 87.2931 45.9975 87.176C46.1946 87.0622 46.3917 86.9483 46.5948 86.8311C49.79 84.9861 52.9873 83.1448 56.1856 81.3052C59.4667 79.4178 62.7462 77.5277 66.0242 75.6348C67.8656 74.5715 69.7077 73.5093 71.5515 72.45C73.1213 71.5481 74.6897 70.6436 76.2562 69.7359C77.0559 69.2726 77.8562 68.8105 78.6584 68.3516C79.3924 67.9317 80.1244 67.5084 80.8548 67.0824C81.1198 66.9287 81.3855 66.7762 81.6519 66.625C82.0134 66.4198 82.3721 66.2096 82.7305 65.9991C83.0308 65.8259 83.0308 65.8259 83.3372 65.6492C83.9378 65.1517 84.1001 64.7343 84.3122 63.9914C84.2868 63.147 84.0402 62.5706 83.624 61.8438Z" fill="#FEE077"/>
<path d="M83.6241 61.8438C83.5115 61.6451 83.3989 61.4464 83.2828 61.2417C83.1585 61.0267 83.0341 60.8116 82.9059 60.5901C82.7755 60.3614 82.6451 60.1326 82.5107 59.897C82.1533 59.2713 81.7942 58.6465 81.4341 58.0223C81.2091 57.632 80.9846 57.2413 80.7603 56.8506C79.9773 55.4865 79.1923 54.1236 78.4056 52.7616C77.6731 51.4933 76.9447 50.2227 76.2181 48.951C75.5934 47.858 74.9659 46.7666 74.3362 45.6765C73.9605 45.0259 73.5859 44.3747 73.2142 43.7219C72.7994 42.9938 72.3788 42.2691 71.9576 41.5447C71.8357 41.3288 71.7137 41.1128 71.5881 40.8903C70.9428 39.7924 70.4844 39.0157 69.1955 38.6513C68.1414 38.639 67.483 38.8192 66.5754 39.3462C66.227 39.5459 66.227 39.5459 65.8715 39.7496C65.618 39.8985 65.3646 40.0475 65.1112 40.1965C64.8414 40.3525 64.5715 40.5082 64.3014 40.6637C63.5706 41.0854 62.8418 41.5105 62.1133 41.9362C61.351 42.3809 60.5868 42.8225 59.8228 43.2645C58.3773 44.1013 56.9334 44.9409 55.49 45.7816C53.8464 46.7387 52.201 47.6927 50.5554 48.6465C47.1711 50.608 43.7891 52.5735 40.4085 54.5415C40.9795 55.2028 41.5508 55.8638 42.1222 56.5248C42.2813 56.7091 42.4404 56.8934 42.6044 57.0833C44.2717 59.0113 45.9761 60.905 47.6842 62.7968C48.3419 63.5263 48.9992 64.2561 49.6564 64.9861C49.8988 65.2554 49.8988 65.2554 50.1462 65.5301C51.1404 66.6353 52.13 67.7444 53.1144 68.8583C53.2965 69.0642 53.2965 69.0642 53.4822 69.2743C54.0314 69.8958 54.5798 70.518 55.1268 71.1414C57.2147 73.5126 59.389 75.8043 61.5556 78.1033C64.4527 76.4534 67.3475 74.7993 70.2394 73.1402C71.5822 72.3699 72.9258 71.601 74.2713 70.8353C75.444 70.1679 76.6153 69.498 77.7848 68.8249C78.4041 68.4687 79.024 68.1137 79.6458 67.7618C80.3397 67.3682 81.0309 66.9702 81.7216 66.571C81.928 66.4553 82.1344 66.3396 82.3471 66.2204C83.7181 65.4191 83.7181 65.4191 84.2081 64.6073C84.39 63.5318 84.159 62.7779 83.6241 61.8438Z" fill="#FEE077"/>
<path d="M34.1792 93.9089C33.5317 92.9896 32.8906 92.0859 32.1294 91.2559C31.9791 91.0909 31.8288 90.9259 31.6739 90.7558C31.4317 90.4923 31.4317 90.4923 31.1845 90.2235C30.8226 89.8264 30.4608 89.4291 30.0991 89.0317C30.0035 88.9269 29.9079 88.822 29.8094 88.714C28.7182 87.5167 27.6377 86.31 26.557 85.1032C25.9762 84.4547 25.395 83.8067 24.8138 83.1585C24.1312 82.3973 23.4487 81.636 22.7664 80.8746C18.6238 76.2523 18.6238 76.2523 16.7316 74.2652C15.9051 73.3836 15.1026 72.4811 14.3026 71.5756C13.4665 70.6338 13.4665 70.6338 13.0321 70.347C11.6811 71.1101 10.3317 71.8762 8.98451 72.6461C8.35887 73.0035 7.73268 73.3599 7.10512 73.7139C6.38345 74.1211 5.66437 74.5327 4.94537 74.9446C4.71995 75.071 4.49454 75.1974 4.2623 75.3276C3.94994 75.5078 3.94994 75.5078 3.63127 75.6917C3.35544 75.8486 3.35544 75.8486 3.07404 76.0085C2.55622 76.4097 2.38797 76.694 2.21542 77.3221C2.49598 78.1092 2.74003 78.3627 3.48816 78.7412C3.73211 78.8231 3.97606 78.9049 4.22739 78.9893C4.47047 79.0729 4.71355 79.1565 4.964 79.2427C5.3777 79.3838 5.79348 79.5192 6.2125 79.6435C6.66279 79.8584 6.66279 79.8584 6.78094 80.3581C6.77978 81.2431 6.62007 82.0637 6.44063 82.9281C6.34156 83.4219 6.24326 83.9159 6.14728 84.4103C6.08197 84.7466 6.01429 85.0825 5.94578 85.4181C5.93646 86.0666 6.03302 86.3015 6.466 86.7917C7.0333 87.0747 7.62384 87.2597 8.22842 87.4471C8.86504 87.6524 9.49951 87.8624 10.1312 88.0823C10.29 88.1375 10.4488 88.1927 10.6124 88.2496C11.1223 88.4373 11.1223 88.4373 11.7814 88.833C12.2054 89.8093 11.7751 91.0226 11.5604 92.0328C11.4848 92.3987 11.4096 92.7646 11.3349 93.1306C11.3009 93.2916 11.267 93.4525 11.232 93.6184C11.0351 94.7032 11.0351 94.7032 11.3836 95.3192C12.1317 96.0098 12.9234 96.2332 13.8839 96.5315C14.4009 96.6991 14.9176 96.8674 15.434 97.0369C15.7743 97.1481 16.1156 97.2562 16.4572 97.3632C16.874 97.5723 16.874 97.5723 17.0914 98.0303C17.2153 98.8124 17.0591 99.4094 16.8702 100.176C16.4437 101.938 16.4437 101.938 16.8276 102.71C17.1779 103.238 17.1779 103.238 17.7537 103.392C18.2958 103.125 18.807 102.845 19.3268 102.539C19.4871 102.447 19.6474 102.354 19.8126 102.259C20.3437 101.952 20.8733 101.642 21.403 101.333C21.7703 101.12 22.1378 100.907 22.5053 100.694C23.4736 100.133 24.4406 99.5702 25.4074 99.0066C26.3937 98.4323 27.3812 97.8599 28.3685 97.2874C30.3066 96.1632 32.2433 95.0368 34.1792 93.9089Z" fill="#F2FCF3"/>
<path d="M43.4878 88.5353C41.9794 86.3966 41.9794 86.3966 41.3224 85.682C41.1725 85.5177 41.0227 85.3534 40.8683 85.1841C40.7075 85.0099 40.5468 84.8356 40.3812 84.6561C40.0185 84.2587 39.656 83.8613 39.2936 83.4637C39.198 83.3591 39.1024 83.2545 39.004 83.1468C37.9399 81.9815 36.8879 80.8054 35.8357 79.6295C33.5937 77.1242 31.3422 74.6276 29.087 72.1342C27.4166 70.2871 25.7495 68.4372 24.095 66.5758C23.9732 66.4387 23.8513 66.3017 23.7257 66.1605C23.6233 66.0451 23.521 65.9297 23.4155 65.8108C23.125 65.4902 22.824 65.1791 22.5233 64.8681C19.3915 66.6763 16.2597 68.4844 13.033 70.3473C13.5814 70.9843 14.1299 71.6212 14.6949 72.2775C14.8617 72.4717 15.0284 72.6658 15.2002 72.8659C16.1925 74.015 17.2061 75.1416 18.2346 76.2581C19.7749 77.9301 21.2992 79.6167 22.8252 81.3018C23.0653 81.5669 23.0653 81.5669 23.3103 81.8373C25.6846 84.4587 28.0526 87.0855 30.4114 89.7208C30.5671 89.8948 30.5671 89.8948 30.7259 90.0723C30.9985 90.3768 31.2709 90.6815 31.5432 90.9861C32.4198 91.9626 33.3004 92.9355 34.18 93.9092C37.2516 92.1358 40.3231 90.3624 43.4878 88.5353Z" fill="#F2FCF3"/>
<path d="M52.0659 83.5828C51.5587 82.7042 51.2167 82.1248 50.5635 81.4152C50.4117 81.2488 50.2599 81.0825 50.1035 80.9112C49.9377 80.7317 49.7719 80.5522 49.601 80.3672C49.2328 79.9642 48.8648 79.5611 48.4969 79.1578C48.3995 79.0513 48.302 78.9448 48.2017 78.835C47.1317 77.6646 46.0746 76.4829 45.0173 75.3011C40.7589 70.5425 36.4877 65.7948 32.1567 61.1021C31.8 60.711 31.4508 60.3132 31.1014 59.9156C28.2708 61.5499 25.4401 63.1842 22.5237 64.868C23.7941 66.5949 23.7941 66.5949 24.4291 67.2858C24.5755 67.4463 24.7219 67.6068 24.8727 67.7721C25.1117 68.0322 25.1117 68.0322 25.3554 68.2976C27.0409 70.1468 28.7045 72.014 30.3607 73.8896C32.5676 76.3884 34.7925 78.8678 37.0539 81.3174C39.2411 83.6875 41.3682 86.1045 43.4882 88.5352C46.3188 86.9009 49.1495 85.2666 52.0659 83.5828Z" fill="#F2FCF3"/>
<path d="M70.1333 73.1511C68.862 71.4229 68.862 71.4229 68.1992 70.6984C68.0485 70.5327 67.8978 70.3671 67.7425 70.1964C67.5802 70.0192 67.4179 69.8421 67.2506 69.6596C66.8886 69.2619 66.5268 68.864 66.1651 68.466C66.0214 68.3081 66.0214 68.3081 65.8748 68.1471C64.7688 66.9311 63.6726 65.7064 62.5761 64.4818C59.1495 60.6557 55.7148 56.8388 52.217 53.0775C50.6178 51.3508 50.6178 51.3508 48.9863 49.5892C46.1556 51.2235 43.325 52.8578 40.4085 54.5416C42.8037 57.3219 45.225 60.0733 47.6842 62.797C48.3419 63.5264 48.9992 64.2563 49.6564 64.9862C49.8988 65.2555 49.8988 65.2555 50.1462 65.5302C51.4997 67.0349 52.8419 68.5493 54.1814 70.0665C56.5902 72.7947 59.0532 75.4601 61.5555 78.1034C64.3862 76.4692 67.2169 74.8349 70.1333 73.1511Z" fill="#F2FCF3"/>
<path d="M83.6235 61.8442C83.5109 61.6455 83.3982 61.4468 83.2822 61.2421C83.1578 61.0271 83.0334 60.812 82.9053 60.5905C82.7749 60.3618 82.6445 60.133 82.5101 59.8974C82.1527 59.2717 81.7936 58.6469 81.4335 58.0227C81.2085 57.6324 80.984 57.2417 80.7597 56.851C79.9766 55.4869 79.1917 54.124 78.405 52.762C77.6725 51.4937 76.944 50.2231 76.2175 48.9514C75.5928 47.8584 74.9653 46.767 74.3356 45.6769C73.9599 45.0263 73.5853 44.3751 73.2135 43.7223C72.7988 42.9942 72.3782 42.2695 71.957 41.5451C71.835 41.3291 71.7131 41.1132 71.5874 40.8907C70.9199 39.7549 70.4726 39.06 69.1949 38.6517C67.7771 38.4883 66.743 39.2439 65.5699 39.9433C65.3613 40.0648 65.1526 40.1863 64.9377 40.3114C64.2737 40.6989 63.6121 41.09 62.9504 41.4813C62.4998 41.7452 62.049 42.0088 61.5981 42.2721C60.4948 42.9171 59.3935 43.5652 58.2935 44.2156C58.6635 44.6282 59.0336 45.0408 59.4036 45.4534C59.7359 45.8239 60.0681 46.1943 60.4004 46.5648C61.2351 47.4954 62.0698 48.4261 62.9045 49.3568C63.38 49.8869 63.8556 50.4171 64.3311 50.9473C64.4255 51.0526 64.52 51.1579 64.6174 51.2665C65.7408 52.519 66.8641 53.7717 67.9873 55.0245C71.8015 59.2787 75.6208 63.5282 79.4405 67.7775C80.1637 67.3883 80.8821 66.9908 81.5998 66.5916C81.8046 66.4815 82.0094 66.3714 82.2204 66.258C83.7164 65.4183 83.7164 65.4183 84.215 64.6065C84.384 63.5313 84.1578 62.7773 83.6235 61.8442Z" fill="#F2FCF3"/>
<path d="M17.6826 75.4498C14.1358 71.414 14.1358 71.414 13.0333 70.3472C11.6822 71.1103 10.3328 71.8764 8.98562 72.6463C8.35997 73.0037 7.73378 73.36 7.10622 73.7141C6.38456 74.1213 5.66547 74.5329 4.94647 74.9448C4.72106 75.0712 4.49565 75.1975 4.2634 75.3277C4.05516 75.4479 3.84692 75.5681 3.63237 75.6919C3.44848 75.7964 3.2646 75.901 3.07514 76.0087C2.55732 76.4099 2.38907 76.6942 2.21652 77.3222C2.49708 78.1093 2.74114 78.3628 3.48927 78.7414C3.73321 78.8232 3.97716 78.9051 4.2285 78.9895C4.59312 79.1149 4.59312 79.1149 4.9651 79.2429C5.36681 79.3798 5.77191 79.5084 6.18244 79.6161C6.82574 79.9618 6.82574 79.9618 7.2798 81.4558C10.7127 79.4738 14.1457 77.4918 17.6826 75.4498Z" fill="#F2FCF3"/>
<path d="M74.035 45.3476C73.5695 44.4994 73.0991 43.6543 72.6242 42.8114C72.4635 42.5246 72.3041 42.2371 72.1462 41.9489C71.9181 41.5332 71.6853 41.1205 71.4514 40.7081C71.3479 40.5157 71.3479 40.5157 71.2423 40.3194C70.7103 39.3971 70.1988 38.9959 69.1955 38.6513C67.7778 38.4879 66.7437 39.2435 65.5706 39.9429C65.3619 40.0644 65.1533 40.1859 64.9383 40.311C64.2744 40.6985 63.6127 41.0896 62.951 41.4809C62.5004 41.7448 62.0496 42.0084 61.5987 42.2717C60.4952 42.9162 59.3948 43.5658 58.2941 44.2152C60.5955 46.741 60.5955 46.741 62.9435 49.3178C63.5548 48.9711 64.1661 48.6245 64.796 48.2673C65.3902 47.9336 65.9851 47.6011 66.58 47.2688C66.9928 47.0373 67.4048 46.8046 67.8161 46.5705C68.4079 46.2341 69.002 45.9024 69.5969 45.5715C69.7799 45.4661 69.963 45.3608 70.1516 45.2522C70.9604 44.8076 71.4503 44.5445 72.3874 44.5629C73.0014 44.7646 73.3819 45.0139 73.8525 45.4529C73.9127 45.4182 73.9729 45.3834 74.035 45.3476Z" fill="#F2FCF3"/>
<path d="M44.874 59.7498C43.9459 58.4126 43.075 57.2013 41.9886 56.0165C41.8066 55.8137 41.8066 55.8137 41.6208 55.6067C40.7354 54.6297 40.7354 54.6297 40.4072 54.5418C40.106 54.6929 39.8114 54.8572 39.5201 55.0263C39.3337 55.1339 39.1474 55.2415 38.9554 55.3524C38.7533 55.4703 38.5512 55.5883 38.343 55.7098C38.1368 55.8292 37.9306 55.9486 37.7182 56.0716C37.0567 56.4548 36.396 56.8394 35.7353 57.2239C35.2882 57.4832 34.8411 57.7425 34.3939 58.0016C33.2952 58.6387 32.1971 59.2769 31.0994 59.9156C32.3356 61.6353 32.3356 61.6353 35.5662 65.1236C38.6378 63.3502 41.7094 61.5769 44.874 59.7498Z" fill="#F2FCF3"/>
<path d="M62.9438 49.3179C60.8124 46.6025 60.8124 46.6025 59.746 45.4913C59.6364 45.3747 59.5269 45.258 59.4141 45.1378C58.6218 44.3031 58.6218 44.3031 58.2945 44.2153C57.9933 44.3665 57.6988 44.5307 57.4074 44.6999C57.221 44.8075 57.0347 44.9151 56.8427 45.0259C56.6406 45.1439 56.4385 45.2618 56.2303 45.3833C56.0241 45.5027 55.8179 45.6221 55.6055 45.7451C54.944 46.1284 54.2833 46.5129 53.6226 46.8974C53.1755 47.1568 52.7284 47.416 52.2813 47.6752C51.1825 48.3122 50.0844 48.9503 48.9867 49.5892C50.3956 51.4076 51.9114 53.0777 53.4536 54.7972C56.5854 52.989 59.7171 51.1809 62.9438 49.3179Z" fill="#F2FCF3"/>
<path d="M26.9902 70.076C25.635 68.2338 24.0616 66.5606 22.5234 64.8681C19.3916 66.6762 16.2598 68.4844 13.0331 70.3473C13.6151 71.0251 14.1972 71.7029 14.7968 72.4012C14.9784 72.6134 15.16 72.8255 15.3471 73.0441C15.4929 73.2132 15.6387 73.3823 15.7889 73.5565C16.0106 73.8146 16.0106 73.8146 16.2368 74.078C16.6865 74.567 17.1854 75.0091 17.6825 75.4499C20.754 73.6765 23.8256 71.9032 26.9902 70.076Z" fill="#F2FCF3"/>
<path d="M53.4521 54.7975C52.2159 53.0778 52.2159 53.0778 48.9853 49.5895C46.1546 51.2238 43.324 52.8581 40.4075 54.5419C40.9896 55.2197 41.5716 55.8975 42.1713 56.5958C42.3529 56.808 42.5344 57.0201 42.7215 57.2387C42.8673 57.4078 43.0131 57.5769 43.1634 57.7511C43.385 58.0092 43.385 58.0092 43.6112 58.2726C44.0609 58.7616 44.5598 59.2037 45.0569 59.6445C47.8273 58.045 50.5978 56.4455 53.4521 54.7975Z" fill="#F2FCF3"/>
<path d="M35.5676 65.1237C34.1323 63.3374 32.6157 61.6397 31.1007 59.9158C28.2701 61.5501 25.4394 63.1843 22.523 64.8682C23.7967 66.5997 23.7967 66.5997 24.4608 67.3158C24.672 67.5439 24.672 67.5439 24.8875 67.7766C25.0308 67.9298 25.1742 68.0829 25.3218 68.2407C25.5417 68.4789 25.5417 68.4789 25.766 68.7219C26.8466 69.8835 26.8466 69.8835 27.1723 69.9707C27.4455 69.8357 27.7122 69.6876 27.9757 69.5346C28.1437 69.4375 28.3118 69.3405 28.4849 69.2405C28.6671 69.1341 28.8492 69.0276 29.0369 68.918C29.2228 68.8103 29.4088 68.7026 29.6003 68.5916C30.1967 68.246 30.7923 67.899 31.388 67.5521C31.791 67.3181 32.1942 67.0842 32.5974 66.8505C33.588 66.2758 34.578 65.7002 35.5676 65.1237Z" fill="#F2FCF3"/>
<g clip-path="url(#clip0_768_8907)">
<path d="M78.3471 64.8917C78.2313 64.6948 78.1156 64.498 77.9963 64.2951C77.8723 64.0799 77.7482 63.8647 77.6204 63.6429C77.4876 63.4156 77.3547 63.1883 77.2178 62.9541C76.8546 62.3317 76.4931 61.7084 76.1326 61.0844C75.907 60.6944 75.681 60.3046 75.4547 59.915C74.6649 58.5548 73.877 57.1936 73.0909 55.8313C72.3588 54.5628 71.6227 53.2966 70.8846 52.0315C70.2504 50.944 69.6189 49.8549 68.9897 48.7645C68.6142 48.1138 68.2375 47.4639 67.858 46.8155C67.4348 46.0922 67.0176 45.3656 66.6008 44.6387C66.4748 44.4251 66.3487 44.2115 66.2188 43.9914C65.5906 42.8837 65.1472 42.0983 65.4761 40.8C65.9884 39.8913 66.4662 39.407 67.3655 38.8872C67.5934 38.7538 67.8212 38.6203 68.056 38.4828C68.309 38.3383 68.5621 38.1938 68.8152 38.0494C69.084 37.8934 69.3527 37.7371 69.6212 37.5806C70.3589 37.1517 71.0985 36.7262 71.8385 36.3012C72.6364 35.8422 73.4325 35.38 74.2288 34.9182C75.7888 34.0143 77.3504 33.1134 78.9127 32.2136C80.182 31.4824 81.4507 30.7501 82.719 30.0171C82.8994 29.9128 83.0798 29.8085 83.2657 29.7011C83.6322 29.4892 83.9987 29.2774 84.3652 29.0656C87.8025 27.079 91.2417 25.0957 94.6816 23.1136C97.6347 21.4119 100.586 19.7073 103.536 18.0006C106.961 16.0195 110.387 14.0401 113.814 12.0636C114.179 11.853 114.545 11.6423 114.91 11.4317C115.09 11.328 115.269 11.2244 115.454 11.1176C116.722 10.3862 117.989 9.65354 119.256 8.92038C120.8 8.02741 122.344 7.13639 123.889 6.24788C124.678 5.79429 125.467 5.33983 126.254 4.88299C126.974 4.46514 127.695 4.04983 128.418 3.63653C128.68 3.48627 128.941 3.33506 129.201 3.18286C129.555 2.9767 129.91 2.77422 130.265 2.57194C130.561 2.40142 130.561 2.40142 130.863 2.22745C131.484 1.97285 131.811 1.95672 132.456 2.1293C132.997 2.76582 133.095 3.10393 133.048 3.94109C132.972 4.31939 132.972 4.31939 132.894 4.70533C132.844 4.95766 132.795 5.20998 132.745 5.46996C132.66 5.89876 132.569 6.32654 132.468 6.75161C132.428 7.249 132.428 7.249 132.802 7.60117C133.569 8.04265 134.36 8.31467 135.198 8.59146C135.675 8.75257 136.152 8.9144 136.628 9.0785C136.952 9.1901 137.277 9.29941 137.602 9.40792C138.168 9.72409 138.323 9.92516 138.531 10.5452C138.493 11.178 138.358 11.7819 138.218 12.3992C138.077 13.0532 137.942 13.7077 137.816 14.3647C137.785 14.5299 137.753 14.695 137.721 14.8651C137.628 15.4005 137.628 15.4005 137.641 16.1691C138.275 17.0245 139.541 17.2585 140.523 17.5776C140.878 17.6951 141.232 17.813 141.587 17.9313C141.743 17.9823 141.899 18.0334 142.06 18.086C143.098 18.4579 143.098 18.4579 143.457 19.0678C143.682 20.0609 143.479 20.8582 143.257 21.8392C143.144 22.3707 143.031 22.9024 142.92 23.4344C142.846 23.7847 142.769 24.1343 142.691 24.4836C142.664 24.9491 142.664 24.9491 142.952 25.3664C143.567 25.8648 144.162 26.028 144.92 26.2477C146.659 26.7591 146.659 26.7591 147.136 27.4778C147.418 28.0451 147.418 28.0451 147.264 28.6208C146.823 28.9372 146.823 28.9372 146.217 29.288C145.872 29.4892 145.872 29.4892 145.521 29.6945C145.263 29.8428 145.004 29.9912 144.746 30.1395C144.474 30.2974 144.203 30.4553 143.931 30.6135C143.182 31.0491 142.431 31.4825 141.68 31.9154C140.871 32.3822 140.064 32.851 139.257 33.3195C137.673 34.2378 136.088 35.154 134.503 36.0694C133.215 36.8133 131.928 37.5577 130.64 38.3026C126.993 40.4126 123.345 42.5212 119.695 44.6278C119.498 44.7415 119.302 44.8551 119.099 44.9722C118.901 45.086 118.704 45.1998 118.501 45.3171C115.306 47.1617 112.113 49.01 108.92 50.86C105.645 52.7578 102.369 54.6529 99.0903 56.5452C97.2487 57.6083 95.4078 58.6725 93.5685 59.7397C92.0025 60.6482 90.4351 61.5543 88.8657 62.457C88.0646 62.9179 87.2643 63.38 86.4658 63.8452C85.7351 64.2709 85.0025 64.6932 84.2684 65.1128C84.0028 65.2654 83.7378 65.4192 83.4737 65.5744C83.1152 65.7848 82.7539 65.9903 82.3924 66.1956C82.0922 66.369 82.0922 66.369 81.786 66.546C81.0548 66.8174 80.6122 66.7493 79.8629 66.5615C79.1442 66.1172 78.7684 65.6155 78.3471 64.8917Z" fill="#FEE077"/>
<path d="M78.3481 64.891C78.2324 64.6941 78.1166 64.4972 77.9974 64.2944C77.8733 64.0791 77.7493 63.8639 77.6215 63.6421C77.4886 63.4148 77.3558 63.1875 77.2189 62.9534C76.8557 62.3309 76.4942 61.7076 76.1336 61.0837C75.9081 60.6936 75.682 60.3039 75.4558 59.9142C74.666 58.5541 73.8781 57.1928 73.092 55.8305C72.3599 54.562 71.6237 53.2959 70.8856 52.0308C70.2514 50.9433 69.62 49.8542 68.9908 48.7638C68.6152 48.1131 68.2386 47.4631 67.8591 46.8147C67.4359 46.0915 67.0186 45.3649 66.6019 44.6379C66.4758 44.4243 66.3498 44.2108 66.2199 43.9907C65.5917 42.883 65.1483 42.0976 65.4772 40.7992C65.9936 39.8802 66.4789 39.4 67.3891 38.8776C67.7362 38.6757 67.7362 38.6757 68.0903 38.4697C68.346 38.3246 68.6018 38.1796 68.8575 38.0347C69.1275 37.879 69.3973 37.7231 69.667 37.567C70.3976 37.1449 71.1301 36.7263 71.863 36.3083C72.6294 35.8704 73.3939 35.4294 74.1586 34.9888C75.6061 34.1553 77.0552 33.3247 78.5049 32.495C80.1556 31.5502 81.8045 30.6022 83.4533 29.6539C86.8442 27.7038 90.2373 25.7576 93.6319 23.814C93.9192 24.6391 94.206 25.4644 94.4927 26.2897C94.5727 26.5197 94.6528 26.7497 94.7353 26.9866C95.5713 29.3946 96.3592 31.8174 97.1434 34.2427C97.4464 35.177 97.7497 36.1111 98.0533 37.0452C98.1653 37.3898 98.1653 37.3898 98.2796 37.7414C98.7396 39.155 99.2053 40.5666 99.6778 41.976C99.765 42.2367 99.765 42.2367 99.8541 42.5026C100.118 43.289 100.382 44.075 100.649 44.8604C101.658 47.8542 102.556 50.883 103.464 53.9088C100.586 55.5929 97.7063 57.2727 94.8235 58.9476C93.485 59.7254 92.1473 60.5046 90.8115 61.2869C89.6471 61.9689 88.4813 62.6483 87.3136 63.3246C86.6955 63.6827 86.0781 64.0421 85.4625 64.4047C84.7747 64.8088 84.0844 65.2084 83.3933 65.6069C83.1899 65.7278 82.9865 65.8488 82.7769 65.9734C81.3975 66.76 81.3975 66.76 80.4494 66.7785C79.427 66.3983 78.8896 65.8212 78.3481 64.891Z" fill="#FEE077"/>
<path d="M130.838 38.1039C130.366 37.0835 129.904 36.0765 129.566 35.0022C129.498 34.7896 129.43 34.5769 129.36 34.3578C129.253 34.0162 129.253 34.0162 129.144 33.6677C128.981 33.1557 128.818 32.6438 128.655 32.1319C128.612 31.9967 128.569 31.8614 128.524 31.7221C128.033 30.1785 127.528 28.6393 127.023 27.1001C126.752 26.2729 126.482 25.4454 126.211 24.618C125.893 23.6463 125.575 22.6747 125.257 21.703C123.325 15.8043 123.325 15.8043 122.55 13.172C122.2 12.0155 121.82 10.8692 121.435 9.72361C121.038 8.52866 121.038 8.52866 121.007 8.0091C122.343 7.2206 123.681 6.43507 125.022 5.65329C125.644 5.29017 126.266 4.92605 126.886 4.55959C127.599 4.13821 128.316 3.72128 129.032 3.30455C129.254 3.17252 129.476 3.0405 129.705 2.90447C130.017 2.72409 130.017 2.72409 130.336 2.54006C130.609 2.3796 130.609 2.3796 130.889 2.21589C131.495 1.96804 131.825 1.96448 132.456 2.12907C132.997 2.76559 133.094 3.1037 133.048 3.94086C132.997 4.19306 132.946 4.44526 132.893 4.7051C132.844 4.95743 132.795 5.20975 132.745 5.46973C132.66 5.89853 132.569 6.3263 132.468 6.75137C132.428 7.24876 132.428 7.24876 132.802 7.60094C133.569 8.04242 134.36 8.31444 135.198 8.59122C135.675 8.75234 136.152 8.91417 136.628 9.07827C136.952 9.18987 137.277 9.29918 137.602 9.40768C138.168 9.72386 138.323 9.92493 138.531 10.545C138.493 11.1778 138.358 11.7817 138.218 12.399C138.077 13.053 137.942 13.7075 137.816 14.3645C137.785 14.5296 137.753 14.6947 137.721 14.8649C137.628 15.4003 137.628 15.4003 137.641 16.1689C138.275 17.0243 139.541 17.2582 140.523 17.5774C140.878 17.6949 141.232 17.8128 141.586 17.931C141.743 17.9821 141.899 18.0332 142.06 18.0858C143.098 18.4577 143.098 18.4577 143.457 19.0675C143.682 20.0607 143.479 20.858 143.257 21.839C143.144 22.3705 143.031 22.9022 142.92 23.4341C142.846 23.7844 142.769 24.1341 142.691 24.4834C142.664 24.9489 142.664 24.9489 142.951 25.3662C143.567 25.8645 144.162 26.0278 144.92 26.2475C146.659 26.7589 146.659 26.7589 147.136 27.4776C147.418 28.0449 147.418 28.0449 147.264 28.6206C146.761 28.9565 146.263 29.2594 145.739 29.5565C145.578 29.6491 145.418 29.7417 145.253 29.8371C144.722 30.1435 144.189 30.4474 143.656 30.7513C143.288 30.9629 142.92 31.1747 142.552 31.3867C141.582 31.9448 140.61 32.5007 139.639 33.0562C138.648 33.6232 137.659 34.1922 136.67 34.761C134.727 35.8773 132.783 36.9913 130.838 38.1039Z" fill="#F2FCF3"/>
<path d="M121.531 43.4777C120.433 41.102 120.433 41.102 120.143 40.1757C120.076 39.9638 120.008 39.7518 119.939 39.5335C119.868 39.3071 119.798 39.0808 119.725 38.8476C119.562 38.3349 119.399 37.8222 119.236 37.3095C119.193 37.1745 119.151 37.0394 119.107 36.9003C118.629 35.3961 118.137 33.8971 117.645 32.3978C116.596 29.2035 115.56 26.0054 114.528 22.8057C113.763 20.4354 112.995 18.0668 112.21 15.7032C112.152 15.5292 112.095 15.3551 112.035 15.1758C111.986 15.0294 111.938 14.8831 111.887 14.7322C111.755 14.3204 111.636 13.9042 111.517 13.4883C114.649 11.6801 117.781 9.87197 121.007 8.00904C121.285 8.80247 121.562 9.5959 121.848 10.4134C121.933 10.6549 122.018 10.8964 122.105 11.1452C122.604 12.5791 123.073 14.0202 123.525 15.4692C124.203 17.6391 124.902 19.8025 125.598 21.9666C125.708 22.307 125.708 22.307 125.819 22.6544C126.902 26.0213 127.993 29.3855 129.096 32.7459C129.169 32.9677 129.169 32.9677 129.243 33.194C129.371 33.5823 129.498 33.9705 129.626 34.3588C130.033 35.6061 130.436 36.8552 130.839 38.1038C127.767 39.8772 124.696 41.6506 121.531 43.4777Z" fill="#F2FCF3"/>
<path d="M112.953 48.4299C112.446 47.5513 112.115 46.9654 111.827 46.0449C111.759 45.8303 111.691 45.6156 111.621 45.3945C111.548 45.1612 111.476 44.9278 111.401 44.6874C111.236 44.1671 111.071 43.6467 110.905 43.1265C110.862 42.9889 110.818 42.8512 110.774 42.7094C110.295 41.1977 109.8 39.6913 109.305 38.1848C107.313 32.1176 105.337 26.0447 103.439 19.9476C103.278 19.4432 103.109 18.9419 102.939 18.4405C105.77 16.8062 108.6 15.1719 111.517 13.4881C112.377 15.4518 112.377 15.4518 112.658 16.3472C112.724 16.5542 112.789 16.7612 112.857 16.9745C112.963 17.3115 112.963 17.3115 113.071 17.6553C113.83 20.0396 114.615 22.4139 115.411 24.7859C116.472 27.9466 117.507 31.1131 118.497 34.2964C119.456 37.3756 120.486 40.4262 121.531 43.4775C118.7 45.1118 115.87 46.7461 112.953 48.4299Z" fill="#F2FCF3"/>
<path d="M94.8843 58.8617C94.0233 56.8966 94.0233 56.8966 93.7273 55.9604C93.6591 55.747 93.591 55.5337 93.5208 55.3139C93.4486 55.0847 93.3764 54.8556 93.3019 54.6195C93.1385 54.1071 92.9748 53.5949 92.811 53.0826C92.7461 52.8792 92.7461 52.8792 92.6799 52.6717C92.1798 51.1059 91.6673 49.5442 91.1551 47.9824C89.5548 43.1018 87.9667 38.2188 86.4582 33.3089C85.7624 31.0606 85.7624 31.0606 85.0526 28.7669C87.8833 27.1326 90.7139 25.4984 93.6304 23.8146C94.8406 27.279 96.0128 30.7516 97.1419 34.2432C97.4448 35.1775 97.7482 36.1116 98.0518 37.0457C98.1638 37.3903 98.1638 37.3903 98.278 37.7419C98.9044 39.6664 99.5448 41.586 100.189 43.5046C101.347 46.9549 102.424 50.4205 103.462 53.9093C100.631 55.5436 97.8007 57.1779 94.8843 58.8617Z" fill="#F2FCF3"/>
<path d="M78.3465 64.8915C78.2308 64.6946 78.115 64.4977 77.9958 64.2949C77.8717 64.0797 77.7477 63.8644 77.6199 63.6427C77.487 63.4154 77.3541 63.1881 77.2173 62.9539C76.8541 62.3315 76.4926 61.7081 76.132 61.0842C75.9065 60.6941 75.6804 60.3044 75.4542 59.9147C74.6644 58.5546 73.8765 57.1933 73.0904 55.8311C72.3583 54.5625 71.6221 53.2964 70.884 52.0313C70.2498 50.9438 69.6184 49.8547 68.9892 48.7643C68.6136 48.1136 68.237 47.4636 67.8575 46.8152C67.4343 46.092 67.017 45.3654 66.6003 44.6385C66.4742 44.4249 66.3482 44.2113 66.2183 43.9912C65.5684 42.8453 65.1903 42.1104 65.4756 40.7997C66.043 39.4902 67.2144 38.9724 68.4066 38.3062C68.6161 38.1863 68.8256 38.0663 69.0415 37.9427C69.709 37.5614 70.3786 37.184 71.0483 36.8066C71.5021 36.5483 71.9558 36.2897 72.4093 36.0309C73.5195 35.3979 74.6314 34.7681 75.7448 34.1408C75.9171 34.6675 76.0894 35.1943 76.2616 35.721C76.4163 36.194 76.571 36.667 76.7257 37.14C77.1144 38.3282 77.503 39.5164 77.8916 40.7046C78.113 41.3815 78.3344 42.0584 78.5557 42.7353C78.5997 42.8698 78.6437 43.0043 78.689 43.1428C79.2121 44.742 79.7352 46.3412 80.2586 47.9403C82.0357 53.3705 83.8063 58.803 85.5764 64.2355C84.8777 64.6673 84.1743 65.0906 83.4697 65.5127C83.272 65.635 83.0743 65.7573 82.8706 65.8833C81.3953 66.759 81.3953 66.759 80.443 66.7849C79.4274 66.3937 78.8875 65.8207 78.3465 64.8915Z" fill="#F2FCF3"/>
<path d="M123.103 14.587C121.381 9.49755 121.381 9.49755 121.009 8.00927C122.345 7.22077 123.683 6.43524 125.024 5.65346C125.646 5.29034 126.268 4.92622 126.888 4.55976C127.602 4.13838 128.318 3.72145 129.034 3.30472C129.256 3.1727 129.478 3.04067 129.707 2.90464C129.915 2.78439 130.123 2.66413 130.338 2.54023C130.52 2.43326 130.703 2.32628 130.891 2.21606C131.497 1.96821 131.828 1.96466 132.458 2.12924C132.999 2.76576 133.097 3.10387 133.05 3.94103C132.999 4.19323 132.948 4.44543 132.896 4.70527C132.822 5.08376 132.822 5.08376 132.747 5.4699C132.664 5.88627 132.573 6.30137 132.461 6.71074C132.439 7.44071 132.439 7.44071 133.506 8.58097C130.073 10.563 126.64 12.545 123.103 14.587Z" fill="#F2FCF3"/>
<path d="M68.8566 48.3388C68.3549 47.5116 67.8581 46.6817 67.3656 45.8489C67.1976 45.5664 67.0283 45.2846 66.8577 45.0037C66.6118 44.5983 66.3708 44.1904 66.1305 43.7817C66.0157 43.5958 66.0157 43.5958 65.8985 43.4062C65.3657 42.4843 65.274 41.8407 65.4772 40.7996C66.0446 39.4901 67.2161 38.9723 68.4082 38.3061C68.6178 38.1861 68.8273 38.0662 69.0432 37.9426C69.7107 37.5613 70.3803 37.1839 71.05 36.8065C71.5038 36.5482 71.9575 36.2896 72.411 36.0307C73.5209 35.3973 74.6337 34.7692 75.7465 34.1406C76.7831 37.3966 76.7831 37.3966 77.8407 40.7184C77.2348 41.0745 76.6289 41.4306 76.0047 41.7975C75.4186 42.1452 74.8332 42.4941 74.2479 42.8432C73.8411 43.085 73.4335 43.3254 73.0252 43.5646C72.438 43.9089 71.8536 44.2576 71.2696 44.6073C71.0869 44.7131 70.9041 44.8189 70.7157 44.928C69.9263 45.4061 69.4535 45.6989 69.0009 46.5196C68.8685 47.1522 68.8943 47.6064 69.0391 48.2334C68.9789 48.2682 68.9187 48.303 68.8566 48.3388Z" fill="#F2FCF3"/>
<path d="M95.9082 30.2868C95.2142 28.8145 94.6007 27.4546 94.1178 25.9214C94.0332 25.6623 94.0332 25.6623 93.9468 25.398C93.5435 24.1427 93.5435 24.1427 93.6314 23.8144C93.9129 23.6292 94.2024 23.4562 94.4946 23.2884C94.6809 23.1809 94.8673 23.0733 95.0593 22.9625C95.2625 22.8464 95.4657 22.7303 95.675 22.6108C95.8815 22.4919 96.088 22.373 96.3007 22.2506C96.9634 21.8693 97.6267 21.4894 98.2901 21.1095C98.7382 20.852 99.1863 20.5944 99.6343 20.3367C100.735 19.7037 101.837 19.0718 102.939 18.4406C103.81 20.371 103.81 20.371 105.216 24.913C102.144 26.6863 99.0728 28.4597 95.9082 30.2868Z" fill="#F2FCF3"/>
<path d="M77.8398 40.7186C76.554 37.5151 76.554 37.5151 76.1248 36.0359C76.0786 35.8827 76.0323 35.7295 75.9847 35.5717C75.6578 34.4682 75.6578 34.4682 75.7456 34.1409C76.027 33.9556 76.3165 33.7826 76.6087 33.6149C76.7951 33.5073 76.9814 33.3997 77.1734 33.2889C77.3766 33.1729 77.5798 33.0568 77.7892 32.9372C77.9957 32.8183 78.2021 32.6995 78.4149 32.577C79.0775 32.1958 79.7409 31.8159 80.4043 31.4359C80.8524 31.1784 81.3005 30.9209 81.7485 30.6632C82.8496 30.0302 83.9512 29.3982 85.0533 28.767C85.9236 30.8964 86.6121 33.0441 87.3301 35.2394C84.1983 37.0475 81.0665 38.8557 77.8398 40.7186Z" fill="#F2FCF3"/>
<path d="M113.794 19.9608C112.876 17.866 112.214 15.6668 111.517 13.4884C114.649 11.6803 117.781 9.87213 121.007 8.0092C121.303 8.85215 121.599 9.69509 121.904 10.5636C121.997 10.8269 122.09 11.0903 122.186 11.3616C122.259 11.5724 122.333 11.7832 122.409 12.0004C122.521 12.3215 122.521 12.3215 122.636 12.649C122.835 13.283 122.969 13.9361 123.102 14.587C120.03 16.3603 116.959 18.1337 113.794 19.9608Z" fill="#F2FCF3"/>
<path d="M87.3306 35.2399C86.4594 33.3094 86.4594 33.3094 85.0538 28.7675C87.8844 27.1332 90.7151 25.4989 93.6315 23.8151C93.9275 24.658 94.2234 25.501 94.5284 26.3695C94.6213 26.6328 94.7143 26.8962 94.8101 27.1675C94.8836 27.3783 94.9571 27.5891 95.0328 27.8063C95.1456 28.1274 95.1456 28.1274 95.2606 28.4549C95.4592 29.0889 95.5926 29.742 95.7258 30.3929C92.9554 31.9924 90.185 33.5919 87.3306 35.2399Z" fill="#F2FCF3"/>
<path d="M105.217 24.913C104.387 22.7769 103.675 20.6146 102.94 18.4407C105.77 16.8064 108.601 15.1721 111.517 13.4883C112.38 15.4572 112.38 15.4572 112.668 16.3903C112.76 16.6873 112.76 16.6873 112.854 16.9903C112.915 17.191 112.976 17.3917 113.039 17.5984C113.135 17.9079 113.135 17.9079 113.233 18.2237C113.699 19.7403 113.699 19.7403 113.612 20.066C113.358 20.235 113.097 20.392 112.832 20.5437C112.664 20.6407 112.496 20.7377 112.323 20.8377C112.14 20.9422 111.957 21.0467 111.768 21.1544C111.582 21.2616 111.395 21.3688 111.203 21.4792C110.606 21.8228 110.008 22.1652 109.409 22.5075C109.005 22.7397 108.601 22.9719 108.197 23.2041C107.204 23.7747 106.211 24.3443 105.217 24.913Z" fill="#F2FCF3"/>
</g>
<rect x="45.3931" y="87.561" width="30.8281" height="93.7689" transform="rotate(-120 45.3931 87.561)" fill="#F2FCF3"/>
<defs>
<clipPath id="clip0_768_8907">
<rect width="31.1748" height="79.418" fill="white" transform="translate(79.8784 67.6514) rotate(-120)"/>
</clipPath>
</defs>
</svg>
