<svg width="24" height="24" viewBox="0 0 24 24" fill="none" xmlns="http://www.w3.org/2000/svg">
<path fill-rule="evenodd" clip-rule="evenodd" d="M19.6348 4.5355C17.6658 2.56425 15.0474 1.47819 12.2576 1.47705C6.50938 1.47705 1.83092 6.15513 1.82867 11.9051C1.82787 13.7432 2.3081 15.5373 3.22076 17.1189L1.74121 22.523L7.26972 21.0728C8.79296 21.9036 10.508 22.3416 12.2534 22.3421H12.2577C12.2573 22.3421 12.258 22.3421 12.2577 22.3421C18.0053 22.3421 22.6842 17.6636 22.6866 11.9135C22.6876 9.12684 21.6038 6.50667 19.6348 4.5355ZM12.2576 20.5809H12.2541C10.6988 20.5803 9.17324 20.1624 7.84237 19.3726L7.52588 19.1848L4.24518 20.0454L5.12089 16.8467L4.91477 16.5187C4.0471 15.1387 3.58885 13.5436 3.58952 11.9057C3.59139 7.12655 7.47995 3.23841 12.2612 3.23841C14.5764 3.23913 16.7528 4.14197 18.3893 5.7804C20.0258 7.41882 20.9266 9.59666 20.9257 11.9128C20.9237 16.6923 17.0353 20.5809 12.2576 20.5809Z" fill="#4A5759"/>
<path fill-rule="evenodd" clip-rule="evenodd" d="M17.0128 14.0889C16.7522 13.9585 15.471 13.3282 15.2322 13.2412C14.9933 13.1542 14.8196 13.1107 14.6459 13.3716C14.4722 13.6324 13.9728 14.2194 13.8208 14.3933C13.6688 14.5672 13.5167 14.589 13.2562 14.4585C12.9957 14.3281 12.156 14.0529 11.1607 13.1652C10.386 12.4742 9.86309 11.6209 9.71103 11.3599C9.55905 11.0991 9.69486 10.9581 9.82533 10.8282C9.94255 10.7114 10.0859 10.5238 10.2162 10.3716C10.3465 10.2195 10.3899 10.1107 10.4768 9.93695C10.5637 9.76301 10.5203 9.61082 10.4551 9.48043C10.3899 9.35 9.8688 8.06739 9.65168 7.54555C9.44009 7.03751 9.2253 7.10634 9.06532 7.09825C8.91355 7.09068 8.73961 7.08911 8.56591 7.08911C8.39222 7.08911 8.10986 7.15435 7.87105 7.41516C7.63221 7.67606 6.95898 8.30653 6.95898 9.58902C6.95898 10.8717 7.89273 12.1108 8.02303 12.2846C8.15329 12.4586 9.86051 15.0906 12.4745 16.2193C13.0962 16.4878 13.5816 16.6481 13.96 16.7682C14.5843 16.9666 15.1523 16.9385 15.6013 16.8714C16.102 16.7966 17.1431 16.2411 17.3602 15.6325C17.5774 15.0237 17.5774 14.5019 17.5122 14.3933C17.4471 14.2846 17.2733 14.2194 17.0128 14.0889Z" fill="#4A5759"/>
</svg>
